<?xml version="1.0" encoding="UTF-8"?>
<svg xmlns="http://www.w3.org/2000/svg" xmlns:xlink="http://www.w3.org/1999/xlink" width="18.91pt" height="18.91pt" viewBox="0 0 18.91 18.91" version="1.1">
<defs>
<clipPath id="clip1">
  <path d="M 0 7 L 13 7 L 13 18.910156 L 0 18.910156 Z M 0 7 "/>
</clipPath>
<clipPath id="clip2">
  <path d="M 6 0 L 18.910156 0 L 18.910156 12 L 6 12 Z M 6 0 "/>
</clipPath>
</defs>
<g id="surface1">
<g clip-path="url(#clip1)" clip-rule="nonzero">
<path style=" stroke:none;fill-rule:nonzero;fill:rgb(1.199341%,47.499084%,60.398865%);fill-opacity:1;" d="M 4.496094 11.070313 L 2.269531 13.296875 C 1.34375 14.222656 1.34375 15.71875 2.269531 16.640625 C 3.191406 17.5625 4.6875 17.5625 5.613281 16.640625 L 10.070313 12.183594 C 10.992188 11.257813 10.992188 9.761719 10.070313 8.839844 C 9.761719 8.535156 9.761719 8.035156 10.070313 7.726563 C 10.378906 7.417969 10.875 7.417969 11.183594 7.726563 C 12.722656 9.265625 12.722656 11.757813 11.183594 13.296875 L 6.726563 17.757813 C 5.1875 19.296875 2.691406 19.296875 1.15625 17.757813 C -0.386719 16.21875 -0.386719 13.722656 1.15625 12.183594 L 3.382813 9.957031 C 3.691406 9.648438 4.191406 9.648438 4.496094 9.957031 C 4.804688 10.261719 4.804688 10.761719 4.496094 11.070313 "/>
</g>
<g clip-path="url(#clip2)" clip-rule="nonzero">
<path style=" stroke:none;fill-rule:nonzero;fill:rgb(1.199341%,47.499084%,60.398865%);fill-opacity:1;" d="M 13.972656 8.28125 L 16.644531 5.609375 C 17.570313 4.683594 17.570313 3.1875 16.644531 2.265625 C 15.722656 1.34375 14.226563 1.34375 13.300781 2.265625 L 8.398438 7.167969 C 7.476563 8.09375 7.476563 9.589844 8.398438 10.511719 C 8.707031 10.820313 8.707031 11.316406 8.398438 11.625 C 8.089844 11.933594 7.59375 11.933594 7.285156 11.625 C 5.746094 10.089844 5.746094 7.59375 7.285156 6.054688 L 12.1875 1.152344 C 13.726563 -0.386719 16.222656 -0.386719 17.757813 1.152344 C 19.296875 2.6875 19.296875 5.183594 17.757813 6.722656 L 15.085938 9.398438 C 14.777344 9.707031 14.28125 9.707031 13.972656 9.398438 C 13.664063 9.089844 13.664063 8.589844 13.972656 8.28125 "/>
</g>
</g>
</svg>
