<?xml version="1.0" encoding="UTF-8"?>
<svg xmlns="http://www.w3.org/2000/svg" xmlns:xlink="http://www.w3.org/1999/xlink" width="24pt" height="23.85pt" viewBox="0 0 24 23.85" version="1.1">
<g id="surface1">
<path style=" stroke:none;fill-rule:nonzero;fill:rgb(0%,77.2995%,82.398987%);fill-opacity:1;" d="M 24 11.996094 C 24 5.367188 18.628906 -0.00390625 12 -0.00390625 C 5.375 -0.00390625 0 5.367188 0 11.996094 C 0 17.984375 4.386719 22.949219 10.125 23.851563 L 10.125 15.464844 L 7.078125 15.464844 L 7.078125 11.996094 L 10.125 11.996094 L 10.125 9.351563 C 10.125 6.34375 11.917969 4.683594 14.65625 4.683594 C 15.972656 4.683594 17.34375 4.917969 17.34375 4.917969 L 17.34375 7.871094 L 15.832031 7.871094 C 14.339844 7.871094 13.875 8.796875 13.875 9.746094 L 13.875 11.996094 L 17.203125 11.996094 L 16.671875 15.464844 L 13.875 15.464844 L 13.875 23.851563 C 19.613281 22.949219 24 17.984375 24 11.996094 "/>
</g>
</svg>
