<?xml version="1.0" encoding="UTF-8"?>
<svg xmlns="http://www.w3.org/2000/svg" xmlns:xlink="http://www.w3.org/1999/xlink" width="24pt" height="24pt" viewBox="0 0 24 24" version="1.1">
<g id="surface1">
<path style=" stroke:none;fill-rule:nonzero;fill:rgb(0%,77.2995%,82.398987%);fill-opacity:1;" d="M 12.058594 9.765625 C 10.832031 9.765625 9.835938 10.757813 9.835938 11.984375 C 9.835938 13.207031 10.832031 14.203125 12.058594 14.203125 C 13.28125 14.203125 14.277344 13.207031 14.277344 11.984375 C 14.277344 10.757813 13.28125 9.765625 12.058594 9.765625 "/>
<path style=" stroke:none;fill-rule:nonzero;fill:rgb(0%,77.2995%,82.398987%);fill-opacity:1;" d="M 15.722656 9.109375 C 15.269531 9.109375 14.898438 8.742188 14.898438 8.285156 C 14.898438 7.828125 15.269531 7.460938 15.722656 7.460938 C 16.179688 7.460938 16.550781 7.828125 16.550781 8.285156 C 16.550781 8.742188 16.179688 9.109375 15.722656 9.109375 M 12.058594 15.449219 C 10.148438 15.449219 8.59375 13.894531 8.59375 11.984375 C 8.59375 10.074219 10.148438 8.519531 12.058594 8.519531 C 13.96875 8.519531 15.523438 10.074219 15.523438 11.984375 C 15.523438 13.894531 13.96875 15.449219 12.058594 15.449219 M 14.808594 6.273438 L 9.191406 6.273438 C 7.589844 6.273438 6.289063 7.574219 6.289063 9.175781 L 6.289063 14.792969 C 6.289063 16.394531 7.589844 17.695313 9.191406 17.695313 L 14.808594 17.695313 C 16.410156 17.695313 17.710938 16.394531 17.710938 14.792969 L 17.710938 9.175781 C 17.710938 7.574219 16.410156 6.273438 14.808594 6.273438 "/>
<path style=" stroke:none;fill-rule:nonzero;fill:rgb(0%,77.2995%,82.398987%);fill-opacity:1;" d="M 19.035156 14.792969 C 19.035156 17.121094 17.140625 19.019531 14.808594 19.019531 L 9.191406 19.019531 C 6.863281 19.019531 4.964844 17.121094 4.964844 14.792969 L 4.964844 9.175781 C 4.964844 6.84375 6.863281 4.949219 9.191406 4.949219 L 14.808594 4.949219 C 17.140625 4.949219 19.035156 6.84375 19.035156 9.175781 Z M 12 0 C 5.371094 0 0 5.371094 0 12 C 0 18.628906 5.371094 24 12 24 C 18.628906 24 24 18.628906 24 12 C 24 5.371094 18.628906 0 12 0 "/>
</g>
</svg>
