<svg width="20" height="27" viewBox="0 0 20 27" fill="none" xmlns="http://www.w3.org/2000/svg">
<g clip-path="url(#clip0_1492_4209)">
<path d="M9.7053 26.3C9.55813 26.1555 9.33737 26.0111 9.1902 25.8667C6.7619 23.05 4.48077 20.0167 2.56756 16.8389C1.83171 15.6833 1.16945 14.4555 0.654353 13.1555C0.0656738 11.5667 -0.081496 9.97777 0.212844 8.31666C0.875108 4.92221 2.78832 2.46665 6.02605 1.09443C9.41096 -0.27779 12.6487 0.0833212 15.5921 2.17777C17.5789 3.62221 18.8298 5.57221 19.3449 7.95554C19.7864 9.97777 19.5657 12 18.6091 13.8778C17.5053 16.2611 16.0336 18.5 14.4883 20.5944C13.1638 22.4 11.7657 24.2055 10.294 25.9389C10.2204 26.0833 9.99964 26.1555 9.92605 26.2278C9.85247 26.3 9.77888 26.3 9.7053 26.3ZM9.77888 14.8167C12.5751 14.8167 14.8562 12.5778 14.8562 9.83332C14.8562 7.08888 12.6487 4.92221 9.85247 4.84999C7.05624 4.84999 4.77511 7.08888 4.77511 9.7611C4.70152 12.5778 6.98266 14.8167 9.77888 14.8167Z" fill="#FFFD00"/>
</g>
<defs>
<clipPath id="clip0_1492_4209">
<rect width="19.5" height="26" fill="white" transform="translate(0.0656738 0.299988)"/>
</clipPath>
</defs>
</svg>
