<?xml version="1.0" standalone="no"?>
<!DOCTYPE svg PUBLIC "-//W3C//DTD SVG 20010904//EN"
 "http://www.w3.org/TR/2001/REC-SVG-20010904/DTD/svg10.dtd">
<svg version="1.0" xmlns="http://www.w3.org/2000/svg"
 width="700.000000pt" height="700.000000pt" viewBox="0 0 700.000000 700.000000"
 preserveAspectRatio="xMidYMid meet">
<metadata>
Created by potrace 1.14, written by Peter Selinger 2001-2017
</metadata>
<g transform="translate(0.000000,700.000000) scale(0.100000,-0.100000)"
fill="#000000" stroke="none">
<path d="M3280 6994 c-19 -2 -84 -9 -145 -14 -496 -48 -1016 -223 -1448 -487
-269 -165 -470 -327 -702 -564 -546 -562 -879 -1272 -967 -2064 -17 -154 -17
-585 0 -730 82 -691 331 -1298 748 -1820 117 -146 340 -373 491 -500 534 -447
1160 -712 1878 -797 145 -17 576 -17 730 0 704 78 1351 354 1885 803 134 113
345 325 452 455 434 527 697 1152 780 1859 16 140 16 597 0 730 -84 691 -316
1263 -728 1795 -114 148 -446 480 -594 594 -520 402 -1102 642 -1750 722 -117
15 -553 27 -630 18z m609 -358 c591 -78 1119 -300 1581 -666 133 -105 392
-364 498 -497 367 -464 589 -991 669 -1588 23 -179 24 -590 0 -767 -80 -602
-301 -1126 -669 -1591 -106 -133 -365 -392 -498 -497 -475 -376 -1008 -596
-1630 -672 -153 -19 -563 -16 -722 5 -601 80 -1125 300 -1591 669 -132 105
-391 364 -497 498 -918 1157 -918 2781 0 3940 107 135 365 393 500 500 197
157 454 314 664 407 355 158 674 239 1096 277 91 8 489 -4 599 -18z"/>
<path d="M3360 5658 c-69 -3 -167 -14 -218 -22 -87 -16 -282 -63 -290 -71 -2
-2 24 -22 57 -45 446 -302 564 -899 267 -1344 -125 -187 -325 -332 -547 -397
-113 -33 -342 -38 -466 -10 -272 60 -502 232 -640 477 l-31 57 -17 -38 c-50
-121 -105 -342 -125 -509 -16 -130 -13 -412 5 -546 65 -472 281 -906 618
-1241 341 -339 762 -547 1247 -615 124 -17 410 -20 536 -4 482 59 936 280
1275 621 174 175 299 351 409 574 154 313 221 602 221 955 0 353 -67 643 -221
955 -213 435 -550 772 -985 985 -349 172 -691 240 -1095 218z"/>
</g>
</svg>
