<svg width="37" height="37" viewBox="0 0 37 37" fill="none" xmlns="http://www.w3.org/2000/svg">
<path d="M35.4375 33.6172L26.0156 24.1953C28.0547 21.7344 29.1797 18.5703 29.1797 15.125C29.1797 7.10938 22.5703 0.5 14.5547 0.5C6.46875 0.5 0 7.10938 0 15.125C0 23.2109 6.53906 29.75 14.5547 29.75C17.9297 29.75 21.0938 28.625 23.625 26.5859L33.0469 36.0078C33.3984 36.3594 33.8203 36.5 34.3125 36.5C34.7344 36.5 35.1562 36.3594 35.4375 36.0078C36.1406 35.375 36.1406 34.3203 35.4375 33.6172ZM3.375 15.125C3.375 8.9375 8.36719 3.875 14.625 3.875C20.8125 3.875 25.875 8.9375 25.875 15.125C25.875 21.3828 20.8125 26.375 14.625 26.375C8.36719 26.375 3.375 21.3828 3.375 15.125Z" fill="#037A9A"/>
</svg>
