<svg width="27" height="27" viewBox="0 0 27 27" fill="none" xmlns="http://www.w3.org/2000/svg">
<path d="M13.8159 26.1282C20.9956 26.1282 26.8159 20.3576 26.8159 13.2393C26.8159 6.12096 20.9956 0.350403 13.8159 0.350403C6.63622 0.350403 0.815918 6.12096 0.815918 13.2393C0.815918 20.3576 6.63622 26.1282 13.8159 26.1282Z" fill="#00CBD8"/>
<path d="M13.8159 21.4023C18.363 21.4023 22.0492 17.7476 22.0492 13.2393C22.0492 8.73104 18.363 5.07635 13.8159 5.07635C9.26871 5.07635 5.58252 8.73104 5.58252 13.2393C5.58252 17.7476 9.26871 21.4023 13.8159 21.4023Z" stroke="white" stroke-width="1.5" stroke-miterlimit="10"/>
<path d="M10.2407 14.9578V11.5208" stroke="white" stroke-width="1.5" stroke-miterlimit="10"/>
<path d="M13.8154 17.9652V8.51337" stroke="white" stroke-width="1.5" stroke-miterlimit="10"/>
<path d="M17.3906 16.1393V10.3393" stroke="white" stroke-width="1.5" stroke-miterlimit="10"/>
<path d="M23.4574 22.9059L19.2324 18.717" stroke="white" stroke-width="2" stroke-miterlimit="10"/>
</svg>
