<svg width="27" height="27" viewBox="0 0 27 27" fill="none" xmlns="http://www.w3.org/2000/svg">
<g clip-path="url(#clip0_1558_4117)">
<path d="M13.3447 26.5C20.5244 26.5 26.3447 20.6797 26.3447 13.5C26.3447 6.3203 20.5244 0.5 13.3447 0.5C6.16502 0.5 0.344727 6.3203 0.344727 13.5C0.344727 20.6797 6.16502 26.5 13.3447 26.5Z" fill="#00CBD8"/>
<path d="M16.5946 17.8334H10.0946C9.44456 17.8334 9.01123 17.4 9.01123 16.75V10.25C9.01123 9.60002 9.44456 9.16669 10.0946 9.16669H16.5946C17.2446 9.16669 17.6779 9.60002 17.6779 10.25V16.75C17.6779 17.4 17.2446 17.8334 16.5946 17.8334Z" fill="white"/>
</g>
<defs>
<clipPath id="clip0_1558_4117">
<rect width="26" height="26" fill="white" transform="translate(0.344727 0.5)"/>
</clipPath>
</defs>
</svg>
