<?xml version="1.0" encoding="UTF-8"?>
<svg xmlns="http://www.w3.org/2000/svg" xmlns:xlink="http://www.w3.org/1999/xlink" width="24pt" height="24pt" viewBox="0 0 24 24" version="1.1">
<g id="surface1">
<path style=" stroke:none;fill-rule:nonzero;fill:rgb(0%,77.2995%,82.398987%);fill-opacity:1;" d="M 18.769531 7.847656 C 18.769531 7.882813 18.769531 7.964844 18.699219 8.058594 C 18.390625 8.476563 18.054688 8.847656 17.640625 9.160156 C 17.582031 9.203125 17.476563 9.253906 17.476563 9.339844 C 17.476563 11.527344 16.917969 13.714844 15.324219 15.296875 C 13.292969 17.316406 10.242188 17.867188 7.539063 17.117188 C 7.015625 16.972656 6.511719 16.773438 6.03125 16.515625 C 5.875 16.429688 5.71875 16.339844 5.5625 16.238281 C 5.523438 16.207031 5.496094 16.175781 5.53125 16.15625 C 5.5625 16.140625 5.585938 16.140625 5.707031 16.15625 C 6.464844 16.230469 7.246094 16.117188 7.960938 15.867188 C 8.355469 15.730469 9.199219 15.453125 9.441406 15.082031 C 9.449219 15.074219 9.457031 15.074219 9.460938 15.066406 C 9.363281 15.042969 9.265625 15.042969 9.164063 15.027344 C 8.429688 14.816406 7.449219 14.445313 6.992188 13.207031 C 6.964844 13.136719 6.992188 13.097656 7.070313 13.113281 C 7.675781 13.160156 7.890625 13.125 8.101563 13.078125 C 7.984375 13.058594 7.863281 13.019531 7.75 12.972656 C 6.824219 12.621094 6.148438 11.71875 6.027344 10.742188 C 6.011719 10.625 6.003906 10.53125 6.007813 10.425781 C 6.015625 10.355469 6.046875 10.332031 6.109375 10.371094 C 6.585938 10.617188 7.121094 10.675781 7.164063 10.667969 C 7.046875 10.574219 6.9375 10.472656 6.828125 10.371094 C 6.027344 9.613281 5.714844 8.0625 6.355469 7.101563 C 6.410156 7.023438 6.445313 7.023438 6.507813 7.09375 C 7.976563 8.769531 9.785156 9.550781 11.96875 9.875 C 12.027344 9.882813 12.03125 9.875 12.023438 9.808594 C 11.96875 9.425781 11.960938 9.050781 12.050781 8.667969 C 12.148438 8.273438 12.335938 7.902344 12.59375 7.589844 C 12.839844 7.285156 13.148438 7.03125 13.496094 6.851563 C 13.84375 6.667969 14.226563 6.558594 14.617188 6.535156 C 15.015625 6.507813 15.425781 6.574219 15.796875 6.722656 C 16.082031 6.839844 16.332031 6.996094 16.566406 7.195313 C 16.617188 7.238281 16.660156 7.285156 16.707031 7.335938 C 16.734375 7.367188 16.769531 7.378906 16.816406 7.367188 C 17.371094 7.226563 17.898438 7.03125 18.402344 6.757813 C 18.425781 6.746094 18.445313 6.742188 18.476563 6.753906 C 18.496094 6.769531 18.488281 6.796875 18.476563 6.824219 C 18.386719 7.117188 18.226563 7.394531 18.03125 7.632813 C 17.90625 7.792969 17.589844 8.179688 17.375 8.21875 C 17.828125 8.140625 18.292969 8.027344 18.714844 7.835938 C 18.769531 7.8125 18.769531 7.800781 18.769531 7.835938 Z M 12 0 C 5.375 0 0 5.371094 0 12 C 0 18.628906 5.375 24 12 24 C 18.628906 24 24 18.628906 24 12 C 24 5.371094 18.628906 0 12 0 "/>
</g>
</svg>
