<?xml version="1.0" encoding="UTF-8"?>
<svg xmlns="http://www.w3.org/2000/svg" xmlns:xlink="http://www.w3.org/1999/xlink" width="24pt" height="24pt" viewBox="0 0 24 24" version="1.1">
<g id="surface1">
<path style=" stroke:none;fill-rule:nonzero;fill:rgb(0%,77.2995%,82.398987%);fill-opacity:1;" d="M 13.980469 11.886719 L 10.773438 10.140625 C 10.644531 10.066406 10.195313 10.160156 10.195313 10.3125 L 10.195313 13.710938 C 10.195313 13.859375 10.640625 13.957031 10.773438 13.886719 L 14.117188 12.230469 C 14.253906 12.15625 14.113281 11.960938 13.980469 11.886719 "/>
<path style=" stroke:none;fill-rule:nonzero;fill:rgb(0%,77.2995%,82.398987%);fill-opacity:1;" d="M 18.507813 13.707031 C 18.507813 15.316406 17.199219 16.625 15.589844 16.625 L 8.125 16.625 C 6.511719 16.625 5.207031 15.316406 5.207031 13.707031 L 5.207031 10.230469 C 5.207031 8.621094 6.511719 7.3125 8.125 7.3125 L 15.589844 7.3125 C 17.199219 7.3125 18.507813 8.621094 18.507813 10.230469 Z M 12 0 C 5.371094 0 0 5.371094 0 12 C 0 18.628906 5.371094 24 12 24 C 18.628906 24 24 18.628906 24 12 C 24 5.371094 18.628906 0 12 0 "/>
</g>
</svg>
