<svg width="160" height="48" viewBox="0 0 160 48" fill="none" xmlns="http://www.w3.org/2000/svg">
<g clip-path="url(#clip0_7_502)">
<path d="M31.4541 24.0459C31.4541 23.8625 31.4541 23.6792 31.4541 23.4959C31.4541 23.2209 31.4541 22.9459 31.5458 22.6709C31.6374 22.3042 31.6374 21.9375 31.7291 21.5709C31.8208 21.2959 31.9124 20.9292 32.0041 20.6542C32.0041 20.6542 32.0041 20.6542 32.0041 20.5625C32.3708 20.7459 32.7374 20.8375 33.1041 21.0209C32.4624 22.9459 32.3708 24.8709 32.9208 26.8875C33.2874 28.2625 34.0208 29.5459 34.9374 30.6459C35.9458 31.7459 37.0458 32.6625 38.4208 33.3042C42.5458 35.1375 47.4041 33.9459 50.2458 30.2792C52.9958 26.7042 52.9958 21.6625 50.2458 18.0875C47.3124 14.4209 42.9124 13.6875 39.7041 14.6959C40.0708 15.7042 40.3458 16.6209 40.7124 17.6292C40.7124 17.6292 40.7124 17.6292 40.8041 17.6292C41.0791 17.5375 41.3541 17.5375 41.6291 17.4459C41.8124 17.4459 42.0874 17.3542 42.3624 17.3542C42.5458 17.3542 42.8208 17.3542 43.0041 17.3542C43.3708 17.3542 43.7374 17.4459 44.1041 17.5375C45.2041 17.8125 46.1208 18.3625 47.0374 19.0959C47.8624 19.8292 48.5041 20.8375 48.8708 21.9375C49.0541 22.3959 49.1458 22.7625 49.1458 23.2209C49.1458 23.4959 49.2374 23.7709 49.2374 24.0459C49.2374 24.3209 49.2374 24.6875 49.2374 24.9625C49.1458 25.6959 48.9624 26.4292 48.5958 27.0709C48.3208 27.7125 47.8624 28.2625 47.4041 28.8125C46.4874 29.8209 45.3874 30.4625 44.1041 30.7375C43.7374 30.9209 43.3708 31.0125 43.0041 31.0125C42.7291 31.0125 42.5458 31.0125 42.2708 31.0125C41.3541 31.0125 40.4374 30.7375 39.5208 30.3709C38.8791 30.0959 38.2374 29.6375 37.6874 29.1792C36.7708 28.2625 36.1291 27.1625 35.7624 25.8792C35.6708 25.6042 35.6708 25.2375 35.5791 24.9625C35.5791 24.5959 35.4874 24.2292 35.5791 23.8625C35.5791 23.2209 35.7624 22.6709 35.9458 22.1209C35.9458 22.1209 35.9458 22.1209 35.9458 22.0292C37.8708 22.6709 39.8874 23.4042 41.8124 24.0459C41.8124 24.0459 41.3541 22.6709 41.0791 21.8459C40.8041 21.1125 40.6208 20.3792 40.3458 19.6459C40.1624 18.8209 39.8874 18.0875 39.7041 17.3542C39.4291 16.6209 39.1541 15.8875 38.8791 15.1542C38.6958 14.4209 38.4208 13.6875 38.1458 12.9542C38.4208 12.8625 38.6958 12.7709 39.0624 12.6792C39.1541 13.0459 39.2458 13.3209 39.4291 13.6875C39.4291 13.6875 39.4291 13.6875 39.5208 13.6875C39.8874 13.5959 40.2541 13.5042 40.7124 13.4125C40.9874 13.3209 41.2624 13.3209 41.5374 13.3209C41.8124 13.3209 42.0874 13.3209 42.4541 13.2292C42.8208 13.2292 43.1874 13.2292 43.6458 13.2292C44.9291 13.3209 46.2124 13.6875 47.4041 14.2375C48.4124 14.6959 49.3291 15.3375 50.1541 16.1625C50.7958 16.7125 51.3458 17.3542 51.8041 18.0875C52.3541 18.8209 52.7208 19.6459 52.9958 20.5625C53.1791 21.1125 53.3624 21.7542 53.4541 22.3959C53.5458 22.7625 53.5458 23.0375 53.5458 23.4042C53.5458 23.5875 53.5458 23.7709 53.5458 23.9542C53.5458 23.9542 53.5458 23.9542 53.5458 24.0459C53.5458 24.1375 53.5458 24.3209 53.5458 24.4125C53.5458 24.4125 53.5458 24.4125 53.5458 24.5042C53.5458 24.7792 53.5458 25.1459 53.4541 25.4209C53.4541 25.7875 53.3624 26.1542 53.2708 26.5209C53.0874 27.5292 52.7208 28.4459 52.2624 29.3625C51.6208 30.4625 50.8874 31.5625 49.9708 32.3875C49.1458 33.1209 48.2291 33.7625 47.3124 34.2209C46.5791 34.5875 45.8458 34.8625 45.0208 35.0459C44.6541 35.1375 44.1958 35.2292 43.8291 35.2292C43.5541 35.2292 43.2791 35.2292 43.0041 35.3209H42.9124C42.6374 35.3209 42.3624 35.3209 42.0874 35.3209C41.7208 35.3209 41.4458 35.3209 41.0791 35.2292C40.6208 35.1375 40.2541 35.0459 39.7958 34.9542C38.9708 34.7709 38.1458 34.4042 37.3208 33.9459C36.2208 33.3959 35.3041 32.5709 34.4791 31.7459C33.6541 30.9209 33.1041 30.0959 32.6458 29.1792C32.2791 28.4459 32.0041 27.8042 31.8208 26.9792C31.7291 26.5209 31.6374 26.1542 31.5458 25.6959C31.5458 25.4209 31.4541 25.1459 31.4541 24.7792C31.4541 24.5959 31.4541 24.4125 31.4541 24.2292C31.4541 24.2292 31.4541 24.1375 31.4541 24.0459Z" fill="#07294C"/>
</g>
<path d="M74.4891 21.6477H72.7164C72.6482 21.2689 72.5213 20.9356 72.3357 20.6477C72.1501 20.3598 71.9228 20.1155 71.6539 19.9148C71.3849 19.714 71.0838 19.5625 70.7504 19.4602C70.4209 19.358 70.0705 19.3068 69.6993 19.3068C69.0289 19.3068 68.4285 19.4754 67.8982 19.8125C67.3717 20.1496 66.955 20.6439 66.6482 21.2955C66.3451 21.947 66.1936 22.7424 66.1936 23.6818C66.1936 24.6288 66.3451 25.428 66.6482 26.0795C66.955 26.7311 67.3735 27.2235 67.9039 27.5568C68.4342 27.8902 69.0307 28.0568 69.6936 28.0568C70.0611 28.0568 70.4095 28.0076 70.7391 27.9091C71.0724 27.8068 71.3736 27.6572 71.6425 27.4602C71.9114 27.2633 72.1387 27.0227 72.3243 26.7386C72.5137 26.4508 72.6444 26.1212 72.7164 25.75L74.4891 25.7557C74.3944 26.3277 74.2107 26.8542 73.9379 27.3352C73.669 27.8125 73.3224 28.2254 72.8982 28.5739C72.4777 28.9186 71.9967 29.1856 71.455 29.375C70.9133 29.5644 70.3224 29.6591 69.6823 29.6591C68.6747 29.6591 67.777 29.4205 66.9891 28.9432C66.2012 28.4621 65.58 27.7746 65.1254 26.8807C64.6747 25.9867 64.4493 24.9205 64.4493 23.6818C64.4493 22.4394 64.6766 21.3731 65.1311 20.483C65.5857 19.589 66.2069 18.9034 66.9948 18.4261C67.7826 17.9451 68.6785 17.7045 69.6823 17.7045C70.2997 17.7045 70.8754 17.7936 71.4095 17.9716C71.9474 18.1458 72.4304 18.4034 72.8584 18.7443C73.2864 19.0814 73.6406 19.4943 73.9209 19.983C74.2012 20.4678 74.3906 21.0227 74.4891 21.6477ZM81.982 25.8807V20.7727H83.6865V29.5H82.0161V27.9886H81.9252C81.7244 28.4545 81.4024 28.8428 80.9593 29.1534C80.5199 29.4602 79.9725 29.6136 79.3172 29.6136C78.7566 29.6136 78.2604 29.4905 77.8286 29.2443C77.4005 28.9943 77.0634 28.625 76.8172 28.1364C76.5748 27.6477 76.4536 27.0436 76.4536 26.3239V20.7727H78.1524V26.1193C78.1524 26.714 78.3172 27.1875 78.6468 27.5398C78.9763 27.892 79.4043 28.0682 79.9308 28.0682C80.249 28.0682 80.5653 27.9886 80.8797 27.8295C81.1979 27.6705 81.4611 27.4299 81.6695 27.108C81.8816 26.786 81.9858 26.3769 81.982 25.8807ZM86.1056 29.5V17.8636H90.2533C91.1548 17.8636 91.9029 18.0189 92.4976 18.3295C93.0961 18.6402 93.5431 19.0701 93.8385 19.6193C94.134 20.1648 94.2817 20.7955 94.2817 21.5114C94.2817 22.2235 94.1321 22.8504 93.8328 23.392C93.5374 23.9299 93.0904 24.3485 92.4919 24.6477C91.8972 24.947 91.1491 25.0966 90.2476 25.0966H87.1056V23.5852H90.0885C90.6567 23.5852 91.1188 23.5038 91.4749 23.3409C91.8347 23.178 92.098 22.9413 92.2646 22.6307C92.4313 22.3201 92.5146 21.947 92.5146 21.5114C92.5146 21.072 92.4294 20.6913 92.259 20.3693C92.0923 20.0473 91.829 19.8011 91.4692 19.6307C91.1131 19.4564 90.6453 19.3693 90.0658 19.3693H87.8612V29.5H86.1056ZM91.8499 24.25L94.7249 29.5H92.7249L89.9067 24.25H91.8499ZM98.8215 29.6932C98.2684 29.6932 97.7684 29.5909 97.3215 29.3864C96.8745 29.178 96.5203 28.8769 96.259 28.483C96.0014 28.089 95.8726 27.6061 95.8726 27.0341C95.8726 26.5417 95.9673 26.1364 96.1567 25.8182C96.3461 25.5 96.6018 25.2481 96.9237 25.0625C97.2457 24.8769 97.6056 24.7367 98.0033 24.642C98.401 24.5473 98.8063 24.4754 99.2192 24.4261C99.7419 24.3655 100.166 24.3163 100.492 24.2784C100.818 24.2367 101.054 24.1705 101.202 24.0795C101.35 23.9886 101.424 23.8409 101.424 23.6364V23.5966C101.424 23.1004 101.284 22.7159 101.003 22.4432C100.727 22.1705 100.314 22.0341 99.7646 22.0341C99.1927 22.0341 98.7419 22.161 98.4124 22.4148C98.0866 22.6648 97.8612 22.9432 97.7362 23.25L96.1396 22.8864C96.329 22.3561 96.6056 21.928 96.9692 21.6023C97.3366 21.2727 97.759 21.0341 98.2362 20.8864C98.7135 20.7348 99.2154 20.6591 99.7419 20.6591C100.09 20.6591 100.46 20.7008 100.85 20.7841C101.244 20.8636 101.611 21.0114 101.952 21.2273C102.297 21.4432 102.579 21.7519 102.799 22.1534C103.018 22.5511 103.128 23.0682 103.128 23.7045V29.5H101.469V28.3068H101.401C101.291 28.5265 101.126 28.7424 100.907 28.9545C100.687 29.1667 100.405 29.3428 100.06 29.483C99.7154 29.6231 99.3025 29.6932 98.8215 29.6932ZM99.1908 28.3295C99.6605 28.3295 100.062 28.2367 100.395 28.0511C100.732 27.8655 100.988 27.6231 101.162 27.3239C101.34 27.0208 101.429 26.697 101.429 26.3523V25.2273C101.369 25.2879 101.251 25.3447 101.077 25.3977C100.907 25.447 100.712 25.4905 100.492 25.5284C100.272 25.5625 100.058 25.5947 99.8499 25.625C99.6415 25.6515 99.4673 25.6742 99.3271 25.6932C98.9976 25.7348 98.6965 25.8049 98.4237 25.9034C98.1548 26.0019 97.9389 26.1439 97.776 26.3295C97.6169 26.5114 97.5374 26.7538 97.5374 27.0568C97.5374 27.4773 97.6927 27.7955 98.0033 28.0114C98.3139 28.2235 98.7097 28.3295 99.1908 28.3295ZM108.658 29.6705C107.954 29.6705 107.325 29.4905 106.772 29.1307C106.223 28.767 105.791 28.25 105.476 27.5795C105.166 26.9053 105.01 26.0966 105.01 25.1534C105.01 24.2102 105.168 23.4034 105.482 22.733C105.8 22.0625 106.236 21.5492 106.789 21.1932C107.342 20.8371 107.969 20.6591 108.669 20.6591C109.211 20.6591 109.647 20.75 109.976 20.9318C110.31 21.1098 110.567 21.3182 110.749 21.5568C110.935 21.7955 111.079 22.0057 111.181 22.1875H111.283V17.8636H112.982V29.5H111.323V28.142H111.181C111.079 28.3277 110.931 28.5398 110.738 28.7784C110.548 29.017 110.287 29.2254 109.954 29.4034C109.62 29.5814 109.188 29.6705 108.658 29.6705ZM109.033 28.2216C109.522 28.2216 109.935 28.0928 110.272 27.8352C110.613 27.5739 110.87 27.2121 111.044 26.75C111.223 26.2879 111.312 25.75 111.312 25.1364C111.312 24.5303 111.224 24 111.05 23.5455C110.876 23.0909 110.62 22.7367 110.283 22.483C109.946 22.2292 109.529 22.1023 109.033 22.1023C108.522 22.1023 108.096 22.2348 107.755 22.5C107.414 22.7652 107.156 23.1269 106.982 23.5852C106.812 24.0436 106.726 24.5606 106.726 25.1364C106.726 25.7197 106.813 26.2443 106.988 26.7102C107.162 27.1761 107.419 27.5455 107.76 27.8182C108.105 28.0871 108.529 28.2216 109.033 28.2216ZM115.407 29.5V20.7727H117.106V29.5H115.407ZM116.265 19.4261C115.969 19.4261 115.715 19.3277 115.503 19.1307C115.295 18.9299 115.191 18.6913 115.191 18.4148C115.191 18.1345 115.295 17.8958 115.503 17.6989C115.715 17.4981 115.969 17.3977 116.265 17.3977C116.56 17.3977 116.812 17.4981 117.02 17.6989C117.232 17.8958 117.339 18.1345 117.339 18.4148C117.339 18.6913 117.232 18.9299 117.02 19.1307C116.812 19.3277 116.56 19.4261 116.265 19.4261ZM123.067 29.6761C122.249 29.6761 121.535 29.4886 120.925 29.1136C120.315 28.7386 119.842 28.214 119.505 27.5398C119.168 26.8655 118.999 26.0777 118.999 25.1761C118.999 24.2708 119.168 23.4792 119.505 22.8011C119.842 22.1231 120.315 21.5966 120.925 21.2216C121.535 20.8466 122.249 20.6591 123.067 20.6591C123.885 20.6591 124.599 20.8466 125.209 21.2216C125.819 21.5966 126.293 22.1231 126.63 22.8011C126.967 23.4792 127.135 24.2708 127.135 25.1761C127.135 26.0777 126.967 26.8655 126.63 27.5398C126.293 28.214 125.819 28.7386 125.209 29.1136C124.599 29.4886 123.885 29.6761 123.067 29.6761ZM123.073 28.25C123.603 28.25 124.043 28.1098 124.391 27.8295C124.74 27.5492 124.997 27.1761 125.164 26.7102C125.334 26.2443 125.419 25.7311 125.419 25.1705C125.419 24.6136 125.334 24.1023 125.164 23.6364C124.997 23.1667 124.74 22.7898 124.391 22.5057C124.043 22.2216 123.603 22.0795 123.073 22.0795C122.539 22.0795 122.096 22.2216 121.743 22.5057C121.395 22.7898 121.135 23.1667 120.965 23.6364C120.798 24.1023 120.715 24.6136 120.715 25.1705C120.715 25.7311 120.798 26.2443 120.965 26.7102C121.135 27.1761 121.395 27.5492 121.743 27.8295C122.096 28.1098 122.539 28.25 123.073 28.25Z" fill="#07294C"/>
<rect x="0.6" y="0.6" width="158.8" height="46.8" rx="11.4" stroke="#07294C" stroke-width="1.2"/>
<defs>
<clipPath id="clip0_7_502">
<rect width="22.0917" height="22.6417" fill="white" transform="translate(31.4541 12.6792)"/>
</clipPath>
</defs>
</svg>
