<svg width="161" height="48" viewBox="0 0 161 48" fill="none" xmlns="http://www.w3.org/2000/svg">
<g clip-path="url(#clip0_7_501)">
<path d="M45.5 14.1C51 14.1 55.4 18.5 55.4 24C55.4 29.5 51 33.9 45.5 33.9C40 33.9 35.6 29.5 35.6 24C35.6 18.5 40 14.1 45.5 14.1ZM45.5 13C39.45 13 34.5 17.95 34.5 24C34.5 30.05 39.45 35 45.5 35C51.55 35 56.5 30.05 56.5 24C56.5 17.95 51.55 13 45.5 13Z" fill="#07294C"/>
<path d="M43.3 17.4917C44.0333 17.2167 44.7667 17.125 45.5 17.125C49.2583 17.125 52.375 20.2417 52.375 24C52.375 27.7583 49.2583 30.875 45.5 30.875C41.7417 30.875 38.625 27.7583 38.625 24C38.625 23.175 38.7167 22.4417 38.9917 21.8L45.5 24L43.3 17.4917ZM56.4083 24H53.8417C53.8417 28.5833 50.0833 32.3417 45.5 32.3417V34.9083C51.55 34.9083 56.4083 30.05 56.4083 24Z" fill="#07294C"/>
</g>
<path d="M77.4432 21.6477H75.6705C75.6023 21.2689 75.4754 20.9356 75.2898 20.6477C75.1042 20.3598 74.8769 20.1155 74.608 19.9148C74.339 19.714 74.0379 19.5625 73.7045 19.4602C73.375 19.358 73.0246 19.3068 72.6534 19.3068C71.983 19.3068 71.3826 19.4754 70.8523 19.8125C70.3258 20.1496 69.9091 20.6439 69.6023 21.2955C69.2992 21.947 69.1477 22.7424 69.1477 23.6818C69.1477 24.6288 69.2992 25.428 69.6023 26.0795C69.9091 26.7311 70.3277 27.2235 70.858 27.5568C71.3883 27.8902 71.9848 28.0568 72.6477 28.0568C73.0152 28.0568 73.3636 28.0076 73.6932 27.9091C74.0265 27.8068 74.3277 27.6572 74.5966 27.4602C74.8655 27.2633 75.0928 27.0227 75.2784 26.7386C75.4678 26.4508 75.5985 26.1212 75.6705 25.75L77.4432 25.7557C77.3485 26.3277 77.1648 26.8542 76.892 27.3352C76.6231 27.8125 76.2765 28.2254 75.8523 28.5739C75.4318 28.9186 74.9508 29.1856 74.4091 29.375C73.8674 29.5644 73.2765 29.6591 72.6364 29.6591C71.6288 29.6591 70.7311 29.4205 69.9432 28.9432C69.1553 28.4621 68.5341 27.7746 68.0795 26.8807C67.6288 25.9867 67.4034 24.9205 67.4034 23.6818C67.4034 22.4394 67.6307 21.3731 68.0852 20.483C68.5398 19.589 69.161 18.9034 69.9489 18.4261C70.7367 17.9451 71.6326 17.7045 72.6364 17.7045C73.2538 17.7045 73.8295 17.7936 74.3636 17.9716C74.9015 18.1458 75.3845 18.4034 75.8125 18.7443C76.2405 19.0814 76.5947 19.4943 76.875 19.983C77.1553 20.4678 77.3447 21.0227 77.4432 21.6477ZM84.9361 25.8807V20.7727H86.6406V29.5H84.9702V27.9886H84.8793C84.6785 28.4545 84.3565 28.8428 83.9134 29.1534C83.474 29.4602 82.9266 29.6136 82.2713 29.6136C81.7107 29.6136 81.2145 29.4905 80.7827 29.2443C80.3546 28.9943 80.0175 28.625 79.7713 28.1364C79.5289 27.6477 79.4077 27.0436 79.4077 26.3239V20.7727H81.1065V26.1193C81.1065 26.714 81.2713 27.1875 81.6009 27.5398C81.9304 27.892 82.3584 28.0682 82.8849 28.0682C83.2031 28.0682 83.5194 27.9886 83.8338 27.8295C84.152 27.6705 84.4152 27.4299 84.6236 27.108C84.8357 26.786 84.9399 26.3769 84.9361 25.8807ZM90.0767 17.8636L93.3153 27.3409H93.446L96.6847 17.8636H98.5824L94.3949 29.5H92.3665L88.179 17.8636H90.0767ZM100.126 29.5V20.7727H101.825V29.5H100.126ZM100.984 19.4261C100.689 19.4261 100.435 19.3277 100.223 19.1307C100.015 18.9299 99.9105 18.6913 99.9105 18.4148C99.9105 18.1345 100.015 17.8958 100.223 17.6989C100.435 17.4981 100.689 17.3977 100.984 17.3977C101.28 17.3977 101.532 17.4981 101.74 17.6989C101.952 17.8958 102.058 18.1345 102.058 18.4148C102.058 18.6913 101.952 18.9299 101.74 19.1307C101.532 19.3277 101.28 19.4261 100.984 19.4261ZM107.872 29.6761C107.012 29.6761 106.272 29.4924 105.651 29.125C105.033 28.7538 104.556 28.233 104.219 27.5625C103.885 26.8883 103.719 26.0985 103.719 25.1932C103.719 24.2992 103.885 23.5114 104.219 22.8295C104.556 22.1477 105.026 21.6155 105.628 21.233C106.234 20.8504 106.942 20.6591 107.753 20.6591C108.245 20.6591 108.723 20.7405 109.185 20.9034C109.647 21.0663 110.062 21.322 110.429 21.6705C110.796 22.0189 111.086 22.4716 111.298 23.0284C111.51 23.5814 111.616 24.2538 111.616 25.0455V25.6477H104.679V24.375H109.952C109.952 23.928 109.861 23.5322 109.679 23.1875C109.497 22.839 109.241 22.5644 108.912 22.3636C108.586 22.1629 108.204 22.0625 107.764 22.0625C107.287 22.0625 106.87 22.1799 106.514 22.4148C106.162 22.6458 105.889 22.9489 105.696 23.3239C105.507 23.6951 105.412 24.0985 105.412 24.5341V25.5284C105.412 26.1117 105.514 26.608 105.719 27.017C105.927 27.4261 106.217 27.7386 106.588 27.9545C106.959 28.1667 107.393 28.2727 107.889 28.2727C108.211 28.2727 108.505 28.2273 108.77 28.1364C109.035 28.0417 109.264 27.9015 109.457 27.7159C109.651 27.5303 109.798 27.3011 109.901 27.0284L111.509 27.3182C111.38 27.7917 111.149 28.2064 110.815 28.5625C110.486 28.9148 110.071 29.1894 109.571 29.3864C109.075 29.5795 108.509 29.6761 107.872 29.6761ZM115.378 29.5L112.81 20.7727H114.565L116.276 27.1818H116.361L118.077 20.7727H119.832L121.537 27.1534H121.622L123.321 20.7727H125.077L122.514 29.5H120.781L119.009 23.1989H118.878L117.105 29.5H115.378Z" fill="#07294C"/>
<rect x="1.1" y="0.6" width="158.8" height="46.8" rx="11.4" stroke="#07294C" stroke-width="1.2"/>
<defs>
<clipPath id="clip0_7_501">
<rect width="22" height="22" fill="white" transform="translate(34.5 13)"/>
</clipPath>
</defs>
</svg>
