<svg width="161" height="48" viewBox="0 0 161 48" fill="none" xmlns="http://www.w3.org/2000/svg">
<g clip-path="url(#clip0_7_343)">
<path d="M38 14.1C43.5 14.1 47.9 18.5 47.9 24C47.9 29.5 43.5 33.9 38 33.9C32.5 33.9 28.1 29.5 28.1 24C28.1 18.5 32.5 14.1 38 14.1ZM38 13C31.95 13 27 17.95 27 24C27 30.05 31.95 35 38 35C44.05 35 49 30.05 49 24C49 17.95 44.05 13 38 13Z" fill="#07294C"/>
<path d="M37.3584 17.125V17.3083C37.3584 19.5083 37.3584 21.7083 37.3584 23.8167C37.3584 24.0917 37.4501 24.275 37.6334 24.4583C39.1917 26.0167 40.7501 27.575 42.3084 29.1333C42.3084 29.1333 42.4001 29.225 42.4917 29.225C40.3834 31.0583 37.0834 31.5167 34.3334 29.775C31.5834 28.0333 30.4834 24.7333 31.5834 21.7083C32.0417 20.15 32.9584 19.05 34.3334 18.1333C35.2501 17.5833 36.2584 17.2167 37.3584 17.125ZM44.8751 23.3583C44.7834 22.075 44.1417 20.15 42.5834 18.775C41.4834 17.8583 40.2001 17.3083 38.7334 17.125V23.3583H44.8751ZM39.5584 24.6417C40.8417 25.925 42.0334 27.1167 43.3167 28.4C44.2334 27.3 44.6917 26.1083 44.8751 24.6417H39.5584Z" fill="#07294C"/>
</g>
<path d="M69.9432 21.6477H68.1705C68.1023 21.2689 67.9754 20.9356 67.7898 20.6477C67.6042 20.3598 67.3769 20.1155 67.108 19.9148C66.839 19.714 66.5379 19.5625 66.2045 19.4602C65.875 19.358 65.5246 19.3068 65.1534 19.3068C64.483 19.3068 63.8826 19.4754 63.3523 19.8125C62.8258 20.1496 62.4091 20.6439 62.1023 21.2955C61.7992 21.947 61.6477 22.7424 61.6477 23.6818C61.6477 24.6288 61.7992 25.428 62.1023 26.0795C62.4091 26.7311 62.8277 27.2235 63.358 27.5568C63.8883 27.8902 64.4848 28.0568 65.1477 28.0568C65.5152 28.0568 65.8636 28.0076 66.1932 27.9091C66.5265 27.8068 66.8277 27.6572 67.0966 27.4602C67.3655 27.2633 67.5928 27.0227 67.7784 26.7386C67.9678 26.4508 68.0985 26.1212 68.1705 25.75L69.9432 25.7557C69.8485 26.3277 69.6648 26.8542 69.392 27.3352C69.1231 27.8125 68.7765 28.2254 68.3523 28.5739C67.9318 28.9186 67.4508 29.1856 66.9091 29.375C66.3674 29.5644 65.7765 29.6591 65.1364 29.6591C64.1288 29.6591 63.2311 29.4205 62.4432 28.9432C61.6553 28.4621 61.0341 27.7746 60.5795 26.8807C60.1288 25.9867 59.9034 24.9205 59.9034 23.6818C59.9034 22.4394 60.1307 21.3731 60.5852 20.483C61.0398 19.589 61.661 18.9034 62.4489 18.4261C63.2367 17.9451 64.1326 17.7045 65.1364 17.7045C65.7538 17.7045 66.3295 17.7936 66.8636 17.9716C67.4015 18.1458 67.8845 18.4034 68.3125 18.7443C68.7405 19.0814 69.0947 19.4943 69.375 19.983C69.6553 20.4678 69.8447 21.0227 69.9432 21.6477ZM77.4361 25.8807V20.7727H79.1406V29.5H77.4702V27.9886H77.3793C77.1785 28.4545 76.8565 28.8428 76.4134 29.1534C75.974 29.4602 75.4266 29.6136 74.7713 29.6136C74.2107 29.6136 73.7145 29.4905 73.2827 29.2443C72.8546 28.9943 72.5175 28.625 72.2713 28.1364C72.0289 27.6477 71.9077 27.0436 71.9077 26.3239V20.7727H73.6065V26.1193C73.6065 26.714 73.7713 27.1875 74.1009 27.5398C74.4304 27.892 74.8584 28.0682 75.3849 28.0682C75.7031 28.0682 76.0194 27.9886 76.3338 27.8295C76.652 27.6705 76.9152 27.4299 77.1236 27.108C77.3357 26.786 77.4399 26.3769 77.4361 25.8807ZM81.5597 17.8636H83.6903L87.3949 26.9091H87.5312L91.2358 17.8636H93.3665V29.5H91.696V21.0795H91.5881L88.1562 29.483H86.7699L83.3381 21.0739H83.2301V29.5H81.5597V17.8636ZM98.3224 29.6932C97.7694 29.6932 97.2694 29.5909 96.8224 29.3864C96.3755 29.178 96.0213 28.8769 95.7599 28.483C95.5024 28.089 95.3736 27.6061 95.3736 27.0341C95.3736 26.5417 95.4683 26.1364 95.6577 25.8182C95.8471 25.5 96.1027 25.2481 96.4247 25.0625C96.7467 24.8769 97.1065 24.7367 97.5043 24.642C97.902 24.5473 98.3073 24.4754 98.7202 24.4261C99.2429 24.3655 99.6671 24.3163 99.9929 24.2784C100.319 24.2367 100.555 24.1705 100.703 24.0795C100.851 23.9886 100.925 23.8409 100.925 23.6364V23.5966C100.925 23.1004 100.785 22.7159 100.504 22.4432C100.228 22.1705 99.8149 22.0341 99.2656 22.0341C98.6937 22.0341 98.2429 22.161 97.9134 22.4148C97.5876 22.6648 97.3622 22.9432 97.2372 23.25L95.6406 22.8864C95.83 22.3561 96.1065 21.928 96.4702 21.6023C96.8376 21.2727 97.2599 21.0341 97.7372 20.8864C98.2145 20.7348 98.7164 20.6591 99.2429 20.6591C99.5914 20.6591 99.9607 20.7008 100.351 20.7841C100.745 20.8636 101.112 21.0114 101.453 21.2273C101.798 21.4432 102.08 21.7519 102.3 22.1534C102.519 22.5511 102.629 23.0682 102.629 23.7045V29.5H100.97V28.3068H100.902C100.792 28.5265 100.627 28.7424 100.408 28.9545C100.188 29.1667 99.9058 29.3428 99.5611 29.483C99.2164 29.6231 98.8035 29.6932 98.3224 29.6932ZM98.6918 28.3295C99.1615 28.3295 99.563 28.2367 99.8963 28.0511C100.233 27.8655 100.489 27.6231 100.663 27.3239C100.841 27.0208 100.93 26.697 100.93 26.3523V25.2273C100.87 25.2879 100.752 25.3447 100.578 25.3977C100.408 25.447 100.213 25.4905 99.9929 25.5284C99.7732 25.5625 99.5592 25.5947 99.3509 25.625C99.1425 25.6515 98.9683 25.6742 98.8281 25.6932C98.4986 25.7348 98.1974 25.8049 97.9247 25.9034C97.6558 26.0019 97.4399 26.1439 97.277 26.3295C97.1179 26.5114 97.0384 26.7538 97.0384 27.0568C97.0384 27.4773 97.1937 27.7955 97.5043 28.0114C97.8149 28.2235 98.2107 28.3295 98.6918 28.3295ZM104.892 29.5V20.7727H106.534V22.1591H106.625C106.784 21.6894 107.064 21.3201 107.466 21.0511C107.871 20.7784 108.33 20.642 108.841 20.642C108.947 20.642 109.072 20.6458 109.216 20.6534C109.364 20.661 109.479 20.6705 109.562 20.6818V22.3068C109.494 22.2879 109.373 22.267 109.199 22.2443C109.025 22.2178 108.85 22.2045 108.676 22.2045C108.275 22.2045 107.917 22.2898 107.602 22.4602C107.292 22.6269 107.045 22.8598 106.864 23.1591C106.682 23.4545 106.591 23.7917 106.591 24.1705V29.5H104.892ZM112.595 26.5398L112.584 24.4659H112.879L116.357 20.7727H118.391L114.425 24.9773H114.158L112.595 26.5398ZM111.033 29.5V17.8636H112.732V29.5H111.033ZM116.544 29.5L113.419 25.3523L114.589 24.1648L118.629 29.5H116.544ZM123.341 29.6761C122.481 29.6761 121.741 29.4924 121.119 29.125C120.502 28.7538 120.025 28.233 119.688 27.5625C119.354 26.8883 119.188 26.0985 119.188 25.1932C119.188 24.2992 119.354 23.5114 119.688 22.8295C120.025 22.1477 120.494 21.6155 121.097 21.233C121.703 20.8504 122.411 20.6591 123.222 20.6591C123.714 20.6591 124.191 20.7405 124.653 20.9034C125.116 21.0663 125.53 21.322 125.898 21.6705C126.265 22.0189 126.555 22.4716 126.767 23.0284C126.979 23.5814 127.085 24.2538 127.085 25.0455V25.6477H120.148V24.375H125.42C125.42 23.928 125.33 23.5322 125.148 23.1875C124.966 22.839 124.71 22.5644 124.381 22.3636C124.055 22.1629 123.672 22.0625 123.233 22.0625C122.756 22.0625 122.339 22.1799 121.983 22.4148C121.631 22.6458 121.358 22.9489 121.165 23.3239C120.975 23.6951 120.881 24.0985 120.881 24.5341V25.5284C120.881 26.1117 120.983 26.608 121.188 27.017C121.396 27.4261 121.686 27.7386 122.057 27.9545C122.428 28.1667 122.862 28.2727 123.358 28.2727C123.68 28.2727 123.973 28.2273 124.239 28.1364C124.504 28.0417 124.733 27.9015 124.926 27.7159C125.119 27.5303 125.267 27.3011 125.369 27.0284L126.977 27.3182C126.848 27.7917 126.617 28.2064 126.284 28.5625C125.955 28.9148 125.54 29.1894 125.04 29.3864C124.544 29.5795 123.977 29.6761 123.341 29.6761ZM133.044 20.7727V22.1364H128.277V20.7727H133.044ZM129.555 18.6818H131.254V26.9375C131.254 27.267 131.304 27.5152 131.402 27.6818C131.5 27.8447 131.627 27.9564 131.783 28.017C131.942 28.0739 132.114 28.1023 132.3 28.1023C132.436 28.1023 132.555 28.0928 132.658 28.0739C132.76 28.0549 132.839 28.0398 132.896 28.0284L133.203 29.4318C133.105 29.4697 132.964 29.5076 132.783 29.5455C132.601 29.5871 132.374 29.6098 132.101 29.6136C131.654 29.6212 131.237 29.5417 130.851 29.375C130.464 29.2083 130.152 28.9508 129.913 28.6023C129.675 28.2538 129.555 27.8163 129.555 27.2898V18.6818Z" fill="#07294C"/>
<rect x="1.1" y="0.6" width="158.8" height="46.8" rx="11.4" stroke="#07294C" stroke-width="1.2"/>
<defs>
<clipPath id="clip0_7_343">
<rect width="22" height="22" fill="white" transform="translate(27 13)"/>
</clipPath>
</defs>
</svg>
