<svg width="160" height="48" viewBox="0 0 160 48" fill="none" xmlns="http://www.w3.org/2000/svg">
<g clip-path="url(#clip0_7_360)">
<path d="M34 14.1C39.5 14.1 43.9 18.5 43.9 24C43.9 29.5 39.5 33.9 34 33.9C28.5 33.9 24.1 29.5 24.1 24C24.1 18.5 28.5 14.1 34 14.1ZM34 13C27.95 13 23 17.95 23 24C23 30.05 27.95 35 34 35C40.05 35 45 30.05 45 24C45 17.95 40.05 13 34 13Z" fill="#07294C"/>
<path d="M34.1833 30.875C34.0917 30.875 34.0917 30.875 34 30.875C34 26.2917 34 21.8 34 17.2167C34 17.2167 34 17.2167 34.0917 17.2167C34.1833 17.2167 34.3667 17.2167 34.4583 17.2167C34.7333 17.2167 35.0083 17.3083 35.2833 17.3083C35.925 17.4 36.475 17.675 37.1167 17.95C37.7583 18.3167 38.4 18.775 38.95 19.325C39.775 20.2417 40.4167 21.25 40.6917 22.4417C40.7833 22.8083 40.875 23.175 40.875 23.5417C40.875 23.725 40.875 23.9083 40.875 24.0917C40.875 24.0917 40.875 24.0917 40.875 24.1833V24.275C40.875 24.275 40.875 24.275 40.875 24.3667C40.875 24.55 40.875 24.825 40.875 25.0083C40.875 25.375 40.7833 25.65 40.6917 26.0167C40.325 27.3 39.775 28.3083 38.8583 29.225C38.0333 30.05 36.9333 30.6 35.8333 30.9667C35.5583 31.0583 35.1917 31.15 34.9167 31.15C34.55 30.875 34.3667 30.875 34.1833 30.875ZM27.125 24.1833C27.125 24.3667 27.125 24.55 27.125 24.7333V24.825C28.9583 24.825 30.7917 24.825 32.625 24.825C32.625 24.275 32.625 23.725 32.625 23.175C32.5333 23.175 27.2167 23.175 27.125 23.175C27.125 23.2667 27.125 23.2667 27.125 23.3583C27.125 23.45 27.125 23.6333 27.125 23.725C27.125 23.9083 27.125 24.0917 27.125 24.1833ZM27.4917 26.2C27.5833 26.5667 27.7667 26.9333 27.95 27.2083C28.0417 27.3917 28.1333 27.575 28.3167 27.7583C28.3167 27.7583 28.3167 27.7583 28.4083 27.7583C29.7833 27.7583 31.25 27.7583 32.625 27.7583C32.625 27.6667 32.625 26.1083 32.625 26.1083C30.975 26.2 29.2333 26.2 27.4917 26.2ZM32.625 20.15C31.25 20.15 29.7833 20.15 28.4083 20.15H28.3167C27.95 20.7 27.675 21.1583 27.4917 21.7083V21.8C29.2333 21.8 30.975 21.8 32.625 21.8C32.625 21.25 32.625 20.7 32.625 20.15ZM32.625 29.225C31.6167 29.225 30.5167 29.225 29.5083 29.225C29.9667 29.5917 30.5167 29.9583 31.0667 30.2333C31.6167 30.5083 32.075 30.6 32.625 30.7833C32.625 30.6917 32.625 29.225 32.625 29.225ZM32.625 17.2167C32.2583 17.3083 31.8917 17.4917 31.525 17.5833C31.1583 17.7667 30.7917 17.8583 30.5167 18.1333C30.15 18.3167 29.6 18.775 29.6 18.775C30.6083 18.775 31.7083 18.775 32.7167 18.775C32.625 18.6833 32.625 17.3083 32.625 17.2167Z" fill="#07294C"/>
</g>
<path d="M65.9432 21.6477H64.1705C64.1023 21.2689 63.9754 20.9356 63.7898 20.6477C63.6042 20.3598 63.3769 20.1155 63.108 19.9148C62.839 19.714 62.5379 19.5625 62.2045 19.4602C61.875 19.358 61.5246 19.3068 61.1534 19.3068C60.483 19.3068 59.8826 19.4754 59.3523 19.8125C58.8258 20.1496 58.4091 20.6439 58.1023 21.2955C57.7992 21.947 57.6477 22.7424 57.6477 23.6818C57.6477 24.6288 57.7992 25.428 58.1023 26.0795C58.4091 26.7311 58.8277 27.2235 59.358 27.5568C59.8883 27.8902 60.4848 28.0568 61.1477 28.0568C61.5152 28.0568 61.8636 28.0076 62.1932 27.9091C62.5265 27.8068 62.8277 27.6572 63.0966 27.4602C63.3655 27.2633 63.5928 27.0227 63.7784 26.7386C63.9678 26.4508 64.0985 26.1212 64.1705 25.75L65.9432 25.7557C65.8485 26.3277 65.6648 26.8542 65.392 27.3352C65.1231 27.8125 64.7765 28.2254 64.3523 28.5739C63.9318 28.9186 63.4508 29.1856 62.9091 29.375C62.3674 29.5644 61.7765 29.6591 61.1364 29.6591C60.1288 29.6591 59.2311 29.4205 58.4432 28.9432C57.6553 28.4621 57.0341 27.7746 56.5795 26.8807C56.1288 25.9867 55.9034 24.9205 55.9034 23.6818C55.9034 22.4394 56.1307 21.3731 56.5852 20.483C57.0398 19.589 57.661 18.9034 58.4489 18.4261C59.2367 17.9451 60.1326 17.7045 61.1364 17.7045C61.7538 17.7045 62.3295 17.7936 62.8636 17.9716C63.4015 18.1458 63.8845 18.4034 64.3125 18.7443C64.7405 19.0814 65.0947 19.4943 65.375 19.983C65.6553 20.4678 65.8447 21.0227 65.9432 21.6477ZM73.4361 25.8807V20.7727H75.1406V29.5H73.4702V27.9886H73.3793C73.1785 28.4545 72.8565 28.8428 72.4134 29.1534C71.974 29.4602 71.4266 29.6136 70.7713 29.6136C70.2107 29.6136 69.7145 29.4905 69.2827 29.2443C68.8546 28.9943 68.5175 28.625 68.2713 28.1364C68.0289 27.6477 67.9077 27.0436 67.9077 26.3239V20.7727H69.6065V26.1193C69.6065 26.714 69.7713 27.1875 70.1009 27.5398C70.4304 27.892 70.8584 28.0682 71.3849 28.0682C71.7031 28.0682 72.0194 27.9886 72.3338 27.8295C72.652 27.6705 72.9152 27.4299 73.1236 27.108C73.3357 26.786 73.4399 26.3769 73.4361 25.8807ZM77.5597 29.5V17.8636H81.7074C82.6089 17.8636 83.357 18.0189 83.9517 18.3295C84.5502 18.6402 84.9972 19.0701 85.2926 19.6193C85.5881 20.1648 85.7358 20.7955 85.7358 21.5114C85.7358 22.2235 85.5862 22.8504 85.2869 23.392C84.9915 23.9299 84.5445 24.3485 83.946 24.6477C83.3513 24.947 82.6032 25.0966 81.7017 25.0966H78.5597V23.5852H81.5426C82.1108 23.5852 82.5729 23.5038 82.929 23.3409C83.2888 23.178 83.5521 22.9413 83.7188 22.6307C83.8854 22.3201 83.9688 21.947 83.9688 21.5114C83.9688 21.072 83.8835 20.6913 83.7131 20.3693C83.5464 20.0473 83.2831 19.8011 82.9233 19.6307C82.5672 19.4564 82.0994 19.3693 81.5199 19.3693H79.3153V29.5H77.5597ZM83.304 24.25L86.179 29.5H84.179L81.3608 24.25H83.304ZM91.3878 29.6761C90.5279 29.6761 89.7874 29.4924 89.1662 29.125C88.5488 28.7538 88.0715 28.233 87.7344 27.5625C87.401 26.8883 87.2344 26.0985 87.2344 25.1932C87.2344 24.2992 87.401 23.5114 87.7344 22.8295C88.0715 22.1477 88.5412 21.6155 89.1435 21.233C89.7495 20.8504 90.4579 20.6591 91.2685 20.6591C91.7609 20.6591 92.2382 20.7405 92.7003 20.9034C93.1624 21.0663 93.5772 21.322 93.9446 21.6705C94.312 22.0189 94.6018 22.4716 94.8139 23.0284C95.026 23.5814 95.1321 24.2538 95.1321 25.0455V25.6477H88.1946V24.375H93.4673C93.4673 23.928 93.3764 23.5322 93.1946 23.1875C93.0128 22.839 92.7571 22.5644 92.4276 22.3636C92.1018 22.1629 91.7192 22.0625 91.2798 22.0625C90.8026 22.0625 90.3859 22.1799 90.0298 22.4148C89.6776 22.6458 89.4048 22.9489 89.2116 23.3239C89.0223 23.6951 88.9276 24.0985 88.9276 24.5341V25.5284C88.9276 26.1117 89.0298 26.608 89.2344 27.017C89.4427 27.4261 89.7325 27.7386 90.1037 27.9545C90.4749 28.1667 90.9086 28.2727 91.4048 28.2727C91.7268 28.2727 92.0204 28.2273 92.2855 28.1364C92.5507 28.0417 92.7798 27.9015 92.973 27.7159C93.1662 27.5303 93.3139 27.3011 93.4162 27.0284L95.0241 27.3182C94.8954 27.7917 94.6643 28.2064 94.331 28.5625C94.0014 28.9148 93.5866 29.1894 93.0866 29.3864C92.5904 29.5795 92.0241 29.6761 91.3878 29.6761ZM97.017 32.7727V20.7727H98.6761V22.1875H98.8182C98.9167 22.0057 99.0587 21.7955 99.2443 21.5568C99.4299 21.3182 99.6875 21.1098 100.017 20.9318C100.347 20.75 100.782 20.6591 101.324 20.6591C102.028 20.6591 102.657 20.8371 103.21 21.1932C103.763 21.5492 104.197 22.0625 104.511 22.733C104.83 23.4034 104.989 24.2102 104.989 25.1534C104.989 26.0966 104.831 26.9053 104.517 27.5795C104.203 28.25 103.771 28.767 103.222 29.1307C102.672 29.4905 102.045 29.6705 101.341 29.6705C100.811 29.6705 100.377 29.5814 100.04 29.4034C99.7064 29.2254 99.4451 29.017 99.2557 28.7784C99.0663 28.5398 98.9205 28.3277 98.8182 28.142H98.7159V32.7727H97.017ZM98.6818 25.1364C98.6818 25.75 98.7708 26.2879 98.9489 26.75C99.1269 27.2121 99.3845 27.5739 99.7216 27.8352C100.059 28.0928 100.472 28.2216 100.96 28.2216C101.468 28.2216 101.892 28.0871 102.233 27.8182C102.574 27.5455 102.831 27.1761 103.006 26.7102C103.184 26.2443 103.273 25.7197 103.273 25.1364C103.273 24.5606 103.186 24.0436 103.011 23.5852C102.841 23.1269 102.583 22.7652 102.239 22.5C101.898 22.2348 101.472 22.1023 100.96 22.1023C100.468 22.1023 100.051 22.2292 99.7102 22.483C99.3731 22.7367 99.1174 23.0909 98.9432 23.5455C98.7689 24 98.6818 24.5303 98.6818 25.1364ZM110.568 29.6761C109.75 29.6761 109.036 29.4886 108.426 29.1136C107.816 28.7386 107.343 28.214 107.006 27.5398C106.669 26.8655 106.5 26.0777 106.5 25.1761C106.5 24.2708 106.669 23.4792 107.006 22.8011C107.343 22.1231 107.816 21.5966 108.426 21.2216C109.036 20.8466 109.75 20.6591 110.568 20.6591C111.386 20.6591 112.1 20.8466 112.71 21.2216C113.32 21.5966 113.794 22.1231 114.131 22.8011C114.468 23.4792 114.636 24.2708 114.636 25.1761C114.636 26.0777 114.468 26.8655 114.131 27.5398C113.794 28.214 113.32 28.7386 112.71 29.1136C112.1 29.4886 111.386 29.6761 110.568 29.6761ZM110.574 28.25C111.104 28.25 111.544 28.1098 111.892 27.8295C112.241 27.5492 112.498 27.1761 112.665 26.7102C112.835 26.2443 112.92 25.7311 112.92 25.1705C112.92 24.6136 112.835 24.1023 112.665 23.6364C112.498 23.1667 112.241 22.7898 111.892 22.5057C111.544 22.2216 111.104 22.0795 110.574 22.0795C110.04 22.0795 109.597 22.2216 109.244 22.5057C108.896 22.7898 108.636 23.1667 108.466 23.6364C108.299 24.1023 108.216 24.6136 108.216 25.1705C108.216 25.7311 108.299 26.2443 108.466 26.7102C108.636 27.1761 108.896 27.5492 109.244 27.8295C109.597 28.1098 110.04 28.25 110.574 28.25ZM116.533 29.5V20.7727H118.175V22.1591H118.266C118.425 21.6894 118.705 21.3201 119.107 21.0511C119.512 20.7784 119.97 20.642 120.482 20.642C120.588 20.642 120.713 20.6458 120.857 20.6534C121.004 20.661 121.12 20.6705 121.203 20.6818V22.3068C121.135 22.2879 121.014 22.267 120.839 22.2443C120.665 22.2178 120.491 22.2045 120.317 22.2045C119.915 22.2045 119.557 22.2898 119.243 22.4602C118.932 22.6269 118.686 22.8598 118.504 23.1591C118.322 23.4545 118.232 23.7917 118.232 24.1705V29.5H116.533ZM127.263 20.7727V22.1364H122.496V20.7727H127.263ZM123.774 18.6818H125.473V26.9375C125.473 27.267 125.522 27.5152 125.621 27.6818C125.719 27.8447 125.846 27.9564 126.001 28.017C126.161 28.0739 126.333 28.1023 126.518 28.1023C126.655 28.1023 126.774 28.0928 126.876 28.0739C126.979 28.0549 127.058 28.0398 127.115 28.0284L127.422 29.4318C127.323 29.4697 127.183 29.5076 127.001 29.5455C126.82 29.5871 126.592 29.6098 126.32 29.6136C125.873 29.6212 125.456 29.5417 125.07 29.375C124.683 29.2083 124.371 28.9508 124.132 28.6023C123.893 28.2538 123.774 27.8163 123.774 27.2898V18.6818ZM135.541 22.9034L134.001 23.1761C133.937 22.9792 133.835 22.7917 133.695 22.6136C133.558 22.4356 133.373 22.2898 133.138 22.1761C132.903 22.0625 132.609 22.0057 132.257 22.0057C131.776 22.0057 131.375 22.1136 131.053 22.3295C130.731 22.5417 130.57 22.8163 130.57 23.1534C130.57 23.4451 130.678 23.6799 130.893 23.858C131.109 24.036 131.458 24.1818 131.939 24.2955L133.325 24.6136C134.128 24.7992 134.727 25.0852 135.121 25.4716C135.515 25.858 135.712 26.3598 135.712 26.9773C135.712 27.5 135.56 27.9659 135.257 28.375C134.958 28.7803 134.539 29.0985 134.001 29.3295C133.467 29.5606 132.848 29.6761 132.143 29.6761C131.166 29.6761 130.369 29.4678 129.751 29.0511C129.134 28.6307 128.755 28.0341 128.615 27.2614L130.257 27.0114C130.359 27.4394 130.57 27.7633 130.888 27.983C131.206 28.1989 131.621 28.3068 132.132 28.3068C132.689 28.3068 133.134 28.1913 133.467 27.9602C133.801 27.7254 133.967 27.4394 133.967 27.1023C133.967 26.8295 133.865 26.6004 133.661 26.4148C133.46 26.2292 133.151 26.089 132.734 25.9943L131.257 25.6705C130.443 25.4848 129.84 25.1894 129.45 24.7841C129.064 24.3788 128.871 23.8655 128.871 23.2443C128.871 22.7292 129.015 22.2784 129.303 21.892C129.59 21.5057 129.988 21.2045 130.496 20.9886C131.003 20.7689 131.585 20.6591 132.24 20.6591C133.183 20.6591 133.926 20.8636 134.467 21.2727C135.009 21.678 135.367 22.2216 135.541 22.9034Z" fill="#07294C"/>
<rect x="0.6" y="0.6" width="158.8" height="46.8" rx="11.4" stroke="#07294C" stroke-width="1.2"/>
<defs>
<clipPath id="clip0_7_360">
<rect width="22" height="22" fill="white" transform="translate(23 13)"/>
</clipPath>
</defs>
</svg>
