<svg width="160" height="49" viewBox="0 0 160 49" fill="none" xmlns="http://www.w3.org/2000/svg">
<g clip-path="url(#clip0_7_529)">
<path d="M43 14.2833C48.5 14.2833 52.9 18.6833 52.9 24.1833C52.9 29.6833 48.5 34.0833 43 34.0833C37.5 34.0833 33.1 29.6833 33.1 24.1833C33.1 18.6833 37.5 14.2833 43 14.2833ZM43 13.1833C36.95 13.1833 32 18.1333 32 24.1833C32 30.2334 36.95 35.1833 43 35.1833C49.05 35.1833 54 30.2334 54 24.1833C54 18.1333 49.05 13.1833 43 13.1833ZM49.875 24.1833C49.875 27.9417 46.7583 31.0583 43 31.0583C39.2417 31.0583 36.125 27.9417 36.125 24.1833C36.125 20.425 39.2417 17.3083 43 17.3083C46.7583 17.3083 49.875 20.425 49.875 24.1833ZM40.8 20.8833V27.4833L46.4833 24.1833L40.8 20.8833Z" fill="#07294C"/>
</g>
<path d="M65.2784 29.6833V18.047H69.4261C70.3314 18.047 71.0814 18.2118 71.6761 18.5413C72.2708 18.8708 72.7159 19.3216 73.0114 19.8936C73.3068 20.4618 73.4545 21.1019 73.4545 21.814C73.4545 22.5299 73.3049 23.1739 73.0057 23.7458C72.7102 24.314 72.2633 24.7648 71.6648 25.0981C71.0701 25.4277 70.322 25.5924 69.4205 25.5924H66.5682V24.1038H69.2614C69.8333 24.1038 70.2973 24.0053 70.6534 23.8083C71.0095 23.6076 71.2708 23.3349 71.4375 22.9902C71.6042 22.6455 71.6875 22.2534 71.6875 21.814C71.6875 21.3746 71.6042 20.9845 71.4375 20.6436C71.2708 20.3027 71.0076 20.0356 70.6477 19.8424C70.2917 19.6493 69.822 19.5527 69.2386 19.5527H67.0341V29.6833H65.2784ZM77.0753 18.047V29.6833H75.3764V18.047H77.0753ZM81.9006 29.8765C81.3475 29.8765 80.8475 29.7743 80.4006 29.5697C79.9536 29.3614 79.5994 29.0602 79.3381 28.6663C79.0805 28.2724 78.9517 27.7894 78.9517 27.2174C78.9517 26.725 79.0464 26.3197 79.2358 26.0015C79.4252 25.6833 79.6809 25.4315 80.0028 25.2458C80.3248 25.0602 80.6847 24.9201 81.0824 24.8254C81.4801 24.7307 81.8854 24.6587 82.2983 24.6095C82.821 24.5489 83.2453 24.4996 83.571 24.4618C83.8968 24.4201 84.1335 24.3538 84.2812 24.2629C84.429 24.172 84.5028 24.0243 84.5028 23.8197V23.7799C84.5028 23.2837 84.3627 22.8993 84.0824 22.6265C83.8059 22.3538 83.393 22.2174 82.8438 22.2174C82.2718 22.2174 81.821 22.3443 81.4915 22.5981C81.1657 22.8481 80.9403 23.1265 80.8153 23.4333L79.2188 23.0697C79.4081 22.5394 79.6847 22.1114 80.0483 21.7856C80.4157 21.4561 80.8381 21.2174 81.3153 21.0697C81.7926 20.9182 82.2945 20.8424 82.821 20.8424C83.1695 20.8424 83.5388 20.8841 83.929 20.9674C84.3229 21.047 84.6903 21.1947 85.0312 21.4106C85.3759 21.6265 85.6581 21.9352 85.8778 22.3368C86.0975 22.7345 86.2074 23.2515 86.2074 23.8879V29.6833H84.5483V28.4902H84.4801C84.3703 28.7099 84.2055 28.9258 83.9858 29.1379C83.7661 29.35 83.4839 29.5262 83.1392 29.6663C82.7945 29.8065 82.3816 29.8765 81.9006 29.8765ZM82.2699 28.5129C82.7396 28.5129 83.1411 28.4201 83.4744 28.2345C83.8116 28.0489 84.0672 27.8065 84.2415 27.5072C84.4195 27.2042 84.5085 26.8803 84.5085 26.5356V25.4106C84.4479 25.4712 84.3305 25.528 84.1562 25.5811C83.9858 25.6303 83.7907 25.6739 83.571 25.7118C83.3513 25.7458 83.1373 25.778 82.929 25.8083C82.7206 25.8349 82.5464 25.8576 82.4062 25.8765C82.0767 25.9182 81.7756 25.9883 81.5028 26.0868C81.2339 26.1852 81.018 26.3273 80.8551 26.5129C80.696 26.6947 80.6165 26.9371 80.6165 27.2402C80.6165 27.6606 80.7718 27.9788 81.0824 28.1947C81.393 28.4068 81.7888 28.5129 82.2699 28.5129ZM89.2315 32.9561C88.9777 32.9561 88.7467 32.9352 88.5384 32.8936C88.33 32.8557 88.1747 32.814 88.0724 32.7686L88.4815 31.3765C88.7921 31.4599 89.0687 31.4958 89.3111 31.4845C89.5535 31.4731 89.7675 31.3822 89.9531 31.2118C90.1425 31.0413 90.3092 30.7629 90.4531 30.3765L90.6634 29.797L87.4702 20.9561H89.2884L91.4986 27.7288H91.5895L93.7997 20.9561H95.6236L92.027 30.8481C91.8603 31.3027 91.6482 31.6871 91.3906 32.0015C91.133 32.3197 90.8262 32.5583 90.4702 32.7174C90.1141 32.8765 89.7012 32.9561 89.2315 32.9561ZM98.919 18.047V29.6833H97.2202V18.047H98.919ZM101.205 29.6833V20.9561H102.903V29.6833H101.205ZM102.062 19.6095C101.767 19.6095 101.513 19.511 101.301 19.314C101.093 19.1133 100.989 18.8746 100.989 18.5981C100.989 18.3178 101.093 18.0792 101.301 17.8822C101.513 17.6815 101.767 17.5811 102.062 17.5811C102.358 17.5811 102.61 17.6815 102.818 17.8822C103.03 18.0792 103.136 18.3178 103.136 18.5981C103.136 18.8746 103.03 19.1133 102.818 19.314C102.61 19.511 102.358 19.6095 102.062 19.6095ZM111.729 23.0868L110.189 23.3595C110.125 23.1625 110.022 22.975 109.882 22.797C109.746 22.619 109.56 22.4731 109.325 22.3595C109.09 22.2458 108.797 22.189 108.445 22.189C107.964 22.189 107.562 22.297 107.24 22.5129C106.918 22.725 106.757 22.9996 106.757 23.3368C106.757 23.6284 106.865 23.8633 107.081 24.0413C107.297 24.2193 107.645 24.3652 108.126 24.4788L109.513 24.797C110.316 24.9826 110.914 25.2686 111.308 25.6549C111.702 26.0413 111.899 26.5432 111.899 27.1606C111.899 27.6833 111.748 28.1493 111.445 28.5583C111.145 28.9637 110.727 29.2818 110.189 29.5129C109.655 29.744 109.036 29.8595 108.331 29.8595C107.354 29.8595 106.556 29.6512 105.939 29.2345C105.321 28.814 104.943 28.2174 104.803 27.4447L106.445 27.1947C106.547 27.6227 106.757 27.9466 107.075 28.1663C107.393 28.3822 107.808 28.4902 108.32 28.4902C108.876 28.4902 109.321 28.3746 109.655 28.1436C109.988 27.9087 110.155 27.6227 110.155 27.2856C110.155 27.0129 110.053 26.7837 109.848 26.5981C109.647 26.4125 109.339 26.2724 108.922 26.1777L107.445 25.8538C106.63 25.6682 106.028 25.3727 105.638 24.9674C105.251 24.5621 105.058 24.0489 105.058 23.4277C105.058 22.9125 105.202 22.4618 105.49 22.0754C105.778 21.689 106.176 21.3879 106.683 21.172C107.191 20.9523 107.772 20.8424 108.428 20.8424C109.371 20.8424 110.113 21.047 110.655 21.4561C111.196 21.8614 111.554 22.4049 111.729 23.0868ZM117.841 20.9561V22.3197H113.074V20.9561H117.841ZM114.352 18.8652H116.051V27.1208C116.051 27.4504 116.1 27.6985 116.199 27.8652C116.297 28.028 116.424 28.1398 116.58 28.2004C116.739 28.2572 116.911 28.2856 117.097 28.2856C117.233 28.2856 117.352 28.2762 117.455 28.2572C117.557 28.2383 117.636 28.2231 117.693 28.2118L118 29.6152C117.902 29.653 117.761 29.6909 117.58 29.7288C117.398 29.7705 117.17 29.7932 116.898 29.797C116.451 29.8046 116.034 29.725 115.648 29.5583C115.261 29.3917 114.949 29.1341 114.71 28.7856C114.472 28.4371 114.352 27.9996 114.352 27.4731V18.8652ZM126.119 23.0868L124.58 23.3595C124.515 23.1625 124.413 22.975 124.273 22.797C124.136 22.619 123.951 22.4731 123.716 22.3595C123.481 22.2458 123.188 22.189 122.835 22.189C122.354 22.189 121.953 22.297 121.631 22.5129C121.309 22.725 121.148 22.9996 121.148 23.3368C121.148 23.6284 121.256 23.8633 121.472 24.0413C121.688 24.2193 122.036 24.3652 122.517 24.4788L123.903 24.797C124.706 24.9826 125.305 25.2686 125.699 25.6549C126.093 26.0413 126.29 26.5432 126.29 27.1606C126.29 27.6833 126.138 28.1493 125.835 28.5583C125.536 28.9637 125.117 29.2818 124.58 29.5129C124.045 29.744 123.426 29.8595 122.722 29.8595C121.744 29.8595 120.947 29.6512 120.33 29.2345C119.712 28.814 119.333 28.2174 119.193 27.4447L120.835 27.1947C120.938 27.6227 121.148 27.9466 121.466 28.1663C121.784 28.3822 122.199 28.4902 122.71 28.4902C123.267 28.4902 123.712 28.3746 124.045 28.1436C124.379 27.9087 124.545 27.6227 124.545 27.2856C124.545 27.0129 124.443 26.7837 124.239 26.5981C124.038 26.4125 123.729 26.2724 123.312 26.1777L121.835 25.8538C121.021 25.6682 120.419 25.3727 120.028 24.9674C119.642 24.5621 119.449 24.0489 119.449 23.4277C119.449 22.9125 119.593 22.4618 119.881 22.0754C120.169 21.689 120.566 21.3879 121.074 21.172C121.581 20.9523 122.163 20.8424 122.818 20.8424C123.761 20.8424 124.504 21.047 125.045 21.4561C125.587 21.8614 125.945 22.4049 126.119 23.0868Z" fill="#07294C"/>
<rect x="0.6" y="0.78335" width="158.8" height="46.8" rx="11.4" stroke="#07294C" stroke-width="1.2"/>
<defs>
<clipPath id="clip0_7_529">
<rect width="22" height="22" fill="white" transform="translate(32 13.1833)"/>
</clipPath>
</defs>
</svg>
