<svg width="161" height="48" viewBox="0 0 161 48" fill="none" xmlns="http://www.w3.org/2000/svg">
<g clip-path="url(#clip0_7_520)">
<path d="M43.5 14.1C49 14.1 53.4 18.5 53.4 24C53.4 29.5 49 33.9 43.5 33.9C38 33.9 33.6 29.5 33.6 24C33.6 18.5 38 14.1 43.5 14.1ZM43.5 13C37.45 13 32.5 17.95 32.5 24C32.5 30.05 37.45 35 43.5 35C49.55 35 54.5 30.05 54.5 24C54.5 17.95 49.55 13 43.5 13Z" fill="#07294C"/>
<path d="M50.375 24C50.375 24.825 50.2833 25.5583 50.0083 26.2L43.5 24L45.7 30.5083C44.9667 30.7833 44.2333 30.875 43.5 30.875C39.7417 30.875 36.625 27.7583 36.625 24C36.625 23.175 36.7167 22.4417 36.9917 21.8L43.5 24L41.3 17.4917C42.0333 17.2167 42.7667 17.125 43.5 17.125C47.2583 17.125 50.375 20.2417 50.375 24Z" fill="#07294C"/>
</g>
<path d="M75.4432 21.6477H73.6705C73.6023 21.2689 73.4754 20.9356 73.2898 20.6477C73.1042 20.3598 72.8769 20.1155 72.608 19.9148C72.339 19.714 72.0379 19.5625 71.7045 19.4602C71.375 19.358 71.0246 19.3068 70.6534 19.3068C69.983 19.3068 69.3826 19.4754 68.8523 19.8125C68.3258 20.1496 67.9091 20.6439 67.6023 21.2955C67.2992 21.947 67.1477 22.7424 67.1477 23.6818C67.1477 24.6288 67.2992 25.428 67.6023 26.0795C67.9091 26.7311 68.3277 27.2235 68.858 27.5568C69.3883 27.8902 69.9848 28.0568 70.6477 28.0568C71.0152 28.0568 71.3636 28.0076 71.6932 27.9091C72.0265 27.8068 72.3277 27.6572 72.5966 27.4602C72.8655 27.2633 73.0928 27.0227 73.2784 26.7386C73.4678 26.4508 73.5985 26.1212 73.6705 25.75L75.4432 25.7557C75.3485 26.3277 75.1648 26.8542 74.892 27.3352C74.6231 27.8125 74.2765 28.2254 73.8523 28.5739C73.4318 28.9186 72.9508 29.1856 72.4091 29.375C71.8674 29.5644 71.2765 29.6591 70.6364 29.6591C69.6288 29.6591 68.7311 29.4205 67.9432 28.9432C67.1553 28.4621 66.5341 27.7746 66.0795 26.8807C65.6288 25.9867 65.4034 24.9205 65.4034 23.6818C65.4034 22.4394 65.6307 21.3731 66.0852 20.483C66.5398 19.589 67.161 18.9034 67.9489 18.4261C68.7367 17.9451 69.6326 17.7045 70.6364 17.7045C71.2538 17.7045 71.8295 17.7936 72.3636 17.9716C72.9015 18.1458 73.3845 18.4034 73.8125 18.7443C74.2405 19.0814 74.5947 19.4943 74.875 19.983C75.1553 20.4678 75.3447 21.0227 75.4432 21.6477ZM82.9361 25.8807V20.7727H84.6406V29.5H82.9702V27.9886H82.8793C82.6785 28.4545 82.3565 28.8428 81.9134 29.1534C81.474 29.4602 80.9266 29.6136 80.2713 29.6136C79.7107 29.6136 79.2145 29.4905 78.7827 29.2443C78.3546 28.9943 78.0175 28.625 77.7713 28.1364C77.5289 27.6477 77.4077 27.0436 77.4077 26.3239V20.7727H79.1065V26.1193C79.1065 26.714 79.2713 27.1875 79.6009 27.5398C79.9304 27.892 80.3584 28.0682 80.8849 28.0682C81.2031 28.0682 81.5194 27.9886 81.8338 27.8295C82.152 27.6705 82.4152 27.4299 82.6236 27.108C82.8357 26.786 82.9399 26.3769 82.9361 25.8807ZM85.6733 19.375V17.8636H94.679V19.375H91.0483V29.5H89.2983V19.375H85.6733ZM95.6264 29.5V20.7727H97.2685V22.1591H97.3594C97.5185 21.6894 97.7988 21.3201 98.2003 21.0511C98.6056 20.7784 99.0639 20.642 99.5753 20.642C99.6813 20.642 99.8063 20.6458 99.9503 20.6534C100.098 20.661 100.214 20.6705 100.297 20.6818V22.3068C100.229 22.2879 100.107 22.267 99.9332 22.2443C99.759 22.2178 99.5848 22.2045 99.4105 22.2045C99.009 22.2045 98.651 22.2898 98.3366 22.4602C98.026 22.6269 97.7798 22.8598 97.598 23.1591C97.4162 23.4545 97.3253 23.7917 97.3253 24.1705V29.5H95.6264ZM104.229 29.6932C103.676 29.6932 103.176 29.5909 102.729 29.3864C102.282 29.178 101.928 28.8769 101.666 28.483C101.409 28.089 101.28 27.6061 101.28 27.0341C101.28 26.5417 101.375 26.1364 101.564 25.8182C101.753 25.5 102.009 25.2481 102.331 25.0625C102.653 24.8769 103.013 24.7367 103.411 24.642C103.808 24.5473 104.214 24.4754 104.626 24.4261C105.149 24.3655 105.573 24.3163 105.899 24.2784C106.225 24.2367 106.462 24.1705 106.609 24.0795C106.757 23.9886 106.831 23.8409 106.831 23.6364V23.5966C106.831 23.1004 106.691 22.7159 106.411 22.4432C106.134 22.1705 105.721 22.0341 105.172 22.0341C104.6 22.0341 104.149 22.161 103.82 22.4148C103.494 22.6648 103.268 22.9432 103.143 23.25L101.547 22.8864C101.736 22.3561 102.013 21.928 102.376 21.6023C102.744 21.2727 103.166 21.0341 103.643 20.8864C104.121 20.7348 104.623 20.6591 105.149 20.6591C105.498 20.6591 105.867 20.7008 106.257 20.7841C106.651 20.8636 107.018 21.0114 107.359 21.2273C107.704 21.4432 107.986 21.7519 108.206 22.1534C108.426 22.5511 108.536 23.0682 108.536 23.7045V29.5H106.876V28.3068H106.808C106.698 28.5265 106.534 28.7424 106.314 28.9545C106.094 29.1667 105.812 29.3428 105.467 29.483C105.123 29.6231 104.71 29.6932 104.229 29.6932ZM104.598 28.3295C105.068 28.3295 105.469 28.2367 105.803 28.0511C106.14 27.8655 106.395 27.6231 106.57 27.3239C106.748 27.0208 106.837 26.697 106.837 26.3523V25.2273C106.776 25.2879 106.659 25.3447 106.484 25.3977C106.314 25.447 106.119 25.4905 105.899 25.5284C105.679 25.5625 105.465 25.5947 105.257 25.625C105.049 25.6515 104.875 25.6742 104.734 25.6932C104.405 25.7348 104.104 25.8049 103.831 25.9034C103.562 26.0019 103.346 26.1439 103.183 26.3295C103.024 26.5114 102.945 26.7538 102.945 27.0568C102.945 27.4773 103.1 27.7955 103.411 28.0114C103.721 28.2235 104.117 28.3295 104.598 28.3295ZM114.474 29.6761C113.63 29.6761 112.902 29.4848 112.293 29.1023C111.687 28.7159 111.221 28.1837 110.895 27.5057C110.569 26.8277 110.406 26.0511 110.406 25.1761C110.406 24.2898 110.573 23.5076 110.906 22.8295C111.24 22.1477 111.709 21.6155 112.315 21.233C112.921 20.8504 113.635 20.6591 114.457 20.6591C115.12 20.6591 115.711 20.7822 116.23 21.0284C116.749 21.2708 117.168 21.6117 117.486 22.0511C117.808 22.4905 117.999 23.0038 118.06 23.5909H116.406C116.315 23.1818 116.107 22.8295 115.781 22.5341C115.459 22.2386 115.027 22.0909 114.486 22.0909C114.012 22.0909 113.598 22.2159 113.241 22.4659C112.889 22.7121 112.615 23.0644 112.418 23.5227C112.221 23.9773 112.122 24.5152 112.122 25.1364C112.122 25.7727 112.219 26.322 112.412 26.7841C112.605 27.2462 112.878 27.6042 113.23 27.858C113.586 28.1117 114.005 28.2386 114.486 28.2386C114.808 28.2386 115.099 28.1799 115.361 28.0625C115.626 27.9413 115.848 27.7689 116.026 27.5455C116.207 27.322 116.334 27.053 116.406 26.7386H118.06C117.999 27.303 117.815 27.8068 117.509 28.25C117.202 28.6932 116.791 29.0417 116.276 29.2955C115.764 29.5492 115.164 29.6761 114.474 29.6761ZM121.439 26.5398L121.428 24.4659H121.723L125.2 20.7727H127.234L123.268 24.9773H123.001L121.439 26.5398ZM119.876 29.5V17.8636H121.575V29.5H119.876ZM125.388 29.5L122.263 25.3523L123.433 24.1648L127.473 29.5H125.388Z" fill="#07294C"/>
<rect x="1.1" y="0.6" width="158.8" height="46.8" rx="11.4" stroke="#07294C" stroke-width="1.2"/>
<defs>
<clipPath id="clip0_7_520">
<rect width="22" height="22" fill="white" transform="translate(32.5 13)"/>
</clipPath>
</defs>
</svg>
