<svg width="160" height="49" viewBox="0 0 160 49" fill="none" xmlns="http://www.w3.org/2000/svg">
<g clip-path="url(#clip0_7_540)">
<path d="M45 14.2833C50.5 14.2833 54.9 18.6833 54.9 24.1833C54.9 29.6833 50.5 34.0833 45 34.0833C39.5 34.0833 35.1 29.6833 35.1 24.1833C35.1 18.6833 39.5 14.2833 45 14.2833ZM45 13.1833C38.95 13.1833 34 18.1333 34 24.1833C34 30.2334 38.95 35.1833 45 35.1833C51.05 35.1833 56 30.2334 56 24.1833C56 18.1333 51.05 13.1833 45 13.1833Z" fill="#07294C"/>
<path d="M45 31.0583C43.4416 31.0583 41.975 30.5083 40.6916 29.5917C39.225 28.4916 38.3083 26.8417 38.125 25.0083C38.0333 23.725 38.2166 22.5333 38.675 21.4333L40.6916 22.35C40.325 23.0833 40.2333 23.9083 40.325 24.7333C40.5083 26.0167 41.0583 27.1167 42.0666 27.85C43.075 28.5833 44.2666 28.95 45.55 28.8583C48.1166 28.5833 49.95 26.2917 49.675 23.725C49.4916 22.4417 48.9416 21.3417 47.9333 20.6083C46.925 19.875 45.7333 19.5083 44.45 19.6L44.175 17.4C46.0083 17.2167 47.75 17.675 49.2166 18.8667C50.6833 19.9667 51.6 21.6167 51.7833 23.45C52.2416 27.2083 49.4916 30.6 45.7333 31.0583C45.55 31.0583 45.275 31.0583 45 31.0583Z" fill="#07294C"/>
</g>
<path d="M76.9432 21.8311H75.1705C75.1023 21.4523 74.9754 21.119 74.7898 20.8311C74.6042 20.5432 74.3769 20.2989 74.108 20.0981C73.839 19.8974 73.5379 19.7458 73.2045 19.6436C72.875 19.5413 72.5246 19.4902 72.1534 19.4902C71.483 19.4902 70.8826 19.6587 70.3523 19.9958C69.8258 20.333 69.4091 20.8273 69.1023 21.4788C68.7992 22.1303 68.6477 22.9258 68.6477 23.8652C68.6477 24.8121 68.7992 25.6114 69.1023 26.2629C69.4091 26.9144 69.8277 27.4068 70.358 27.7402C70.8883 28.0735 71.4848 28.2402 72.1477 28.2402C72.5152 28.2402 72.8636 28.1909 73.1932 28.0924C73.5265 27.9902 73.8277 27.8405 74.0966 27.6436C74.3655 27.4466 74.5928 27.2061 74.7784 26.922C74.9678 26.6341 75.0985 26.3046 75.1705 25.9333L76.9432 25.939C76.8485 26.511 76.6648 27.0375 76.392 27.5186C76.1231 27.9958 75.7765 28.4087 75.3523 28.7572C74.9318 29.1019 74.4508 29.369 73.9091 29.5583C73.3674 29.7477 72.7765 29.8424 72.1364 29.8424C71.1288 29.8424 70.2311 29.6038 69.4432 29.1265C68.6553 28.6455 68.0341 27.958 67.5795 27.064C67.1288 26.1701 66.9034 25.1038 66.9034 23.8652C66.9034 22.6227 67.1307 21.5565 67.5852 20.6663C68.0398 19.7724 68.661 19.0868 69.4489 18.6095C70.2367 18.1284 71.1326 17.8879 72.1364 17.8879C72.7538 17.8879 73.3295 17.9769 73.8636 18.1549C74.4015 18.3292 74.8845 18.5868 75.3125 18.9277C75.7405 19.2648 76.0947 19.6777 76.375 20.1663C76.6553 20.6512 76.8447 21.2061 76.9432 21.8311ZM84.4361 26.064V20.9561H86.1406V29.6833H84.4702V28.172H84.3793C84.1785 28.6379 83.8565 29.0262 83.4134 29.3368C82.974 29.6436 82.4266 29.797 81.7713 29.797C81.2107 29.797 80.7145 29.6739 80.2827 29.4277C79.8546 29.1777 79.5175 28.8083 79.2713 28.3197C79.0289 27.8311 78.9077 27.2269 78.9077 26.5072V20.9561H80.6065V26.3027C80.6065 26.8974 80.7713 27.3708 81.1009 27.7231C81.4304 28.0754 81.8584 28.2515 82.3849 28.2515C82.7031 28.2515 83.0194 28.172 83.3338 28.0129C83.652 27.8538 83.9152 27.6133 84.1236 27.2913C84.3357 26.9693 84.4399 26.5602 84.4361 26.064ZM94.9062 21.1038C94.8456 20.5659 94.5956 20.1493 94.1562 19.8538C93.7169 19.5546 93.1638 19.4049 92.4972 19.4049C92.0199 19.4049 91.607 19.4807 91.2585 19.6322C90.91 19.7799 90.6392 19.9845 90.446 20.2458C90.2566 20.5034 90.1619 20.797 90.1619 21.1265C90.1619 21.403 90.2263 21.6417 90.3551 21.8424C90.4877 22.0432 90.66 22.2118 90.8722 22.3481C91.0881 22.4807 91.3191 22.5924 91.5653 22.6833C91.8116 22.7705 92.0483 22.8424 92.2756 22.8993L93.4119 23.1947C93.7831 23.2856 94.1638 23.4087 94.554 23.564C94.9441 23.7193 95.3059 23.9239 95.6392 24.1777C95.9725 24.4315 96.2415 24.7458 96.446 25.1208C96.6544 25.4958 96.7585 25.9447 96.7585 26.4674C96.7585 27.1265 96.5881 27.7118 96.2472 28.2231C95.91 28.7345 95.4195 29.1379 94.7756 29.4333C94.1354 29.7288 93.3608 29.8765 92.4517 29.8765C91.5805 29.8765 90.8267 29.7383 90.1903 29.4618C89.554 29.1852 89.0559 28.7932 88.696 28.2856C88.3362 27.7743 88.1373 27.1682 88.0994 26.4674H89.8608C89.8949 26.8879 90.0313 27.2383 90.2699 27.5186C90.5123 27.7951 90.821 28.0015 91.196 28.1379C91.5748 28.2705 91.9896 28.3368 92.4403 28.3368C92.9366 28.3368 93.3778 28.2591 93.7642 28.1038C94.1544 27.9447 94.4612 27.725 94.6847 27.4447C94.9081 27.1606 95.0199 26.8292 95.0199 26.4504C95.0199 26.1057 94.9214 25.8235 94.7244 25.6038C94.5313 25.3841 94.268 25.2023 93.9347 25.0583C93.6051 24.9144 93.232 24.7875 92.8153 24.6777L91.4403 24.3027C90.5085 24.0489 89.7699 23.6758 89.2244 23.1833C88.6828 22.6909 88.4119 22.0394 88.4119 21.2288C88.4119 20.5583 88.5938 19.9731 88.9574 19.4731C89.321 18.9731 89.8134 18.5849 90.4347 18.3083C91.0559 18.028 91.7566 17.8879 92.5369 17.8879C93.3248 17.8879 94.0199 18.0262 94.6222 18.3027C95.2282 18.5792 95.7055 18.9599 96.054 19.4447C96.4025 19.9258 96.5843 20.4788 96.5994 21.1038H94.9062ZM99.794 32.9561C99.5402 32.9561 99.3092 32.9352 99.1009 32.8936C98.8925 32.8557 98.7372 32.814 98.6349 32.7686L99.044 31.3765C99.3546 31.4599 99.6312 31.4958 99.8736 31.4845C100.116 31.4731 100.33 31.3822 100.516 31.2118C100.705 31.0413 100.872 30.7629 101.016 30.3765L101.226 29.797L98.0327 20.9561H99.8509L102.061 27.7288H102.152L104.362 20.9561H106.186L102.589 30.8481C102.423 31.3027 102.211 31.6871 101.953 32.0015C101.696 32.3197 101.389 32.5583 101.033 32.7174C100.677 32.8765 100.264 32.9561 99.794 32.9561ZM109.482 24.5015V29.6833H107.783V20.9561H109.413V22.3765H109.521C109.722 21.9144 110.036 21.5432 110.464 21.2629C110.896 20.9826 111.44 20.8424 112.095 20.8424C112.69 20.8424 113.211 20.9674 113.658 21.2174C114.105 21.4637 114.451 21.8311 114.697 22.3197C114.944 22.8083 115.067 23.4125 115.067 24.1322V29.6833H113.368V24.3368C113.368 23.7042 113.203 23.2099 112.874 22.8538C112.544 22.494 112.091 22.314 111.516 22.314C111.122 22.314 110.771 22.3993 110.464 22.5697C110.161 22.7402 109.921 22.9902 109.743 23.3197C109.569 23.6455 109.482 24.0394 109.482 24.5015ZM118.908 26.7231L118.896 24.6493H119.192L122.669 20.9561H124.703L120.737 25.1606H120.47L118.908 26.7231ZM117.345 29.6833V18.047H119.044V29.6833H117.345ZM122.857 29.6833L119.732 25.5356L120.902 24.3481L124.942 29.6833H122.857Z" fill="#07294C"/>
<rect x="0.6" y="0.78335" width="158.8" height="46.8" rx="11.4" stroke="#07294C" stroke-width="1.2"/>
<defs>
<clipPath id="clip0_7_540">
<rect width="22" height="22" fill="white" transform="translate(34 13.1833)"/>
</clipPath>
</defs>
</svg>
