<svg width="161" height="49" viewBox="0 0 161 49" fill="none" xmlns="http://www.w3.org/2000/svg">
<g clip-path="url(#clip0_7_548)">
<path d="M33.5 14.2833C39 14.2833 43.4 18.6833 43.4 24.1833C43.4 29.6833 39 34.0833 33.5 34.0833C28 34.0833 23.6 29.6833 23.6 24.1833C23.6 18.6833 28 14.2833 33.5 14.2833ZM33.5 13.1833C27.45 13.1833 22.5 18.1333 22.5 24.1833C22.5 30.2334 27.45 35.1833 33.5 35.1833C39.55 35.1833 44.5 30.2334 44.5 24.1833C44.5 18.1333 39.55 13.1833 33.5 13.1833Z" fill="#07294C"/>
<path d="M36.0667 24.1834C36.0667 25.65 34.875 26.75 33.5 26.75C32.125 26.75 30.9333 25.65 30.9333 24.1834C30.9333 22.7167 32.125 21.6167 33.5 21.6167C34.875 21.6167 36.0667 22.7167 36.0667 24.1834ZM37.4417 25.375C37.5333 25.0084 37.625 24.6417 37.625 24.1834C37.625 22.2584 36.25 20.6084 34.4167 20.15V17.4C37.8083 17.8584 40.375 20.7 40.375 24.1834C40.375 25.1 40.1917 26.0167 39.825 26.8417L37.4417 25.375ZM30.475 27.025C31.2083 27.85 32.3083 28.3084 33.5 28.3084C34.6917 28.3084 35.7917 27.7584 36.525 27.025L38.9083 28.4C37.625 30.05 35.7 31.0584 33.5 31.0584C31.3 31.0584 29.2833 30.05 28.0917 28.4L30.475 27.025ZM27.175 26.75C26.8083 26.0167 26.625 25.1 26.625 24.1834C26.625 20.7 29.1917 17.8584 32.5833 17.4V20.15C30.75 20.6084 29.375 22.2584 29.375 24.1834C29.375 24.6417 29.4667 25.0084 29.5583 25.375L27.175 26.75Z" fill="#07294C"/>
</g>
<path d="M59.5455 29.6833H55.7784V18.047H59.6648C60.8049 18.047 61.7841 18.2799 62.6023 18.7458C63.4205 19.208 64.0473 19.8727 64.483 20.7402C64.9223 21.6038 65.142 22.6398 65.142 23.8481C65.142 25.0602 64.9205 26.1019 64.4773 26.9731C64.0379 27.8443 63.4015 28.5148 62.5682 28.9845C61.7348 29.4504 60.7273 29.6833 59.5455 29.6833ZM57.5341 28.1493H59.4489C60.3352 28.1493 61.072 27.9826 61.6591 27.6493C62.2462 27.3121 62.6856 26.8254 62.9773 26.189C63.2689 25.5489 63.4148 24.7686 63.4148 23.8481C63.4148 22.9352 63.2689 22.1606 62.9773 21.5243C62.6894 20.8879 62.2595 20.4049 61.6875 20.0754C61.1155 19.7458 60.4053 19.5811 59.5568 19.5811H57.5341V28.1493ZM69.7287 29.8765C69.1757 29.8765 68.6757 29.7743 68.2287 29.5697C67.7817 29.3614 67.4276 29.0602 67.1662 28.6663C66.9086 28.2724 66.7798 27.7894 66.7798 27.2174C66.7798 26.725 66.8745 26.3197 67.0639 26.0015C67.2533 25.6833 67.509 25.4315 67.831 25.2458C68.1529 25.0602 68.5128 24.9201 68.9105 24.8254C69.3082 24.7307 69.7135 24.6587 70.1264 24.6095C70.6491 24.5489 71.0734 24.4996 71.3991 24.4618C71.7249 24.4201 71.9616 24.3538 72.1094 24.2629C72.2571 24.172 72.331 24.0243 72.331 23.8197V23.7799C72.331 23.2837 72.1908 22.8993 71.9105 22.6265C71.634 22.3538 71.2211 22.2174 70.6719 22.2174C70.0999 22.2174 69.6491 22.3443 69.3196 22.5981C68.9938 22.8481 68.7685 23.1265 68.6435 23.4333L67.0469 23.0697C67.2363 22.5394 67.5128 22.1114 67.8764 21.7856C68.2438 21.4561 68.6662 21.2174 69.1435 21.0697C69.6207 20.9182 70.1226 20.8424 70.6491 20.8424C70.9976 20.8424 71.367 20.8841 71.7571 20.9674C72.151 21.047 72.5185 21.1947 72.8594 21.4106C73.2041 21.6265 73.4863 21.9352 73.706 22.3368C73.9257 22.7345 74.0355 23.2515 74.0355 23.8879V29.6833H72.3764V28.4902H72.3082C72.1984 28.7099 72.0336 28.9258 71.8139 29.1379C71.5942 29.35 71.312 29.5262 70.9673 29.6663C70.6226 29.8065 70.2098 29.8765 69.7287 29.8765ZM70.098 28.5129C70.5677 28.5129 70.9692 28.4201 71.3026 28.2345C71.6397 28.0489 71.8954 27.8065 72.0696 27.5072C72.2476 27.2042 72.3366 26.8803 72.3366 26.5356V25.4106C72.276 25.4712 72.1586 25.528 71.9844 25.5811C71.8139 25.6303 71.6188 25.6739 71.3991 25.7118C71.1795 25.7458 70.9654 25.778 70.7571 25.8083C70.5488 25.8349 70.3745 25.8576 70.2344 25.8765C69.9048 25.9182 69.6037 25.9883 69.331 26.0868C69.062 26.1852 68.8461 26.3273 68.6832 26.5129C68.5241 26.6947 68.4446 26.9371 68.4446 27.2402C68.4446 27.6606 68.5999 27.9788 68.9105 28.1947C69.2211 28.4068 69.617 28.5129 70.098 28.5129ZM82.8381 23.0868L81.2983 23.3595C81.2339 23.1625 81.1316 22.975 80.9915 22.797C80.8551 22.619 80.6695 22.4731 80.4347 22.3595C80.1998 22.2458 79.9063 22.189 79.554 22.189C79.0729 22.189 78.6714 22.297 78.3494 22.5129C78.0275 22.725 77.8665 22.9996 77.8665 23.3368C77.8665 23.6284 77.9744 23.8633 78.1903 24.0413C78.4063 24.2193 78.7547 24.3652 79.2358 24.4788L80.6222 24.797C81.4252 24.9826 82.0237 25.2686 82.4176 25.6549C82.8116 26.0413 83.0085 26.5432 83.0085 27.1606C83.0085 27.6833 82.857 28.1493 82.554 28.5583C82.2547 28.9637 81.8362 29.2818 81.2983 29.5129C80.7642 29.744 80.1449 29.8595 79.4403 29.8595C78.4631 29.8595 77.6657 29.6512 77.0483 29.2345C76.4309 28.814 76.0521 28.2174 75.9119 27.4447L77.554 27.1947C77.6563 27.6227 77.8665 27.9466 78.1847 28.1663C78.5028 28.3822 78.9176 28.4902 79.429 28.4902C79.9858 28.4902 80.4309 28.3746 80.7642 28.1436C81.0975 27.9087 81.2642 27.6227 81.2642 27.2856C81.2642 27.0129 81.1619 26.7837 80.9574 26.5981C80.7566 26.4125 80.4479 26.2724 80.0312 26.1777L78.554 25.8538C77.7396 25.6682 77.1373 25.3727 76.7472 24.9674C76.3608 24.5621 76.1676 24.0489 76.1676 23.4277C76.1676 22.9125 76.3116 22.4618 76.5994 22.0754C76.8873 21.689 77.285 21.3879 77.7926 21.172C78.3002 20.9523 78.8816 20.8424 79.5369 20.8424C80.4801 20.8424 81.2225 21.047 81.7642 21.4561C82.3059 21.8614 82.6638 22.4049 82.8381 23.0868ZM86.5753 24.5015V29.6833H84.8764V18.047H86.5526V22.3765H86.6605C86.8651 21.9068 87.1776 21.5337 87.598 21.2572C88.0185 20.9807 88.5677 20.8424 89.2457 20.8424C89.8442 20.8424 90.367 20.9655 90.8139 21.2118C91.2647 21.458 91.6132 21.8254 91.8594 22.314C92.1094 22.7989 92.2344 23.4049 92.2344 24.1322V29.6833H90.5355V24.3368C90.5355 23.6966 90.3707 23.2004 90.0412 22.8481C89.7116 22.4921 89.2533 22.314 88.6662 22.314C88.2647 22.314 87.9048 22.3993 87.5866 22.5697C87.2723 22.7402 87.0241 22.9902 86.8423 23.3197C86.6643 23.6455 86.5753 24.0394 86.5753 24.5015ZM94.6378 29.6833V18.047H96.3366V22.3708H96.4389C96.5374 22.189 96.6795 21.9788 96.8651 21.7402C97.0507 21.5015 97.3082 21.2932 97.6378 21.1152C97.9673 20.9333 98.4029 20.8424 98.9446 20.8424C99.6491 20.8424 100.278 21.0205 100.831 21.3765C101.384 21.7326 101.818 22.2458 102.132 22.9163C102.45 23.5868 102.609 24.3936 102.609 25.3368C102.609 26.2799 102.452 27.0887 102.138 27.7629C101.823 28.4333 101.392 28.9504 100.842 29.314C100.293 29.6739 99.6662 29.8538 98.9616 29.8538C98.4313 29.8538 97.9976 29.7648 97.6605 29.5868C97.3272 29.4087 97.0658 29.2004 96.8764 28.9618C96.687 28.7231 96.5412 28.511 96.4389 28.3254H96.2969V29.6833H94.6378ZM96.3026 25.3197C96.3026 25.9333 96.3916 26.4712 96.5696 26.9333C96.7476 27.3955 97.0052 27.7572 97.3423 28.0186C97.6795 28.2762 98.0923 28.4049 98.581 28.4049C99.0885 28.4049 99.5128 28.2705 99.8537 28.0015C100.195 27.7288 100.452 27.3595 100.626 26.8936C100.804 26.4277 100.893 25.903 100.893 25.3197C100.893 24.744 100.806 24.2269 100.632 23.7686C100.462 23.3102 100.204 22.9485 99.8594 22.6833C99.5185 22.4182 99.0923 22.2856 98.581 22.2856C98.0885 22.2856 97.6719 22.4125 97.331 22.6663C96.9938 22.9201 96.7382 23.2743 96.5639 23.7288C96.3897 24.1833 96.3026 24.7137 96.3026 25.3197ZM108.193 29.8595C107.375 29.8595 106.661 29.672 106.051 29.297C105.441 28.922 104.968 28.3974 104.631 27.7231C104.294 27.0489 104.125 26.261 104.125 25.3595C104.125 24.4542 104.294 23.6625 104.631 22.9845C104.968 22.3065 105.441 21.7799 106.051 21.4049C106.661 21.0299 107.375 20.8424 108.193 20.8424C109.011 20.8424 109.725 21.0299 110.335 21.4049C110.945 21.7799 111.419 22.3065 111.756 22.9845C112.093 23.6625 112.261 24.4542 112.261 25.3595C112.261 26.261 112.093 27.0489 111.756 27.7231C111.419 28.3974 110.945 28.922 110.335 29.297C109.725 29.672 109.011 29.8595 108.193 29.8595ZM108.199 28.4333C108.729 28.4333 109.169 28.2932 109.517 28.0129C109.866 27.7326 110.123 27.3595 110.29 26.8936C110.46 26.4277 110.545 25.9144 110.545 25.3538C110.545 24.797 110.46 24.2856 110.29 23.8197C110.123 23.35 109.866 22.9731 109.517 22.689C109.169 22.4049 108.729 22.2629 108.199 22.2629C107.665 22.2629 107.222 22.4049 106.869 22.689C106.521 22.9731 106.261 23.35 106.091 23.8197C105.924 24.2856 105.841 24.797 105.841 25.3538C105.841 25.9144 105.924 26.4277 106.091 26.8936C106.261 27.3595 106.521 27.7326 106.869 28.0129C107.222 28.2932 107.665 28.4333 108.199 28.4333ZM116.697 29.8765C116.144 29.8765 115.644 29.7743 115.197 29.5697C114.75 29.3614 114.396 29.0602 114.135 28.6663C113.877 28.2724 113.749 27.7894 113.749 27.2174C113.749 26.725 113.843 26.3197 114.033 26.0015C114.222 25.6833 114.478 25.4315 114.8 25.2458C115.122 25.0602 115.482 24.9201 115.879 24.8254C116.277 24.7307 116.682 24.6587 117.095 24.6095C117.618 24.5489 118.042 24.4996 118.368 24.4618C118.694 24.4201 118.93 24.3538 119.078 24.2629C119.226 24.172 119.3 24.0243 119.3 23.8197V23.7799C119.3 23.2837 119.16 22.8993 118.879 22.6265C118.603 22.3538 118.19 22.2174 117.641 22.2174C117.069 22.2174 116.618 22.3443 116.288 22.5981C115.963 22.8481 115.737 23.1265 115.612 23.4333L114.016 23.0697C114.205 22.5394 114.482 22.1114 114.845 21.7856C115.213 21.4561 115.635 21.2174 116.112 21.0697C116.589 20.9182 117.091 20.8424 117.618 20.8424C117.966 20.8424 118.336 20.8841 118.726 20.9674C119.12 21.047 119.487 21.1947 119.828 21.4106C120.173 21.6265 120.455 21.9352 120.675 22.3368C120.894 22.7345 121.004 23.2515 121.004 23.8879V29.6833H119.345V28.4902H119.277C119.167 28.7099 119.002 28.9258 118.783 29.1379C118.563 29.35 118.281 29.5262 117.936 29.6663C117.591 29.8065 117.179 29.8765 116.697 29.8765ZM117.067 28.5129C117.536 28.5129 117.938 28.4201 118.271 28.2345C118.608 28.0489 118.864 27.8065 119.038 27.5072C119.216 27.2042 119.305 26.8803 119.305 26.5356V25.4106C119.245 25.4712 119.127 25.528 118.953 25.5811C118.783 25.6303 118.588 25.6739 118.368 25.7118C118.148 25.7458 117.934 25.778 117.726 25.8083C117.518 25.8349 117.343 25.8576 117.203 25.8765C116.874 25.9182 116.572 25.9883 116.3 26.0868C116.031 26.1852 115.815 26.3273 115.652 26.5129C115.493 26.6947 115.413 26.9371 115.413 27.2402C115.413 27.6606 115.569 27.9788 115.879 28.1947C116.19 28.4068 116.586 28.5129 117.067 28.5129ZM123.267 29.6833V20.9561H124.909V22.3424H125C125.159 21.8727 125.439 21.5034 125.841 21.2345C126.246 20.9618 126.705 20.8254 127.216 20.8254C127.322 20.8254 127.447 20.8292 127.591 20.8368C127.739 20.8443 127.854 20.8538 127.938 20.8652V22.4902C127.869 22.4712 127.748 22.4504 127.574 22.4277C127.4 22.4012 127.225 22.3879 127.051 22.3879C126.65 22.3879 126.292 22.4731 125.977 22.6436C125.667 22.8102 125.42 23.0432 125.239 23.3424C125.057 23.6379 124.966 23.975 124.966 24.3538V29.6833H123.267ZM132.362 29.8538C131.658 29.8538 131.029 29.6739 130.476 29.314C129.927 28.9504 129.495 28.4333 129.18 27.7629C128.87 27.0887 128.714 26.2799 128.714 25.3368C128.714 24.3936 128.872 23.5868 129.186 22.9163C129.504 22.2458 129.94 21.7326 130.493 21.3765C131.046 21.0205 131.673 20.8424 132.374 20.8424C132.915 20.8424 133.351 20.9333 133.68 21.1152C134.014 21.2932 134.271 21.5015 134.453 21.7402C134.639 21.9788 134.783 22.189 134.885 22.3708H134.987V18.047H136.686V29.6833H135.027V28.3254H134.885C134.783 28.511 134.635 28.7231 134.442 28.9618C134.252 29.2004 133.991 29.4087 133.658 29.5868C133.324 29.7648 132.893 29.8538 132.362 29.8538ZM132.737 28.4049C133.226 28.4049 133.639 28.2762 133.976 28.0186C134.317 27.7572 134.574 27.3955 134.749 26.9333C134.927 26.4712 135.016 25.9333 135.016 25.3197C135.016 24.7137 134.929 24.1833 134.754 23.7288C134.58 23.2743 134.324 22.9201 133.987 22.6663C133.65 22.4125 133.233 22.2856 132.737 22.2856C132.226 22.2856 131.8 22.4182 131.459 22.6833C131.118 22.9485 130.86 23.3102 130.686 23.7686C130.516 24.2269 130.43 24.744 130.43 25.3197C130.43 25.903 130.518 26.4277 130.692 26.8936C130.866 27.3595 131.124 27.7288 131.464 28.0015C131.809 28.2705 132.233 28.4049 132.737 28.4049Z" fill="#07294C"/>
<rect x="1.1" y="0.78335" width="158.8" height="46.8" rx="11.4" stroke="#07294C" stroke-width="1.2"/>
<defs>
<clipPath id="clip0_7_548">
<rect width="22" height="22" fill="white" transform="translate(22.5 13.1833)"/>
</clipPath>
</defs>
</svg>
