<svg width="426" height="58" viewBox="0 0 426 58" fill="none" xmlns="http://www.w3.org/2000/svg">
<path d="M28.1849 57.4322C20.1744 57.4322 13.4743 54.8363 8.08461 49.6443C2.69487 44.4029 0 37.6534 0 29.3957C0 21.0886 2.74432 14.2649 8.23295 8.92461C13.771 3.53487 20.4711 0.839996 28.3332 0.839996C33.2285 0.839996 37.7776 1.87839 41.9806 3.95517C46.1836 5.9825 49.4966 8.72682 51.9195 12.1881L44.5766 19.3827C40.2747 14.0918 35.058 11.4464 28.9266 11.4464C23.9819 11.4464 19.8283 13.1523 16.4659 16.5642C13.1035 19.9266 11.4223 24.2038 11.4223 29.3957C11.4223 34.4393 13.0788 38.6176 16.3917 41.9306C19.7047 45.2435 23.8582 46.9 28.8524 46.9C35.2311 46.9 40.5466 44.2299 44.7991 38.8896L52.3645 45.7874C49.7933 49.2982 46.3567 52.1167 42.0548 54.2429C37.8023 56.3691 33.179 57.4322 28.1849 57.4322Z" fill="#07294C"/>
<path d="M59.2363 36.5903V1.80422H70.2878V35.8486C70.2878 39.4582 71.2025 42.2025 73.0321 44.0815C74.8616 45.9605 77.4081 46.9 80.6716 46.9C83.8363 46.9 86.3333 45.9358 88.1629 44.0073C89.9924 42.0789 90.9072 39.3593 90.9072 35.8486V1.80422H102.033V36.5903C102.033 43.4634 100.005 48.6801 95.9508 52.2403C91.9456 55.8005 86.8525 57.5806 80.6716 57.5806C74.4908 57.5806 69.373 55.8005 65.3183 52.2403C61.2637 48.6801 59.2363 43.4634 59.2363 36.5903Z" fill="#07294C"/>
<path d="M139.015 57.4322C130.757 57.4322 123.909 54.7868 118.47 49.496C113.129 44.1557 110.459 37.4062 110.459 29.2474C110.459 20.9897 113.228 14.1907 118.766 8.85043C124.304 3.51014 131.202 0.839996 139.46 0.839996C143.811 0.839996 147.94 1.65587 151.847 3.28763C155.802 4.86994 159.041 7.02089 161.563 9.74048L154.368 17.6026C150.264 13.4985 145.295 11.4464 139.46 11.4464C134.367 11.4464 130.139 13.1276 126.777 16.49C123.414 19.8524 121.733 24.0802 121.733 29.1732C121.733 34.1674 123.365 38.3704 126.629 41.7822C129.991 45.1941 134.219 46.9 139.312 46.9C142.081 46.9 144.776 46.3808 147.396 45.3424C150.017 44.2546 152.217 42.8206 153.997 41.0405V33.5493H138.867V23.9813H164.011V46.5291C157.038 53.7979 148.707 57.4322 139.015 57.4322Z" fill="#037A9A"/>
<path d="M216.83 56.6164H205.259L201.18 44.7491H182.044L177.816 56.6164H166.32L187.236 1.80422H196.21L216.83 56.6164ZM198.065 34.9585L191.686 16.7125L185.159 34.9585H198.065Z" fill="#037A9A"/>
<path d="M229.063 56.6164V12.4106H213.413V1.80422H255.838V12.4106H240.188V56.6164H229.063Z" fill="#037A9A"/>
<path d="M300.089 56.6164H262.93V1.80422H300.089V12.0398H273.981V23.8329H298.161V34.0685H273.981V46.3808H300.089V56.6164Z" fill="#037A9A"/>
<path d="M369.572 56.6164H364.602L358.075 40.0021H335.008L328.481 56.6164H323.512L345.392 1.80422H347.84L369.572 56.6164ZM356.592 35.7744L346.579 9.88882L336.492 35.7744H356.592Z" fill="#037A9A"/>
<path d="M401.153 57.4322C393.043 57.4322 386.368 54.7621 381.127 49.4218C375.836 44.0321 373.19 37.3073 373.19 29.2474C373.19 21.0392 375.96 14.2649 381.498 8.92461C387.036 3.53487 393.736 0.839996 401.598 0.839996C406.098 0.839996 410.424 1.77949 414.578 3.65848C418.731 5.53747 422.02 7.98511 424.442 11.0014L421.179 13.9682C418.954 11.2486 416.086 9.12239 412.575 7.58953C409.114 6.00722 405.455 5.21607 401.598 5.21607C394.873 5.21607 389.211 7.51536 384.613 12.1139C380.064 16.6631 377.789 22.3742 377.789 29.2474C377.789 36.1205 380.014 41.8317 384.464 46.3808C388.915 50.8805 394.502 53.1303 401.227 53.1303C408.941 53.1303 415.74 50.1141 421.624 44.0815V31.25H399.744V27.0223H426V45.7874C419.275 53.5506 410.993 57.4322 401.153 57.4322Z" fill="#037A9A"/>
</svg>
