<svg width="31" height="28" viewBox="0 0 31 28" fill="none" xmlns="http://www.w3.org/2000/svg">
<g clip-path="url(#clip0_1587_4060)">
<path d="M0.565918 21.8182C0.651878 21.5625 0.651878 21.392 0.737838 21.1364C1.2536 19.3466 2.37108 18.2386 4.09027 17.642C4.17623 17.642 4.17623 17.642 4.26219 17.5568C4.26219 17.5568 4.26219 17.5568 4.34815 17.5568C3.83239 15.0852 4.43411 12.9545 6.23927 11.1648C8.04443 9.46023 10.2794 8.94886 12.6863 9.54545C12.6863 9.46023 12.7722 9.375 12.7722 9.375C13.7178 6.39204 16.4685 4.60227 19.5631 4.6875C22.5716 4.85795 25.0645 6.98864 25.7522 9.97159C26.4398 12.8693 24.9785 15.8523 22.3138 17.2159C22.0559 17.3011 21.9699 17.4716 22.1418 17.7273C22.2278 17.8125 22.2278 17.983 22.2278 18.0682C22.2278 18.5795 22.4857 18.75 22.9155 18.9205C24.8066 19.517 26.01 21.4773 25.7522 23.3523C25.5802 25.3977 24.033 27.017 21.9699 27.2727C21.712 27.2727 21.4542 27.2727 21.1963 27.2727C16.0387 27.2727 10.8811 27.2727 5.72351 27.2727C3.05875 27.2727 1.08168 25.5682 0.651878 23.0114C0.651878 22.9261 0.651878 22.9261 0.565918 22.8409C0.565918 22.5 0.565918 22.1591 0.565918 21.8182ZM13.3739 25.5682C16.0387 25.5682 18.6175 25.5682 21.2822 25.5682C22.7436 25.5682 23.947 24.375 23.947 23.0114C23.947 21.5625 22.8295 20.4545 21.3682 20.3693C20.6805 20.3693 20.3367 19.9432 20.4227 19.2614C20.5946 17.8977 19.735 16.6193 18.3596 16.3636C17.8439 16.2784 17.4141 16.2784 16.9843 16.4489C16.3825 16.6193 15.8668 16.2784 15.7808 15.6818C15.7808 15.5966 15.7808 15.5114 15.7808 15.4261C15.5229 13.125 13.5459 11.25 11.139 11.0795C7.44271 10.9091 4.86391 14.4886 6.23927 17.8125C6.58311 18.5795 6.23927 19.0909 5.37967 19.1761C3.74643 19.2614 2.37108 20.625 2.37108 22.2443C2.28512 24.0341 3.66047 25.483 5.55159 25.5682C8.21635 25.5682 10.7951 25.5682 13.3739 25.5682ZM17.4141 14.4886C17.5 14.4886 17.5 14.4886 17.5 14.4886C18.7894 14.4034 19.9929 14.8295 20.9384 15.6818C21.0244 15.767 21.1963 15.767 21.2822 15.6818C23.0014 14.8295 24.033 13.3807 24.1189 11.5057C24.2908 8.26705 21.3682 5.79545 18.1017 6.47727C16.2106 6.81818 14.6633 8.4375 14.3195 10.2273C15.8668 11.25 16.8983 12.6989 17.4141 14.4886Z" fill="#00CBD8"/>
<path d="M18.2734 1.44886C18.2734 1.27841 18.2734 1.02273 18.2734 0.852273C18.2734 0.340909 18.7032 0 19.133 0C19.5628 0 19.9926 0.340909 19.9926 0.852273C19.9926 1.27841 19.9926 1.70455 19.9926 2.13068C19.9926 2.64205 19.5628 2.98295 19.133 2.98295C18.7032 2.98295 18.2734 2.64205 18.2734 2.13068C18.2734 1.875 18.2734 1.61932 18.2734 1.44886Z" fill="#00CBD8"/>
<path d="M29.0184 12.1875C28.8465 12.1875 28.6746 12.1875 28.5027 12.1875C27.9869 12.1875 27.6431 11.7614 27.6431 11.3352C27.6431 10.8239 27.9869 10.483 28.5027 10.483C28.9325 10.483 29.2763 10.483 29.7061 10.483C30.2219 10.483 30.5657 10.9091 30.5657 11.3352C30.5657 11.8466 30.2219 12.1875 29.7061 12.1875C29.4482 12.1875 29.2763 12.1875 29.0184 12.1875Z" fill="#00CBD8"/>
<path d="M26.354 15.9375C26.354 15.3409 27.0417 14.9148 27.5574 15.1705C27.9872 15.3409 28.3311 15.5966 28.6749 15.8523C29.1047 16.108 29.1907 16.6193 28.9328 16.9602C28.6749 17.3864 28.1592 17.4716 27.7294 17.3011C27.3855 17.1307 27.0417 16.875 26.6978 16.7045C26.5259 16.5341 26.354 16.2784 26.354 15.9375Z" fill="#00CBD8"/>
<path d="M14.4057 4.17614C14.0618 4.17614 13.804 4.00568 13.718 3.75C13.4601 3.40909 13.2882 3.06818 13.1163 2.64205C12.8584 2.21591 13.0303 1.70455 13.4601 1.44887C13.8899 1.19318 14.4057 1.36364 14.6636 1.70455C14.9214 2.04546 15.0934 2.38637 15.2653 2.8125C15.5232 3.49432 15.0934 4.17614 14.4057 4.17614Z" fill="#00CBD8"/>
<path d="M23.7751 4.17613C23.1734 4.17613 22.6576 3.57954 23.0015 2.98295C23.1734 2.55682 23.4313 2.21591 23.6892 1.875C23.947 1.44886 24.4628 1.36363 24.8926 1.61932C25.2364 1.875 25.4084 2.30113 25.2364 2.72727C25.0645 3.15341 24.8066 3.49432 24.5488 3.83522C24.3768 4.00568 24.119 4.17613 23.7751 4.17613Z" fill="#00CBD8"/>
<path d="M11.9128 6.64772C11.8269 7.32954 11.2252 7.75568 10.6234 7.5C10.1937 7.32954 9.84981 7.07386 9.42001 6.81818C9.07617 6.5625 8.99021 6.05113 9.16213 5.71022C9.42001 5.36931 9.84981 5.19886 10.2796 5.36931C10.7094 5.53977 11.1392 5.79545 11.483 6.05113C11.7409 6.13636 11.8269 6.39204 11.9128 6.64772Z" fill="#00CBD8"/>
<path d="M26.354 6.64772C26.354 6.30681 26.5259 6.05113 26.7838 5.88068C27.1276 5.71022 27.4715 5.45454 27.8153 5.28409C28.2451 5.02841 28.7609 5.19886 29.0188 5.625C29.2766 6.05113 29.1907 6.5625 28.7609 6.81818C28.417 7.07386 27.9872 7.24431 27.6434 7.5C27.0417 7.75568 26.354 7.32954 26.354 6.64772Z" fill="#00CBD8"/>
</g>
<defs>
<clipPath id="clip0_1587_4060">
<rect width="30" height="27.2727" fill="white" transform="translate(0.565918)"/>
</clipPath>
</defs>
</svg>
