<svg width="31" height="32" viewBox="0 0 31 32" fill="none" xmlns="http://www.w3.org/2000/svg">
<g clip-path="url(#clip0_1587_4100)">
<path d="M9.99881 31.1907H9.9336C9.41186 31.0603 9.15099 30.6038 9.34664 30.082C9.80316 29.0385 10.2597 27.9951 10.7814 27.0168C11.4988 25.4516 12.2162 23.8211 12.9336 22.2559C12.9336 22.1907 12.9988 22.1255 13.064 21.9951C12.9336 21.9951 12.8684 21.9951 12.8032 21.9951C11.3684 21.9951 9.9336 21.9951 8.49881 21.9951C7.84664 21.9951 7.52055 21.4733 7.78142 20.8211C7.91186 20.5603 7.97708 20.2994 8.10751 20.1038C8.10751 20.0385 8.17273 19.9733 8.17273 19.9081C8.04229 19.9081 7.91186 19.9081 7.84664 19.9081C7.19447 19.9081 6.47708 19.9081 5.8249 19.9081C3.47708 19.8429 1.45534 18.0168 1.06403 15.7342C0.607511 12.9951 2.17273 10.5168 4.84664 9.7994C5.10751 9.73419 5.17273 9.66897 5.17273 9.4081C5.23795 8.16897 5.69447 6.99506 6.47708 6.01679C7.45534 4.84288 8.69447 4.19071 10.1945 4.06027C10.8466 3.99506 11.4988 4.06027 12.151 4.19071C12.3466 4.25593 12.3466 4.19071 12.4771 4.06027C13.064 2.88636 13.9119 1.97332 15.0206 1.32114C15.8684 0.603751 16.7814 0.277664 17.8249 0.147229C19.5206 -0.0484231 21.151 0.277664 22.5858 1.25592C24.2162 2.36462 25.1945 3.86462 25.5858 5.82114C25.651 6.01679 25.651 6.27766 25.651 6.47332C25.651 6.73419 25.7814 6.86462 26.0423 6.92984C27.151 7.25593 28.064 7.77766 28.8466 8.56027C29.9553 9.66897 30.6075 10.9733 30.8032 12.4733C30.8032 12.5385 30.8032 12.5385 30.8684 12.6038C30.8684 12.9951 30.8684 13.3864 30.8684 13.7777C30.8684 13.9081 30.8032 14.0385 30.8032 14.169C30.3466 17.2994 27.7379 19.6472 24.6075 19.7124C23.6292 19.7124 22.5858 19.7124 21.6075 19.7124C21.3466 19.7124 21.2162 19.7777 21.0858 19.9733C19.4553 21.669 17.8249 23.4298 16.1945 25.1255C14.564 26.8864 12.8684 28.582 11.2379 30.3429C10.9119 30.669 10.7162 31.0603 10.1945 31.1255C10.064 31.1907 9.99881 31.1907 9.99881 31.1907ZM23.1075 17.8864V17.9516C23.6945 17.9516 24.2814 17.9516 24.8684 17.8864C26.7597 17.6255 28.064 16.582 28.651 14.8211C29.3032 12.9951 28.8466 11.3646 27.5423 9.99506C26.7597 9.14723 25.7814 8.75593 24.6727 8.62549C24.151 8.56027 23.8249 8.2994 23.7597 7.84288C23.7597 7.71245 23.7597 7.51679 23.7597 7.38636C23.7597 7.06027 23.7597 6.66897 23.6945 6.34288C23.2379 3.66897 20.6945 1.77766 18.0858 2.10375C16.3249 2.36462 15.0206 3.14723 14.1727 4.71245C13.9771 5.03853 13.8466 5.42984 13.7162 5.75592C13.4553 6.27766 13.064 6.47332 12.4771 6.27766C12.4119 6.27766 12.3466 6.21245 12.2814 6.21245C11.564 5.88636 10.7814 5.82114 9.99881 5.95158C8.30316 6.27766 6.99881 7.77766 6.99881 9.53853C6.99881 9.86462 7.06403 10.2559 7.06403 10.582C7.06403 11.0385 6.73795 11.4298 6.28142 11.4951C6.15099 11.4951 6.08577 11.4951 5.95534 11.5603C4.06403 11.6907 2.75968 13.0603 2.75968 14.9516C2.75968 16.582 4.19447 18.082 5.8249 18.082C6.80316 18.082 7.78142 18.082 8.75968 18.1472C8.89012 18.1472 8.95534 18.082 9.02055 17.9516C10.3901 14.8864 11.7597 11.8211 13.1292 8.69071C13.3249 8.2994 13.5858 8.10375 14.0423 8.03853C16.064 7.97332 18.0858 7.84288 20.1075 7.71245C20.2379 7.71245 20.3684 7.71245 20.4988 7.77766C20.8901 7.97332 21.0206 8.42984 20.8249 8.88636C19.9119 10.7777 19.064 12.669 18.151 14.5603C18.151 14.6255 18.0858 14.6907 18.0858 14.7559C18.7379 14.7559 19.3249 14.8211 19.9771 14.8211C21.3466 14.8864 22.7814 14.8864 24.151 14.9516C24.4771 14.9516 24.7379 15.1472 24.8684 15.4081C24.9988 15.7342 24.9336 15.9951 24.6727 16.2559C24.151 16.7777 23.6292 17.3646 23.1075 17.8864ZM12.7379 26.4298C15.9336 23.1038 19.1292 19.7124 22.3901 16.3864C21.4119 16.3864 20.564 16.3211 19.651 16.3211C18.7379 16.3211 17.8249 16.2559 16.9119 16.2559C16.4553 16.2559 16.1292 15.9298 16.1292 15.4733C16.1292 15.2777 16.1945 15.082 16.2597 14.9516C17.1075 13.1255 17.9553 11.2994 18.8684 9.4081C18.8684 9.34288 18.9336 9.27766 18.9336 9.27766C18.8684 9.27766 18.8684 9.27766 18.8684 9.27766C17.4336 9.34288 16.064 9.4081 14.6292 9.47332C14.4988 9.47332 14.4336 9.53853 14.4336 9.66897C12.8684 13.1255 11.3684 16.582 9.80316 20.0385C9.73795 20.169 9.73795 20.2342 9.67273 20.4298C9.80316 20.4298 9.86838 20.4298 9.9336 20.4298C11.3684 20.4298 12.8032 20.4298 14.1727 20.4298C14.8249 20.4298 15.2162 21.0168 14.9553 21.6038C14.3032 23.0385 13.651 24.4733 12.9988 25.9081C12.8684 26.0385 12.8032 26.2342 12.7379 26.4298Z" fill="#00CBD8"/>
</g>
<defs>
<clipPath id="clip0_1587_4100">
<rect width="30" height="31.1087" fill="white" transform="translate(0.868164 0.082016)"/>
</clipPath>
</defs>
</svg>
