<svg width="31" height="29" viewBox="0 0 31 29" fill="none" xmlns="http://www.w3.org/2000/svg">
<path d="M13.2444 0.598398C13.7019 0.718535 14.2248 0.778604 14.6823 0.89874C16.5124 1.43936 17.9503 2.52059 18.8653 4.08236C18.9307 4.14243 18.9307 4.2025 18.9961 4.26257C19.4536 4.2025 19.8457 4.08236 20.3032 4.08236C23.5059 3.96223 26.0549 6.06462 26.251 9.06804C26.251 9.24825 26.3163 9.30831 26.5124 9.36838C28.8653 9.909 30.5647 11.8913 30.434 14.1138C30.3032 16.3964 28.5385 18.3186 26.0549 18.6189C25.7281 18.679 25.4013 18.679 25.1398 18.679C19.1268 18.679 13.1137 18.679 7.10063 18.679C3.83266 18.679 1.21828 16.6967 0.564688 13.8134C-0.0889069 10.75 1.93724 7.68647 5.20521 6.84551C5.46665 6.78544 5.59737 6.6653 5.59737 6.42503C5.79345 3.60182 8.27711 1.13901 11.2836 0.658467C11.4797 0.598398 11.6758 0.598398 11.9372 0.53833C12.3948 0.598398 12.8523 0.598398 13.2444 0.598398ZM16.0549 16.9971C17.1006 16.9971 18.1464 16.9971 19.1921 16.9971C21.2836 16.9971 23.3098 17.0571 25.4013 16.9971C27.8196 16.937 29.2575 14.4742 28.081 12.552C27.4928 11.5308 26.5124 11.0503 25.2052 10.9902C24.4209 10.9902 24.0941 10.5697 24.1595 9.84893C24.2248 9.42845 24.2248 8.9479 24.1595 8.52742C23.6366 6.30489 21.0876 5.1636 18.9307 6.12469C18.2117 6.42503 17.6889 6.24483 17.4274 5.58407C16.7085 3.72195 15.2706 2.64072 13.1791 2.34038C10.0418 1.9199 7.16599 4.44277 7.42743 7.38613C7.49279 7.98681 7.16599 8.34722 6.5124 8.40729C3.70194 8.64756 1.74116 11.1704 2.39475 13.6933C2.91763 15.6756 4.74769 16.9971 7.03528 16.9971C10.1072 16.9971 13.0483 16.9971 16.0549 16.9971Z" fill="#00CBD8"/>
<path d="M18.8 25.2264C18.0157 25.2264 17.5582 24.5657 17.885 23.965C18.2118 23.3043 18.5386 22.7036 18.9308 22.0428C19.1922 21.5623 19.4536 21.0217 19.7151 20.5411C19.9765 20.0606 20.4994 19.8804 21.0223 20.1206C21.4798 20.3609 21.6759 20.8414 21.4144 21.322C20.8262 22.4633 20.1726 23.5445 19.5844 24.6858C19.3883 24.9862 19.1268 25.1664 18.8 25.2264Z" fill="#00CBD8"/>
<path d="M15.9242 23.9049C15.8588 24.0851 15.8588 24.2053 15.7281 24.3855C15.1399 25.4667 14.5517 26.608 13.9634 27.6892C13.702 28.1698 13.1791 28.35 12.6562 28.1698C12.1987 27.9295 12.0026 27.449 12.2641 26.9684C12.8523 25.8271 13.5059 24.7459 14.0941 23.6046C14.2902 23.2442 14.7477 23.064 15.1399 23.124C15.5974 23.1841 15.9242 23.5445 15.9242 23.9049Z" fill="#00CBD8"/>
<path d="M4.68245 20.9015C4.61709 21.0817 4.61709 21.2019 4.48637 21.3821C3.89814 22.4633 3.3099 23.6046 2.72167 24.6858C2.46023 25.1664 1.93735 25.3466 1.41448 25.1664C0.891602 24.9261 0.760883 24.4455 1.02232 23.9049C1.61056 22.7636 2.19879 21.6824 2.85239 20.5411C3.04846 20.1206 3.50598 20.0005 3.89814 20.0606C4.35565 20.1807 4.61709 20.481 4.68245 20.9015Z" fill="#00CBD8"/>
<path d="M20.5645 27.3288C20.6298 27.1486 20.6298 27.0285 20.7605 26.8483C21.3488 25.7671 21.937 24.6258 22.5252 23.5445C22.7867 23.064 23.3096 22.8838 23.8324 23.064C24.2899 23.3043 24.486 23.7848 24.2246 24.2654C23.6363 25.4067 23.0481 26.4879 22.3945 27.6292C22.1984 28.0497 21.7409 28.2299 21.3488 28.1097C20.8913 28.1097 20.6298 27.7493 20.5645 27.3288Z" fill="#00CBD8"/>
<path d="M10.3684 25.2264C9.58409 25.2264 9.12657 24.5657 9.45337 23.965C9.78017 23.3643 10.107 22.7636 10.4338 22.223C10.6952 21.6824 11.022 21.1418 11.2834 20.6012C11.5449 20.1206 12.0678 19.8803 12.5906 20.1206C13.0481 20.3609 13.2442 20.8414 12.9828 21.322C12.3945 22.4032 11.8063 23.5445 11.2181 24.6257C10.9566 24.9862 10.6952 25.1664 10.3684 25.2264Z" fill="#00CBD8"/>
<path d="M7.493 23.9049C7.42764 24.0851 7.42764 24.2053 7.29692 24.3855C6.70868 25.4667 6.12045 26.608 5.53221 27.6892C5.27078 28.1698 4.7479 28.35 4.22502 28.1698C3.70215 27.9295 3.57143 27.449 3.83287 26.9084C4.4211 25.7671 5.0747 24.6858 5.66293 23.5445C5.85901 23.1841 6.31653 23.0039 6.70868 23.064C7.1662 23.1841 7.42764 23.4845 7.493 23.9049Z" fill="#00CBD8"/>
<path d="M27.2312 25.2264C26.4469 25.2264 25.9894 24.5657 26.3162 24.0251C26.5776 23.5445 26.839 23.0039 27.1005 22.5234C27.4273 21.9227 27.7541 21.2619 28.1462 20.6612C28.4077 20.1206 28.9305 19.9404 29.4534 20.1807C29.9763 20.421 30.107 20.9015 29.8456 21.4421C29.2573 22.5234 28.6691 23.6046 28.0809 24.7459C27.8848 24.9862 27.558 25.2264 27.2312 25.2264Z" fill="#00CBD8"/>
</svg>
