<svg width="27" height="29" viewBox="0 0 27 29" fill="none" xmlns="http://www.w3.org/2000/svg">
<path d="M13.5151 0C14.0991 0.219007 14.3181 0.657021 14.3181 1.31404C14.3181 2.26307 14.3181 3.1391 14.3181 4.16113C14.4642 4.08813 14.5372 4.01513 14.6102 3.94212C15.3402 3.35811 16.0702 2.84709 16.8732 2.26307C17.2382 1.97106 17.6033 1.97106 18.0413 2.19007C18.4063 2.40908 18.5523 2.77409 18.5523 3.2121C18.4793 3.57711 18.3333 3.79612 18.0413 3.94212C16.8732 4.81815 15.7052 5.69418 14.6102 6.49721C14.5372 6.57021 14.3912 6.71621 14.3912 6.86222C14.3912 8.68727 14.3912 10.5853 14.3912 12.4104C14.3912 12.4834 14.3912 12.4834 14.3912 12.5564C14.4642 12.4834 14.5372 12.4834 14.6102 12.4104C16.1432 11.4614 17.7493 10.5123 19.2823 9.5633C19.3553 9.4903 19.5013 9.3443 19.5013 9.27129C19.6473 7.81125 19.7933 6.4242 19.9393 4.96416C20.0123 4.30714 20.3773 3.86912 20.9614 3.86912C21.6184 3.86912 22.0564 4.38014 21.9834 5.11016C21.9104 6.05919 21.7644 7.00822 21.6914 8.03025V8.10326C21.7644 8.03025 21.9104 8.03025 21.9834 7.95725C22.7864 7.51924 23.5164 7.00822 24.3195 6.57021C24.9035 6.2052 25.4875 6.3512 25.7795 6.86222C26.0715 7.37323 25.9255 8.03025 25.3415 8.32226C24.5385 8.76028 23.8084 9.27129 23.0054 9.70931C22.9324 9.78231 22.8594 9.78231 22.7134 9.92831C23.5894 10.2933 24.4655 10.6583 25.2685 10.9503C25.3415 11.0233 25.4875 11.0233 25.5605 11.0964C26.0715 11.3154 26.3635 11.8994 26.1445 12.4834C25.9255 12.9944 25.3415 13.2864 24.8305 13.0674C23.8815 12.7024 22.9324 12.2644 21.9104 11.8994C21.4724 11.7534 21.0344 11.5344 20.6693 11.3884C20.5963 11.3884 20.4503 11.3884 20.3773 11.3884C18.6983 12.3374 17.0922 13.3594 15.4132 14.3815C15.4132 14.3815 15.3402 14.4545 15.2672 14.4545C15.7052 14.7465 16.1432 14.9655 16.5812 15.2575C17.8223 15.9875 19.0633 16.7175 20.2313 17.4476C20.3773 17.5206 20.5233 17.5206 20.6693 17.4476C22.0564 16.8635 23.3704 16.3525 24.7575 15.7685C25.2685 15.5495 25.7795 15.6955 26.0715 16.0605C26.3635 16.4255 26.3635 16.9365 26.0715 17.3015C25.9255 17.4476 25.7065 17.5936 25.4875 17.6666C24.6115 18.0316 23.6624 18.3966 22.7864 18.7616C22.9324 18.8346 23.0054 18.9076 23.0784 18.9076C23.8815 19.4186 24.6845 19.8566 25.4875 20.3676C25.8525 20.5867 26.0715 21.0247 25.9985 21.4627C25.9255 21.9007 25.6335 22.1927 25.1955 22.2657C24.9765 22.2657 24.6115 22.1927 24.3925 22.1197C23.5894 21.6817 22.8594 21.1707 22.0564 20.7327C21.9834 20.6597 21.9104 20.6597 21.7644 20.5867C21.8374 21.2437 21.9104 21.8277 21.9104 22.4117C21.9834 22.8497 21.9834 23.2877 22.0564 23.6528C22.1294 24.2368 21.6914 24.6748 21.1804 24.7478C20.5963 24.8208 20.0853 24.4558 20.0123 23.8718C19.8663 23.0687 19.7933 22.1927 19.7203 21.3167C19.6473 20.6597 19.5743 19.9296 19.5013 19.2726C19.5013 19.1996 19.4283 19.0536 19.3553 19.0536C17.7493 18.1046 16.1432 17.0825 14.5372 16.1335C14.4642 16.1335 14.4642 16.1335 14.3912 16.0605C14.3912 16.2065 14.3912 16.2795 14.3912 16.4255C14.3912 18.1776 14.3912 19.9296 14.3912 21.7547C14.3912 21.9737 14.4642 22.1197 14.6102 22.2657C15.7782 23.1417 16.9462 24.0178 18.1143 24.8938C18.5523 25.2588 18.6983 25.6968 18.4793 26.2078C18.2603 26.6458 17.8223 26.9379 17.3112 26.7918C17.0922 26.7188 16.9462 26.6458 16.7272 26.4998C15.9972 25.9888 15.3402 25.4778 14.6102 24.8938C14.5372 24.8208 14.4642 24.8208 14.3181 24.7478C14.3181 24.8938 14.3181 25.0398 14.3181 25.1858C14.3181 26.0618 14.3181 26.9379 14.3181 27.8139C14.3181 28.4709 13.8801 28.9089 13.2961 28.9089C12.7121 28.9089 12.2741 28.4709 12.2741 27.8139C12.2741 26.9379 12.2741 25.9888 12.2741 25.1128C12.2741 25.0398 12.2741 24.8938 12.2741 24.7478C12.2011 24.8208 12.1281 24.8208 12.0551 24.8938C11.3251 25.4778 10.522 26.0618 9.79201 26.5728C9.427 26.8649 8.91598 26.8649 8.55097 26.5728C8.18596 26.3538 7.96695 25.9158 8.11295 25.4778C8.18596 25.2588 8.40496 24.9668 8.55097 24.8208C9.719 23.9448 10.814 23.0687 11.9821 22.2657C12.1281 22.1197 12.2011 22.0467 12.2011 21.8277C12.2011 20.0756 12.2011 18.2506 12.2011 16.4985C12.2011 16.4255 12.2011 16.2795 12.2011 16.2065C12.0551 16.2795 11.9821 16.2795 11.9091 16.3525C10.376 17.2285 8.91598 18.1776 7.38293 19.0536C7.16392 19.1996 7.01792 19.3456 7.01792 19.6376C6.87191 21.0247 6.72591 22.4847 6.57991 23.8718C6.5069 24.4558 5.99589 24.8938 5.48487 24.8208C4.90085 24.7478 4.46284 24.3098 4.53584 23.6528C4.60884 22.7767 4.68185 21.9737 4.75485 21.0977C4.75485 20.9517 4.75485 20.7327 4.82785 20.5136C4.68185 20.5867 4.60884 20.5867 4.53584 20.6597C3.73282 21.0977 3.00279 21.6087 2.19977 22.0467C1.61575 22.4117 1.03173 22.2657 0.666719 21.7547C0.37471 21.2437 0.520714 20.6597 1.10473 20.2946C1.83476 19.8566 2.63778 19.3456 3.3678 18.9076C3.44081 18.8346 3.51381 18.7616 3.65981 18.6886C3.51381 18.6156 3.3678 18.5426 3.2218 18.4696C2.56478 18.5426 1.76175 18.2506 0.958728 17.8856C0.520714 17.6666 0.228705 17.3015 0.301707 16.8635C0.301707 16.4255 0.593716 16.0605 1.03173 15.9875C1.25074 15.9145 1.54275 15.9875 1.83476 16.0605C3.2218 16.5715 4.53584 17.1555 5.84988 17.6666C5.92288 17.7396 6.14189 17.7396 6.21489 17.6666C7.89395 16.7175 9.5 15.6955 11.179 14.7465L11.2521 14.6735C11.1791 14.6005 11.106 14.6005 11.033 14.5275C9.42699 13.5784 7.82094 12.6294 6.2879 11.6804C6.14189 11.6074 5.99589 11.6074 5.84988 11.6804C4.53584 12.2644 3.1488 12.7754 1.83476 13.2864C1.61575 13.3594 1.32374 13.4324 1.03173 13.3594C0.593716 13.2864 0.301707 12.8484 0.301707 12.4834C0.301707 11.9724 0.520714 11.6074 0.958728 11.4614C1.83476 11.0964 2.63778 10.8043 3.51381 10.4393C3.58681 10.3663 3.73282 10.3663 3.80582 10.2933C3.51381 10.0743 3.2218 9.92831 2.92979 9.78231C2.34577 9.4173 1.76175 9.12529 1.17773 8.76028C0.593716 8.39527 0.447712 7.81125 0.739721 7.30023C1.03173 6.78921 1.68875 6.64321 2.19977 7.00822C3.00279 7.44624 3.73282 7.95725 4.46284 8.39527C4.53584 8.46827 4.60884 8.46827 4.75485 8.54127C4.75485 8.17626 4.68185 7.81125 4.68185 7.51924C4.75485 6.64321 4.68185 5.98619 4.60884 5.32917C4.53584 4.67215 4.82785 4.16113 5.41187 4.08813C6.06889 4.01513 6.57991 4.38014 6.65291 4.96416C6.79891 6.05919 6.87191 7.08122 6.94492 8.17626C7.01792 8.61427 7.01792 9.05229 7.09092 9.4903C7.09092 9.5633 7.16392 9.70931 7.23693 9.78231C8.84298 10.7313 10.449 11.7534 12.1281 12.7024C12.1281 12.7024 12.2011 12.7024 12.2741 12.7754C12.2741 12.7024 12.2741 12.5564 12.2741 12.4834C12.2741 10.6583 12.2741 8.90628 12.2741 7.08122C12.2741 6.86222 12.2011 6.78922 12.0551 6.64321C10.887 5.76718 9.719 4.89115 8.55097 4.01513C8.03995 3.65012 7.96695 3.0661 8.18596 2.62808C8.47797 2.11707 9.20799 1.97106 9.719 2.33607C10.449 2.92009 11.1791 3.43111 11.9821 4.01513C12.0551 4.08813 12.1281 4.08813 12.2011 4.16113C12.2011 4.01513 12.2011 3.94212 12.2011 3.86912C12.2011 2.99309 12.2011 2.19007 12.2011 1.31404C12.2011 0.657021 12.4201 0.219007 13.0041 0.0730023C13.2231 0 13.3691 0 13.5151 0Z" fill="#00CBD8"/>
</svg>
