<svg width="26" height="26" viewBox="0 0 26 26" fill="none" xmlns="http://www.w3.org/2000/svg">
<g clip-path="url(#clip0_1587_4070)">
<path d="M13.065 0C13.65 0.195 13.91 0.65 13.91 1.235C13.91 1.495 13.91 1.755 13.91 2.015C13.91 2.6 13.455 2.99 12.87 2.99C12.35 2.99 11.895 2.535 11.83 2.015C11.83 1.755 11.83 1.495 11.83 1.235C11.765 0.585 12.025 0.195 12.675 0C12.805 0 12.935 0 13.065 0Z" fill="#00CBD8"/>
<path d="M25.9998 13.195C25.8048 13.78 25.3498 14.04 24.6998 14.04C24.4398 14.04 24.1798 14.04 23.9198 14.04C23.3348 14.04 22.9448 13.585 22.9448 13C22.9448 12.48 23.3998 12.025 23.9198 11.96C24.1798 11.96 24.4398 11.96 24.6998 11.96C25.3498 11.895 25.7398 12.155 25.9348 12.805C25.9998 12.935 25.9998 13.065 25.9998 13.195Z" fill="#00CBD8"/>
<path d="M12.9998 5.07001C17.3548 5.07001 20.9298 8.64501 20.9298 13C20.9298 17.355 17.3548 20.93 12.9998 20.93C8.64482 20.93 5.06982 17.355 5.06982 13C5.06982 8.64501 8.64482 5.07001 12.9998 5.07001ZM7.08482 13C7.08482 16.25 9.68482 18.915 12.9348 18.915C16.1848 18.915 18.8498 16.315 18.8498 13.065C18.8498 9.81501 16.2498 7.15001 12.9998 7.15001C9.74982 7.08501 7.08482 9.75001 7.08482 13Z" fill="#00CBD8"/>
<path d="M1.56 11.96C1.755 11.96 1.885 11.96 2.08 11.96C2.665 11.96 3.055 12.415 3.055 12.935C3.055 13.52 2.6 13.975 2.08 13.975C1.755 13.975 1.365 13.975 1.04 13.975C0.455 13.975 0 13.52 0 13C0 12.48 0.455 12.025 0.975 12.025C1.17 11.96 1.365 11.96 1.56 11.96Z" fill="#00CBD8"/>
<path d="M13.8451 24.44C13.8451 24.635 13.8451 24.83 13.8451 25.025C13.8451 25.61 13.3901 26 12.8051 26C12.2851 26 11.8301 25.545 11.8301 25.025C11.8301 24.635 11.8301 24.31 11.8301 23.92C11.8301 23.4 12.2851 22.945 12.8051 22.945C13.3251 22.945 13.7801 23.335 13.8451 23.92C13.8451 24.115 13.8451 24.31 13.8451 24.44Z" fill="#00CBD8"/>
<path d="M7.02001 1.625C7.41001 1.625 7.67001 1.755 7.86501 2.08C8.06001 2.405 8.25501 2.73 8.45001 3.055C8.71001 3.51 8.51501 4.095 8.06001 4.355C7.60501 4.615 7.02001 4.485 6.69501 4.03C6.50001 3.705 6.30501 3.38 6.11001 3.055C5.78501 2.405 6.24001 1.625 7.02001 1.625Z" fill="#00CBD8"/>
<path d="M7.02021 24.375C6.30521 24.375 5.78521 23.66 6.11021 22.945C6.30521 22.555 6.50021 22.23 6.69521 21.84C6.95521 21.385 7.54021 21.32 7.99521 21.515C8.45021 21.775 8.64521 22.295 8.45021 22.75C8.25521 23.14 8.06021 23.53 7.80021 23.92C7.60521 24.245 7.34521 24.375 7.02021 24.375Z" fill="#00CBD8"/>
<path d="M3.37999 8.645C3.37999 8.645 3.24999 8.645 3.18499 8.645C2.72999 8.385 2.27499 8.19 1.81999 7.865C1.42999 7.605 1.42999 7.02 1.68999 6.63C1.94999 6.175 2.46999 5.98 2.92499 6.175C3.31499 6.37 3.63999 6.565 4.02999 6.76C4.41999 7.02 4.54999 7.475 4.41999 7.93C4.28999 8.32 3.83499 8.645 3.37999 8.645Z" fill="#00CBD8"/>
<path d="M21.5801 7.67001C21.5801 7.28001 21.7751 7.02001 22.1001 6.82501C22.4251 6.63001 22.7501 6.43501 23.0751 6.30501C23.5951 6.04501 24.1801 6.24001 24.4401 6.69501C24.7001 7.15001 24.5701 7.73501 24.0501 8.06001C23.7251 8.25501 23.4001 8.45001 23.0751 8.58001C22.3601 8.90501 21.5801 8.38501 21.5801 7.67001Z" fill="#00CBD8"/>
<path d="M24.4402 18.85C24.4402 19.565 23.6602 20.085 23.0102 19.76C22.6202 19.565 22.2952 19.37 21.9702 19.175C21.5152 18.915 21.3852 18.33 21.6452 17.81C21.9052 17.355 22.4902 17.16 22.9452 17.42C23.2702 17.615 23.6602 17.81 23.9852 18.005C24.3102 18.2 24.4402 18.525 24.4402 18.85Z" fill="#00CBD8"/>
<path d="M20.2798 2.92501C20.0848 3.44501 19.8248 4.09501 19.2398 4.55001C18.9148 4.81001 18.3948 4.68001 18.0698 4.42001C17.7448 4.09501 17.6798 3.64001 17.8748 3.25001C18.0698 2.86001 18.2648 2.53501 18.5248 2.21001C18.7848 1.88501 19.2398 1.75501 19.6298 1.88501C20.0198 1.95001 20.2798 2.34001 20.2798 2.92501Z" fill="#00CBD8"/>
<path d="M20.2798 23.14C20.2798 23.66 20.0198 24.05 19.5648 24.18C19.1748 24.31 18.6548 24.18 18.4598 23.855C18.1998 23.53 18.0048 23.205 17.8098 22.815C17.5498 22.36 17.7448 21.84 18.1348 21.58C18.5248 21.255 19.1098 21.32 19.4348 21.71C19.7598 22.1 19.9548 22.555 20.2148 22.945C20.2798 23.01 20.2798 23.14 20.2798 23.14Z" fill="#00CBD8"/>
<path d="M1.49512 18.785C1.49512 18.395 1.62512 18.135 1.95012 17.94C2.27512 17.745 2.60012 17.55 2.92512 17.42C3.38012 17.16 3.96512 17.355 4.22512 17.81C4.55012 18.265 4.42012 18.85 3.96512 19.175C3.64012 19.37 3.31512 19.565 2.92512 19.76C2.27512 20.02 1.49512 19.565 1.49512 18.785Z" fill="#00CBD8"/>
</g>
<defs>
<clipPath id="clip0_1587_4070">
<rect width="26" height="26" fill="white"/>
</clipPath>
</defs>
</svg>
