<svg width="26" height="27" viewBox="0 0 26 27" fill="none" xmlns="http://www.w3.org/2000/svg">
<path d="M16.51 26.1907C15.99 26.0607 15.405 25.9307 14.885 25.7357C13 24.8257 12.025 23.3307 11.96 21.2507C11.96 20.6007 12.415 20.1457 13 20.1457C13.585 20.1457 13.975 20.6007 14.04 21.1857C14.105 22.7457 15.275 23.9807 16.835 24.1107C18.395 24.2407 19.76 23.0707 20.02 21.5757C20.28 19.8207 18.915 18.2607 17.225 18.1957C16.9 18.1957 16.575 18.1957 16.185 18.1957C11.18 18.1957 6.24003 18.1957 1.23503 18.1957C0.650031 18.1957 0.260031 17.9357 0.130031 17.4157C3.06219e-05 16.8307 0.390031 16.2457 0.975031 16.1807C1.04003 16.1807 1.17003 16.1807 1.23503 16.1807C6.50003 16.1807 11.7 16.1807 16.965 16.1807C19.435 16.1807 21.45 17.8057 21.97 20.2107C22.555 23.0057 20.605 25.8007 17.745 26.1257C17.68 26.1257 17.615 26.1257 17.55 26.1907C17.16 26.1907 16.835 26.1907 16.51 26.1907Z" fill="#00CBD8"/>
<path d="M26.0003 9.6807C25.9353 9.9407 25.8703 10.2007 25.8053 10.5257C25.2203 12.7357 23.2703 14.2307 20.9953 14.2307C15.7303 14.2307 10.4653 14.2307 5.13527 14.2307C4.48527 14.2307 4.03027 13.7757 4.03027 13.1907C4.03027 12.6057 4.48527 12.2157 5.13527 12.2157C10.4003 12.2157 15.6003 12.2157 20.8653 12.2157C22.4253 12.2157 23.6603 11.1757 23.9203 9.6157C24.1803 7.9907 22.8803 6.4307 21.2553 6.3007C19.4353 6.1707 18.0703 7.4057 18.0053 9.2257C18.0053 9.8757 17.5503 10.3307 16.9653 10.2657C16.3803 10.2657 15.9903 9.8107 15.9903 9.0957C15.9903 8.7707 16.0553 8.3807 16.1203 8.0557C16.6403 5.7807 18.7853 4.0257 21.3853 4.2207C23.6603 4.3507 25.6103 6.2357 25.9353 8.5757C25.9353 8.6407 25.9353 8.6407 26.0003 8.7057C26.0003 9.0307 26.0003 9.3557 26.0003 9.6807Z" fill="#00CBD8"/>
<path d="M5.52515 10.2007C4.03015 10.2007 2.53515 10.2007 1.04015 10.2007C0.260146 10.2007 -0.194854 9.4857 0.0651464 8.7707C0.260146 8.3157 0.650146 8.1207 1.10515 8.1207C2.47015 8.1207 3.90015 8.1207 5.26515 8.1207C6.69515 8.1207 8.19015 8.1207 9.62015 8.1207C11.1801 8.1207 12.4151 7.0157 12.5451 5.4557C12.6751 4.0907 11.8951 2.7907 10.5951 2.3357C9.29515 1.8807 7.86515 2.4007 7.15015 3.5057C6.82515 4.0257 6.69515 4.6107 6.63015 5.1957C6.63015 5.7157 6.24015 6.1057 5.72015 6.1707C5.26515 6.2357 4.81015 5.9757 4.68015 5.5207C4.61515 5.1957 4.61515 4.8057 4.68015 4.4807C5.00515 2.1407 7.08515 0.255697 9.49015 0.190697C12.0251 0.125697 14.1701 1.8807 14.5601 4.3507C15.0801 7.4057 12.8051 10.1357 9.75015 10.2007C8.32015 10.2007 6.95515 10.2007 5.52515 10.2007Z" fill="#00CBD8"/>
</svg>
