<svg width="117" height="10" viewBox="0 0 117 10" fill="none" xmlns="http://www.w3.org/2000/svg">
<path d="M9.09841 7.55088C8.90108 7.94271 8.60509 8.33455 8.3091 8.62843C8.01311 8.9223 7.61845 9.21618 7.32246 9.4121C6.9278 9.60802 6.63181 9.70598 6.23716 9.80394C5.8425 9.9019 5.44784 9.9019 5.15185 9.9019C4.55987 9.9019 3.96789 9.80394 3.3759 9.60802C2.78392 9.4121 2.2906 9.02026 1.89594 8.62843C1.50129 8.23659 1.10663 7.74679 0.909304 7.15904C0.711976 6.57128 0.514648 5.98353 0.514648 5.39578C0.514648 4.71006 0.613312 4.1223 0.909304 3.63251C1.2053 3.14271 1.50129 2.65292 1.89594 2.16312C2.2906 1.67332 2.78392 1.47741 3.3759 1.18353C3.96789 0.889651 4.55987 0.889648 5.15185 0.889648C5.74384 0.889648 6.23716 0.987611 6.63181 1.18353C7.12513 1.37945 7.51979 1.57536 7.81578 1.77128C8.11177 2.06516 8.40776 2.26108 8.60509 2.55496C8.80242 2.84884 8.99975 3.04475 9.09841 3.24067H8.11177C7.91444 2.84883 7.61845 2.65291 7.32246 2.35904C7.02647 2.16312 6.73048 1.9672 6.43448 1.86924C6.13849 1.77128 5.8425 1.67332 5.64517 1.67332C5.44784 1.67332 5.25052 1.67332 5.05319 1.67332C4.55987 1.67332 4.06655 1.77129 3.57323 1.96721C3.07991 2.16312 2.78392 2.457 2.38926 2.75087C2.09327 3.14271 1.79728 3.53455 1.59995 3.92639C1.40262 4.41618 1.30396 4.80802 1.30396 5.29781C1.30396 5.78761 1.40262 6.2774 1.59995 6.7672C1.79728 7.257 2.09327 7.64884 2.38926 7.94271C2.68525 8.23659 3.07991 8.53046 3.57323 8.72638C4.06655 8.9223 4.46121 9.02026 4.95452 9.02026C5.05319 9.02026 5.25052 9.02026 5.44784 9.02026C5.64517 9.02026 5.94116 8.92231 6.23716 8.82435C6.53315 8.72639 6.82914 8.53047 7.12513 8.33455C7.42112 8.13863 7.71712 7.84475 8.01311 7.45292H9.09841V7.55088Z" fill="#07294C"/>
<path d="M10.8744 6.66929C10.8744 6.1795 10.9731 5.6897 11.1704 5.29786C11.3677 4.90603 11.6637 4.51419 11.9597 4.22031C12.2557 3.92644 12.6503 3.73052 13.045 3.5346C13.4397 3.33868 13.8343 3.24072 14.3276 3.24072C14.8209 3.24072 15.2156 3.33868 15.7089 3.5346C16.1036 3.73052 16.4982 3.92644 16.7942 4.31827C17.0902 4.61215 17.2875 5.00399 17.4849 5.39583C17.6822 5.78767 17.7809 6.1795 17.7809 6.66929C17.7809 7.06113 17.6822 7.55093 17.4849 7.94277C17.2875 8.3346 17.0902 8.72644 16.7942 9.02032C16.4982 9.31419 16.1036 9.60807 15.7089 9.80399C15.3143 9.99991 14.8209 10.0979 14.3276 10.0979C13.8343 10.0979 13.4397 9.99991 13.045 9.80399C12.6503 9.60807 12.2557 9.41215 11.9597 9.02032C11.6637 8.72644 11.3677 8.3346 11.269 7.94277C10.9731 7.45297 10.8744 7.06113 10.8744 6.66929ZM11.7624 6.57134C11.7624 6.96317 11.861 7.25705 11.9597 7.64889C12.0584 7.94276 12.2557 8.23664 12.5517 8.43256C12.749 8.62848 13.045 8.8244 13.341 9.02032C13.637 9.11828 13.933 9.21623 14.3276 9.21623C14.6236 9.21623 14.9196 9.11828 15.2156 9.02032C15.5116 8.92236 15.8076 8.72644 16.0049 8.53052C16.2022 8.3346 16.3996 8.04072 16.5969 7.64889C16.7942 7.25705 16.7942 6.96317 16.7942 6.47338C16.7942 6.08154 16.6956 5.68971 16.5969 5.39583C16.3996 5.10195 16.2022 4.80807 16.0049 4.61215C15.7089 4.41623 15.5116 4.22032 15.2156 4.12236C14.9196 4.0244 14.6236 3.92644 14.3276 3.92644C14.0316 3.92644 13.7356 4.0244 13.4397 4.12236C13.1437 4.22032 12.8477 4.41623 12.6503 4.61215C12.3543 4.80807 12.157 5.10195 12.0584 5.49379C11.7624 5.78766 11.7624 6.1795 11.7624 6.57134Z" fill="#07294C"/>
<path d="M19.7541 3.33849H20.5434V4.12217C20.642 4.02421 20.7407 3.92625 20.8394 3.82829C20.938 3.73033 21.1354 3.63238 21.234 3.53442C21.3327 3.43646 21.6287 3.3385 21.826 3.24054C22.0233 3.14258 22.3193 3.14258 22.6153 3.14258C23.01 3.14258 23.4046 3.24053 23.7006 3.33849C23.9966 3.43645 24.3913 3.63238 24.6873 3.92625C24.8846 4.12217 25.0819 4.514 25.2792 4.80788C25.3779 5.19972 25.4766 5.59156 25.4766 6.17931V9.70584H24.6873V6.17931C24.6873 5.78747 24.5886 5.39564 24.4899 5.10176C24.3913 4.80788 24.1939 4.61197 23.9966 4.41605C23.7993 4.22013 23.5033 4.02421 23.2073 4.02421C22.9113 4.02421 22.714 3.92625 22.5166 3.92625C22.3193 3.92625 22.122 3.92625 21.826 4.02421C21.53 4.12217 21.3327 4.22013 21.0367 4.41605C20.8394 4.61197 20.7407 4.80788 20.642 5.10176C20.5434 5.39564 20.4447 5.68952 20.4447 6.17931V9.80381H19.6554V3.33849H19.7541Z" fill="#07294C"/>
<path d="M28.5352 4.12218H27.1539V3.33851H28.5352V1.08545H29.3245V3.33851H30.9032V4.12218H29.3245V9.80382H28.5352V4.12218Z" fill="#07294C"/>
<path d="M33.1724 6.86503C33.1724 7.15891 33.2711 7.45278 33.3697 7.74666C33.4684 8.04053 33.6657 8.23646 33.9617 8.53033C34.159 8.72625 34.455 8.92217 34.751 9.02013C35.047 9.11809 35.343 9.21604 35.639 9.21604C35.935 9.21604 36.231 9.11809 36.4283 9.11809C36.6256 9.11809 36.9216 8.92217 37.119 8.82421C37.3163 8.72625 37.5136 8.53034 37.6123 8.33442C37.7109 8.1385 37.9083 7.94257 37.9083 7.74666H38.7962C38.6976 8.04053 38.5002 8.33441 38.3029 8.62829C38.1056 8.92217 37.8096 9.11809 37.6123 9.31401C37.3163 9.50993 37.0203 9.70585 36.7243 9.80381C36.4283 9.90176 36.0337 9.99972 35.639 9.99972C35.1457 9.99972 34.751 9.90176 34.3564 9.70584C33.9617 9.50992 33.5671 9.31401 33.2711 9.02013C32.9751 8.72625 32.6791 8.33442 32.5804 7.94258C32.4818 7.55074 32.2844 7.06095 32.2844 6.57115C32.2844 6.08135 32.3831 5.68951 32.5804 5.29768C32.7777 4.90584 32.9751 4.51401 33.2711 4.22013C33.5671 3.92625 33.9617 3.63238 34.3564 3.43646C34.751 3.24054 35.2443 3.14258 35.639 3.14258C36.0337 3.14258 36.3296 3.14258 36.6256 3.24054C36.9216 3.3385 37.2176 3.43646 37.4149 3.63237C37.6123 3.82829 37.9083 3.92625 38.0069 4.12217C38.2043 4.31809 38.3029 4.51401 38.5003 4.70992C38.6976 5.0038 38.7962 5.29768 38.8949 5.59156C38.9936 5.88544 38.9936 6.17931 38.9936 6.47319V6.57115V6.66911H33.1724V6.86503ZM38.2043 6.17931C38.1056 5.78747 38.0069 5.4936 37.8096 5.19972C37.6123 4.90584 37.4149 4.70993 37.2176 4.51401C37.0203 4.31809 36.7243 4.22013 36.4283 4.12217C36.1323 4.02421 35.935 4.02421 35.639 4.02421C35.343 4.02421 35.1457 4.02421 34.8497 4.12217C34.5537 4.22013 34.3564 4.31809 34.0604 4.51401C33.863 4.70993 33.5671 4.90584 33.4684 5.19972C33.2711 5.4936 33.1724 5.78747 33.0737 6.17931H38.2043Z" fill="#07294C"/>
<path d="M41.1642 3.33849H41.9535V4.12217C42.0522 4.02421 42.1509 3.92625 42.2495 3.82829C42.3482 3.73033 42.5455 3.63238 42.6442 3.53442C42.7428 3.43646 43.0388 3.3385 43.2362 3.24054C43.4335 3.14258 43.7295 3.14258 44.0255 3.14258C44.4201 3.14258 44.8148 3.24053 45.1108 3.33849C45.4068 3.43645 45.8014 3.63238 46.0974 3.92625C46.2947 4.12217 46.4921 4.514 46.6894 4.80788C46.7881 5.19972 46.8867 5.59156 46.8867 6.17931V9.70584H46.0974V6.17931C46.0974 5.78747 45.9987 5.39564 45.9001 5.10176C45.8014 4.80788 45.6041 4.61197 45.4068 4.41605C45.2094 4.22013 44.9134 4.02421 44.6175 4.02421C44.3215 4.02421 44.1241 3.92625 43.9268 3.92625C43.7295 3.92625 43.5322 3.92625 43.2362 4.02421C42.9402 4.12217 42.7428 4.22013 42.4468 4.41605C42.2495 4.61197 42.1509 4.80788 42.0522 5.10176C41.9535 5.39564 41.8549 5.68952 41.8549 6.17931V9.80381H41.0656V3.33849H41.1642Z" fill="#07294C"/>
<path d="M49.9452 4.12218H48.6626V3.33851H50.0439V1.08545H50.8332V3.33851H52.4118V4.12218H50.8332V9.80382H50.0439V4.12218H49.9452Z" fill="#07294C"/>
<path d="M59.2197 1.08545V6.4732C59.2197 6.76708 59.2197 7.06096 59.3184 7.35484C59.3184 7.64872 59.417 7.84463 59.5157 8.04055C59.6144 8.23647 59.8117 8.43238 60.009 8.6283C60.2063 8.82422 60.305 8.92218 60.5023 8.92218C60.6997 9.02014 60.7983 9.02014 60.9957 9.02014C61.193 9.02014 61.2916 9.02014 61.3903 9.02014C61.489 9.02014 61.5876 9.02014 61.785 9.02014C61.9823 9.02014 62.081 8.92218 62.2783 8.92218C62.4756 8.82422 62.5743 8.72626 62.7716 8.6283C62.9689 8.53034 63.0676 8.33443 63.2649 8.04055C63.3636 7.84463 63.4622 7.64872 63.4622 7.35484C63.4622 7.06096 63.5609 6.76708 63.5609 6.4732V1.08545H64.4489V6.4732C64.4489 7.15892 64.3502 7.84463 64.1529 8.23646C63.9556 8.53034 63.8569 8.82422 63.5609 9.02014C63.3636 9.21606 63.0676 9.41198 62.8703 9.50994C62.6729 9.6079 62.3769 9.70586 62.1796 9.80382C61.9823 9.80382 61.6863 9.90178 61.489 9.90178C61.2916 9.90178 61.0943 9.90178 60.7983 9.80382C60.5023 9.70586 60.305 9.70586 60.1077 9.50994C59.9103 9.31402 59.6144 9.21606 59.417 9.02014C59.2197 8.82422 59.0224 8.53034 58.825 8.23646C58.6277 7.74667 58.5291 7.15892 58.5291 6.4732V1.08545H59.2197Z" fill="#07294C"/>
<path d="M66.7182 3.33849H67.5075V4.12217C67.6061 4.02421 67.7048 3.92625 67.8035 3.82829C67.9021 3.73033 68.0995 3.63238 68.1981 3.53442C68.2968 3.43646 68.5928 3.3385 68.7901 3.24054C68.9874 3.14258 69.2834 3.14258 69.5794 3.14258C69.9741 3.14258 70.3687 3.24053 70.6647 3.33849C70.9607 3.43645 71.3554 3.63238 71.6514 3.92625C71.8487 4.12217 72.046 4.514 72.2434 4.80788C72.342 5.19972 72.4407 5.59156 72.4407 6.17931V9.70584H71.6514V6.17931C71.6514 5.78747 71.5527 5.39564 71.454 5.10176C71.3554 4.80788 71.158 4.61197 70.9607 4.41605C70.7634 4.22013 70.4674 4.02421 70.1714 4.02421C69.8754 4.02421 69.6781 3.92625 69.4808 3.92625C69.2834 3.92625 69.0861 3.92625 68.7901 4.02421C68.4941 4.12217 68.2968 4.22013 68.0008 4.41605C67.8035 4.61197 67.7048 4.80788 67.6061 5.10176C67.5075 5.39564 67.4088 5.68952 67.4088 6.17931V9.80381H66.6195V3.33849H66.7182Z" fill="#07294C"/>
<path d="M74.8086 1.08545H75.5979V9.80382H74.8086V1.08545Z" fill="#07294C"/>
<path d="M77.9658 1.08545H78.7551V2.55484H77.9658V1.08545ZM77.9658 3.33851H78.7551V9.80382H77.9658V3.33851Z" fill="#07294C"/>
<path d="M82.011 4.12217C82.2083 3.82829 82.4056 3.63238 82.7016 3.43646C82.9976 3.24054 83.3923 3.24054 83.6883 3.24054C84.1816 3.24054 84.5763 3.3385 84.9709 3.53442C85.3656 3.73033 85.6616 4.02421 85.8589 4.41605C86.3522 3.63238 87.1415 3.14258 88.0295 3.14258C88.4241 3.14258 88.7201 3.24053 89.1148 3.33849C89.4108 3.43645 89.7068 3.63238 89.9041 3.92625C90.1014 4.12217 90.2988 4.41604 90.3974 4.80788C90.4961 5.10176 90.5948 5.4936 90.5948 5.9834V9.80381H89.8054V6.08135C89.8054 5.39564 89.6081 4.90584 89.3121 4.51401C89.0161 4.12217 88.5228 3.92625 88.0295 3.92625C87.5362 3.92625 87.0428 4.12217 86.7469 4.51401C86.4509 4.90584 86.2535 5.39564 86.2535 6.08135V9.80381H85.4642V6.08135C85.4642 5.39564 85.2669 4.90584 84.9709 4.51401C84.6749 4.12217 84.1816 3.92625 83.6883 3.92625C83.195 3.92625 82.7016 4.12217 82.4056 4.51401C82.1097 4.90584 81.9123 5.39564 81.9123 6.08135V9.80381H81.2217V3.33849H82.011V4.12217Z" fill="#07294C"/>
<path d="M93.16 1.08545H93.9493V2.55484H93.16V1.08545ZM93.16 3.33851H93.9493V9.80382H93.16V3.33851Z" fill="#07294C"/>
<path d="M97.1066 4.12218H95.7253V3.33851H97.1066V1.08545H97.896V3.33851H99.4746V4.12218H97.896V9.80382H97.1066V4.12218Z" fill="#07294C"/>
<path d="M101.744 6.86503C101.744 7.15891 101.842 7.45278 101.941 7.74666C102.04 8.04053 102.237 8.23646 102.533 8.53033C102.73 8.72625 103.026 8.92217 103.322 9.02013C103.618 9.11809 103.914 9.21604 104.21 9.21604C104.506 9.21604 104.802 9.11809 105 9.11809C105.296 9.02013 105.493 8.92217 105.69 8.82421C105.888 8.72625 106.085 8.53034 106.184 8.33442C106.282 8.1385 106.48 7.94257 106.48 7.74666H107.368C107.269 8.04053 107.072 8.33441 106.874 8.62829C106.677 8.92217 106.381 9.11809 106.184 9.31401C105.986 9.50993 105.592 9.70585 105.296 9.80381C105 9.90176 104.605 9.99972 104.21 9.99972C103.717 9.99972 103.322 9.90176 102.928 9.70584C102.533 9.50992 102.138 9.31401 101.842 9.02013C101.546 8.72625 101.25 8.33442 101.152 7.94258C100.954 7.55074 100.856 7.06095 100.856 6.57115C100.856 6.08135 100.954 5.68951 101.152 5.29768C101.349 4.90584 101.546 4.51401 101.842 4.22013C102.138 3.92625 102.533 3.63238 102.928 3.43646C103.322 3.24054 103.816 3.14258 104.21 3.14258C104.605 3.14258 104.901 3.14258 105.197 3.24054C105.493 3.3385 105.789 3.43646 105.986 3.63237C106.184 3.82829 106.48 3.92625 106.578 4.12217C106.776 4.31809 106.874 4.51401 107.072 4.70992C107.269 5.0038 107.368 5.29768 107.466 5.59156C107.565 5.88544 107.565 6.17931 107.565 6.47319V6.57115V6.66911H101.744V6.86503ZM106.776 6.17931C106.677 5.78747 106.578 5.4936 106.381 5.19972C106.184 4.90584 105.986 4.70993 105.789 4.51401C105.592 4.31809 105.296 4.22013 105 4.12217C104.704 4.02421 104.506 4.02421 104.21 4.02421C103.914 4.02421 103.717 4.02421 103.421 4.12217C103.125 4.22013 102.928 4.31809 102.632 4.51401C102.434 4.70993 102.138 4.90584 102.04 5.19972C101.941 5.4936 101.744 5.78747 101.645 6.17931H106.776Z" fill="#07294C"/>
<path d="M116.247 9.80382H115.458V8.6283C115.261 8.92218 115.063 9.1181 114.866 9.21606C114.669 9.31402 114.471 9.50994 114.175 9.60789C113.978 9.70585 113.682 9.80382 113.485 9.80382C113.287 9.80382 113.09 9.90178 112.893 9.90178C112.399 9.90178 111.906 9.80381 111.512 9.60789C111.117 9.41198 110.722 9.21606 110.426 8.92218C110.13 8.62831 109.834 8.23647 109.736 7.84463C109.637 7.4528 109.44 6.963 109.44 6.57116C109.44 6.17933 109.538 5.68953 109.736 5.29769C109.933 4.90585 110.13 4.51402 110.426 4.22014C110.722 3.92626 111.117 3.63239 111.512 3.43647C111.906 3.24055 112.399 3.14259 112.991 3.14259C113.189 3.14259 113.386 3.14259 113.583 3.24055C113.781 3.24055 114.077 3.33851 114.274 3.43647C114.471 3.53443 114.767 3.63238 114.965 3.8283C115.162 4.02422 115.359 4.22014 115.557 4.41606V1.08545H116.346V9.80382H116.247ZM110.229 6.57116C110.229 6.963 110.328 7.25688 110.426 7.55075C110.525 7.84463 110.722 8.13851 110.92 8.33443C111.117 8.53035 111.413 8.72626 111.808 8.92218C112.104 9.02014 112.498 9.1181 112.893 9.1181C113.287 9.1181 113.583 9.02014 113.879 8.92218C114.175 8.82422 114.471 8.62831 114.669 8.33443C114.866 8.04055 115.063 7.84463 115.261 7.55075C115.458 7.25688 115.458 6.86504 115.458 6.4732C115.458 6.08137 115.359 5.78749 115.261 5.49361C115.162 5.19973 114.965 4.90586 114.669 4.61198C114.373 4.3181 114.175 4.22014 113.879 4.02422C113.583 3.82831 113.189 3.8283 112.893 3.8283C112.498 3.8283 112.202 3.92627 111.906 4.02422C111.61 4.12218 111.314 4.3181 111.018 4.51402C110.821 4.70994 110.624 5.00382 110.426 5.39565C110.328 5.78749 110.229 6.17933 110.229 6.57116Z" fill="#07294C"/>
</svg>
