<svg width="118" height="24" viewBox="0 0 118 24" fill="none" xmlns="http://www.w3.org/2000/svg">
<path d="M21.8394 16.7429C21.4448 17.7224 20.8528 18.6041 20.1621 19.4857C19.4715 20.2694 18.6822 20.9551 17.7942 21.5428C16.9062 22.1306 15.9196 22.5224 14.933 22.8163C13.9463 23.1102 12.861 23.3061 11.8744 23.3061C10.2957 23.3061 8.81579 23.0122 7.43449 22.4245C6.0532 21.8367 4.86923 20.9551 3.78393 19.9755C2.79729 18.898 1.90931 17.7224 1.31733 16.351C0.62668 14.7837 0.330688 13.3143 0.330688 11.8449C0.330688 10.3755 0.62668 8.90612 1.21866 7.53469C1.81065 6.16326 2.59996 4.98775 3.5866 3.9102C4.57324 2.83264 5.85587 2.04897 7.23716 1.46122C8.61846 0.873461 10.0984 0.57959 11.677 0.57959C12.565 0.57959 13.5517 0.677543 14.5383 0.971421C15.5249 1.2653 16.5116 1.55918 17.3995 2.14694C18.2875 2.63673 19.1755 3.32244 19.9648 4.20408C20.7541 5.08571 21.4448 6.0653 21.9381 7.24081H17.3009C16.5116 6.35918 15.6236 5.67347 14.7356 5.08571C13.8476 4.49796 12.6637 4.30203 11.4797 4.30203C10.5917 4.30203 9.70376 4.49795 8.81579 4.88979C7.92781 5.28162 7.23716 5.77143 6.54652 6.45714C5.85587 7.14285 5.36255 7.92652 4.96789 8.80816C4.57324 9.68979 4.37591 10.7673 4.37591 11.8449C4.37591 12.8245 4.57324 13.8041 4.96789 14.7837C5.36255 15.6653 5.85587 16.5469 6.54652 17.2327C7.23716 17.9184 8.02647 18.5061 8.91445 18.898C9.80243 19.2898 10.6904 19.4857 11.677 19.4857C12.3677 19.4857 13.0583 19.3878 13.6503 19.1918C14.2423 18.9959 14.7356 18.8 15.1303 18.5061C15.5249 18.2122 15.9196 17.9184 16.3142 17.6245C16.6102 17.3306 16.9062 17.0367 17.2022 16.7429H21.8394Z" fill="#07294C"/>
<path d="M28.9432 1.06934V14.8816C28.9432 15.1755 28.9432 15.5673 29.0419 16.0571C29.1406 16.5469 29.2392 17.0367 29.4366 17.6244C29.6339 18.1142 30.0285 18.604 30.5219 18.9959C31.0152 19.3877 31.8045 19.5836 32.6925 19.5836C33.5804 19.5836 34.3697 19.3877 34.8631 18.9959C35.3564 18.604 35.751 18.2122 35.9484 17.6244C36.1457 17.1346 36.343 16.6448 36.343 16.0571C36.343 15.4693 36.4417 15.1755 36.4417 14.8816V1.06934H40.4869V14.8816C40.4869 15.7632 40.3882 16.6448 40.1909 17.5265C39.9936 18.4081 39.6976 19.2897 39.2043 19.9755C38.6123 20.8571 37.7243 21.6408 36.5404 22.2285C35.4551 22.8163 34.0738 23.2081 32.5938 23.2081C31.8045 23.2081 31.0152 23.1101 30.3245 22.9142C29.6339 22.7183 29.0419 22.4244 28.4499 22.1306C27.8579 21.8367 27.4633 21.4448 27.0686 21.151C26.674 20.7591 26.378 20.4653 26.082 20.1714C25.6873 19.6816 25.3913 19.0938 25.0953 18.2122C24.7993 17.3306 24.7007 16.253 24.7007 14.8816V1.06934H28.9432Z" fill="#07294C"/>
<path d="M67.6194 12.8245C67.5208 14.4898 67.1261 15.8612 66.3368 17.1347C65.6462 18.4082 64.7582 19.4857 63.6729 20.3673C62.5876 21.249 61.4036 21.9347 60.0223 22.4245C58.7397 22.9143 57.3584 23.1102 55.9771 23.1102C54.2998 23.1102 52.8198 22.8163 51.3399 22.2286C49.8599 21.6408 48.676 20.7592 47.5907 19.7796C46.5054 18.702 45.716 17.5265 45.1241 16.1551C44.5321 14.7837 44.2361 13.4122 44.2361 11.8449C44.2361 10.4735 44.5321 9.00408 45.1241 7.73061C45.716 6.35918 46.5054 5.18367 47.492 4.10612C48.4786 3.02857 49.7613 2.2449 51.2412 1.55918C52.7212 0.873467 54.2998 0.57959 56.0758 0.57959C57.5557 0.57959 58.8383 0.775505 60.0223 1.2653C61.2063 1.7551 62.1929 2.24489 63.0809 2.83265C63.9689 3.4204 64.6595 4.10611 65.2515 4.88979C65.8435 5.5755 66.2381 6.26122 66.4355 6.75101H63.8702C63.5742 6.26122 63.1796 5.67346 62.6862 5.18367C62.1929 4.69387 61.6009 4.20407 60.9103 3.81224C60.2196 3.4204 59.529 3.12652 58.7397 2.83265C57.9504 2.63673 57.0624 2.44081 56.1744 2.44081C54.7931 2.44081 53.5105 2.73469 52.3265 3.22448C51.1426 3.71428 50.1559 4.39999 49.2679 5.28163C48.38 6.16326 47.788 7.14285 47.2947 8.2204C46.8013 9.29795 46.604 10.4735 46.604 11.7469C46.604 13.0204 46.8013 14.098 47.2947 15.2735C47.788 16.449 48.4786 17.3306 49.2679 18.2122C50.1559 19.0939 51.1426 19.7796 52.3265 20.2694C53.5105 20.7592 54.7931 21.0531 56.1744 21.0531C57.3584 21.0531 58.4437 20.8571 59.4303 20.4653C60.417 20.0735 61.3049 19.5837 62.0943 18.9959C62.8836 18.4082 63.4755 17.7224 63.9689 16.9388C64.4622 16.1551 64.8568 15.3714 65.0542 14.6857H52.8198V12.7265H67.6194V12.8245Z" fill="#07294C"/>
<path d="M79.5579 1.06934H82.0245L91.3976 22.8163H89.0296L85.8724 15.4693H75.6113L72.4541 22.8163H70.1848L79.5579 1.06934ZM76.4993 13.5101H84.9844L80.7419 3.51832L76.4993 13.5101Z" fill="#07294C"/>
<path d="M95.4427 3.02852H90.4109V1.06934H102.645V3.02852H97.6134V22.8163H95.4427V3.02852Z" fill="#07294C"/>
<path d="M105.802 1.06934H117.741V3.02852H107.973V10.8653H117.445V12.8244H107.973V20.8571H117.741V22.8163H105.704V1.06934H105.802Z" fill="#07294C"/>
</svg>
