<?xml version="1.0" encoding="utf-8"?>
<svg version="1.1" id="Layer_4_copy_4" xmlns="http://www.w3.org/2000/svg" xmlns:xlink="http://www.w3.org/1999/xlink" x="0px"
	 y="0px" viewBox="0 0 34 34" style="enable-background:new 0 0 34 34;" xml:space="preserve">
<style type="text/css">
	.st0{fill:#FFFFFF;}
	.st1{fill:#037A9A;}
</style>
<g>
	<circle class="st0" cx="17" cy="17" r="17"/>
	<g>
		<path class="st1" d="M8.09,13.42c0.68,1.47,2.17,2.48,3.9,2.48c2.37,0,4.3-1.92,4.3-4.3c0-1.61-0.89-3.02-2.21-3.75l0,0
			C15,7.56,15.98,7.4,17,7.4c5.3,0,9.6,4.3,9.6,9.6c0,5.3-4.3,9.6-9.6,9.6c-5.3,0-9.6-4.3-9.6-9.6C7.4,15.74,7.65,14.53,8.09,13.42
			L8.09,13.42z"/>
		<path class="st1" d="M17,2.28c8.12,0,14.72,6.6,14.72,14.72S25.12,31.72,17,31.72S2.28,25.12,2.28,17S8.88,2.28,17,2.28 M17,1
			C8.16,1,1,8.16,1,17s7.16,16,16,16s16-7.16,16-16S25.84,1,17,1L17,1z"/>
	</g>
</g>
</svg>
