<svg width="16" height="16" viewBox="0 0 16 16" fill="none" xmlns="http://www.w3.org/2000/svg">
<path d="M8 0C3.5625 0 0 3.59375 0 8C0 12.4375 3.5625 16 8 16C12.4062 16 16 12.4375 16 8C16 3.59375 12.4062 0 8 0ZM10.5 9.46875C10.7812 9.78125 10.7812 10.25 10.5 10.5312C10.1875 10.8438 9.71875 10.8438 9.4375 10.5312L8 9.0625L6.5 10.5312C6.21875 10.8438 5.75 10.8438 5.46875 10.5312C5.15625 10.25 5.15625 9.78125 5.46875 9.46875L6.9375 8L5.46875 6.53125C5.15625 6.21875 5.15625 5.75 5.46875 5.46875C5.75 5.15625 6.21875 5.15625 6.5 5.46875L8 6.96875L9.46875 5.5C9.75 5.1875 10.2188 5.1875 10.5 5.5C10.8125 5.78125 10.8125 6.25 10.5 6.5625L9.03125 8.03125L10.5 9.46875Z" fill="#00CBD8"/>
</svg>
