<svg id="Layer_2" xmlns="http://www.w3.org/2000/svg" xmlns:xlink="http://www.w3.org/1999/xlink" viewBox="0 0 750 573" style="enable-background:new 0 0 750 573"><style>.st0{fill:#fffa02}.st1{fill:#f8f100}.st2{fill:#fc0}.st3{opacity:.5}.st4{fill:#fff;stroke:#fff;stroke-miterlimit:10}.st5{fill:#fff}.st6{fill:#01cbd8}</style><g><g><g><path class="st0" d="M475.86 334.65c-1.76.0-3.19-1.43-3.19-3.19v0c0-1.76 1.43-3.19 3.19-3.19v0c1.76.0 3.19 1.43 3.19 3.19v0C479.05 333.22 477.62 334.65 475.86 334.65zM455.85 334.65c-1.76.0-3.19-1.43-3.19-3.19v0c0-1.76 1.43-3.19 3.19-3.19v0c1.76.0 3.19 1.43 3.19 3.19v0C459.04 333.22 457.61 334.65 455.85 334.65zM435.86 334.65c-1.76.0-3.19-1.43-3.19-3.19v0c0-1.76 1.43-3.19 3.19-3.19v0c1.76.0 3.19 1.43 3.19 3.19v0C439.05 333.22 437.63 334.65 435.86 334.65zM415.85 334.65c-1.76.0-3.19-1.43-3.19-3.19v0c0-1.76 1.43-3.19 3.19-3.19v0c1.76.0 3.19 1.43 3.19 3.19v0C419.04 333.22 417.61 334.65 415.85 334.65zM395.87 334.65c-1.76.0-3.19-1.43-3.19-3.19v0c0-1.76 1.43-3.19 3.19-3.19v0c1.76.0 3.19 1.43 3.19 3.19v0C399.06 333.22 397.63 334.65 395.87 334.65zM375.85 334.65c-1.76.0-3.19-1.43-3.19-3.19v0c0-1.76 1.43-3.19 3.19-3.19v0c1.76.0 3.19 1.43 3.19 3.19v0C379.05 333.22 377.61 334.65 375.85 334.65zM355.87 334.65c-1.76.0-3.19-1.43-3.19-3.19v0c0-1.76 1.43-3.19 3.19-3.19v0c1.76.0 3.19 1.43 3.19 3.19v0C359.06 333.22 357.63 334.65 355.87 334.65zM335.85 334.65c-1.76.0-3.19-1.43-3.19-3.19v0c0-1.76 1.43-3.19 3.19-3.19v0c1.76.0 3.19 1.43 3.19 3.19v0C339.05 333.22 337.62 334.65 335.85 334.65zM315.84 334.65c-1.76.0-3.19-1.43-3.19-3.19v0c0-1.76 1.43-3.19 3.19-3.19v0c1.76.0 3.22 1.43 3.22 3.19v0C319.06 333.22 317.6 334.65 315.84 334.65zM295.86 334.65c-1.76.0-3.19-1.43-3.19-3.19v0c0-1.76 1.43-3.19 3.19-3.19v0c1.76.0 3.19 1.43 3.19 3.19v0C299.05 333.22 297.62 334.65 295.86 334.65zM275.87 334.65c-1.76.0-3.19-1.43-3.19-3.19v0c0-1.76 1.43-3.19 3.19-3.19v0c1.76.0 3.19 1.43 3.19 3.19v0C279.06 333.22 277.63 334.65 275.87 334.65zM255.86 334.65c-1.76.0-3.19-1.43-3.19-3.19v0c0-1.76 1.43-3.19 3.19-3.19v0c1.76.0 3.19 1.43 3.19 3.19v0C259.05 333.22 257.62 334.65 255.86 334.65zM235.85 334.65c-1.76.0-3.19-1.43-3.19-3.19v0c0-1.76 1.43-3.19 3.19-3.19v0c1.76.0 3.19 1.43 3.19 3.19v0C239.04 333.22 237.61 334.65 235.85 334.65zM215.86 334.65c-1.76.0-3.19-1.43-3.19-3.19v0c0-1.76 1.43-3.19 3.19-3.19v0c1.76.0 3.19 1.43 3.19 3.19v0C219.05 333.22 217.62 334.65 215.86 334.65zM195.85 334.65c-1.76.0-3.19-1.43-3.19-3.19v0c0-1.76 1.43-3.19 3.19-3.19v0c1.76.0 3.19 1.43 3.19 3.19v0C199.04 333.22 197.61 334.65 195.85 334.65zM175.86 334.65c-1.76.0-3.19-1.43-3.19-3.19v0c0-1.76 1.43-3.19 3.19-3.19v0c1.76.0 3.19 1.43 3.19 3.19v0C179.05 333.22 177.62 334.65 175.86 334.65zM155.85 334.65c-1.76.0-3.19-1.43-3.19-3.19v0c0-1.76 1.43-3.19 3.19-3.19v0c1.76.0 3.19 1.43 3.19 3.19v0C159.04 333.22 157.61 334.65 155.85 334.65zM135.86 334.65c-1.76.0-3.19-1.43-3.19-3.19v0c0-1.76 1.43-3.19 3.19-3.19v0c1.76.0 3.19 1.43 3.19 3.19v0C139.05 333.22 137.62 334.65 135.86 334.65zM115.85 334.65c-1.76.0-3.19-1.43-3.19-3.19v0c0-1.76 1.43-3.19 3.19-3.19v0c1.76.0 3.19 1.43 3.19 3.19v0C119.04 333.22 117.61 334.65 115.85 334.65zM95.86 334.65c-1.76.0-3.19-1.43-3.19-3.19v0c0-1.76 1.43-3.19 3.19-3.19v0c1.76.0 3.19 1.43 3.19 3.19v0C99.05 333.22 97.63 334.65 95.86 334.65z"/></g><g><path class="st0" d="M499.04 331.46c0 .84-.33 1.66-.92 2.25-.61.61-1.4.94-2.27.94-.2.0-.41-.03-.61-.08-.2-.03-.41-.1-.59-.18-.2-.08-.38-.18-.56-.28-.18-.13-.33-.26-.48-.41-.15-.15-.28-.31-.38-.48-.13-.18-.23-.36-.31-.54-.07-.2-.15-.41-.18-.61-.08-.41-.08-.82.0-1.25.03-.2.1-.38.18-.59.08-.2.18-.38.31-.56.1-.15.23-.33.38-.48.15-.13.31-.28.48-.38.18-.13.36-.2.56-.31.18-.08.38-.13.59-.18.2-.02.41-.05.61-.05.87.0 1.66.33 2.27.92.31.31.54.66.69 1.05C498.96 330.61 499.04 331.02 499.04 331.46z"/></g></g><g><g><path class="st0" d="M475.86 316.81c-1.76.0-3.19-1.43-3.19-3.19v0c0-1.76 1.43-3.19 3.19-3.19v0c1.76.0 3.19 1.43 3.19 3.19v0C479.05 315.38 477.62 316.81 475.86 316.81zM455.85 316.81c-1.76.0-3.19-1.43-3.19-3.19v0c0-1.76 1.43-3.19 3.19-3.19v0c1.76.0 3.19 1.43 3.19 3.19v0C459.04 315.38 457.61 316.81 455.85 316.81zM435.86 316.81c-1.76.0-3.19-1.43-3.19-3.19v0c0-1.76 1.43-3.19 3.19-3.19v0c1.76.0 3.19 1.43 3.19 3.19v0C439.05 315.38 437.63 316.81 435.86 316.81zM415.85 316.81c-1.76.0-3.19-1.43-3.19-3.19v0c0-1.76 1.43-3.19 3.19-3.19v0c1.76.0 3.19 1.43 3.19 3.19v0C419.04 315.38 417.61 316.81 415.85 316.81zM395.87 316.81c-1.76.0-3.19-1.43-3.19-3.19v0c0-1.76 1.43-3.19 3.19-3.19v0c1.76.0 3.19 1.43 3.19 3.19v0C399.06 315.38 397.63 316.81 395.87 316.81zM375.85 316.81c-1.76.0-3.19-1.43-3.19-3.19v0c0-1.76 1.43-3.19 3.19-3.19v0c1.76.0 3.19 1.43 3.19 3.19v0C379.05 315.38 377.61 316.81 375.85 316.81zM355.87 316.81c-1.76.0-3.19-1.43-3.19-3.19v0c0-1.76 1.43-3.19 3.19-3.19v0c1.76.0 3.19 1.43 3.19 3.19v0C359.06 315.38 357.63 316.81 355.87 316.81zM335.85 316.81c-1.76.0-3.19-1.43-3.19-3.19v0c0-1.76 1.43-3.19 3.19-3.19v0c1.76.0 3.19 1.43 3.19 3.19v0C339.05 315.38 337.62 316.81 335.85 316.81zM315.84 316.81c-1.76.0-3.19-1.43-3.19-3.19v0c0-1.76 1.43-3.19 3.19-3.19v0c1.76.0 3.22 1.43 3.22 3.19v0C319.06 315.38 317.6 316.81 315.84 316.81zM295.86 316.81c-1.76.0-3.19-1.43-3.19-3.19v0c0-1.76 1.43-3.19 3.19-3.19v0c1.76.0 3.19 1.43 3.19 3.19v0C299.05 315.38 297.62 316.81 295.86 316.81zM275.87 316.81c-1.76.0-3.19-1.43-3.19-3.19v0c0-1.76 1.43-3.19 3.19-3.19v0c1.76.0 3.19 1.43 3.19 3.19v0C279.06 315.38 277.63 316.81 275.87 316.81zM255.86 316.81c-1.76.0-3.19-1.43-3.19-3.19v0c0-1.76 1.43-3.19 3.19-3.19v0c1.76.0 3.19 1.43 3.19 3.19v0C259.05 315.38 257.62 316.81 255.86 316.81zM235.85 316.81c-1.76.0-3.19-1.43-3.19-3.19v0c0-1.76 1.43-3.19 3.19-3.19v0c1.76.0 3.19 1.43 3.19 3.19v0C239.04 315.38 237.61 316.81 235.85 316.81zM215.86 316.81c-1.76.0-3.19-1.43-3.19-3.19v0c0-1.76 1.43-3.19 3.19-3.19v0c1.76.0 3.19 1.43 3.19 3.19v0C219.05 315.38 217.62 316.81 215.86 316.81zM195.85 316.81c-1.76.0-3.19-1.43-3.19-3.19v0c0-1.76 1.43-3.19 3.19-3.19v0c1.76.0 3.19 1.43 3.19 3.19v0C199.04 315.38 197.61 316.81 195.85 316.81zM175.86 316.81c-1.76.0-3.19-1.43-3.19-3.19v0c0-1.76 1.43-3.19 3.19-3.19v0c1.76.0 3.19 1.43 3.19 3.19v0C179.05 315.38 177.62 316.81 175.86 316.81zM155.85 316.81c-1.76.0-3.19-1.43-3.19-3.19v0c0-1.76 1.43-3.19 3.19-3.19v0c1.76.0 3.19 1.43 3.19 3.19v0C159.04 315.38 157.61 316.81 155.85 316.81zM135.86 316.81c-1.76.0-3.19-1.43-3.19-3.19v0c0-1.76 1.43-3.19 3.19-3.19v0c1.76.0 3.19 1.43 3.19 3.19v0C139.05 315.38 137.62 316.81 135.86 316.81zM115.85 316.81c-1.76.0-3.19-1.43-3.19-3.19v0c0-1.76 1.43-3.19 3.19-3.19v0c1.76.0 3.19 1.43 3.19 3.19v0C119.04 315.38 117.61 316.81 115.85 316.81zM95.86 316.81c-1.76.0-3.19-1.43-3.19-3.19v0c0-1.76 1.43-3.19 3.19-3.19v0c1.76.0 3.19 1.43 3.19 3.19v0C99.05 315.38 97.63 316.81 95.86 316.81z"/></g><g><path class="st0" d="M499.04 313.61c0 .87-.33 1.66-.92 2.27-.61.59-1.4.92-2.27.92-.2.0-.41.0-.61-.05-.2-.05-.41-.1-.59-.18-.2-.08-.38-.18-.56-.31-.18-.1-.33-.23-.48-.38-.15-.15-.28-.31-.38-.48-.13-.18-.23-.36-.31-.56-.07-.18-.15-.38-.18-.59-.23-1.05.13-2.15.87-2.89.15-.15.31-.28.48-.41.18-.1.36-.2.56-.28.18-.08.38-.13.59-.18.2-.05.41-.08.61-.08.87.0 1.66.33 2.27.94C498.71 311.98 499.04 312.77 499.04 313.61z"/></g></g><g><g><path class="st0" d="M475.86 298.99c-1.76.0-3.19-1.43-3.19-3.19v0c0-1.76 1.43-3.19 3.19-3.19v0c1.76.0 3.19 1.43 3.19 3.19v0C479.05 297.56 477.62 298.99 475.86 298.99zM455.85 298.99c-1.76.0-3.19-1.43-3.19-3.19v0c0-1.76 1.43-3.19 3.19-3.19v0c1.76.0 3.19 1.43 3.19 3.19v0C459.04 297.56 457.61 298.99 455.85 298.99zM435.86 298.99c-1.76.0-3.19-1.43-3.19-3.19v0c0-1.76 1.43-3.19 3.19-3.19v0c1.76.0 3.19 1.43 3.19 3.19v0C439.05 297.56 437.63 298.99 435.86 298.99zM415.85 298.99c-1.76.0-3.19-1.43-3.19-3.19v0c0-1.76 1.43-3.19 3.19-3.19v0c1.76.0 3.19 1.43 3.19 3.19v0C419.04 297.56 417.61 298.99 415.85 298.99zM395.87 298.99c-1.76.0-3.19-1.43-3.19-3.19v0c0-1.76 1.43-3.19 3.19-3.19v0c1.76.0 3.19 1.43 3.19 3.19v0C399.06 297.56 397.63 298.99 395.87 298.99zM375.85 298.99c-1.76.0-3.19-1.43-3.19-3.19v0c0-1.76 1.43-3.19 3.19-3.19v0c1.76.0 3.19 1.43 3.19 3.19v0C379.05 297.56 377.61 298.99 375.85 298.99zM355.87 298.99c-1.76.0-3.19-1.43-3.19-3.19v0c0-1.76 1.43-3.19 3.19-3.19v0c1.76.0 3.19 1.43 3.19 3.19v0C359.06 297.56 357.63 298.99 355.87 298.99zM335.85 298.99c-1.76.0-3.19-1.43-3.19-3.19v0c0-1.76 1.43-3.19 3.19-3.19v0c1.76.0 3.19 1.43 3.19 3.19v0C339.05 297.56 337.62 298.99 335.85 298.99zM315.84 298.99c-1.76.0-3.19-1.43-3.19-3.19v0c0-1.76 1.43-3.19 3.19-3.19v0c1.76.0 3.22 1.43 3.22 3.19v0C319.06 297.56 317.6 298.99 315.84 298.99zM295.86 298.99c-1.76.0-3.19-1.43-3.19-3.19v0c0-1.76 1.43-3.19 3.19-3.19v0c1.76.0 3.19 1.43 3.19 3.19v0C299.05 297.56 297.62 298.99 295.86 298.99zM275.87 298.99c-1.76.0-3.19-1.43-3.19-3.19v0c0-1.76 1.43-3.19 3.19-3.19v0c1.76.0 3.19 1.43 3.19 3.19v0C279.06 297.56 277.63 298.99 275.87 298.99zM255.86 298.99c-1.76.0-3.19-1.43-3.19-3.19v0c0-1.76 1.43-3.19 3.19-3.19v0c1.76.0 3.19 1.43 3.19 3.19v0C259.05 297.56 257.62 298.99 255.86 298.99zM235.85 298.99c-1.76.0-3.19-1.43-3.19-3.19v0c0-1.76 1.43-3.19 3.19-3.19v0c1.76.0 3.19 1.43 3.19 3.19v0C239.04 297.56 237.61 298.99 235.85 298.99zM215.86 298.99c-1.76.0-3.19-1.43-3.19-3.19v0c0-1.76 1.43-3.19 3.19-3.19v0c1.76.0 3.19 1.43 3.19 3.19v0C219.05 297.56 217.62 298.99 215.86 298.99zM195.85 298.99c-1.76.0-3.19-1.43-3.19-3.19v0c0-1.76 1.43-3.19 3.19-3.19v0c1.76.0 3.19 1.43 3.19 3.19v0C199.04 297.56 197.61 298.99 195.85 298.99zM175.86 298.99c-1.76.0-3.19-1.43-3.19-3.19v0c0-1.76 1.43-3.19 3.19-3.19v0c1.76.0 3.19 1.43 3.19 3.19v0C179.05 297.56 177.62 298.99 175.86 298.99zM155.85 298.99c-1.76.0-3.19-1.43-3.19-3.19v0c0-1.76 1.43-3.19 3.19-3.19v0c1.76.0 3.19 1.43 3.19 3.19v0C159.04 297.56 157.61 298.99 155.85 298.99zM135.86 298.99c-1.76.0-3.19-1.43-3.19-3.19v0c0-1.76 1.43-3.19 3.19-3.19v0c1.76.0 3.19 1.43 3.19 3.19v0C139.05 297.56 137.62 298.99 135.86 298.99zM115.85 298.99c-1.76.0-3.19-1.43-3.19-3.19v0c0-1.76 1.43-3.19 3.19-3.19v0c1.76.0 3.19 1.43 3.19 3.19v0C119.04 297.56 117.61 298.99 115.85 298.99zM95.86 298.99c-1.76.0-3.19-1.43-3.19-3.19v0c0-1.76 1.43-3.19 3.19-3.19v0c1.76.0 3.19 1.43 3.19 3.19v0C99.05 297.56 97.63 298.99 95.86 298.99z"/></g><g><path class="st0" d="M499.04 295.8c0 .87-.33 1.66-.92 2.25-.61.61-1.4.94-2.27.94-.2.0-.41-.03-.61-.05-.2-.05-.41-.1-.59-.2-.2-.08-.38-.18-.56-.28-.18-.13-.33-.25-.48-.41-.15-.13-.28-.31-.38-.48-.13-.15-.23-.36-.31-.54-.07-.2-.15-.41-.18-.61-.23-1.02.13-2.12.87-2.86.15-.15.31-.28.48-.41.18-.1.36-.2.56-.28.18-.08.38-.15.59-.18.2-.05.41-.08.61-.08.87.0 1.66.33 2.27.94C498.71 294.14 499.04 294.96 499.04 295.8z"/></g></g><g><g><path class="st0" d="M475.86 281.17c-1.76.0-3.19-1.43-3.19-3.19v0c0-1.76 1.43-3.19 3.19-3.19v0c1.76.0 3.19 1.43 3.19 3.19v0C479.05 279.74 477.62 281.17 475.86 281.17zM455.85 281.17c-1.76.0-3.19-1.43-3.19-3.19v0c0-1.76 1.43-3.19 3.19-3.19v0c1.76.0 3.19 1.43 3.19 3.19v0C459.04 279.74 457.61 281.17 455.85 281.17zM435.86 281.17c-1.76.0-3.19-1.43-3.19-3.19v0c0-1.76 1.43-3.19 3.19-3.19v0c1.76.0 3.19 1.43 3.19 3.19v0C439.05 279.74 437.63 281.17 435.86 281.17zM415.85 281.17c-1.76.0-3.19-1.43-3.19-3.19v0c0-1.76 1.43-3.19 3.19-3.19v0c1.76.0 3.19 1.43 3.19 3.19v0C419.04 279.74 417.61 281.17 415.85 281.17zM395.87 281.17c-1.76.0-3.19-1.43-3.19-3.19v0c0-1.76 1.43-3.19 3.19-3.19v0c1.76.0 3.19 1.43 3.19 3.19v0C399.06 279.74 397.63 281.17 395.87 281.17zM375.85 281.17c-1.76.0-3.19-1.43-3.19-3.19v0c0-1.76 1.43-3.19 3.19-3.19v0c1.76.0 3.19 1.43 3.19 3.19v0C379.05 279.74 377.61 281.17 375.85 281.17zM355.87 281.17c-1.76.0-3.19-1.43-3.19-3.19v0c0-1.76 1.43-3.19 3.19-3.19v0c1.76.0 3.19 1.43 3.19 3.19v0C359.06 279.74 357.63 281.17 355.87 281.17zM335.85 281.17c-1.76.0-3.19-1.43-3.19-3.19v0c0-1.76 1.43-3.19 3.19-3.19v0c1.76.0 3.19 1.43 3.19 3.19v0C339.05 279.74 337.62 281.17 335.85 281.17zM315.84 281.17c-1.76.0-3.19-1.43-3.19-3.19v0c0-1.76 1.43-3.19 3.19-3.19v0c1.76.0 3.22 1.43 3.22 3.19v0C319.06 279.74 317.6 281.17 315.84 281.17zM295.86 281.17c-1.76.0-3.19-1.43-3.19-3.19v0c0-1.76 1.43-3.19 3.19-3.19v0c1.76.0 3.19 1.43 3.19 3.19v0C299.05 279.74 297.62 281.17 295.86 281.17zM275.87 281.17c-1.76.0-3.19-1.43-3.19-3.19v0c0-1.76 1.43-3.19 3.19-3.19v0c1.76.0 3.19 1.43 3.19 3.19v0C279.06 279.74 277.63 281.17 275.87 281.17zM255.86 281.17c-1.76.0-3.19-1.43-3.19-3.19v0c0-1.76 1.43-3.19 3.19-3.19v0c1.76.0 3.19 1.43 3.19 3.19v0C259.05 279.74 257.62 281.17 255.86 281.17zM235.85 281.17c-1.76.0-3.19-1.43-3.19-3.19v0c0-1.76 1.43-3.19 3.19-3.19v0c1.76.0 3.19 1.43 3.19 3.19v0C239.04 279.74 237.61 281.17 235.85 281.17zM215.86 281.17c-1.76.0-3.19-1.43-3.19-3.19v0c0-1.76 1.43-3.19 3.19-3.19v0c1.76.0 3.19 1.43 3.19 3.19v0C219.05 279.74 217.62 281.17 215.86 281.17zM195.85 281.17c-1.76.0-3.19-1.43-3.19-3.19v0c0-1.76 1.43-3.19 3.19-3.19v0c1.76.0 3.19 1.43 3.19 3.19v0C199.04 279.74 197.61 281.17 195.85 281.17zM175.86 281.17c-1.76.0-3.19-1.43-3.19-3.19v0c0-1.76 1.43-3.19 3.19-3.19v0c1.76.0 3.19 1.43 3.19 3.19v0C179.05 279.74 177.62 281.17 175.86 281.17zM155.85 281.17c-1.76.0-3.19-1.43-3.19-3.19v0c0-1.76 1.43-3.19 3.19-3.19v0c1.76.0 3.19 1.43 3.19 3.19v0C159.04 279.74 157.61 281.17 155.85 281.17zM135.86 281.17c-1.76.0-3.19-1.43-3.19-3.19v0c0-1.76 1.43-3.19 3.19-3.19v0c1.76.0 3.19 1.43 3.19 3.19v0C139.05 279.74 137.62 281.17 135.86 281.17zM115.85 281.17c-1.76.0-3.19-1.43-3.19-3.19v0c0-1.76 1.43-3.19 3.19-3.19v0c1.76.0 3.19 1.43 3.19 3.19v0C119.04 279.74 117.61 281.17 115.85 281.17zM95.86 281.17c-1.76.0-3.19-1.43-3.19-3.19v0c0-1.76 1.43-3.19 3.19-3.19v0c1.76.0 3.19 1.43 3.19 3.19v0C99.05 279.74 97.63 281.17 95.86 281.17z"/></g><g><path class="st0" d="M499.04 277.98c0 .41-.08.82-.23 1.23-.15.38-.38.71-.69 1.02-.61.61-1.4.94-2.27.94-.2.0-.41-.03-.61-.08-.2-.02-.41-.1-.59-.18-.2-.08-.38-.18-.56-.28-.18-.13-.33-.25-.48-.41-.15-.15-.28-.31-.38-.48-.13-.18-.23-.36-.31-.56-.07-.18-.15-.38-.18-.59-.08-.41-.08-.84.0-1.25.03-.2.1-.41.18-.59.08-.2.18-.38.31-.56.1-.18.23-.33.38-.48.15-.13.31-.28.48-.38.18-.13.36-.23.56-.31.18-.08.38-.13.59-.18.2-.02.41-.05.61-.05.87.0 1.66.33 2.27.92C498.71 276.32 499.04 277.11 499.04 277.98z"/></g></g><g><g><path class="st0" d="M475.86 263.33c-1.76.0-3.19-1.43-3.19-3.19v0c0-1.76 1.43-3.19 3.19-3.19v0c1.76.0 3.19 1.43 3.19 3.19v0C479.05 261.9 477.62 263.33 475.86 263.33zM455.85 263.33c-1.76.0-3.19-1.43-3.19-3.19v0c0-1.76 1.43-3.19 3.19-3.19v0c1.76.0 3.19 1.43 3.19 3.19v0C459.04 261.9 457.61 263.33 455.85 263.33zM435.86 263.33c-1.76.0-3.19-1.43-3.19-3.19v0c0-1.76 1.43-3.19 3.19-3.19v0c1.76.0 3.19 1.43 3.19 3.19v0C439.05 261.9 437.63 263.33 435.86 263.33zM415.85 263.33c-1.76.0-3.19-1.43-3.19-3.19v0c0-1.76 1.43-3.19 3.19-3.19v0c1.76.0 3.19 1.43 3.19 3.19v0C419.04 261.9 417.61 263.33 415.85 263.33zM395.87 263.33c-1.76.0-3.19-1.43-3.19-3.19v0c0-1.76 1.43-3.19 3.19-3.19v0c1.76.0 3.19 1.43 3.19 3.19v0C399.06 261.9 397.63 263.33 395.87 263.33zM375.85 263.33c-1.76.0-3.19-1.43-3.19-3.19v0c0-1.76 1.43-3.19 3.19-3.19v0c1.76.0 3.19 1.43 3.19 3.19v0C379.05 261.9 377.61 263.33 375.85 263.33zM355.87 263.33c-1.76.0-3.19-1.43-3.19-3.19v0c0-1.76 1.43-3.19 3.19-3.19v0c1.76.0 3.19 1.43 3.19 3.19v0C359.06 261.9 357.63 263.33 355.87 263.33zM335.85 263.33c-1.76.0-3.19-1.43-3.19-3.19v0c0-1.76 1.43-3.19 3.19-3.19v0c1.76.0 3.19 1.43 3.19 3.19v0C339.05 261.9 337.62 263.33 335.85 263.33zM315.84 263.33c-1.76.0-3.19-1.43-3.19-3.19v0c0-1.76 1.43-3.19 3.19-3.19v0c1.76.0 3.22 1.43 3.22 3.19v0C319.06 261.9 317.6 263.33 315.84 263.33zM295.86 263.33c-1.76.0-3.19-1.43-3.19-3.19v0c0-1.76 1.43-3.19 3.19-3.19v0c1.76.0 3.19 1.43 3.19 3.19v0C299.05 261.9 297.62 263.33 295.86 263.33zM275.87 263.33c-1.76.0-3.19-1.43-3.19-3.19v0c0-1.76 1.43-3.19 3.19-3.19v0c1.76.0 3.19 1.43 3.19 3.19v0C279.06 261.9 277.63 263.33 275.87 263.33zM255.86 263.33c-1.76.0-3.19-1.43-3.19-3.19v0c0-1.76 1.43-3.19 3.19-3.19v0c1.76.0 3.19 1.43 3.19 3.19v0C259.05 261.9 257.62 263.33 255.86 263.33zM235.85 263.33c-1.76.0-3.19-1.43-3.19-3.19v0c0-1.76 1.43-3.19 3.19-3.19v0c1.76.0 3.19 1.43 3.19 3.19v0C239.04 261.9 237.61 263.33 235.85 263.33zM215.86 263.33c-1.76.0-3.19-1.43-3.19-3.19v0c0-1.76 1.43-3.19 3.19-3.19v0c1.76.0 3.19 1.43 3.19 3.19v0C219.05 261.9 217.62 263.33 215.86 263.33zM195.85 263.33c-1.76.0-3.19-1.43-3.19-3.19v0c0-1.76 1.43-3.19 3.19-3.19v0c1.76.0 3.19 1.43 3.19 3.19v0C199.04 261.9 197.61 263.33 195.85 263.33zM175.86 263.33c-1.76.0-3.19-1.43-3.19-3.19v0c0-1.76 1.43-3.19 3.19-3.19v0c1.76.0 3.19 1.43 3.19 3.19v0C179.05 261.9 177.62 263.33 175.86 263.33zM155.85 263.33c-1.76.0-3.19-1.43-3.19-3.19v0c0-1.76 1.43-3.19 3.19-3.19v0c1.76.0 3.19 1.43 3.19 3.19v0C159.04 261.9 157.61 263.33 155.85 263.33zM135.86 263.33c-1.76.0-3.19-1.43-3.19-3.19v0c0-1.76 1.43-3.19 3.19-3.19v0c1.76.0 3.19 1.43 3.19 3.19v0C139.05 261.9 137.62 263.33 135.86 263.33zM115.85 263.33c-1.76.0-3.19-1.43-3.19-3.19v0c0-1.76 1.43-3.19 3.19-3.19v0c1.76.0 3.19 1.43 3.19 3.19v0C119.04 261.9 117.61 263.33 115.85 263.33zM95.86 263.33c-1.76.0-3.19-1.43-3.19-3.19v0c0-1.76 1.43-3.19 3.19-3.19v0c1.76.0 3.19 1.43 3.19 3.19v0C99.05 261.9 97.63 263.33 95.86 263.33z"/></g><g><path class="st0" d="M499.04 260.14c0 .43-.08.84-.23 1.22-.15.38-.38.74-.69 1.05-.61.59-1.4.92-2.27.92-.2.0-.41-.03-.61-.05-.2-.05-.41-.1-.59-.18-.2-.08-.38-.18-.56-.31-.18-.1-.33-.26-.48-.38-.74-.74-1.1-1.84-.87-2.89.03-.2.1-.41.18-.61.08-.18.18-.36.31-.54.1-.18.23-.33.38-.48.15-.15.31-.28.48-.41.18-.1.36-.2.56-.28.18-.08.38-.15.59-.18.2-.05.41-.08.61-.08.87.0 1.66.33 2.27.94C498.71 258.48 499.04 259.3 499.04 260.14z"/></g></g><g><g><path class="st0" d="M475.86 245.51c-1.76.0-3.19-1.43-3.19-3.19v0c0-1.76 1.43-3.19 3.19-3.19v0c1.76.0 3.19 1.43 3.19 3.19v0C479.05 244.08 477.62 245.51 475.86 245.51zM455.85 245.51c-1.76.0-3.19-1.43-3.19-3.19v0c0-1.76 1.43-3.19 3.19-3.19v0c1.76.0 3.19 1.43 3.19 3.19v0C459.04 244.08 457.61 245.51 455.85 245.51zM435.86 245.51c-1.76.0-3.19-1.43-3.19-3.19v0c0-1.76 1.43-3.19 3.19-3.19v0c1.76.0 3.19 1.43 3.19 3.19v0C439.05 244.08 437.63 245.51 435.86 245.51zM415.85 245.51c-1.76.0-3.19-1.43-3.19-3.19v0c0-1.76 1.43-3.19 3.19-3.19v0c1.76.0 3.19 1.43 3.19 3.19v0C419.04 244.08 417.61 245.51 415.85 245.51zM395.87 245.51c-1.76.0-3.19-1.43-3.19-3.19v0c0-1.76 1.43-3.19 3.19-3.19v0c1.76.0 3.19 1.43 3.19 3.19v0C399.06 244.08 397.63 245.51 395.87 245.51zM375.85 245.51c-1.76.0-3.19-1.43-3.19-3.19v0c0-1.76 1.43-3.19 3.19-3.19v0c1.76.0 3.19 1.43 3.19 3.19v0C379.05 244.08 377.61 245.51 375.85 245.51zM355.87 245.51c-1.76.0-3.19-1.43-3.19-3.19v0c0-1.76 1.43-3.19 3.19-3.19v0c1.76.0 3.19 1.43 3.19 3.19v0C359.06 244.08 357.63 245.51 355.87 245.51zM335.85 245.51c-1.76.0-3.19-1.43-3.19-3.19v0c0-1.76 1.43-3.19 3.19-3.19v0c1.76.0 3.19 1.43 3.19 3.19v0C339.05 244.08 337.62 245.51 335.85 245.51zM315.84 245.51c-1.76.0-3.19-1.43-3.19-3.19v0c0-1.76 1.43-3.19 3.19-3.19v0c1.76.0 3.22 1.43 3.22 3.19v0C319.06 244.08 317.6 245.51 315.84 245.51zM295.86 245.51c-1.76.0-3.19-1.43-3.19-3.19v0c0-1.76 1.43-3.19 3.19-3.19v0c1.76.0 3.19 1.43 3.19 3.19v0C299.05 244.08 297.62 245.51 295.86 245.51zM275.87 245.51c-1.76.0-3.19-1.43-3.19-3.19v0c0-1.76 1.43-3.19 3.19-3.19v0c1.76.0 3.19 1.43 3.19 3.19v0C279.06 244.08 277.63 245.51 275.87 245.51zM255.86 245.51c-1.76.0-3.19-1.43-3.19-3.19v0c0-1.76 1.43-3.19 3.19-3.19v0c1.76.0 3.19 1.43 3.19 3.19v0C259.05 244.08 257.62 245.51 255.86 245.51zM235.85 245.51c-1.76.0-3.19-1.43-3.19-3.19v0c0-1.76 1.43-3.19 3.19-3.19v0c1.76.0 3.19 1.43 3.19 3.19v0C239.04 244.08 237.61 245.51 235.85 245.51zM215.86 245.51c-1.76.0-3.19-1.43-3.19-3.19v0c0-1.76 1.43-3.19 3.19-3.19v0c1.76.0 3.19 1.43 3.19 3.19v0C219.05 244.08 217.62 245.51 215.86 245.51zM195.85 245.51c-1.76.0-3.19-1.43-3.19-3.19v0c0-1.76 1.43-3.19 3.19-3.19v0c1.76.0 3.19 1.43 3.19 3.19v0C199.04 244.08 197.61 245.51 195.85 245.51zM175.86 245.51c-1.76.0-3.19-1.43-3.19-3.19v0c0-1.76 1.43-3.19 3.19-3.19v0c1.76.0 3.19 1.43 3.19 3.19v0C179.05 244.08 177.62 245.51 175.86 245.51zM155.85 245.51c-1.76.0-3.19-1.43-3.19-3.19v0c0-1.76 1.43-3.19 3.19-3.19v0c1.76.0 3.19 1.43 3.19 3.19v0C159.04 244.08 157.61 245.51 155.85 245.51zM135.86 245.51c-1.76.0-3.19-1.43-3.19-3.19v0c0-1.76 1.43-3.19 3.19-3.19v0c1.76.0 3.19 1.43 3.19 3.19v0C139.05 244.08 137.62 245.51 135.86 245.51zM115.85 245.51c-1.76.0-3.19-1.43-3.19-3.19v0c0-1.76 1.43-3.19 3.19-3.19v0c1.76.0 3.19 1.43 3.19 3.19v0C119.04 244.08 117.61 245.51 115.85 245.51zM95.86 245.51c-1.76.0-3.19-1.43-3.19-3.19v0c0-1.76 1.43-3.19 3.19-3.19v0c1.76.0 3.19 1.43 3.19 3.19v0C99.05 244.08 97.63 245.51 95.86 245.51z"/></g><g><path class="st0" d="M499.04 242.32c0 .43-.08.84-.23 1.23-.15.38-.38.74-.69 1.02-.31.31-.64.54-1.05.69-.38.18-.79.26-1.22.26-.2.0-.41-.03-.61-.08-.2-.03-.41-.1-.59-.18-.2-.08-.38-.18-.56-.28-.18-.13-.33-.26-.48-.41-.15-.13-.28-.31-.38-.48-.13-.15-.23-.36-.31-.54-.07-.2-.15-.41-.18-.61-.2-1.02.13-2.12.87-2.86.15-.15.31-.28.48-.41.18-.1.36-.2.56-.28.18-.1.38-.15.59-.2.2-.03.41-.05.61-.05.87.0 1.66.33 2.27.94C498.71 240.66 499.04 241.45 499.04 242.32z"/></g></g><g><g><path class="st0" d="M475.86 227.7c-1.76.0-3.19-1.43-3.19-3.19v0c0-1.76 1.43-3.19 3.19-3.19v0c1.76.0 3.19 1.43 3.19 3.19v0C479.05 226.27 477.62 227.7 475.86 227.7zM455.85 227.7c-1.76.0-3.19-1.43-3.19-3.19v0c0-1.76 1.43-3.19 3.19-3.19v0c1.76.0 3.19 1.43 3.19 3.19v0C459.04 226.27 457.61 227.7 455.85 227.7zM435.86 227.7c-1.76.0-3.19-1.43-3.19-3.19v0c0-1.76 1.43-3.19 3.19-3.19v0c1.76.0 3.19 1.43 3.19 3.19v0C439.05 226.27 437.63 227.7 435.86 227.7zM415.85 227.7c-1.76.0-3.19-1.43-3.19-3.19v0c0-1.76 1.43-3.19 3.19-3.19v0c1.76.0 3.19 1.43 3.19 3.19v0C419.04 226.27 417.61 227.7 415.85 227.7zM395.87 227.7c-1.76.0-3.19-1.43-3.19-3.19v0c0-1.76 1.43-3.19 3.19-3.19v0c1.76.0 3.19 1.43 3.19 3.19v0C399.06 226.27 397.63 227.7 395.87 227.7zM375.85 227.7c-1.76.0-3.19-1.43-3.19-3.19v0c0-1.76 1.43-3.19 3.19-3.19v0c1.76.0 3.19 1.43 3.19 3.19v0C379.05 226.27 377.61 227.7 375.85 227.7zM355.87 227.7c-1.76.0-3.19-1.43-3.19-3.19v0c0-1.76 1.43-3.19 3.19-3.19v0c1.76.0 3.19 1.43 3.19 3.19v0C359.06 226.27 357.63 227.7 355.87 227.7zM335.85 227.7c-1.76.0-3.19-1.43-3.19-3.19v0c0-1.76 1.43-3.19 3.19-3.19v0c1.76.0 3.19 1.43 3.19 3.19v0C339.05 226.27 337.62 227.7 335.85 227.7zM315.84 227.7c-1.76.0-3.19-1.43-3.19-3.19v0c0-1.76 1.43-3.19 3.19-3.19v0c1.76.0 3.22 1.43 3.22 3.19v0C319.06 226.27 317.6 227.7 315.84 227.7zM295.86 227.7c-1.76.0-3.19-1.43-3.19-3.19v0c0-1.76 1.43-3.19 3.19-3.19v0c1.76.0 3.19 1.43 3.19 3.19v0C299.05 226.27 297.62 227.7 295.86 227.7zM275.87 227.7c-1.76.0-3.19-1.43-3.19-3.19v0c0-1.76 1.43-3.19 3.19-3.19v0c1.76.0 3.19 1.43 3.19 3.19v0C279.06 226.27 277.63 227.7 275.87 227.7zM255.86 227.7c-1.76.0-3.19-1.43-3.19-3.19v0c0-1.76 1.43-3.19 3.19-3.19v0c1.76.0 3.19 1.43 3.19 3.19v0C259.05 226.27 257.62 227.7 255.86 227.7zM235.85 227.7c-1.76.0-3.19-1.43-3.19-3.19v0c0-1.76 1.43-3.19 3.19-3.19v0c1.76.0 3.19 1.43 3.19 3.19v0C239.04 226.27 237.61 227.7 235.85 227.7zM215.86 227.7c-1.76.0-3.19-1.43-3.19-3.19v0c0-1.76 1.43-3.19 3.19-3.19v0c1.76.0 3.19 1.43 3.19 3.19v0C219.05 226.27 217.62 227.7 215.86 227.7zM195.85 227.7c-1.76.0-3.19-1.43-3.19-3.19v0c0-1.76 1.43-3.19 3.19-3.19v0c1.76.0 3.19 1.43 3.19 3.19v0C199.04 226.27 197.61 227.7 195.85 227.7zM175.86 227.7c-1.76.0-3.19-1.43-3.19-3.19v0c0-1.76 1.43-3.19 3.19-3.19v0c1.76.0 3.19 1.43 3.19 3.19v0C179.05 226.27 177.62 227.7 175.86 227.7zM155.85 227.7c-1.76.0-3.19-1.43-3.19-3.19v0c0-1.76 1.43-3.19 3.19-3.19v0c1.76.0 3.19 1.43 3.19 3.19v0C159.04 226.27 157.61 227.7 155.85 227.7zM135.86 227.7c-1.76.0-3.19-1.43-3.19-3.19v0c0-1.76 1.43-3.19 3.19-3.19v0c1.76.0 3.19 1.43 3.19 3.19v0C139.05 226.27 137.62 227.7 135.86 227.7zM115.85 227.7c-1.76.0-3.19-1.43-3.19-3.19v0c0-1.76 1.43-3.19 3.19-3.19v0c1.76.0 3.19 1.43 3.19 3.19v0C119.04 226.27 117.61 227.7 115.85 227.7zM95.86 227.7c-1.76.0-3.19-1.43-3.19-3.19v0c0-1.76 1.43-3.19 3.19-3.19v0c1.76.0 3.19 1.43 3.19 3.19v0C99.05 226.27 97.63 227.7 95.86 227.7z"/></g><g><path class="st0" d="M499.04 224.48c0 .44-.08.84-.23 1.23-.15.41-.38.74-.69 1.05-.61.61-1.4.94-2.27.94-.2.0-.41-.03-.61-.08-.2-.02-.41-.1-.59-.18-.2-.08-.38-.18-.56-.28-.18-.13-.33-.26-.48-.41-.15-.15-.28-.31-.38-.48-.13-.18-.23-.36-.31-.56-.07-.18-.15-.38-.18-.59-.08-.41-.08-.84.0-1.25.03-.2.1-.41.18-.59.08-.2.18-.38.31-.56.1-.18.23-.33.38-.48.15-.15.31-.28.48-.38.18-.13.36-.23.56-.31.18-.08.38-.13.59-.18.2-.05.41-.05.61-.05.87.0 1.66.33 2.27.92.31.31.54.66.69 1.05C498.96 223.66 499.04 224.07 499.04 224.48z"/></g></g><g><g><path class="st0" d="M475.86 209.85c-1.76.0-3.19-1.43-3.19-3.19v0c0-1.76 1.43-3.19 3.19-3.19v0c1.76.0 3.19 1.43 3.19 3.19v0C479.05 208.42 477.62 209.85 475.86 209.85zM455.85 209.85c-1.76.0-3.19-1.43-3.19-3.19v0c0-1.76 1.43-3.19 3.19-3.19v0c1.76.0 3.19 1.43 3.19 3.19v0C459.04 208.42 457.61 209.85 455.85 209.85zM435.86 209.85c-1.76.0-3.19-1.43-3.19-3.19v0c0-1.76 1.43-3.19 3.19-3.19v0c1.76.0 3.19 1.43 3.19 3.19v0C439.05 208.42 437.63 209.85 435.86 209.85zM415.85 209.85c-1.76.0-3.19-1.43-3.19-3.19v0c0-1.76 1.43-3.19 3.19-3.19v0c1.76.0 3.19 1.43 3.19 3.19v0C419.04 208.42 417.61 209.85 415.85 209.85zM395.87 209.85c-1.76.0-3.19-1.43-3.19-3.19v0c0-1.76 1.43-3.19 3.19-3.19v0c1.76.0 3.19 1.43 3.19 3.19v0C399.06 208.42 397.63 209.85 395.87 209.85zM375.85 209.85c-1.76.0-3.19-1.43-3.19-3.19v0c0-1.76 1.43-3.19 3.19-3.19v0c1.76.0 3.19 1.43 3.19 3.19v0C379.05 208.42 377.61 209.85 375.85 209.85zM355.87 209.85c-1.76.0-3.19-1.43-3.19-3.19v0c0-1.76 1.43-3.19 3.19-3.19v0c1.76.0 3.19 1.43 3.19 3.19v0C359.06 208.42 357.63 209.85 355.87 209.85zM335.85 209.85c-1.76.0-3.19-1.43-3.19-3.19v0c0-1.76 1.43-3.19 3.19-3.19v0c1.76.0 3.19 1.43 3.19 3.19v0C339.05 208.42 337.62 209.85 335.85 209.85zM315.84 209.85c-1.76.0-3.19-1.43-3.19-3.19v0c0-1.76 1.43-3.19 3.19-3.19v0c1.76.0 3.22 1.43 3.22 3.19v0C319.06 208.42 317.6 209.85 315.84 209.85zM295.86 209.85c-1.76.0-3.19-1.43-3.19-3.19v0c0-1.76 1.43-3.19 3.19-3.19v0c1.76.0 3.19 1.43 3.19 3.19v0C299.05 208.42 297.62 209.85 295.86 209.85zM275.87 209.85c-1.76.0-3.19-1.43-3.19-3.19v0c0-1.76 1.43-3.19 3.19-3.19v0c1.76.0 3.19 1.43 3.19 3.19v0C279.06 208.42 277.63 209.85 275.87 209.85zM255.86 209.85c-1.76.0-3.19-1.43-3.19-3.19v0c0-1.76 1.43-3.19 3.19-3.19v0c1.76.0 3.19 1.43 3.19 3.19v0C259.05 208.42 257.62 209.85 255.86 209.85zM235.85 209.85c-1.76.0-3.19-1.43-3.19-3.19v0c0-1.76 1.43-3.19 3.19-3.19v0c1.76.0 3.19 1.43 3.19 3.19v0C239.04 208.42 237.61 209.85 235.85 209.85zM215.86 209.85c-1.76.0-3.19-1.43-3.19-3.19v0c0-1.76 1.43-3.19 3.19-3.19v0c1.76.0 3.19 1.43 3.19 3.19v0C219.05 208.42 217.62 209.85 215.86 209.85zM195.85 209.85c-1.76.0-3.19-1.43-3.19-3.19v0c0-1.76 1.43-3.19 3.19-3.19v0c1.76.0 3.19 1.43 3.19 3.19v0C199.04 208.42 197.61 209.85 195.85 209.85zM175.86 209.85c-1.76.0-3.19-1.43-3.19-3.19v0c0-1.76 1.43-3.19 3.19-3.19v0c1.76.0 3.19 1.43 3.19 3.19v0C179.05 208.42 177.62 209.85 175.86 209.85zM155.85 209.85c-1.76.0-3.19-1.43-3.19-3.19v0c0-1.76 1.43-3.19 3.19-3.19v0c1.76.0 3.19 1.43 3.19 3.19v0C159.04 208.42 157.61 209.85 155.85 209.85zM135.86 209.85c-1.76.0-3.19-1.43-3.19-3.19v0c0-1.76 1.43-3.19 3.19-3.19v0c1.76.0 3.19 1.43 3.19 3.19v0C139.05 208.42 137.62 209.85 135.86 209.85zM115.85 209.85c-1.76.0-3.19-1.43-3.19-3.19v0c0-1.76 1.43-3.19 3.19-3.19v0c1.76.0 3.19 1.43 3.19 3.19v0C119.04 208.42 117.61 209.85 115.85 209.85zM95.86 209.85c-1.76.0-3.19-1.43-3.19-3.19v0c0-1.76 1.43-3.19 3.19-3.19v0c1.76.0 3.19 1.43 3.19 3.19v0C99.05 208.42 97.63 209.85 95.86 209.85z"/></g><g><path class="st0" d="M499.04 206.66c0 .87-.33 1.66-.92 2.27-.61.59-1.4.92-2.27.92-.2.0-.41-.03-.61-.05-.2-.05-.41-.1-.59-.18-.2-.08-.38-.18-.56-.31-.18-.1-.33-.26-.48-.38-.15-.15-.28-.33-.38-.48-.13-.18-.23-.36-.31-.56-.07-.2-.15-.38-.18-.59-.08-.43-.08-.84.0-1.25.03-.2.1-.41.18-.61.08-.18.18-.36.31-.54.1-.18.23-.33.38-.48.15-.15.31-.28.48-.41.18-.1.36-.2.56-.28.18-.08.38-.15.59-.18.2-.05.41-.08.61-.08.87.0 1.66.33 2.27.94.31.31.54.64.69 1.02C498.96 205.82 499.04 206.25 499.04 206.66z"/></g></g><g><g><path class="st0" d="M475.86 192.04c-1.76.0-3.19-1.43-3.19-3.19v0c0-1.76 1.43-3.19 3.19-3.19v0c1.76.0 3.19 1.43 3.19 3.19v0C479.05 190.61 477.62 192.04 475.86 192.04zM455.85 192.04c-1.76.0-3.19-1.43-3.19-3.19v0c0-1.76 1.43-3.19 3.19-3.19v0c1.76.0 3.19 1.43 3.19 3.19v0C459.04 190.61 457.61 192.04 455.85 192.04zM435.86 192.04c-1.76.0-3.19-1.43-3.19-3.19v0c0-1.76 1.43-3.19 3.19-3.19v0c1.76.0 3.19 1.43 3.19 3.19v0C439.05 190.61 437.63 192.04 435.86 192.04zM415.85 192.04c-1.76.0-3.19-1.43-3.19-3.19v0c0-1.76 1.43-3.19 3.19-3.19v0c1.76.0 3.19 1.43 3.19 3.19v0C419.04 190.61 417.61 192.04 415.85 192.04zM395.87 192.04c-1.76.0-3.19-1.43-3.19-3.19v0c0-1.76 1.43-3.19 3.19-3.19v0c1.76.0 3.19 1.43 3.19 3.19v0C399.06 190.61 397.63 192.04 395.87 192.04zM375.85 192.04c-1.76.0-3.19-1.43-3.19-3.19v0c0-1.76 1.43-3.19 3.19-3.19v0c1.76.0 3.19 1.43 3.19 3.19v0C379.05 190.61 377.61 192.04 375.85 192.04zM355.87 192.04c-1.76.0-3.19-1.43-3.19-3.19v0c0-1.76 1.43-3.19 3.19-3.19v0c1.76.0 3.19 1.43 3.19 3.19v0C359.06 190.61 357.63 192.04 355.87 192.04zM335.85 192.04c-1.76.0-3.19-1.43-3.19-3.19v0c0-1.76 1.43-3.19 3.19-3.19v0c1.76.0 3.19 1.43 3.19 3.19v0C339.05 190.61 337.62 192.04 335.85 192.04zM315.84 192.04c-1.76.0-3.19-1.43-3.19-3.19v0c0-1.76 1.43-3.19 3.19-3.19v0c1.76.0 3.22 1.43 3.22 3.19v0C319.06 190.61 317.6 192.04 315.84 192.04zM295.86 192.04c-1.76.0-3.19-1.43-3.19-3.19v0c0-1.76 1.43-3.19 3.19-3.19v0c1.76.0 3.19 1.43 3.19 3.19v0C299.05 190.61 297.62 192.04 295.86 192.04zM275.87 192.04c-1.76.0-3.19-1.43-3.19-3.19v0c0-1.76 1.43-3.19 3.19-3.19v0c1.76.0 3.19 1.43 3.19 3.19v0C279.06 190.61 277.63 192.04 275.87 192.04zM255.86 192.04c-1.76.0-3.19-1.43-3.19-3.19v0c0-1.76 1.43-3.19 3.19-3.19v0c1.76.0 3.19 1.43 3.19 3.19v0C259.05 190.61 257.62 192.04 255.86 192.04zM235.85 192.04c-1.76.0-3.19-1.43-3.19-3.19v0c0-1.76 1.43-3.19 3.19-3.19v0c1.76.0 3.19 1.43 3.19 3.19v0C239.04 190.61 237.61 192.04 235.85 192.04zM215.86 192.04c-1.76.0-3.19-1.43-3.19-3.19v0c0-1.76 1.43-3.19 3.19-3.19v0c1.76.0 3.19 1.43 3.19 3.19v0C219.05 190.61 217.62 192.04 215.86 192.04zM195.85 192.04c-1.76.0-3.19-1.43-3.19-3.19v0c0-1.76 1.43-3.19 3.19-3.19v0c1.76.0 3.19 1.43 3.19 3.19v0C199.04 190.61 197.61 192.04 195.85 192.04zM175.86 192.04c-1.76.0-3.19-1.43-3.19-3.19v0c0-1.76 1.43-3.19 3.19-3.19v0c1.76.0 3.19 1.43 3.19 3.19v0C179.05 190.61 177.62 192.04 175.86 192.04zM155.85 192.04c-1.76.0-3.19-1.43-3.19-3.19v0c0-1.76 1.43-3.19 3.19-3.19v0c1.76.0 3.19 1.43 3.19 3.19v0C159.04 190.61 157.61 192.04 155.85 192.04zM135.86 192.04c-1.76.0-3.19-1.43-3.19-3.19v0c0-1.76 1.43-3.19 3.19-3.19v0c1.76.0 3.19 1.43 3.19 3.19v0C139.05 190.61 137.62 192.04 135.86 192.04zM115.85 192.04c-1.76.0-3.19-1.43-3.19-3.19v0c0-1.76 1.43-3.19 3.19-3.19v0c1.76.0 3.19 1.43 3.19 3.19v0C119.04 190.61 117.61 192.04 115.85 192.04zM95.86 192.04c-1.76.0-3.19-1.43-3.19-3.19v0c0-1.76 1.43-3.19 3.19-3.19v0c1.76.0 3.19 1.43 3.19 3.19v0C99.05 190.61 97.63 192.04 95.86 192.04z"/></g><g><path class="st0" d="M499.04 188.85c0 .84-.33 1.66-.92 2.25-.61.61-1.4.94-2.27.94-.2.0-.41-.03-.61-.08-.2-.03-.41-.1-.59-.18-.2-.08-.38-.18-.56-.28-.18-.13-.33-.26-.48-.41-.15-.13-.28-.31-.38-.49-.13-.15-.23-.36-.31-.54-.07-.2-.15-.41-.18-.61-.08-.41-.08-.82.0-1.23.03-.2.1-.41.18-.61.08-.18.18-.38.31-.54.1-.18.23-.36.38-.48.15-.15.31-.28.48-.41.18-.13.36-.2.56-.31.18-.08.38-.13.59-.18.2-.03.41-.05.61-.05.87.0 1.66.33 2.27.94.31.28.54.64.69 1.02C498.96 188 499.04 188.41 499.04 188.85z"/></g></g><g><g><path class="st0" d="M475.86 174.19c-1.76.0-3.19-1.43-3.19-3.19v0c0-1.76 1.43-3.19 3.19-3.19v0c1.76.0 3.19 1.43 3.19 3.19v0C479.05 172.76 477.62 174.19 475.86 174.19zM455.85 174.19c-1.76.0-3.19-1.43-3.19-3.19v0c0-1.76 1.43-3.19 3.19-3.19v0c1.76.0 3.19 1.43 3.19 3.19v0C459.04 172.76 457.61 174.19 455.85 174.19zM435.86 174.19c-1.76.0-3.19-1.43-3.19-3.19v0c0-1.76 1.43-3.19 3.19-3.19v0c1.76.0 3.19 1.43 3.19 3.19v0C439.05 172.76 437.63 174.19 435.86 174.19zM415.85 174.19c-1.76.0-3.19-1.43-3.19-3.19v0c0-1.76 1.43-3.19 3.19-3.19v0c1.76.0 3.19 1.43 3.19 3.19v0C419.04 172.76 417.61 174.19 415.85 174.19zM395.87 174.19c-1.76.0-3.19-1.43-3.19-3.19v0c0-1.76 1.43-3.19 3.19-3.19v0c1.76.0 3.19 1.43 3.19 3.19v0C399.06 172.76 397.63 174.19 395.87 174.19zM375.85 174.19c-1.76.0-3.19-1.43-3.19-3.19v0c0-1.76 1.43-3.19 3.19-3.19v0c1.76.0 3.19 1.43 3.19 3.19v0C379.05 172.76 377.61 174.19 375.85 174.19zM355.87 174.19c-1.76.0-3.19-1.43-3.19-3.19v0c0-1.76 1.43-3.19 3.19-3.19v0c1.76.0 3.19 1.43 3.19 3.19v0C359.06 172.76 357.63 174.19 355.87 174.19zM335.85 174.19c-1.76.0-3.19-1.43-3.19-3.19v0c0-1.76 1.43-3.19 3.19-3.19v0c1.76.0 3.19 1.43 3.19 3.19v0C339.05 172.76 337.62 174.19 335.85 174.19zM315.84 174.19c-1.76.0-3.19-1.43-3.19-3.19v0c0-1.76 1.43-3.19 3.19-3.19v0c1.76.0 3.22 1.43 3.22 3.19v0C319.06 172.76 317.6 174.19 315.84 174.19zM295.86 174.19c-1.76.0-3.19-1.43-3.19-3.19v0c0-1.76 1.43-3.19 3.19-3.19v0c1.76.0 3.19 1.43 3.19 3.19v0C299.05 172.76 297.62 174.19 295.86 174.19zM275.87 174.19c-1.76.0-3.19-1.43-3.19-3.19v0c0-1.76 1.43-3.19 3.19-3.19v0c1.76.0 3.19 1.43 3.19 3.19v0C279.06 172.76 277.63 174.19 275.87 174.19zM255.86 174.19c-1.76.0-3.19-1.43-3.19-3.19v0c0-1.76 1.43-3.19 3.19-3.19v0c1.76.0 3.19 1.43 3.19 3.19v0C259.05 172.76 257.62 174.19 255.86 174.19zM235.85 174.19c-1.76.0-3.19-1.43-3.19-3.19v0c0-1.76 1.43-3.19 3.19-3.19v0c1.76.0 3.19 1.43 3.19 3.19v0C239.04 172.76 237.61 174.19 235.85 174.19zM215.86 174.19c-1.76.0-3.19-1.43-3.19-3.19v0c0-1.76 1.43-3.19 3.19-3.19v0c1.76.0 3.19 1.43 3.19 3.19v0C219.05 172.76 217.62 174.19 215.86 174.19zM195.85 174.19c-1.76.0-3.19-1.43-3.19-3.19v0c0-1.76 1.43-3.19 3.19-3.19v0c1.76.0 3.19 1.43 3.19 3.19v0C199.04 172.76 197.61 174.19 195.85 174.19zM175.86 174.19c-1.76.0-3.19-1.43-3.19-3.19v0c0-1.76 1.43-3.19 3.19-3.19v0c1.76.0 3.19 1.43 3.19 3.19v0C179.05 172.76 177.62 174.19 175.86 174.19zM155.85 174.19c-1.76.0-3.19-1.43-3.19-3.19v0c0-1.76 1.43-3.19 3.19-3.19v0c1.76.0 3.19 1.43 3.19 3.19v0C159.04 172.76 157.61 174.19 155.85 174.19zM135.86 174.19c-1.76.0-3.19-1.43-3.19-3.19v0c0-1.76 1.43-3.19 3.19-3.19v0c1.76.0 3.19 1.43 3.19 3.19v0C139.05 172.76 137.62 174.19 135.86 174.19zM115.85 174.19c-1.76.0-3.19-1.43-3.19-3.19v0c0-1.76 1.43-3.19 3.19-3.19v0c1.76.0 3.19 1.43 3.19 3.19v0C119.04 172.76 117.61 174.19 115.85 174.19zM95.86 174.19c-1.76.0-3.19-1.43-3.19-3.19v0c0-1.76 1.43-3.19 3.19-3.19v0c1.76.0 3.19 1.43 3.19 3.19v0C99.05 172.76 97.63 174.19 95.86 174.19z"/></g><g><path class="st0" d="M499.04 171.03c0 .84-.33 1.63-.92 2.25-.61.61-1.4.94-2.27.94-.2.0-.41-.03-.61-.08-.2-.05-.41-.1-.59-.18-.2-.08-.38-.18-.56-.28-.18-.13-.33-.26-.48-.41-.74-.74-1.07-1.86-.87-2.89.03-.2.1-.41.18-.59.08-.2.18-.38.31-.56.1-.18.23-.33.38-.48.15-.15.31-.28.48-.38.18-.13.36-.23.56-.31.18-.08.38-.13.59-.18.2-.05.41-.08.61-.08.87.0 1.66.36 2.27.94.31.31.54.66.69 1.05C498.96 170.19 499.04 170.59 499.04 171.03z"/></g></g><g><g><path class="st0" d="M475.86 156.38c-1.76.0-3.19-1.43-3.19-3.19v0c0-1.76 1.43-3.19 3.19-3.19v0c1.76.0 3.19 1.43 3.19 3.19v0C479.05 154.95 477.62 156.38 475.86 156.38zM455.85 156.38c-1.76.0-3.19-1.43-3.19-3.19v0c0-1.76 1.43-3.19 3.19-3.19v0c1.76.0 3.19 1.43 3.19 3.19v0C459.04 154.95 457.61 156.38 455.85 156.38zM435.86 156.38c-1.76.0-3.19-1.43-3.19-3.19v0c0-1.76 1.43-3.19 3.19-3.19v0c1.76.0 3.19 1.43 3.19 3.19v0C439.05 154.95 437.63 156.38 435.86 156.38zM415.85 156.38c-1.76.0-3.19-1.43-3.19-3.19v0c0-1.76 1.43-3.19 3.19-3.19v0c1.76.0 3.19 1.43 3.19 3.19v0C419.04 154.95 417.61 156.38 415.85 156.38zM395.87 156.38c-1.76.0-3.19-1.43-3.19-3.19v0c0-1.76 1.43-3.19 3.19-3.19v0c1.76.0 3.19 1.43 3.19 3.19v0C399.06 154.95 397.63 156.38 395.87 156.38zM375.85 156.38c-1.76.0-3.19-1.43-3.19-3.19v0c0-1.76 1.43-3.19 3.19-3.19v0c1.76.0 3.19 1.43 3.19 3.19v0C379.05 154.95 377.61 156.38 375.85 156.38zM355.87 156.38c-1.76.0-3.19-1.43-3.19-3.19v0c0-1.76 1.43-3.19 3.19-3.19v0c1.76.0 3.19 1.43 3.19 3.19v0C359.06 154.95 357.63 156.38 355.87 156.38zM335.85 156.38c-1.76.0-3.19-1.43-3.19-3.19v0c0-1.76 1.43-3.19 3.19-3.19v0c1.76.0 3.19 1.43 3.19 3.19v0C339.05 154.95 337.62 156.38 335.85 156.38zM315.84 156.38c-1.76.0-3.19-1.43-3.19-3.19v0c0-1.76 1.43-3.19 3.19-3.19v0c1.76.0 3.22 1.43 3.22 3.19v0C319.06 154.95 317.6 156.38 315.84 156.38zM295.86 156.38c-1.76.0-3.19-1.43-3.19-3.19v0c0-1.76 1.43-3.19 3.19-3.19v0c1.76.0 3.19 1.43 3.19 3.19v0C299.05 154.95 297.62 156.38 295.86 156.38zM275.87 156.38c-1.76.0-3.19-1.43-3.19-3.19v0c0-1.76 1.43-3.19 3.19-3.19v0c1.76.0 3.19 1.43 3.19 3.19v0C279.06 154.95 277.63 156.38 275.87 156.38zM255.86 156.38c-1.76.0-3.19-1.43-3.19-3.19v0c0-1.76 1.43-3.19 3.19-3.19v0c1.76.0 3.19 1.43 3.19 3.19v0C259.05 154.95 257.62 156.38 255.86 156.38zM235.85 156.38c-1.76.0-3.19-1.43-3.19-3.19v0c0-1.76 1.43-3.19 3.19-3.19v0c1.76.0 3.19 1.43 3.19 3.19v0C239.04 154.95 237.61 156.38 235.85 156.38zM215.86 156.38c-1.76.0-3.19-1.43-3.19-3.19v0c0-1.76 1.43-3.19 3.19-3.19v0c1.76.0 3.19 1.43 3.19 3.19v0C219.05 154.95 217.62 156.38 215.86 156.38zM195.85 156.38c-1.76.0-3.19-1.43-3.19-3.19v0c0-1.76 1.43-3.19 3.19-3.19v0c1.76.0 3.19 1.43 3.19 3.19v0C199.04 154.95 197.61 156.38 195.85 156.38zM175.86 156.38c-1.76.0-3.19-1.43-3.19-3.19v0c0-1.76 1.43-3.19 3.19-3.19v0c1.76.0 3.19 1.43 3.19 3.19v0C179.05 154.95 177.62 156.38 175.86 156.38zM155.85 156.38c-1.76.0-3.19-1.43-3.19-3.19v0c0-1.76 1.43-3.19 3.19-3.19v0c1.76.0 3.19 1.43 3.19 3.19v0C159.04 154.95 157.61 156.38 155.85 156.38zM135.86 156.38c-1.76.0-3.19-1.43-3.19-3.19v0c0-1.76 1.43-3.19 3.19-3.19v0c1.76.0 3.19 1.43 3.19 3.19v0C139.05 154.95 137.62 156.38 135.86 156.38zM115.85 156.38c-1.76.0-3.19-1.43-3.19-3.19v0c0-1.76 1.43-3.19 3.19-3.19v0c1.76.0 3.19 1.43 3.19 3.19v0C119.04 154.95 117.61 156.38 115.85 156.38zM95.86 156.38c-1.76.0-3.19-1.43-3.19-3.19v0c0-1.76 1.43-3.19 3.19-3.19v0c1.76.0 3.19 1.43 3.19 3.19v0C99.05 154.95 97.63 156.38 95.86 156.38z"/></g><g><path class="st0" d="M499.04 153.19c0 .87-.33 1.66-.92 2.27-.61.59-1.4.92-2.27.92-.2.0-.41-.03-.61-.05-.2-.05-.41-.1-.59-.18-.2-.1-.38-.18-.56-.31-.18-.1-.33-.26-.48-.38-.74-.77-1.1-1.84-.87-2.88.03-.2.1-.41.18-.61.08-.18.18-.36.31-.54.1-.18.23-.33.38-.48.15-.15.31-.28.48-.41.18-.1.36-.2.56-.28.18-.08.38-.15.59-.18.2-.05.41-.08.61-.08.87.0 1.66.33 2.27.94C498.71 151.53 499.04 152.34 499.04 153.19z"/></g></g><g><g><path class="st0" d="M475.86 138.56c-1.76.0-3.19-1.43-3.19-3.19v0c0-1.76 1.43-3.19 3.19-3.19v0c1.76.0 3.19 1.43 3.19 3.19v0C479.05 137.13 477.62 138.56 475.86 138.56zM455.85 138.56c-1.76.0-3.19-1.43-3.19-3.19v0c0-1.76 1.43-3.19 3.19-3.19v0c1.76.0 3.19 1.43 3.19 3.19v0C459.04 137.13 457.61 138.56 455.85 138.56zM435.86 138.56c-1.76.0-3.19-1.43-3.19-3.19v0c0-1.76 1.43-3.19 3.19-3.19v0c1.76.0 3.19 1.43 3.19 3.19v0C439.05 137.13 437.63 138.56 435.86 138.56zM415.85 138.56c-1.76.0-3.19-1.43-3.19-3.19v0c0-1.76 1.43-3.19 3.19-3.19v0c1.76.0 3.19 1.43 3.19 3.19v0C419.04 137.13 417.61 138.56 415.85 138.56zM395.87 138.56c-1.76.0-3.19-1.43-3.19-3.19v0c0-1.76 1.43-3.19 3.19-3.19v0c1.76.0 3.19 1.43 3.19 3.19v0C399.06 137.13 397.63 138.56 395.87 138.56zM375.85 138.56c-1.76.0-3.19-1.43-3.19-3.19v0c0-1.76 1.43-3.19 3.19-3.19v0c1.76.0 3.19 1.43 3.19 3.19v0C379.05 137.13 377.61 138.56 375.85 138.56zM355.87 138.56c-1.76.0-3.19-1.43-3.19-3.19v0c0-1.76 1.43-3.19 3.19-3.19v0c1.76.0 3.19 1.43 3.19 3.19v0C359.06 137.13 357.63 138.56 355.87 138.56zM335.85 138.56c-1.76.0-3.19-1.43-3.19-3.19v0c0-1.76 1.43-3.19 3.19-3.19v0c1.76.0 3.19 1.43 3.19 3.19v0C339.05 137.13 337.62 138.56 335.85 138.56zM315.84 138.56c-1.76.0-3.19-1.43-3.19-3.19v0c0-1.76 1.43-3.19 3.19-3.19v0c1.76.0 3.22 1.43 3.22 3.19v0C319.06 137.13 317.6 138.56 315.84 138.56zM295.86 138.56c-1.76.0-3.19-1.43-3.19-3.19v0c0-1.76 1.43-3.19 3.19-3.19v0c1.76.0 3.19 1.43 3.19 3.19v0C299.05 137.13 297.62 138.56 295.86 138.56zM275.87 138.56c-1.76.0-3.19-1.43-3.19-3.19v0c0-1.76 1.43-3.19 3.19-3.19v0c1.76.0 3.19 1.43 3.19 3.19v0C279.06 137.13 277.63 138.56 275.87 138.56zM255.86 138.56c-1.76.0-3.19-1.43-3.19-3.19v0c0-1.76 1.43-3.19 3.19-3.19v0c1.76.0 3.19 1.43 3.19 3.19v0C259.05 137.13 257.62 138.56 255.86 138.56zM235.85 138.56c-1.76.0-3.19-1.43-3.19-3.19v0c0-1.76 1.43-3.19 3.19-3.19v0c1.76.0 3.19 1.43 3.19 3.19v0C239.04 137.13 237.61 138.56 235.85 138.56zM215.86 138.56c-1.76.0-3.19-1.43-3.19-3.19v0c0-1.76 1.43-3.19 3.19-3.19v0c1.76.0 3.19 1.43 3.19 3.19v0C219.05 137.13 217.62 138.56 215.86 138.56zM195.85 138.56c-1.76.0-3.19-1.43-3.19-3.19v0c0-1.76 1.43-3.19 3.19-3.19v0c1.76.0 3.19 1.43 3.19 3.19v0C199.04 137.13 197.61 138.56 195.85 138.56zM175.86 138.56c-1.76.0-3.19-1.43-3.19-3.19v0c0-1.76 1.43-3.19 3.19-3.19v0c1.76.0 3.19 1.43 3.19 3.19v0C179.05 137.13 177.62 138.56 175.86 138.56zM155.85 138.56c-1.76.0-3.19-1.43-3.19-3.19v0c0-1.76 1.43-3.19 3.19-3.19v0c1.76.0 3.19 1.43 3.19 3.19v0C159.04 137.13 157.61 138.56 155.85 138.56zM135.86 138.56c-1.76.0-3.19-1.43-3.19-3.19v0c0-1.76 1.43-3.19 3.19-3.19v0c1.76.0 3.19 1.43 3.19 3.19v0C139.05 137.13 137.62 138.56 135.86 138.56zM115.85 138.56c-1.76.0-3.19-1.43-3.19-3.19v0c0-1.76 1.43-3.19 3.19-3.19v0c1.76.0 3.19 1.43 3.19 3.19v0C119.04 137.13 117.61 138.56 115.85 138.56zM95.86 138.56c-1.76.0-3.19-1.43-3.19-3.19v0c0-1.76 1.43-3.19 3.19-3.19v0c1.76.0 3.19 1.43 3.19 3.19v0C99.05 137.13 97.63 138.56 95.86 138.56z"/></g><g><path class="st0" d="M499.04 135.37c0 .84-.33 1.66-.92 2.25-.61.61-1.4.94-2.27.94-.2.0-.41-.03-.61-.08-.2-.03-.41-.1-.59-.18-.2-.08-.38-.18-.56-.28-.18-.13-.33-.26-.48-.41-.15-.15-.28-.31-.38-.48-.13-.18-.23-.36-.31-.54-.07-.2-.15-.41-.18-.61-.08-.41-.08-.82.0-1.25.03-.2.1-.38.18-.59.08-.2.18-.38.31-.56.1-.15.23-.33.38-.48.15-.13.31-.28.48-.38.18-.13.36-.23.56-.31.18-.08.38-.13.59-.18.2-.03.41-.05.61-.05.87.0 1.66.33 2.27.92C498.71 133.71 499.04 134.5 499.04 135.37z"/></g></g><g><g><path class="st0" d="M475.86 120.72c-1.76.0-3.19-1.43-3.19-3.19v0c0-1.76 1.43-3.19 3.19-3.19v0c1.76.0 3.19 1.43 3.19 3.19v0C479.05 119.29 477.62 120.72 475.86 120.72zM455.85 120.72c-1.76.0-3.19-1.43-3.19-3.19v0c0-1.76 1.43-3.19 3.19-3.19v0c1.76.0 3.19 1.43 3.19 3.19v0C459.04 119.29 457.61 120.72 455.85 120.72zM435.86 120.72c-1.76.0-3.19-1.43-3.19-3.19v0c0-1.76 1.43-3.19 3.19-3.19v0c1.76.0 3.19 1.43 3.19 3.19v0C439.05 119.29 437.63 120.72 435.86 120.72zM415.85 120.72c-1.76.0-3.19-1.43-3.19-3.19v0c0-1.76 1.43-3.19 3.19-3.19v0c1.76.0 3.19 1.43 3.19 3.19v0C419.04 119.29 417.61 120.72 415.85 120.72zM395.87 120.72c-1.76.0-3.19-1.43-3.19-3.19v0c0-1.76 1.43-3.19 3.19-3.19v0c1.76.0 3.19 1.43 3.19 3.19v0C399.06 119.29 397.63 120.72 395.87 120.72zM375.85 120.72c-1.76.0-3.19-1.43-3.19-3.19v0c0-1.76 1.43-3.19 3.19-3.19v0c1.76.0 3.19 1.43 3.19 3.19v0C379.05 119.29 377.61 120.72 375.85 120.72zM355.87 120.72c-1.76.0-3.19-1.43-3.19-3.19v0c0-1.76 1.43-3.19 3.19-3.19v0c1.76.0 3.19 1.43 3.19 3.19v0C359.06 119.29 357.63 120.72 355.87 120.72zM335.85 120.72c-1.76.0-3.19-1.43-3.19-3.19v0c0-1.76 1.43-3.19 3.19-3.19v0c1.76.0 3.19 1.43 3.19 3.19v0C339.05 119.29 337.62 120.72 335.85 120.72zM315.84 120.72c-1.76.0-3.19-1.43-3.19-3.19v0c0-1.76 1.43-3.19 3.19-3.19v0c1.76.0 3.22 1.43 3.22 3.19v0C319.06 119.29 317.6 120.72 315.84 120.72zM295.86 120.72c-1.76.0-3.19-1.43-3.19-3.19v0c0-1.76 1.43-3.19 3.19-3.19v0c1.76.0 3.19 1.43 3.19 3.19v0C299.05 119.29 297.62 120.72 295.86 120.72zM275.87 120.72c-1.76.0-3.19-1.43-3.19-3.19v0c0-1.76 1.43-3.19 3.19-3.19v0c1.76.0 3.19 1.43 3.19 3.19v0C279.06 119.29 277.63 120.72 275.87 120.72zM255.86 120.72c-1.76.0-3.19-1.43-3.19-3.19v0c0-1.76 1.43-3.19 3.19-3.19v0c1.76.0 3.19 1.43 3.19 3.19v0C259.05 119.29 257.62 120.72 255.86 120.72zM235.85 120.72c-1.76.0-3.19-1.43-3.19-3.19v0c0-1.76 1.43-3.19 3.19-3.19v0c1.76.0 3.19 1.43 3.19 3.19v0C239.04 119.29 237.61 120.72 235.85 120.72zM215.86 120.72c-1.76.0-3.19-1.43-3.19-3.19v0c0-1.76 1.43-3.19 3.19-3.19v0c1.76.0 3.19 1.43 3.19 3.19v0C219.05 119.29 217.62 120.72 215.86 120.72zM195.85 120.72c-1.76.0-3.19-1.43-3.19-3.19v0c0-1.76 1.43-3.19 3.19-3.19v0c1.76.0 3.19 1.43 3.19 3.19v0C199.04 119.29 197.61 120.72 195.85 120.72zM175.86 120.72c-1.76.0-3.19-1.43-3.19-3.19v0c0-1.76 1.43-3.19 3.19-3.19v0c1.76.0 3.19 1.43 3.19 3.19v0C179.05 119.29 177.62 120.72 175.86 120.72zM155.85 120.72c-1.76.0-3.19-1.43-3.19-3.19v0c0-1.76 1.43-3.19 3.19-3.19v0c1.76.0 3.19 1.43 3.19 3.19v0C159.04 119.29 157.61 120.72 155.85 120.72zM135.86 120.72c-1.76.0-3.19-1.43-3.19-3.19v0c0-1.76 1.43-3.19 3.19-3.19v0c1.76.0 3.19 1.43 3.19 3.19v0C139.05 119.29 137.62 120.72 135.86 120.72zM115.85 120.72c-1.76.0-3.19-1.43-3.19-3.19v0c0-1.76 1.43-3.19 3.19-3.19v0c1.76.0 3.19 1.43 3.19 3.19v0C119.04 119.29 117.61 120.72 115.85 120.72zM95.86 120.72c-1.76.0-3.19-1.43-3.19-3.19v0c0-1.76 1.43-3.19 3.19-3.19v0c1.76.0 3.19 1.43 3.19 3.19v0C99.05 119.29 97.63 120.72 95.86 120.72z"/></g><g><path class="st0" d="M499.04 117.53c0 .87-.33 1.66-.92 2.27-.61.59-1.4.92-2.27.92-.2.0-.41.0-.61-.05-.2-.05-.41-.1-.59-.18-.2-.08-.38-.18-.56-.31-.18-.1-.33-.23-.48-.38-.15-.15-.28-.31-.38-.48-.13-.18-.23-.36-.31-.56-.07-.18-.15-.38-.18-.59-.08-.41-.08-.84.0-1.25.03-.2.1-.41.18-.59.08-.2.18-.38.31-.56.1-.18.23-.33.38-.48.15-.15.31-.28.48-.41.18-.1.36-.2.56-.28.18-.08.38-.15.59-.18.2-.05.41-.08.61-.08.87.0 1.66.33 2.27.94C498.71 115.89 499.04 116.68 499.04 117.53z"/></g></g><g><g><path class="st0" d="M475.86 102.9c-1.76.0-3.19-1.43-3.19-3.19v0c0-1.76 1.43-3.19 3.19-3.19v0c1.76.0 3.19 1.43 3.19 3.19v0C479.05 101.47 477.62 102.9 475.86 102.9zM455.85 102.9c-1.76.0-3.19-1.43-3.19-3.19v0c0-1.76 1.43-3.19 3.19-3.19v0c1.76.0 3.19 1.43 3.19 3.19v0C459.04 101.47 457.61 102.9 455.85 102.9zM435.86 102.9c-1.76.0-3.19-1.43-3.19-3.19v0c0-1.76 1.43-3.19 3.19-3.19v0c1.76.0 3.19 1.43 3.19 3.19v0C439.05 101.47 437.63 102.9 435.86 102.9zM415.85 102.9c-1.76.0-3.19-1.43-3.19-3.19v0c0-1.76 1.43-3.19 3.19-3.19v0c1.76.0 3.19 1.43 3.19 3.19v0C419.04 101.47 417.61 102.9 415.85 102.9zM395.87 102.9c-1.76.0-3.19-1.43-3.19-3.19v0c0-1.76 1.43-3.19 3.19-3.19v0c1.76.0 3.19 1.43 3.19 3.19v0C399.06 101.47 397.63 102.9 395.87 102.9zM375.85 102.9c-1.76.0-3.19-1.43-3.19-3.19v0c0-1.76 1.43-3.19 3.19-3.19v0c1.76.0 3.19 1.43 3.19 3.19v0C379.05 101.47 377.61 102.9 375.85 102.9zM355.87 102.9c-1.76.0-3.19-1.43-3.19-3.19v0c0-1.76 1.43-3.19 3.19-3.19v0c1.76.0 3.19 1.43 3.19 3.19v0C359.06 101.47 357.63 102.9 355.87 102.9zM335.85 102.9c-1.76.0-3.19-1.43-3.19-3.19v0c0-1.76 1.43-3.19 3.19-3.19v0c1.76.0 3.19 1.43 3.19 3.19v0C339.05 101.47 337.62 102.9 335.85 102.9zM315.84 102.9c-1.76.0-3.19-1.43-3.19-3.19v0c0-1.76 1.43-3.19 3.19-3.19v0c1.76.0 3.22 1.43 3.22 3.19v0C319.06 101.47 317.6 102.9 315.84 102.9zM295.86 102.9c-1.76.0-3.19-1.43-3.19-3.19v0c0-1.76 1.43-3.19 3.19-3.19v0c1.76.0 3.19 1.43 3.19 3.19v0C299.05 101.47 297.62 102.9 295.86 102.9zM275.87 102.9c-1.76.0-3.19-1.43-3.19-3.19v0c0-1.76 1.43-3.19 3.19-3.19v0c1.76.0 3.19 1.43 3.19 3.19v0C279.06 101.47 277.63 102.9 275.87 102.9zM255.86 102.9c-1.76.0-3.19-1.43-3.19-3.19v0c0-1.76 1.43-3.19 3.19-3.19v0c1.76.0 3.19 1.43 3.19 3.19v0C259.05 101.47 257.62 102.9 255.86 102.9zM235.85 102.9c-1.76.0-3.19-1.43-3.19-3.19v0c0-1.76 1.43-3.19 3.19-3.19v0c1.76.0 3.19 1.43 3.19 3.19v0C239.04 101.47 237.61 102.9 235.85 102.9zM215.86 102.9c-1.76.0-3.19-1.43-3.19-3.19v0c0-1.76 1.43-3.19 3.19-3.19v0c1.76.0 3.19 1.43 3.19 3.19v0C219.05 101.47 217.62 102.9 215.86 102.9zM195.85 102.9c-1.76.0-3.19-1.43-3.19-3.19v0c0-1.76 1.43-3.19 3.19-3.19v0c1.76.0 3.19 1.43 3.19 3.19v0C199.04 101.47 197.61 102.9 195.85 102.9zM175.86 102.9c-1.76.0-3.19-1.43-3.19-3.19v0c0-1.76 1.43-3.19 3.19-3.19v0c1.76.0 3.19 1.43 3.19 3.19v0C179.05 101.47 177.62 102.9 175.86 102.9zM155.85 102.9c-1.76.0-3.19-1.43-3.19-3.19v0c0-1.76 1.43-3.19 3.19-3.19v0c1.76.0 3.19 1.43 3.19 3.19v0C159.04 101.47 157.61 102.9 155.85 102.9zM135.86 102.9c-1.76.0-3.19-1.43-3.19-3.19v0c0-1.76 1.43-3.19 3.19-3.19v0c1.76.0 3.19 1.43 3.19 3.19v0C139.05 101.47 137.62 102.9 135.86 102.9zM115.85 102.9c-1.76.0-3.19-1.43-3.19-3.19v0c0-1.76 1.43-3.19 3.19-3.19v0c1.76.0 3.19 1.43 3.19 3.19v0C119.04 101.47 117.61 102.9 115.85 102.9zM95.86 102.9c-1.76.0-3.19-1.43-3.19-3.19v0c0-1.76 1.43-3.19 3.19-3.19v0c1.76.0 3.19 1.43 3.19 3.19v0C99.05 101.47 97.63 102.9 95.86 102.9z"/></g><g><path class="st0" d="M499.04 99.71c0 .87-.33 1.66-.92 2.25-.61.61-1.4.94-2.27.94-.2.0-.41-.03-.61-.05-.2-.05-.41-.1-.59-.2-.2-.08-.38-.18-.56-.28-.18-.13-.33-.26-.48-.41-.15-.13-.28-.31-.38-.48-.13-.15-.23-.36-.31-.54-.07-.2-.15-.41-.18-.61-.23-1.02.13-2.12.87-2.86.15-.15.31-.28.48-.41.18-.1.36-.2.56-.28.18-.08.38-.15.59-.2.2-.03.41-.05.61-.05.87.0 1.66.33 2.27.94C498.71 98.05 499.04 98.87 499.04 99.71z"/></g></g><g><g><path class="st0" d="M475.86 85.08c-1.76.0-3.19-1.43-3.19-3.19v0c0-1.76 1.43-3.19 3.19-3.19v0c1.76.0 3.19 1.43 3.19 3.19v0C479.05 83.65 477.62 85.08 475.86 85.08zM455.85 85.08c-1.76.0-3.19-1.43-3.19-3.19v0c0-1.76 1.43-3.19 3.19-3.19v0c1.76.0 3.19 1.43 3.19 3.19v0C459.04 83.65 457.61 85.08 455.85 85.08zM435.86 85.08c-1.76.0-3.19-1.43-3.19-3.19v0c0-1.76 1.43-3.19 3.19-3.19v0c1.76.0 3.19 1.43 3.19 3.19v0C439.05 83.65 437.63 85.08 435.86 85.08zM415.85 85.08c-1.76.0-3.19-1.43-3.19-3.19v0c0-1.76 1.43-3.19 3.19-3.19v0c1.76.0 3.19 1.43 3.19 3.19v0C419.04 83.65 417.61 85.08 415.85 85.08zM395.87 85.08c-1.76.0-3.19-1.43-3.19-3.19v0c0-1.76 1.43-3.19 3.19-3.19v0c1.76.0 3.19 1.43 3.19 3.19v0C399.06 83.65 397.63 85.08 395.87 85.08zM375.85 85.08c-1.76.0-3.19-1.43-3.19-3.19v0c0-1.76 1.43-3.19 3.19-3.19v0c1.76.0 3.19 1.43 3.19 3.19v0C379.05 83.65 377.61 85.08 375.85 85.08zM355.87 85.08c-1.76.0-3.19-1.43-3.19-3.19v0c0-1.76 1.43-3.19 3.19-3.19v0c1.76.0 3.19 1.43 3.19 3.19v0C359.06 83.65 357.63 85.08 355.87 85.08zM335.85 85.08c-1.76.0-3.19-1.43-3.19-3.19v0c0-1.76 1.43-3.19 3.19-3.19v0c1.76.0 3.19 1.43 3.19 3.19v0C339.05 83.65 337.62 85.08 335.85 85.08zM315.84 85.08c-1.76.0-3.19-1.43-3.19-3.19v0c0-1.76 1.43-3.19 3.19-3.19v0c1.76.0 3.22 1.43 3.22 3.19v0C319.06 83.65 317.6 85.08 315.84 85.08zM295.86 85.08c-1.76.0-3.19-1.43-3.19-3.19v0c0-1.76 1.43-3.19 3.19-3.19v0c1.76.0 3.19 1.43 3.19 3.19v0C299.05 83.65 297.62 85.08 295.86 85.08zM275.87 85.08c-1.76.0-3.19-1.43-3.19-3.19v0c0-1.76 1.43-3.19 3.19-3.19v0c1.76.0 3.19 1.43 3.19 3.19v0C279.06 83.65 277.63 85.08 275.87 85.08zM255.86 85.08c-1.76.0-3.19-1.43-3.19-3.19v0c0-1.76 1.43-3.19 3.19-3.19v0c1.76.0 3.19 1.43 3.19 3.19v0C259.05 83.65 257.62 85.08 255.86 85.08zM235.85 85.08c-1.76.0-3.19-1.43-3.19-3.19v0c0-1.76 1.43-3.19 3.19-3.19v0c1.76.0 3.19 1.43 3.19 3.19v0C239.04 83.65 237.61 85.08 235.85 85.08zM215.86 85.08c-1.76.0-3.19-1.43-3.19-3.19v0c0-1.76 1.43-3.19 3.19-3.19v0c1.76.0 3.19 1.43 3.19 3.19v0C219.05 83.65 217.62 85.08 215.86 85.08zM195.85 85.08c-1.76.0-3.19-1.43-3.19-3.19v0c0-1.76 1.43-3.19 3.19-3.19v0c1.76.0 3.19 1.43 3.19 3.19v0C199.04 83.65 197.61 85.08 195.85 85.08zM175.86 85.08c-1.76.0-3.19-1.43-3.19-3.19v0c0-1.76 1.43-3.19 3.19-3.19v0c1.76.0 3.19 1.43 3.19 3.19v0C179.05 83.65 177.62 85.08 175.86 85.08zM155.85 85.08c-1.76.0-3.19-1.43-3.19-3.19v0c0-1.76 1.43-3.19 3.19-3.19v0c1.76.0 3.19 1.43 3.19 3.19v0C159.04 83.65 157.61 85.08 155.85 85.08zM135.86 85.08c-1.76.0-3.19-1.43-3.19-3.19v0c0-1.76 1.43-3.19 3.19-3.19v0c1.76.0 3.19 1.43 3.19 3.19v0C139.05 83.65 137.62 85.08 135.86 85.08zM115.85 85.08c-1.76.0-3.19-1.43-3.19-3.19v0c0-1.76 1.43-3.19 3.19-3.19v0c1.76.0 3.19 1.43 3.19 3.19v0C119.04 83.65 117.61 85.08 115.85 85.08zM95.86 85.08c-1.76.0-3.19-1.43-3.19-3.19v0c0-1.76 1.43-3.19 3.19-3.19v0c1.76.0 3.19 1.43 3.19 3.19v0C99.05 83.65 97.63 85.08 95.86 85.08z"/></g><g><path class="st0" d="M499.04 81.89c0 .41-.08.82-.23 1.23-.15.38-.38.72-.69 1.02-.61.61-1.4.94-2.27.94-.2.0-.41-.03-.61-.08-.2-.03-.41-.1-.59-.18-.2-.08-.38-.18-.56-.28-.18-.13-.33-.26-.48-.41-.15-.15-.28-.31-.38-.48-.13-.18-.23-.36-.31-.54-.07-.2-.15-.41-.18-.61-.2-1.05.13-2.14.87-2.89.15-.13.31-.28.48-.38.18-.13.36-.23.56-.31.18-.08.38-.13.59-.18.2-.03.41-.05.61-.05.87.0 1.66.33 2.27.92C498.71 80.23 499.04 81.03 499.04 81.89z"/></g></g><g><g><path class="st0" d="M475.86 67.24c-1.76.0-3.19-1.43-3.19-3.19v0c0-1.76 1.43-3.19 3.19-3.19v0c1.76.0 3.19 1.43 3.19 3.19v0C479.05 65.81 477.62 67.24 475.86 67.24zM455.85 67.24c-1.76.0-3.19-1.43-3.19-3.19v0c0-1.76 1.43-3.19 3.19-3.19v0c1.76.0 3.19 1.43 3.19 3.19v0C459.04 65.81 457.61 67.24 455.85 67.24zM435.86 67.24c-1.76.0-3.19-1.43-3.19-3.19v0c0-1.76 1.43-3.19 3.19-3.19v0c1.76.0 3.19 1.43 3.19 3.19v0C439.05 65.81 437.63 67.24 435.86 67.24zM415.85 67.24c-1.76.0-3.19-1.43-3.19-3.19v0c0-1.76 1.43-3.19 3.19-3.19v0c1.76.0 3.19 1.43 3.19 3.19v0C419.04 65.81 417.61 67.24 415.85 67.24zM395.87 67.24c-1.76.0-3.19-1.43-3.19-3.19v0c0-1.76 1.43-3.19 3.19-3.19v0c1.76.0 3.19 1.43 3.19 3.19v0C399.06 65.81 397.63 67.24 395.87 67.24zM375.85 67.24c-1.76.0-3.19-1.43-3.19-3.19v0c0-1.76 1.43-3.19 3.19-3.19v0c1.76.0 3.19 1.43 3.19 3.19v0C379.05 65.81 377.61 67.24 375.85 67.24zM355.87 67.24c-1.76.0-3.19-1.43-3.19-3.19v0c0-1.76 1.43-3.19 3.19-3.19v0c1.76.0 3.19 1.43 3.19 3.19v0C359.06 65.81 357.63 67.24 355.87 67.24zM335.85 67.24c-1.76.0-3.19-1.43-3.19-3.19v0c0-1.76 1.43-3.19 3.19-3.19v0c1.76.0 3.19 1.43 3.19 3.19v0C339.05 65.81 337.62 67.24 335.85 67.24zM315.84 67.24c-1.76.0-3.19-1.43-3.19-3.19v0c0-1.76 1.43-3.19 3.19-3.19v0c1.76.0 3.22 1.43 3.22 3.19v0C319.06 65.81 317.6 67.24 315.84 67.24zM295.86 67.24c-1.76.0-3.19-1.43-3.19-3.19v0c0-1.76 1.43-3.19 3.19-3.19v0c1.76.0 3.19 1.43 3.19 3.19v0C299.05 65.81 297.62 67.24 295.86 67.24zM275.87 67.24c-1.76.0-3.19-1.43-3.19-3.19v0c0-1.76 1.43-3.19 3.19-3.19v0c1.76.0 3.19 1.43 3.19 3.19v0C279.06 65.81 277.63 67.24 275.87 67.24zM255.86 67.24c-1.76.0-3.19-1.43-3.19-3.19v0c0-1.76 1.43-3.19 3.19-3.19v0c1.76.0 3.19 1.43 3.19 3.19v0C259.05 65.81 257.62 67.24 255.86 67.24zM235.85 67.24c-1.76.0-3.19-1.43-3.19-3.19v0c0-1.76 1.43-3.19 3.19-3.19v0c1.76.0 3.19 1.43 3.19 3.19v0C239.04 65.81 237.61 67.24 235.85 67.24zM215.86 67.24c-1.76.0-3.19-1.43-3.19-3.19v0c0-1.76 1.43-3.19 3.19-3.19v0c1.76.0 3.19 1.43 3.19 3.19v0C219.05 65.81 217.62 67.24 215.86 67.24zM195.85 67.24c-1.76.0-3.19-1.43-3.19-3.19v0c0-1.76 1.43-3.19 3.19-3.19v0c1.76.0 3.19 1.43 3.19 3.19v0C199.04 65.81 197.61 67.24 195.85 67.24zM175.86 67.24c-1.76.0-3.19-1.43-3.19-3.19v0c0-1.76 1.43-3.19 3.19-3.19v0c1.76.0 3.19 1.43 3.19 3.19v0C179.05 65.81 177.62 67.24 175.86 67.24zM155.85 67.24c-1.76.0-3.19-1.43-3.19-3.19v0c0-1.76 1.43-3.19 3.19-3.19v0c1.76.0 3.19 1.43 3.19 3.19v0C159.04 65.81 157.61 67.24 155.85 67.24zM135.86 67.24c-1.76.0-3.19-1.43-3.19-3.19v0c0-1.76 1.43-3.19 3.19-3.19v0c1.76.0 3.19 1.43 3.19 3.19v0C139.05 65.81 137.62 67.24 135.86 67.24zM115.85 67.24c-1.76.0-3.19-1.43-3.19-3.19v0c0-1.76 1.43-3.19 3.19-3.19v0c1.76.0 3.19 1.43 3.19 3.19v0C119.04 65.81 117.61 67.24 115.85 67.24zM95.86 67.24c-1.76.0-3.19-1.43-3.19-3.19v0c0-1.76 1.43-3.19 3.19-3.19v0c1.76.0 3.19 1.43 3.19 3.19v0C99.05 65.81 97.63 67.24 95.86 67.24z"/></g><g><path class="st0" d="M499.04 64.05c0 .43-.08.84-.23 1.23-.15.38-.38.74-.69 1.05-.31.28-.64.54-1.05.69-.38.15-.79.23-1.22.23-.2.0-.41-.03-.61-.05-.2-.05-.41-.1-.59-.18-.2-.08-.38-.18-.56-.31-.18-.1-.33-.26-.48-.38-.15-.15-.28-.31-.38-.48-.13-.18-.23-.36-.31-.56-.07-.18-.15-.38-.18-.59-.08-.41-.08-.84.0-1.25.03-.2.1-.41.18-.61.08-.18.18-.36.31-.54.1-.18.23-.33.38-.48.15-.15.31-.28.48-.41.18-.1.36-.2.56-.28.18-.08.38-.15.59-.18.2-.05.41-.08.61-.08.87.0 1.66.33 2.27.94C498.71 62.39 499.04 63.21 499.04 64.05z"/></g></g></g><path class="st1" d="M612.79 361.29c0 0-11.22 2.15-5.1 8.84 6.11 6.71 9.4-.26 10.74-2.93 1.34-2.67-9.4-28.57-30.07-12.77-20.66 15.7-22.85 56.45-26 63.93-3.15 7.47-13.11 43.02-29.93 36.93-9.48-3.41-7.18-10.39-7.18-10.39s10.09.33 9.27-6.61c0 0 .82-8.05-9.03-7.23-9.86.81-10.54 16.49-2.95 22.86 7.58 6.36 28.46 10.48 40.39-10.55 11.94-21.09 12.56-33.29 13.95-40.7 1.39-7.42 9.47-43.16 19.69-47.55C606.81 350.7 612.79 361.29 612.79 361.29z"/><g><path class="st2" d="M655.39 492.55H611.64V473.07H635.91V448.8H655.39z"/><path class="st2" d="M655.39 366.87H635.91V342.6H611.64V323.12h43.75z"/><path class="st2" d="M505.45 366.87H485.97V323.12h43.75V342.6H505.45z"/><path class="st2" d="M529.72 492.55H485.97V448.8H505.45V473.07H529.72z"/></g><g class="st3"><g><path class="st4" d="M719.54 517.53 739.97 482.24H746.1L725.67 517.53z"/></g><g><path class="st4" d="M697.49 517.53 717.92 482.24H724.05L703.62 517.53z"/></g><g><path class="st4" d="M675.44 517.53 695.87 482.24H702L681.57 517.53z"/></g><g><path class="st4" d="M653.39 517.53 673.82 482.24H679.95L659.52 517.53z"/></g><g><path class="st4" d="M631.34 517.53 651.77 482.24H657.9L637.47 517.53z"/></g><g><path class="st4" d="M609.29 517.53 629.72 482.24H635.85L615.42 517.53z"/></g><g><path class="st4" d="M587.24 517.53 607.67 482.24H613.8L593.37 517.53z"/></g><g><path class="st4" d="M565.19 517.53 585.62 482.24H591.75L571.32 517.53z"/></g><g><path class="st4" d="M543.14 517.53 563.57 482.24H569.7L549.27 517.53z"/></g><g><path class="st4" d="M521.09 517.53 541.52 482.24H547.65L527.22 517.53z"/></g><g><path class="st4" d="M499.04 517.53 519.47 482.24H525.6L505.17 517.53z"/></g><g><path class="st4" d="M476.99 517.53 497.42 482.24H503.55L483.12 517.53z"/></g></g><path class="st0" d="M481.32 169.12 290.46 280.85V57.39z"/><path class="st5" d="M100.42 38.73H82.89V21.19H68.6V38.73H51.07V53.01H68.6V70.54H82.89V53.01h17.53z"/><g><path class="st6" d="M50.75 484.25 72.93 462.07 95.1 484.25 109.36 469.99 87.18 447.81 109.36 425.64 95.1 411.38 72.93 433.55 50.75 411.38 36.49 425.64 58.67 447.81 36.49 469.99z"/><path class="st6" d="M50.75 400.14 72.93 377.96 95.1 400.14 109.36 385.88 87.18 363.7 109.36 341.53 95.1 327.27 72.93 349.45 50.75 327.27 36.49 341.53 58.67 363.7 36.49 385.88z"/></g></svg>