<svg xmlns="http://www.w3.org/2000/svg" id="Layer_1" viewBox="0 0 549.93 449.94"><style>.st1{fill:#fff;stroke:#fff;stroke-miterlimit:10}</style><circle cx="241.94" cy="220.37" r="202.36" fill="#fc0"/><path d="M157.1 115.4l-21.89-43.2h-6.57l21.89 43.2zM180.73 115.4l-21.89-43.2h-6.57l21.89 43.2zM204.36 115.4l-21.89-43.2h-6.57l21.89 43.2zM227.99 115.4 206.1 72.2h-6.57l21.89 43.2zM251.62 115.4l-21.89-43.2h-6.57l21.89 43.2zM275.24 115.4l-21.89-43.2h-6.56l21.89 43.2zM298.87 115.4l-21.89-43.2h-6.57l21.89 43.2zM322.5 115.4l-21.89-43.2h-6.57l21.89 43.2zM346.13 115.4l-21.89-43.2h-6.57l21.89 43.2zM369.76 115.4l-21.89-43.2h-6.57l21.89 43.2zM393.39 115.4 371.5 72.2h-6.57l21.89 43.2z" class="st1"/><path fill="#fff95b" d="M520.22 49.05h-35.06V13.99h-34.62v35.06h-35.06v34.63h35.06v35.05h34.62V83.68h35.06z"/></svg>