<svg id="Layer_2_1_" xmlns="http://www.w3.org/2000/svg" xmlns:xlink="http://www.w3.org/1999/xlink" viewBox="0 0 750 573" style="enable-background:new 0 0 750 573"><style>.st0{fill:#ffcd00}.st1{fill:#00cbd8}.st2{fill:#02cbd8}.st3{opacity:.5}.st4{fill:#fffa02}</style><path transform="matrix(0.9697 -0.2442 0.2442 0.9697 -44.8005 113.5729)" class="st0" d="M282.1 84h307v307h-307z"/><g><g><g><path class="st1" d="M105.6 37.7c-.4.0-.9-.1-1.3-.3-.4-.2-.8-.4-1.1-.7-.3-.3-.5-.7-.7-1.1-.2-.4-.2-.8-.2-1.3.0-.9.3-1.7.9-2.3.2-.2.3-.3.5-.4.2-.1.4-.2.6-.3.2-.1.4-.1.6-.2.4-.1.8-.1 1.3.0.2.0.4.1.6.2.2.1.4.2.6.3.2.1.4.3.5.4.6.6 1 1.5 1 2.3.0.4-.1.9-.2 1.3-.2.4-.4.8-.7 1.1C107.3 37.3 106.4 37.7 105.6 37.7z"/></g><g><path class="st1" d="M102.2 421.4c0-1.8 1.5-3.3 3.3-3.3v0c1.8.0 3.3 1.5 3.3 3.3v0c0 1.8-1.5 3.3-3.3 3.3v0C103.7 424.7 102.2 423.2 102.2 421.4zm0-21.5c0-1.9 1.5-3.3 3.3-3.3v0c1.8.0 3.3 1.5 3.3 3.3v0c0 1.8-1.5 3.3-3.3 3.3v0C103.7 403.2 102.2 401.8 102.2 399.9zm0-21.5c0-1.8 1.5-3.3 3.3-3.3v0c1.8.0 3.3 1.5 3.3 3.3v0c0 1.8-1.5 3.3-3.3 3.3v0C103.7 381.7 102.2 380.2 102.2 378.4zm0-21.5c0-1.8 1.5-3.3 3.3-3.3v0c1.8.0 3.3 1.5 3.3 3.3v0c0 1.8-1.5 3.3-3.3 3.3v0C103.7 360.2 102.2 358.7 102.2 356.9zm0-21.5c0-1.8 1.5-3.3 3.3-3.3v0c1.8.0 3.3 1.5 3.3 3.3v0c0 1.8-1.5 3.3-3.3 3.3v0C103.7 338.7 102.2 337.2 102.2 335.4zm0-21.5c0-1.8 1.5-3.3 3.3-3.3v0c1.8.0 3.3 1.5 3.3 3.3v0c0 1.8-1.5 3.3-3.3 3.3v0C103.7 317.2 102.2 315.7 102.2 313.9zm0-21.5c0-1.8 1.5-3.3 3.3-3.3v0c1.8.0 3.3 1.5 3.3 3.3v0c0 1.8-1.5 3.3-3.3 3.3v0C103.7 295.7 102.2 294.2 102.2 292.4zm0-21.5c0-1.8 1.5-3.3 3.3-3.3v0c1.8.0 3.3 1.5 3.3 3.3v0c0 1.8-1.5 3.3-3.3 3.3v0C103.7 274.2 102.2 272.7 102.2 270.9zM102.2 249.4c0-1.8 1.5-3.3 3.3-3.3v0c1.8.0 3.3 1.5 3.3 3.3v0c0 1.8-1.5 3.3-3.3 3.3v0C103.7 252.7 102.2 251.2 102.2 249.4zm0-21.5c0-1.8 1.5-3.3 3.3-3.3v0c1.8.0 3.3 1.5 3.3 3.3v0c0 1.8-1.5 3.3-3.3 3.3v0C103.7 231.2 102.2 229.7 102.2 227.9zm0-21.5c0-1.8 1.5-3.3 3.3-3.3v0c1.8.0 3.3 1.5 3.3 3.3v0c0 1.8-1.5 3.3-3.3 3.3v0C103.7 209.7 102.2 208.2 102.2 206.4zm0-21.5c0-1.8 1.5-3.3 3.3-3.3v0c1.8.0 3.3 1.5 3.3 3.3v0c0 1.8-1.5 3.3-3.3 3.3v0C103.7 188.2 102.2 186.7 102.2 184.9zm0-21.5c0-1.8 1.5-3.3 3.3-3.3v0c1.8.0 3.3 1.5 3.3 3.3v0c0 1.8-1.5 3.3-3.3 3.3v0C103.7 166.7 102.2 165.2 102.2 163.4zm0-21.5c0-1.8 1.5-3.3 3.3-3.3v0c1.8.0 3.3 1.5 3.3 3.3v0c0 1.8-1.5 3.3-3.3 3.3v0C103.7 145.2 102.2 143.7 102.2 141.9zm0-21.5c0-1.8 1.5-3.3 3.3-3.3v0c1.8.0 3.3 1.5 3.3 3.3v0c0 1.8-1.5 3.3-3.3 3.3v0C103.7 123.7 102.2 122.2 102.2 120.4zm0-21.5c0-1.8 1.5-3.3 3.3-3.3v0c1.8.0 3.3 1.5 3.3 3.3v0c0 1.8-1.5 3.3-3.3 3.3v0C103.7 102.2 102.2 100.7 102.2 98.9zm0-21.5c0-1.8 1.5-3.3 3.3-3.3v0c1.8.0 3.3 1.5 3.3 3.3v0c0 1.8-1.5 3.3-3.3 3.3v0C103.7 80.7 102.2 79.2 102.2 77.4zM102.2 55.9c0-1.8 1.5-3.3 3.3-3.3v0c1.8.0 3.3 1.5 3.3 3.3v0c0 1.8-1.5 3.3-3.3 3.3v0C103.7 59.2 102.2 57.7 102.2 55.9z"/></g><g><path class="st1" d="M105.6 446.2c-.9.0-1.7-.4-2.3-1-.6-.6-1-1.5-1-2.3.0-.2.0-.5.1-.7.0-.2.1-.4.2-.6.1-.2.2-.4.3-.6.1-.2.3-.3.4-.5.8-.8 1.9-1.1 2.9-.9.2.0.4.1.6.2.2.1.4.2.6.3.2.1.4.3.5.4.1.2.3.3.4.5.1.2.2.4.3.6.1.2.2.4.2.6.0.2.1.5.1.7.0.4-.1.8-.2 1.3-.2.4-.4.7-.7 1.1C107.3 445.9 106.4 446.2 105.6 446.2z"/></g></g><g><g><path class="st1" d="M123.9 37.7c-.4.0-.8-.1-1.2-.3-.4-.2-.8-.4-1.1-.7-.3-.3-.6-.7-.7-1.1-.2-.4-.3-.8-.3-1.3.0-.9.4-1.7 1-2.3.2-.2.3-.3.5-.4s.4-.2.6-.3c.2-.1.4-.1.6-.2.4-.1.9-.1 1.3.0.2.0.4.1.6.2.2.1.4.2.6.3.2.1.3.3.5.4.6.6.9 1.5.9 2.3.0.4-.1.9-.2 1.3-.2.4-.4.8-.7 1.1C125.7 37.3 124.8 37.7 123.9 37.7z"/></g><g><path class="st1" d="M120.7 421.4c0-1.8 1.5-3.3 3.3-3.3v0c1.8.0 3.3 1.5 3.3 3.3v0c0 1.8-1.5 3.3-3.3 3.3v0C122.1 424.7 120.7 423.2 120.7 421.4zm0-21.5c0-1.9 1.5-3.3 3.3-3.3v0c1.8.0 3.3 1.5 3.3 3.3v0c0 1.8-1.5 3.3-3.3 3.3v0C122.1 403.2 120.7 401.8 120.7 399.9zm0-21.5c0-1.8 1.5-3.3 3.3-3.3v0c1.8.0 3.3 1.5 3.3 3.3v0c0 1.8-1.5 3.3-3.3 3.3v0C122.1 381.7 120.7 380.2 120.7 378.4zm0-21.5c0-1.8 1.5-3.3 3.3-3.3v0c1.8.0 3.3 1.5 3.3 3.3v0c0 1.8-1.5 3.3-3.3 3.3v0C122.1 360.2 120.7 358.7 120.7 356.9zm0-21.5c0-1.8 1.5-3.3 3.3-3.3v0c1.8.0 3.3 1.5 3.3 3.3v0c0 1.8-1.5 3.3-3.3 3.3v0C122.1 338.7 120.7 337.2 120.7 335.4zm0-21.5c0-1.8 1.5-3.3 3.3-3.3v0c1.8.0 3.3 1.5 3.3 3.3v0c0 1.8-1.5 3.3-3.3 3.3v0C122.1 317.2 120.7 315.7 120.7 313.9zm0-21.5c0-1.8 1.5-3.3 3.3-3.3v0c1.8.0 3.3 1.5 3.3 3.3v0c0 1.8-1.5 3.3-3.3 3.3v0C122.1 295.7 120.7 294.2 120.7 292.4zm0-21.5c0-1.8 1.5-3.3 3.3-3.3v0c1.8.0 3.3 1.5 3.3 3.3v0c0 1.8-1.5 3.3-3.3 3.3v0C122.1 274.2 120.7 272.7 120.7 270.9zM120.7 249.4c0-1.8 1.5-3.3 3.3-3.3v0c1.8.0 3.3 1.5 3.3 3.3v0c0 1.8-1.5 3.3-3.3 3.3v0C122.1 252.7 120.7 251.2 120.7 249.4zm0-21.5c0-1.8 1.5-3.3 3.3-3.3v0c1.8.0 3.3 1.5 3.3 3.3v0c0 1.8-1.5 3.3-3.3 3.3v0C122.1 231.2 120.7 229.7 120.7 227.9zm0-21.5c0-1.8 1.5-3.3 3.3-3.3v0c1.8.0 3.3 1.5 3.3 3.3v0c0 1.8-1.5 3.3-3.3 3.3v0C122.1 209.7 120.7 208.2 120.7 206.4zm0-21.5c0-1.8 1.5-3.3 3.3-3.3v0c1.8.0 3.3 1.5 3.3 3.3v0c0 1.8-1.5 3.3-3.3 3.3v0C122.1 188.2 120.7 186.7 120.7 184.9zm0-21.5c0-1.8 1.5-3.3 3.3-3.3v0c1.8.0 3.3 1.5 3.3 3.3v0c0 1.8-1.5 3.3-3.3 3.3v0C122.1 166.7 120.7 165.2 120.7 163.4zm0-21.5c0-1.8 1.5-3.3 3.3-3.3v0c1.8.0 3.3 1.5 3.3 3.3v0c0 1.8-1.5 3.3-3.3 3.3v0C122.1 145.2 120.7 143.7 120.7 141.9zm0-21.5c0-1.8 1.5-3.3 3.3-3.3v0c1.8.0 3.3 1.5 3.3 3.3v0c0 1.8-1.5 3.3-3.3 3.3v0C122.1 123.7 120.7 122.2 120.7 120.4zm0-21.5c0-1.8 1.5-3.3 3.3-3.3v0c1.8.0 3.3 1.5 3.3 3.3v0c0 1.8-1.5 3.3-3.3 3.3v0C122.1 102.2 120.7 100.7 120.7 98.9zm0-21.5c0-1.8 1.5-3.3 3.3-3.3v0c1.8.0 3.3 1.5 3.3 3.3v0c0 1.8-1.5 3.3-3.3 3.3v0C122.1 80.7 120.7 79.2 120.7 77.4zM120.7 55.9c0-1.8 1.5-3.3 3.3-3.3v0c1.8.0 3.3 1.5 3.3 3.3v0c0 1.8-1.5 3.3-3.3 3.3v0C122.1 59.2 120.7 57.7 120.7 55.9z"/></g><g><path class="st1" d="M123.9 446.2c-.4.0-.8-.1-1.3-.3-.4-.2-.7-.4-1.1-.7-.3-.3-.6-.7-.7-1.1-.2-.4-.3-.8-.3-1.3.0-.9.4-1.7 1-2.4.2-.1.3-.3.5-.4.2-.1.4-.2.6-.3.2-.1.4-.1.6-.2 1.1-.2 2.2.1 3 .9.6.6.9 1.5.9 2.4.0.4-.1.8-.2 1.3-.2.4-.4.7-.7 1.1-.3.3-.7.5-1.1.7C124.8 446.1 124.4 446.2 123.9 446.2z"/></g></g><g><g><path class="st1" d="M142.4 37.7c-.4.0-.9-.1-1.3-.3-.4-.2-.8-.4-1.1-.7-.3-.3-.5-.7-.7-1.1-.2-.4-.2-.8-.2-1.3.0-.2.0-.5.1-.7.1-.2.1-.4.2-.6.1-.2.2-.4.3-.5.1-.2.3-.4.4-.5 1.2-1.2 3.4-1.2 4.7.0.6.6 1 1.5 1 2.3.0.4-.1.9-.3 1.3-.2.4-.4.8-.7 1.1C144.1 37.3 143.2 37.7 142.4 37.7z"
				/></g><g><path class="st1" d="M139.1 421.4c0-1.8 1.5-3.3 3.3-3.3v0c1.8.0 3.3 1.5 3.3 3.3v0c0 1.8-1.5 3.3-3.3 3.3v0C140.6 424.7 139.1 423.2 139.1 421.4zm0-21.5c0-1.9 1.5-3.3 3.3-3.3v0c1.8.0 3.3 1.5 3.3 3.3v0c0 1.8-1.5 3.3-3.3 3.3v0C140.6 403.2 139.1 401.8 139.1 399.9zm0-21.5c0-1.8 1.5-3.3 3.3-3.3v0c1.8.0 3.3 1.5 3.3 3.3v0c0 1.8-1.5 3.3-3.3 3.3v0C140.6 381.7 139.1 380.2 139.1 378.4zm0-21.5c0-1.8 1.5-3.3 3.3-3.3v0c1.8.0 3.3 1.5 3.3 3.3v0c0 1.8-1.5 3.3-3.3 3.3v0C140.6 360.2 139.1 358.7 139.1 356.9zm0-21.5c0-1.8 1.5-3.3 3.3-3.3v0c1.8.0 3.3 1.5 3.3 3.3v0c0 1.8-1.5 3.3-3.3 3.3v0C140.6 338.7 139.1 337.2 139.1 335.4zm0-21.5c0-1.8 1.5-3.3 3.3-3.3v0c1.8.0 3.3 1.5 3.3 3.3v0c0 1.8-1.5 3.3-3.3 3.3v0C140.6 317.2 139.1 315.7 139.1 313.9zm0-21.5c0-1.8 1.5-3.3 3.3-3.3v0c1.8.0 3.3 1.5 3.3 3.3v0c0 1.8-1.5 3.3-3.3 3.3v0C140.6 295.7 139.1 294.2 139.1 292.4zm0-21.5c0-1.8 1.5-3.3 3.3-3.3v0c1.8.0 3.3 1.5 3.3 3.3v0c0 1.8-1.5 3.3-3.3 3.3v0C140.6 274.2 139.1 272.7 139.1 270.9zM139.1 249.4c0-1.8 1.5-3.3 3.3-3.3v0c1.8.0 3.3 1.5 3.3 3.3v0c0 1.8-1.5 3.3-3.3 3.3v0C140.6 252.7 139.1 251.2 139.1 249.4zm0-21.5c0-1.8 1.5-3.3 3.3-3.3v0c1.8.0 3.3 1.5 3.3 3.3v0c0 1.8-1.5 3.3-3.3 3.3v0C140.6 231.2 139.1 229.7 139.1 227.9zm0-21.5c0-1.8 1.5-3.3 3.3-3.3v0c1.8.0 3.3 1.5 3.3 3.3v0c0 1.8-1.5 3.3-3.3 3.3v0C140.6 209.7 139.1 208.2 139.1 206.4zm0-21.5c0-1.8 1.5-3.3 3.3-3.3v0c1.8.0 3.3 1.5 3.3 3.3v0c0 1.8-1.5 3.3-3.3 3.3v0C140.6 188.2 139.1 186.7 139.1 184.9zm0-21.5c0-1.8 1.5-3.3 3.3-3.3v0c1.8.0 3.3 1.5 3.3 3.3v0c0 1.8-1.5 3.3-3.3 3.3v0C140.6 166.7 139.1 165.2 139.1 163.4zm0-21.5c0-1.8 1.5-3.3 3.3-3.3v0c1.8.0 3.3 1.5 3.3 3.3v0c0 1.8-1.5 3.3-3.3 3.3v0C140.6 145.2 139.1 143.7 139.1 141.9zm0-21.5c0-1.8 1.5-3.3 3.3-3.3v0c1.8.0 3.3 1.5 3.3 3.3v0c0 1.8-1.5 3.3-3.3 3.3v0C140.6 123.7 139.1 122.2 139.1 120.4zm0-21.5c0-1.8 1.5-3.3 3.3-3.3v0c1.8.0 3.3 1.5 3.3 3.3v0c0 1.8-1.5 3.3-3.3 3.3v0C140.6 102.2 139.1 100.7 139.1 98.9zm0-21.5c0-1.8 1.5-3.3 3.3-3.3v0c1.8.0 3.3 1.5 3.3 3.3v0c0 1.8-1.5 3.3-3.3 3.3v0C140.6 80.7 139.1 79.2 139.1 77.4zM139.1 55.9c0-1.8 1.5-3.3 3.3-3.3v0c1.8.0 3.3 1.5 3.3 3.3v0c0 1.8-1.5 3.3-3.3 3.3v0C140.6 59.2 139.1 57.7 139.1 55.9z"/></g><g><path class="st1" d="M142.4 446.2c-.4.0-.9-.1-1.3-.3-.4-.2-.8-.4-1.1-.7-.3-.3-.6-.7-.7-1.1-.2-.4-.2-.8-.2-1.3.0-.9.3-1.7.9-2.4.2-.1.3-.3.5-.4.2-.1.4-.2.6-.3.2-.1.4-.1.6-.2 1.1-.2 2.2.1 3 .9.6.6 1 1.5 1 2.4.0.4-.1.8-.3 1.3-.2.4-.4.7-.7 1.1-.3.3-.7.5-1.1.7C143.2 446.1 142.8 446.2 142.4 446.2z"/></g></g><g><g><path class="st1" d="M160.8 37.7c-.4.0-.9-.1-1.3-.3-.4-.2-.8-.4-1.1-.7-.3-.3-.6-.7-.7-1.1-.2-.4-.3-.8-.3-1.3.0-.9.3-1.7 1-2.3.1-.2.3-.3.5-.4.2-.1.4-.2.6-.3.2-.1.4-.1.6-.2.4-.1.8-.1 1.3.0.2.0.4.1.6.2.2.1.4.2.6.3.2.1.4.3.5.4.6.6.9 1.5.9 2.3.0.4-.1.9-.2 1.3-.2.4-.4.8-.7 1.1C162.5 37.3 161.7 37.7 160.8 37.7z"/></g><g><path class="st1" d="M157.5 421.4c0-1.8 1.5-3.3 3.3-3.3v0c1.8.0 3.3 1.5 3.3 3.3v0c0 1.8-1.5 3.3-3.3 3.3v0C159 424.7 157.5 423.2 157.5 421.4zm0-21.5c0-1.9 1.5-3.3 3.3-3.3v0c1.8.0 3.3 1.5 3.3 3.3v0c0 1.8-1.5 3.3-3.3 3.3v0C159 403.2 157.5 401.8 157.5 399.9zm0-21.5c0-1.8 1.5-3.3 3.3-3.3v0c1.8.0 3.3 1.5 3.3 3.3v0c0 1.8-1.5 3.3-3.3 3.3v0C159 381.7 157.5 380.2 157.5 378.4zm0-21.5c0-1.8 1.5-3.3 3.3-3.3v0c1.8.0 3.3 1.5 3.3 3.3v0c0 1.8-1.5 3.3-3.3 3.3v0C159 360.2 157.5 358.7 157.5 356.9zm0-21.5c0-1.8 1.5-3.3 3.3-3.3v0c1.8.0 3.3 1.5 3.3 3.3v0c0 1.8-1.5 3.3-3.3 3.3v0C159 338.7 157.5 337.2 157.5 335.4zm0-21.5c0-1.8 1.5-3.3 3.3-3.3v0c1.8.0 3.3 1.5 3.3 3.3v0c0 1.8-1.5 3.3-3.3 3.3v0C159 317.2 157.5 315.7 157.5 313.9zm0-21.5c0-1.8 1.5-3.3 3.3-3.3v0c1.8.0 3.3 1.5 3.3 3.3v0c0 1.8-1.5 3.3-3.3 3.3v0C159 295.7 157.5 294.2 157.5 292.4zm0-21.5c0-1.8 1.5-3.3 3.3-3.3v0c1.8.0 3.3 1.5 3.3 3.3v0c0 1.8-1.5 3.3-3.3 3.3v0C159 274.2 157.5 272.7 157.5 270.9zM157.5 249.4c0-1.8 1.5-3.3 3.3-3.3v0c1.8.0 3.3 1.5 3.3 3.3v0c0 1.8-1.5 3.3-3.3 3.3v0C159 252.7 157.5 251.2 157.5 249.4zm0-21.5c0-1.8 1.5-3.3 3.3-3.3v0c1.8.0 3.3 1.5 3.3 3.3v0c0 1.8-1.5 3.3-3.3 3.3v0C159 231.2 157.5 229.7 157.5 227.9zm0-21.5c0-1.8 1.5-3.3 3.3-3.3v0c1.8.0 3.3 1.5 3.3 3.3v0c0 1.8-1.5 3.3-3.3 3.3v0C159 209.7 157.5 208.2 157.5 206.4zm0-21.5c0-1.8 1.5-3.3 3.3-3.3v0c1.8.0 3.3 1.5 3.3 3.3v0c0 1.8-1.5 3.3-3.3 3.3v0C159 188.2 157.5 186.7 157.5 184.9zm0-21.5c0-1.8 1.5-3.3 3.3-3.3v0c1.8.0 3.3 1.5 3.3 3.3v0c0 1.8-1.5 3.3-3.3 3.3v0C159 166.7 157.5 165.2 157.5 163.4zm0-21.5c0-1.8 1.5-3.3 3.3-3.3v0c1.8.0 3.3 1.5 3.3 3.3v0c0 1.8-1.5 3.3-3.3 3.3v0C159 145.2 157.5 143.7 157.5 141.9zm0-21.5c0-1.8 1.5-3.3 3.3-3.3v0c1.8.0 3.3 1.5 3.3 3.3v0c0 1.8-1.5 3.3-3.3 3.3v0C159 123.7 157.5 122.2 157.5 120.4zm0-21.5c0-1.8 1.5-3.3 3.3-3.3v0c1.8.0 3.3 1.5 3.3 3.3v0c0 1.8-1.5 3.3-3.3 3.3v0C159 102.2 157.5 100.7 157.5 98.9zm0-21.5c0-1.8 1.5-3.3 3.3-3.3v0c1.8.0 3.3 1.5 3.3 3.3v0c0 1.8-1.5 3.3-3.3 3.3v0C159 80.7 157.5 79.2 157.5 77.4zM157.5 55.9c0-1.8 1.5-3.3 3.3-3.3v0c1.8.0 3.3 1.5 3.3 3.3v0c0 1.8-1.5 3.3-3.3 3.3v0C159 59.2 157.5 57.7 157.5 55.9z"/></g><g><path class="st1" d="M160.8 446.2c-.9.0-1.7-.4-2.3-1-.3-.3-.6-.7-.7-1.1-.2-.4-.3-.8-.3-1.3.0-.9.3-1.7 1-2.4.8-.8 1.9-1.1 2.9-.9.2.0.4.1.6.2.2.1.4.2.6.3.2.1.4.3.5.4.2.2.3.3.4.5.1.2.2.4.3.6.1.2.2.4.2.6.0.2.1.5.1.7.0.4-.1.8-.2 1.3-.2.4-.4.7-.7 1.1C162.5 445.9 161.6 446.2 160.8 446.2z"/></g></g><g><g><path class="st1" d="M179.2 37.7c-.9.0-1.7-.3-2.3-1-.3-.3-.6-.7-.7-1.1-.2-.4-.3-.8-.3-1.3.0-.9.4-1.7 1-2.3.2-.2.3-.3.5-.4s.4-.2.6-.3c.2-.1.4-.1.6-.2.4-.1.9-.1 1.3.0.2.0.4.1.6.2.2.1.4.2.6.3.2.1.3.3.5.4.6.6.9 1.5.9 2.3.0.4-.1.8-.2 1.3-.2.4-.4.8-.7 1.1-.3.3-.7.5-1.1.7C180.1 37.6 179.6 37.7 179.2 37.7z"/></g><g><path class="st1" d="M175.9 421.4c0-1.8 1.5-3.3 3.3-3.3v0c1.8.0 3.3 1.5 3.3 3.3v0c0 1.8-1.5 3.3-3.3 3.3v0C177.4 424.7 175.9 423.2 175.9 421.4zm0-21.5c0-1.9 1.5-3.3 3.3-3.3v0c1.8.0 3.3 1.5 3.3 3.3v0c0 1.8-1.5 3.3-3.3 3.3v0C177.4 403.2 175.9 401.8 175.9 399.9zm0-21.5c0-1.8 1.5-3.3 3.3-3.3v0c1.8.0 3.3 1.5 3.3 3.3v0c0 1.8-1.5 3.3-3.3 3.3v0C177.4 381.7 175.9 380.2 175.9 378.4zm0-21.5c0-1.8 1.5-3.3 3.3-3.3v0c1.8.0 3.3 1.5 3.3 3.3v0c0 1.8-1.5 3.3-3.3 3.3v0C177.4 360.2 175.9 358.7 175.9 356.9zm0-21.5c0-1.8 1.5-3.3 3.3-3.3v0c1.8.0 3.3 1.5 3.3 3.3v0c0 1.8-1.5 3.3-3.3 3.3v0C177.4 338.7 175.9 337.2 175.9 335.4zm0-21.5c0-1.8 1.5-3.3 3.3-3.3v0c1.8.0 3.3 1.5 3.3 3.3v0c0 1.8-1.5 3.3-3.3 3.3v0C177.4 317.2 175.9 315.7 175.9 313.9zm0-21.5c0-1.8 1.5-3.3 3.3-3.3v0c1.8.0 3.3 1.5 3.3 3.3v0c0 1.8-1.5 3.3-3.3 3.3v0C177.4 295.7 175.9 294.2 175.9 292.4zm0-21.5c0-1.8 1.5-3.3 3.3-3.3v0c1.8.0 3.3 1.5 3.3 3.3v0c0 1.8-1.5 3.3-3.3 3.3v0C177.4 274.2 175.9 272.7 175.9 270.9zM175.9 249.4c0-1.8 1.5-3.3 3.3-3.3v0c1.8.0 3.3 1.5 3.3 3.3v0c0 1.8-1.5 3.3-3.3 3.3v0C177.4 252.7 175.9 251.2 175.9 249.4zm0-21.5c0-1.8 1.5-3.3 3.3-3.3v0c1.8.0 3.3 1.5 3.3 3.3v0c0 1.8-1.5 3.3-3.3 3.3v0C177.4 231.2 175.9 229.7 175.9 227.9zm0-21.5c0-1.8 1.5-3.3 3.3-3.3v0c1.8.0 3.3 1.5 3.3 3.3v0c0 1.8-1.5 3.3-3.3 3.3v0C177.4 209.7 175.9 208.2 175.9 206.4zm0-21.5c0-1.8 1.5-3.3 3.3-3.3v0c1.8.0 3.3 1.5 3.3 3.3v0c0 1.8-1.5 3.3-3.3 3.3v0C177.4 188.2 175.9 186.7 175.9 184.9zm0-21.5c0-1.8 1.5-3.3 3.3-3.3v0c1.8.0 3.3 1.5 3.3 3.3v0c0 1.8-1.5 3.3-3.3 3.3v0C177.4 166.7 175.9 165.2 175.9 163.4zm0-21.5c0-1.8 1.5-3.3 3.3-3.3v0c1.8.0 3.3 1.5 3.3 3.3v0c0 1.8-1.5 3.3-3.3 3.3v0C177.4 145.2 175.9 143.7 175.9 141.9zm0-21.5c0-1.8 1.5-3.3 3.3-3.3v0c1.8.0 3.3 1.5 3.3 3.3v0c0 1.8-1.5 3.3-3.3 3.3v0C177.4 123.7 175.9 122.2 175.9 120.4zm0-21.5c0-1.8 1.5-3.3 3.3-3.3v0c1.8.0 3.3 1.5 3.3 3.3v0c0 1.8-1.5 3.3-3.3 3.3v0C177.4 102.2 175.9 100.7 175.9 98.9zm0-21.5c0-1.8 1.5-3.3 3.3-3.3v0c1.8.0 3.3 1.5 3.3 3.3v0c0 1.8-1.5 3.3-3.3 3.3v0C177.4 80.7 175.9 79.2 175.9 77.4zM175.9 55.9c0-1.8 1.5-3.3 3.3-3.3v0c1.8.0 3.3 1.5 3.3 3.3v0c0 1.8-1.5 3.3-3.3 3.3v0C177.4 59.2 175.9 57.7 175.9 55.9z"/></g><g><path class="st1" d="M179.2 446.2c-.9.0-1.7-.4-2.3-1-.3-.3-.6-.7-.7-1.1-.2-.4-.3-.8-.3-1.3.0-.2.0-.5.1-.7.0-.2.1-.4.2-.6.1-.2.2-.4.3-.6.1-.2.3-.3.4-.5.8-.8 1.9-1.1 3-.9.2.0.4.1.6.2.2.1.4.2.6.3.2.1.3.3.5.4.2.2.3.3.4.5.1.2.2.4.3.6.1.2.1.4.2.6.1.2.1.5.1.7.0.4-.1.8-.2 1.3-.2.4-.4.7-.7 1.1C180.9 445.9 180.1 446.2 179.2 446.2z"/></g></g><g><g><path class="st1" d="M197.6 37.7c-.9.0-1.7-.3-2.4-1-.3-.3-.5-.7-.7-1.1-.2-.4-.2-.8-.2-1.3.0-.2.0-.5.1-.7.1-.2.1-.4.2-.6.1-.2.2-.4.3-.5.1-.2.3-.4.4-.5.2-.2.3-.3.5-.4.2-.1.4-.2.6-.3.2-.1.4-.1.6-.2 1.1-.2 2.2.1 3 .9.6.6 1 1.5 1 2.3.0.4-.1.9-.3 1.3-.2.4-.4.8-.7 1.1C199.3 37.3 198.5 37.7 197.6 37.7z"/></g><g><path class="st1" d="M194.3 421.4c0-1.8 1.5-3.3 3.3-3.3v0c1.8.0 3.3 1.5 3.3 3.3v0c0 1.8-1.5 3.3-3.3 3.3v0C195.8 424.7 194.3 423.2 194.3 421.4zm0-21.5c0-1.9 1.5-3.3 3.3-3.3v0c1.8.0 3.3 1.5 3.3 3.3v0c0 1.8-1.5 3.3-3.3 3.3v0C195.8 403.2 194.3 401.8 194.3 399.9zm0-21.5c0-1.8 1.5-3.3 3.3-3.3v0c1.8.0 3.3 1.5 3.3 3.3v0c0 1.8-1.5 3.3-3.3 3.3v0C195.8 381.7 194.3 380.2 194.3 378.4zm0-21.5c0-1.8 1.5-3.3 3.3-3.3v0c1.8.0 3.3 1.5 3.3 3.3v0c0 1.8-1.5 3.3-3.3 3.3v0C195.8 360.2 194.3 358.7 194.3 356.9zm0-21.5c0-1.8 1.5-3.3 3.3-3.3v0c1.8.0 3.3 1.5 3.3 3.3v0c0 1.8-1.5 3.3-3.3 3.3v0C195.8 338.7 194.3 337.2 194.3 335.4zm0-21.5c0-1.8 1.5-3.3 3.3-3.3v0c1.8.0 3.3 1.5 3.3 3.3v0c0 1.8-1.5 3.3-3.3 3.3v0C195.8 317.2 194.3 315.7 194.3 313.9zm0-21.5c0-1.8 1.5-3.3 3.3-3.3v0c1.8.0 3.3 1.5 3.3 3.3v0c0 1.8-1.5 3.3-3.3 3.3v0C195.8 295.7 194.3 294.2 194.3 292.4zm0-21.5c0-1.8 1.5-3.3 3.3-3.3v0c1.8.0 3.3 1.5 3.3 3.3v0c0 1.8-1.5 3.3-3.3 3.3v0C195.8 274.2 194.3 272.7 194.3 270.9zM194.3 249.4c0-1.8 1.5-3.3 3.3-3.3v0c1.8.0 3.3 1.5 3.3 3.3v0c0 1.8-1.5 3.3-3.3 3.3v0C195.8 252.7 194.3 251.2 194.3 249.4zm0-21.5c0-1.8 1.5-3.3 3.3-3.3v0c1.8.0 3.3 1.5 3.3 3.3v0c0 1.8-1.5 3.3-3.3 3.3v0C195.8 231.2 194.3 229.7 194.3 227.9zm0-21.5c0-1.8 1.5-3.3 3.3-3.3v0c1.8.0 3.3 1.5 3.3 3.3v0c0 1.8-1.5 3.3-3.3 3.3v0C195.8 209.7 194.3 208.2 194.3 206.4zm0-21.5c0-1.8 1.5-3.3 3.3-3.3v0c1.8.0 3.3 1.5 3.3 3.3v0c0 1.8-1.5 3.3-3.3 3.3v0C195.8 188.2 194.3 186.7 194.3 184.9zm0-21.5c0-1.8 1.5-3.3 3.3-3.3v0c1.8.0 3.3 1.5 3.3 3.3v0c0 1.8-1.5 3.3-3.3 3.3v0C195.8 166.7 194.3 165.2 194.3 163.4zm0-21.5c0-1.8 1.5-3.3 3.3-3.3v0c1.8.0 3.3 1.5 3.3 3.3v0c0 1.8-1.5 3.3-3.3 3.3v0C195.8 145.2 194.3 143.7 194.3 141.9zm0-21.5c0-1.8 1.5-3.3 3.3-3.3v0c1.8.0 3.3 1.5 3.3 3.3v0c0 1.8-1.5 3.3-3.3 3.3v0C195.8 123.7 194.3 122.2 194.3 120.4zm0-21.5c0-1.8 1.5-3.3 3.3-3.3v0c1.8.0 3.3 1.5 3.3 3.3v0c0 1.8-1.5 3.3-3.3 3.3v0C195.8 102.2 194.3 100.7 194.3 98.9zm0-21.5c0-1.8 1.5-3.3 3.3-3.3v0c1.8.0 3.3 1.5 3.3 3.3v0c0 1.8-1.5 3.3-3.3 3.3v0C195.8 80.7 194.3 79.2 194.3 77.4zM194.3 55.9c0-1.8 1.5-3.3 3.3-3.3v0c1.8.0 3.3 1.5 3.3 3.3v0c0 1.8-1.5 3.3-3.3 3.3v0C195.8 59.2 194.3 57.7 194.3 55.9z"/></g><g><path class="st1" d="M197.6 446.2c-.9.0-1.7-.4-2.4-1-.3-.3-.5-.7-.7-1.1-.2-.4-.2-.8-.2-1.3.0-.2.0-.5.1-.7.1-.2.1-.4.2-.6.1-.2.2-.4.3-.6.1-.2.3-.3.4-.5.8-.8 1.9-1.1 3-.9.2.0.4.1.6.2.2.1.4.2.6.3.2.1.3.3.5.4.2.2.3.3.4.5.1.2.2.4.3.6.1.2.2.4.2.6.1.2.1.5.1.7.0.4-.1.8-.3 1.3-.2.4-.4.7-.7 1.1C199.3 445.9 198.5 446.2 197.6 446.2z"/></g></g><g><g><path class="st1" d="M216 37.7c-.4.0-.9-.1-1.3-.3-.4-.2-.7-.4-1.1-.7-.3-.3-.6-.7-.7-1.1-.2-.4-.3-.8-.3-1.3.0-.9.3-1.7 1-2.3.1-.2.3-.3.5-.4.2-.1.4-.2.6-.3.2-.1.4-.1.6-.2.4-.1.8-.1 1.3.0.2.0.4.1.6.2.2.1.4.2.6.3.2.1.3.3.5.4.6.6.9 1.5.9 2.3.0.4-.1.9-.2 1.3-.2.4-.4.8-.7 1.1C217.7 37.3 216.9 37.7 216 37.7z"/></g><g><path class="st1" d="M212.7 421.4c0-1.8 1.5-3.3 3.3-3.3v0c1.8.0 3.3 1.5 3.3 3.3v0c0 1.8-1.5 3.3-3.3 3.3v0C214.2 424.7 212.7 423.2 212.7 421.4zm0-21.5c0-1.9 1.5-3.3 3.3-3.3v0c1.8.0 3.3 1.5 3.3 3.3v0c0 1.8-1.5 3.3-3.3 3.3v0C214.2 403.2 212.7 401.8 212.7 399.9zm0-21.5c0-1.8 1.5-3.3 3.3-3.3v0c1.8.0 3.3 1.5 3.3 3.3v0c0 1.8-1.5 3.3-3.3 3.3v0C214.2 381.7 212.7 380.2 212.7 378.4zm0-21.5c0-1.8 1.5-3.3 3.3-3.3v0c1.8.0 3.3 1.5 3.3 3.3v0c0 1.8-1.5 3.3-3.3 3.3v0C214.2 360.2 212.7 358.7 212.7 356.9zm0-21.5c0-1.8 1.5-3.3 3.3-3.3v0c1.8.0 3.3 1.5 3.3 3.3v0c0 1.8-1.5 3.3-3.3 3.3v0C214.2 338.7 212.7 337.2 212.7 335.4zm0-21.5c0-1.8 1.5-3.3 3.3-3.3v0c1.8.0 3.3 1.5 3.3 3.3v0c0 1.8-1.5 3.3-3.3 3.3v0C214.2 317.2 212.7 315.7 212.7 313.9zm0-21.5c0-1.8 1.5-3.3 3.3-3.3v0c1.8.0 3.3 1.5 3.3 3.3v0c0 1.8-1.5 3.3-3.3 3.3v0C214.2 295.7 212.7 294.2 212.7 292.4zm0-21.5c0-1.8 1.5-3.3 3.3-3.3v0c1.8.0 3.3 1.5 3.3 3.3v0c0 1.8-1.5 3.3-3.3 3.3v0C214.2 274.2 212.7 272.7 212.7 270.9zM212.7 249.4c0-1.8 1.5-3.3 3.3-3.3v0c1.8.0 3.3 1.5 3.3 3.3v0c0 1.8-1.5 3.3-3.3 3.3v0C214.2 252.7 212.7 251.2 212.7 249.4zm0-21.5c0-1.8 1.5-3.3 3.3-3.3v0c1.8.0 3.3 1.5 3.3 3.3v0c0 1.8-1.5 3.3-3.3 3.3v0C214.2 231.2 212.7 229.7 212.7 227.9zm0-21.5c0-1.8 1.5-3.3 3.3-3.3v0c1.8.0 3.3 1.5 3.3 3.3v0c0 1.8-1.5 3.3-3.3 3.3v0C214.2 209.7 212.7 208.2 212.7 206.4zm0-21.5c0-1.8 1.5-3.3 3.3-3.3v0c1.8.0 3.3 1.5 3.3 3.3v0c0 1.8-1.5 3.3-3.3 3.3v0C214.2 188.2 212.7 186.7 212.7 184.9zm0-21.5c0-1.8 1.5-3.3 3.3-3.3v0c1.8.0 3.3 1.5 3.3 3.3v0c0 1.8-1.5 3.3-3.3 3.3v0C214.2 166.7 212.7 165.2 212.7 163.4zm0-21.5c0-1.8 1.5-3.3 3.3-3.3v0c1.8.0 3.3 1.5 3.3 3.3v0c0 1.8-1.5 3.3-3.3 3.3v0C214.2 145.2 212.7 143.7 212.7 141.9zm0-21.5c0-1.8 1.5-3.3 3.3-3.3v0c1.8.0 3.3 1.5 3.3 3.3v0c0 1.8-1.5 3.3-3.3 3.3v0C214.2 123.7 212.7 122.2 212.7 120.4zm0-21.5c0-1.8 1.5-3.3 3.3-3.3v0c1.8.0 3.3 1.5 3.3 3.3v0c0 1.8-1.5 3.3-3.3 3.3v0C214.2 102.2 212.7 100.7 212.7 98.9zm0-21.5c0-1.8 1.5-3.3 3.3-3.3v0c1.8.0 3.3 1.5 3.3 3.3v0c0 1.8-1.5 3.3-3.3 3.3v0C214.2 80.7 212.7 79.2 212.7 77.4zM212.7 55.9c0-1.8 1.5-3.3 3.3-3.3v0c1.8.0 3.3 1.5 3.3 3.3v0c0 1.8-1.5 3.3-3.3 3.3v0C214.2 59.2 212.7 57.7 212.7 55.9z"/></g><g><path class="st1" d="M216 446.2c-.9.0-1.7-.4-2.3-1-.6-.6-1-1.5-1-2.3.0-.2.0-.5.1-.7.0-.2.1-.4.2-.6.1-.2.2-.4.3-.6.1-.2.3-.3.4-.5.8-.8 1.9-1.1 3-.9.2.0.4.1.6.2.2.1.4.2.6.3.2.1.3.3.5.4.1.2.3.3.4.5.1.2.2.4.3.6.1.2.1.4.2.6.0.2.1.5.1.7.0.4-.1.8-.2 1.3-.2.4-.4.7-.7 1.1C217.7 445.9 216.9 446.2 216 446.2z"/></g></g><g><g><path class="st1" d="M234.4 37.7c-.4.0-.8-.1-1.2-.3-.4-.2-.8-.4-1.1-.7-.3-.3-.6-.7-.7-1.1s-.2-.8-.2-1.3c0-.2.0-.5.1-.7s.1-.4.2-.6c.1-.2.2-.4.3-.5.1-.2.2-.4.4-.5 1.2-1.2 3.4-1.2 4.7.0.6.6 1 1.5 1 2.3.0.4-.1.9-.3 1.3-.2.4-.4.8-.7 1.1C236.1 37.3 235.3 37.7 234.4 37.7z"/></g><g><path class="st1" d="M231.1 421.4c0-1.8 1.5-3.3 3.3-3.3v0c1.8.0 3.3 1.5 3.3 3.3v0c0 1.8-1.5 3.3-3.3 3.3v0C232.6 424.7 231.1 423.2 231.1 421.4zm0-21.5c0-1.9 1.5-3.3 3.3-3.3v0c1.8.0 3.3 1.5 3.3 3.3v0c0 1.8-1.5 3.3-3.3 3.3v0C232.6 403.2 231.1 401.8 231.1 399.9zm0-21.5c0-1.8 1.5-3.3 3.3-3.3v0c1.8.0 3.3 1.5 3.3 3.3v0c0 1.8-1.5 3.3-3.3 3.3v0C232.6 381.7 231.1 380.2 231.1 378.4zm0-21.5c0-1.8 1.5-3.3 3.3-3.3v0c1.8.0 3.3 1.5 3.3 3.3v0c0 1.8-1.5 3.3-3.3 3.3v0C232.6 360.2 231.1 358.7 231.1 356.9zm0-21.5c0-1.8 1.5-3.3 3.3-3.3v0c1.8.0 3.3 1.5 3.3 3.3v0c0 1.8-1.5 3.3-3.3 3.3v0C232.6 338.7 231.1 337.2 231.1 335.4zm0-21.5c0-1.8 1.5-3.3 3.3-3.3v0c1.8.0 3.3 1.5 3.3 3.3v0c0 1.8-1.5 3.3-3.3 3.3v0C232.6 317.2 231.1 315.7 231.1 313.9zm0-21.5c0-1.8 1.5-3.3 3.3-3.3v0c1.8.0 3.3 1.5 3.3 3.3v0c0 1.8-1.5 3.3-3.3 3.3v0C232.6 295.7 231.1 294.2 231.1 292.4zm0-21.5c0-1.8 1.5-3.3 3.3-3.3v0c1.8.0 3.3 1.5 3.3 3.3v0c0 1.8-1.5 3.3-3.3 3.3v0C232.6 274.2 231.1 272.7 231.1 270.9zM231.1 249.4c0-1.8 1.5-3.3 3.3-3.3v0c1.8.0 3.3 1.5 3.3 3.3v0c0 1.8-1.5 3.3-3.3 3.3v0C232.6 252.7 231.1 251.2 231.1 249.4zm0-21.5c0-1.8 1.5-3.3 3.3-3.3v0c1.8.0 3.3 1.5 3.3 3.3v0c0 1.8-1.5 3.3-3.3 3.3v0C232.6 231.2 231.1 229.7 231.1 227.9zm0-21.5c0-1.8 1.5-3.3 3.3-3.3v0c1.8.0 3.3 1.5 3.3 3.3v0c0 1.8-1.5 3.3-3.3 3.3v0C232.6 209.7 231.1 208.2 231.1 206.4zm0-21.5c0-1.8 1.5-3.3 3.3-3.3v0c1.8.0 3.3 1.5 3.3 3.3v0c0 1.8-1.5 3.3-3.3 3.3v0C232.6 188.2 231.1 186.7 231.1 184.9zm0-21.5c0-1.8 1.5-3.3 3.3-3.3v0c1.8.0 3.3 1.5 3.3 3.3v0c0 1.8-1.5 3.3-3.3 3.3v0C232.6 166.7 231.1 165.2 231.1 163.4zm0-21.5c0-1.8 1.5-3.3 3.3-3.3v0c1.8.0 3.3 1.5 3.3 3.3v0c0 1.8-1.5 3.3-3.3 3.3v0C232.6 145.2 231.1 143.7 231.1 141.9zm0-21.5c0-1.8 1.5-3.3 3.3-3.3v0c1.8.0 3.3 1.5 3.3 3.3v0c0 1.8-1.5 3.3-3.3 3.3v0C232.6 123.7 231.1 122.2 231.1 120.4zm0-21.5c0-1.8 1.5-3.3 3.3-3.3v0c1.8.0 3.3 1.5 3.3 3.3v0c0 1.8-1.5 3.3-3.3 3.3v0C232.6 102.2 231.1 100.7 231.1 98.9zm0-21.5c0-1.8 1.5-3.3 3.3-3.3v0c1.8.0 3.3 1.5 3.3 3.3v0c0 1.8-1.5 3.3-3.3 3.3v0C232.6 80.7 231.1 79.2 231.1 77.4zM231.1 55.9c0-1.8 1.5-3.3 3.3-3.3v0c1.8.0 3.3 1.5 3.3 3.3v0c0 1.8-1.5 3.3-3.3 3.3v0C232.6 59.2 231.1 57.7 231.1 55.9z"/></g><g><path class="st1" d="M234.4 446.2c-.9.0-1.7-.4-2.4-1-.6-.6-.9-1.5-.9-2.3.0-.2.0-.5.1-.7s.1-.4.2-.6c.1-.2.2-.4.3-.6.1-.2.2-.3.4-.5.8-.8 1.9-1.1 3-.9.2.0.4.1.6.2.2.1.4.2.6.3.2.1.3.3.5.4.2.2.3.3.4.5.1.2.2.4.3.6.1.2.1.4.2.6.1.2.1.5.1.7.0.4-.1.8-.3 1.3-.2.4-.4.7-.7 1.1C236.1 445.9 235.3 446.2 234.4 446.2z"/></g></g><g><g><path class="st1" d="M252.8 37.7c-.4.0-.9-.1-1.3-.3-.4-.2-.8-.4-1.1-.7-.3-.3-.5-.7-.7-1.1-.2-.4-.2-.8-.2-1.3.0-.9.3-1.7.9-2.3.2-.2.3-.3.5-.4.2-.1.4-.2.6-.3.2-.1.4-.1.6-.2 1.1-.2 2.2.1 3 .9.6.6 1 1.5 1 2.3.0.4-.1.9-.3 1.3-.2.4-.4.8-.7 1.1C254.6 37.3 253.7 37.7 252.8 37.7z"
				/></g><g><path class="st1" d="M249.5 421.4c0-1.8 1.5-3.3 3.3-3.3v0c1.8.0 3.3 1.5 3.3 3.3v0c0 1.8-1.5 3.3-3.3 3.3v0C251 424.7 249.5 423.2 249.5 421.4zm0-21.5c0-1.9 1.5-3.3 3.3-3.3v0c1.8.0 3.3 1.5 3.3 3.3v0c0 1.8-1.5 3.3-3.3 3.3v0C251 403.2 249.5 401.8 249.5 399.9zm0-21.5c0-1.8 1.5-3.3 3.3-3.3v0c1.8.0 3.3 1.5 3.3 3.3v0c0 1.8-1.5 3.3-3.3 3.3v0C251 381.7 249.5 380.2 249.5 378.4zm0-21.5c0-1.8 1.5-3.3 3.3-3.3v0c1.8.0 3.3 1.5 3.3 3.3v0c0 1.8-1.5 3.3-3.3 3.3v0C251 360.2 249.5 358.7 249.5 356.9zm0-21.5c0-1.8 1.5-3.3 3.3-3.3v0c1.8.0 3.3 1.5 3.3 3.3v0c0 1.8-1.5 3.3-3.3 3.3v0C251 338.7 249.5 337.2 249.5 335.4zm0-21.5c0-1.8 1.5-3.3 3.3-3.3v0c1.8.0 3.3 1.5 3.3 3.3v0c0 1.8-1.5 3.3-3.3 3.3v0C251 317.2 249.5 315.7 249.5 313.9zm0-21.5c0-1.8 1.5-3.3 3.3-3.3v0c1.8.0 3.3 1.5 3.3 3.3v0c0 1.8-1.5 3.3-3.3 3.3v0C251 295.7 249.5 294.2 249.5 292.4zm0-21.5c0-1.8 1.5-3.3 3.3-3.3v0c1.8.0 3.3 1.5 3.3 3.3v0c0 1.8-1.5 3.3-3.3 3.3v0C251 274.2 249.5 272.7 249.5 270.9zM249.5 249.4c0-1.8 1.5-3.3 3.3-3.3v0c1.8.0 3.3 1.5 3.3 3.3v0c0 1.8-1.5 3.3-3.3 3.3v0C251 252.7 249.5 251.2 249.5 249.4zm0-21.5c0-1.8 1.5-3.3 3.3-3.3v0c1.8.0 3.3 1.5 3.3 3.3v0c0 1.8-1.5 3.3-3.3 3.3v0C251 231.2 249.5 229.7 249.5 227.9zm0-21.5c0-1.8 1.5-3.3 3.3-3.3v0c1.8.0 3.3 1.5 3.3 3.3v0c0 1.8-1.5 3.3-3.3 3.3v0C251 209.7 249.5 208.2 249.5 206.4zm0-21.5c0-1.8 1.5-3.3 3.3-3.3v0c1.8.0 3.3 1.5 3.3 3.3v0c0 1.8-1.5 3.3-3.3 3.3v0C251 188.2 249.5 186.7 249.5 184.9zm0-21.5c0-1.8 1.5-3.3 3.3-3.3v0c1.8.0 3.3 1.5 3.3 3.3v0c0 1.8-1.5 3.3-3.3 3.3v0C251 166.7 249.5 165.2 249.5 163.4zm0-21.5c0-1.8 1.5-3.3 3.3-3.3v0c1.8.0 3.3 1.5 3.3 3.3v0c0 1.8-1.5 3.3-3.3 3.3v0C251 145.2 249.5 143.7 249.5 141.9zm0-21.5c0-1.8 1.5-3.3 3.3-3.3v0c1.8.0 3.3 1.5 3.3 3.3v0c0 1.8-1.5 3.3-3.3 3.3v0C251 123.7 249.5 122.2 249.5 120.4zm0-21.5c0-1.8 1.5-3.3 3.3-3.3v0c1.8.0 3.3 1.5 3.3 3.3v0c0 1.8-1.5 3.3-3.3 3.3v0C251 102.2 249.5 100.7 249.5 98.9zm0-21.5c0-1.8 1.5-3.3 3.3-3.3v0c1.8.0 3.3 1.5 3.3 3.3v0c0 1.8-1.5 3.3-3.3 3.3v0C251 80.7 249.5 79.2 249.5 77.4zM249.5 55.9c0-1.8 1.5-3.3 3.3-3.3v0c1.8.0 3.3 1.5 3.3 3.3v0c0 1.8-1.5 3.3-3.3 3.3v0C251 59.2 249.5 57.7 249.5 55.9z"/></g><g><path class="st1" d="M252.8 446.2c-.4.0-.9-.1-1.3-.3-.4-.2-.8-.4-1.1-.7-.3-.3-.5-.7-.7-1.1-.2-.4-.2-.8-.2-1.3.0-.2.0-.5.1-.7.1-.2.1-.4.2-.6.1-.2.2-.4.3-.6.1-.2.3-.3.4-.5.2-.1.3-.3.5-.4.2-.1.4-.2.6-.3.2-.1.4-.1.6-.2 1.1-.2 2.2.1 3 .9.6.6 1 1.5 1 2.4.0.4-.1.8-.3 1.3-.2.4-.4.7-.7 1.1-.3.3-.7.5-1.1.7C253.7 446.1 253.3 446.2 252.8 446.2z"/></g></g><g><g><path class="st1" d="M271.2 37.7c-.4.0-.9-.1-1.3-.3-.4-.2-.7-.4-1-.7-.3-.3-.5-.7-.7-1.1-.2-.4-.3-.8-.3-1.3.0-.9.4-1.7 1-2.3.2-.2.3-.3.5-.4s.4-.2.5-.3c.2-.1.4-.1.6-.2 1.1-.2 2.2.1 3 .9.6.6 1 1.5 1 2.3.0.4-.1.9-.2 1.3-.2.4-.4.8-.7 1.1C273 37.3 272.1 37.7 271.2 37.7z"/></g><g><path class="st1" d="M267.9 421.4c0-1.8 1.5-3.3 3.3-3.3v0c1.8.0 3.3 1.5 3.3 3.3v0c0 1.8-1.5 3.3-3.3 3.3v0C269.4 424.7 267.9 423.2 267.9 421.4zm0-21.5c0-1.9 1.5-3.3 3.3-3.3v0c1.8.0 3.3 1.5 3.3 3.3v0c0 1.8-1.5 3.3-3.3 3.3v0C269.4 403.2 267.9 401.8 267.9 399.9zm0-21.5c0-1.8 1.5-3.3 3.3-3.3v0c1.8.0 3.3 1.5 3.3 3.3v0c0 1.8-1.5 3.3-3.3 3.3v0C269.4 381.7 267.9 380.2 267.9 378.4zm0-21.5c0-1.8 1.5-3.3 3.3-3.3v0c1.8.0 3.3 1.5 3.3 3.3v0c0 1.8-1.5 3.3-3.3 3.3v0C269.4 360.2 267.9 358.7 267.9 356.9zm0-21.5c0-1.8 1.5-3.3 3.3-3.3v0c1.8.0 3.3 1.5 3.3 3.3v0c0 1.8-1.5 3.3-3.3 3.3v0C269.4 338.7 267.9 337.2 267.9 335.4zm0-21.5c0-1.8 1.5-3.3 3.3-3.3v0c1.8.0 3.3 1.5 3.3 3.3v0c0 1.8-1.5 3.3-3.3 3.3v0C269.4 317.2 267.9 315.7 267.9 313.9zm0-21.5c0-1.8 1.5-3.3 3.3-3.3v0c1.8.0 3.3 1.5 3.3 3.3v0c0 1.8-1.5 3.3-3.3 3.3v0C269.4 295.7 267.9 294.2 267.9 292.4zm0-21.5c0-1.8 1.5-3.3 3.3-3.3v0c1.8.0 3.3 1.5 3.3 3.3v0c0 1.8-1.5 3.3-3.3 3.3v0C269.4 274.2 267.9 272.7 267.9 270.9zM267.9 249.4c0-1.8 1.5-3.3 3.3-3.3v0c1.8.0 3.3 1.5 3.3 3.3v0c0 1.8-1.5 3.3-3.3 3.3v0C269.4 252.7 267.9 251.2 267.9 249.4zm0-21.5c0-1.8 1.5-3.3 3.3-3.3v0c1.8.0 3.3 1.5 3.3 3.3v0c0 1.8-1.5 3.3-3.3 3.3v0C269.4 231.2 267.9 229.7 267.9 227.9zm0-21.5c0-1.8 1.5-3.3 3.3-3.3v0c1.8.0 3.3 1.5 3.3 3.3v0c0 1.8-1.5 3.3-3.3 3.3v0C269.4 209.7 267.9 208.2 267.9 206.4zm0-21.5c0-1.8 1.5-3.3 3.3-3.3v0c1.8.0 3.3 1.5 3.3 3.3v0c0 1.8-1.5 3.3-3.3 3.3v0C269.4 188.2 267.9 186.7 267.9 184.9zm0-21.5c0-1.8 1.5-3.3 3.3-3.3v0c1.8.0 3.3 1.5 3.3 3.3v0c0 1.8-1.5 3.3-3.3 3.3v0C269.4 166.7 267.9 165.2 267.9 163.4zm0-21.5c0-1.8 1.5-3.3 3.3-3.3v0c1.8.0 3.3 1.5 3.3 3.3v0c0 1.8-1.5 3.3-3.3 3.3v0C269.4 145.2 267.9 143.7 267.9 141.9zm0-21.5c0-1.8 1.5-3.3 3.3-3.3v0c1.8.0 3.3 1.5 3.3 3.3v0c0 1.8-1.5 3.3-3.3 3.3v0C269.4 123.7 267.9 122.2 267.9 120.4zm0-21.5c0-1.8 1.5-3.3 3.3-3.3v0c1.8.0 3.3 1.5 3.3 3.3v0c0 1.8-1.5 3.3-3.3 3.3v0C269.4 102.2 267.9 100.7 267.9 98.9zm0-21.5c0-1.8 1.5-3.3 3.3-3.3v0c1.8.0 3.3 1.5 3.3 3.3v0c0 1.8-1.5 3.3-3.3 3.3v0C269.4 80.7 267.9 79.2 267.9 77.4zM267.9 55.9c0-1.8 1.5-3.3 3.3-3.3v0c1.8.0 3.3 1.5 3.3 3.3v0c0 1.8-1.5 3.3-3.3 3.3v0C269.4 59.2 267.9 57.7 267.9 55.9z"/></g><g><path class="st1" d="M271.2 446.2c-.4.0-.8-.1-1.3-.3-.4-.2-.7-.4-1-.7-.3-.3-.5-.7-.7-1.1-.2-.4-.3-.8-.3-1.3.0-.2.0-.5.1-.7.0-.2.1-.4.2-.6.1-.2.2-.4.3-.6.1-.2.3-.3.4-.5.2-.1.3-.3.5-.4.2-.1.4-.2.5-.3.2-.1.4-.1.6-.2 1.1-.2 2.2.1 3 .9.6.6 1 1.5 1 2.4.0.4-.1.8-.2 1.3-.2.4-.4.7-.7 1.1-.3.3-.7.5-1.1.7C272.1 446.1 271.7 446.2 271.2 446.2z"/></g></g><g><g><path class="st1" d="M289.7 37.7c-.5.0-.9-.1-1.3-.3-.4-.2-.8-.4-1.1-.7-.3-.3-.5-.7-.7-1.1s-.2-.8-.2-1.3c0-.2.0-.5.0-.7s.1-.4.2-.6c.1-.2.2-.4.3-.5.1-.2.2-.4.4-.5 1.2-1.2 3.5-1.2 4.7.0.6.6 1 1.5 1 2.3.0.4-.1.9-.3 1.3-.2.4-.4.8-.7 1.1C291.4 37.3 290.5 37.7 289.7 37.7z"/></g><g><path class="st1" d="M286.4 421.4c0-1.8 1.5-3.3 3.3-3.3v0c1.8.0 3.3 1.5 3.3 3.3v0c0 1.8-1.5 3.3-3.3 3.3v0C287.9 424.7 286.4 423.2 286.4 421.4zm0-21.5c0-1.9 1.5-3.3 3.3-3.3v0c1.8.0 3.3 1.5 3.3 3.3v0c0 1.8-1.5 3.3-3.3 3.3v0C287.9 403.2 286.4 401.8 286.4 399.9zm0-21.5c0-1.8 1.5-3.3 3.3-3.3v0c1.8.0 3.3 1.5 3.3 3.3v0c0 1.8-1.5 3.3-3.3 3.3v0C287.9 381.7 286.4 380.2 286.4 378.4zm0-21.5c0-1.8 1.5-3.3 3.3-3.3v0c1.8.0 3.3 1.5 3.3 3.3v0c0 1.8-1.5 3.3-3.3 3.3v0C287.9 360.2 286.4 358.7 286.4 356.9zm0-21.5c0-1.8 1.5-3.3 3.3-3.3v0c1.8.0 3.3 1.5 3.3 3.3v0c0 1.8-1.5 3.3-3.3 3.3v0C287.9 338.7 286.4 337.2 286.4 335.4zm0-21.5c0-1.8 1.5-3.3 3.3-3.3v0c1.8.0 3.3 1.5 3.3 3.3v0c0 1.8-1.5 3.3-3.3 3.3v0C287.9 317.2 286.4 315.7 286.4 313.9zm0-21.5c0-1.8 1.5-3.3 3.3-3.3v0c1.8.0 3.3 1.5 3.3 3.3v0c0 1.8-1.5 3.3-3.3 3.3v0C287.9 295.7 286.4 294.2 286.4 292.4zm0-21.5c0-1.8 1.5-3.3 3.3-3.3v0c1.8.0 3.3 1.5 3.3 3.3v0c0 1.8-1.5 3.3-3.3 3.3v0C287.9 274.2 286.4 272.7 286.4 270.9zM286.4 249.4c0-1.8 1.5-3.3 3.3-3.3v0c1.8.0 3.3 1.5 3.3 3.3v0c0 1.8-1.5 3.3-3.3 3.3v0C287.9 252.7 286.4 251.2 286.4 249.4zm0-21.5c0-1.8 1.5-3.3 3.3-3.3v0c1.8.0 3.3 1.5 3.3 3.3v0c0 1.8-1.5 3.3-3.3 3.3v0C287.9 231.2 286.4 229.7 286.4 227.9zm0-21.5c0-1.8 1.5-3.3 3.3-3.3v0c1.8.0 3.3 1.5 3.3 3.3v0c0 1.8-1.5 3.3-3.3 3.3v0C287.9 209.7 286.4 208.2 286.4 206.4zm0-21.5c0-1.8 1.5-3.3 3.3-3.3v0c1.8.0 3.3 1.5 3.3 3.3v0c0 1.8-1.5 3.3-3.3 3.3v0C287.9 188.2 286.4 186.7 286.4 184.9zm0-21.5c0-1.8 1.5-3.3 3.3-3.3v0c1.8.0 3.3 1.5 3.3 3.3v0c0 1.8-1.5 3.3-3.3 3.3v0C287.9 166.7 286.4 165.2 286.4 163.4zm0-21.5c0-1.8 1.5-3.3 3.3-3.3v0c1.8.0 3.3 1.5 3.3 3.3v0c0 1.8-1.5 3.3-3.3 3.3v0C287.9 145.2 286.4 143.7 286.4 141.9zm0-21.5c0-1.8 1.5-3.3 3.3-3.3v0c1.8.0 3.3 1.5 3.3 3.3v0c0 1.8-1.5 3.3-3.3 3.3v0C287.9 123.7 286.4 122.2 286.4 120.4zm0-21.5c0-1.8 1.5-3.3 3.3-3.3v0c1.8.0 3.3 1.5 3.3 3.3v0c0 1.8-1.5 3.3-3.3 3.3v0C287.9 102.2 286.4 100.7 286.4 98.9zm0-21.5c0-1.8 1.5-3.3 3.3-3.3v0c1.8.0 3.3 1.5 3.3 3.3v0c0 1.8-1.5 3.3-3.3 3.3v0C287.9 80.7 286.4 79.2 286.4 77.4zM286.4 55.9c0-1.8 1.5-3.3 3.3-3.3v0c1.8.0 3.3 1.5 3.3 3.3v0c0 1.8-1.5 3.3-3.3 3.3v0C287.9 59.2 286.4 57.7 286.4 55.9z"/></g><g><path class="st1" d="M289.7 446.2c-.9.0-1.7-.4-2.4-1-.3-.3-.5-.7-.7-1.1-.2-.4-.2-.8-.2-1.3.0-.2.0-.5.0-.7s.1-.4.2-.6c.1-.2.2-.4.3-.6.1-.2.2-.3.4-.5.2-.1.3-.3.5-.4.2-.1.4-.2.6-.3.2-.1.4-.1.6-.2.4-.1.9-.1 1.3.0.2.0.4.1.6.2.2.1.4.2.6.3.2.1.3.3.5.4.2.2.3.3.4.5.1.2.2.4.3.6.1.2.2.4.2.6.0.2.1.5.1.7.0.4-.1.8-.3 1.3-.2.4-.4.7-.7 1.1-.3.3-.7.5-1.1.7C290.5 446.1 290.1 446.2 289.7 446.2z"/></g></g></g><g><g><path class="st2" d="M600.1 306.6 576 286.3 551.8 306.6 525.6 284.5 529.8 279.5l22 18.5L576 277.7 600.1 298 624.2 277.7 648.3 298 672.5 277.7 698.7 299.8 694.5 304.9 672.5 286.3 648.3 306.6 624.2 286.3z"/></g><g><path class="st2" d="M600.1 274.9 576 254.6 551.8 274.9 525.6 252.8 529.8 247.8l22 18.5L576 246 600.1 266.3 624.2 246 648.3 266.3 672.5 246 698.7 268.1 694.5 273.1 672.5 254.6 648.3 274.9 624.2 254.6z"/></g></g><g class="st3"><g><path class="st1" d="M738.3 32.9c3 6.1 7 11.4 11.7 15.7v-1.4c-4.4-4.1-8.1-9-10.8-14.7-2.6-5.3-4.5-11.3-5.7-17.6C732.6 10 732.2 5 732.1.0h-1c0 5.1.5 10.1 1.4 14.9C733.7 21.4 735.7 27.4 738.3 32.9z"/><path class="st1" d="M708.7 24.1c1.4 7.7 3.8 14.8 6.9 21.3 7.3 15 19.8 25.8 34.4 30.3v-1.2c-14.2-4.6-26.4-15.1-33.5-29.7-3.1-6.3-5.4-13.4-6.8-21-1.4-7.7-2-15.7-1.6-23.9h-1C706.7 8.2 707.3 16.4 708.7 24.1z"/><path class="st1" d="M685 33.3c1.7 8.9 4.4 17.2 8 24.6 11.3 23.1 33.2 37.5 57 38v-1.1c-23.5-.5-45-14.6-56.1-37.4-3.6-7.3-6.2-15.5-7.9-24.3-2-10.6-2.5-21.8-1.6-33h-1C682.4 11.3 682.9 22.6 685 33.3z"/><path class="st1" d="M661.2 42.4c1.9 10.1 5 19.5 9.1 28 14.2 28.9 42.8 45.7 72.9 42.8 2.3-.2 4.5-.6 6.7-1V111c-2.3.5-4.5.8-6.8 1.1-29.8 2.9-58-13.7-72-42.2-4.1-8.3-7.1-17.6-9-27.7-2.6-13.5-3.1-27.9-1.5-42.2h-1C658.1 14.2 658.5 28.7 661.2 42.4z"/><path class="st1" d="M637.4 51.6c2.2 11.3 5.6 21.9 10.3 31.3 15.9 32.4 48 51.2 81.7 47.9 7.1-.7 14-2.5 20.6-5v-1.2c-6.7 2.5-13.6 4.3-20.7 5-33.3 3.2-65-15.3-80.7-47.4-4.6-9.3-8-19.8-10.2-31-3.2-16.4-3.6-34.1-1.2-51.4h-.9C633.8 17.3 634.2 34.9 637.4 51.6z"/><path class="st1" d="M613.6 60.8C616 73.3 619.9 85 625 95.4c17.6 35.9 53.1 56.7 90.4 53 12.1-1.2 23.5-5.3 34.5-10.4v-1.2c-11.1 5.1-22.6 9.3-34.6 10.5-36.9 3.6-72-16.9-89.5-52.5-5.1-10.4-8.9-21.9-11.3-34.4-3.7-19.4-4-40.2-.9-60.5h-.9C609.6 20.3 609.8 41.1 613.6 60.8z"/><path class="st1" d="M589.8 69.9c2.7 13.8 6.9 26.5 12.5 38 17.9 36.4 52.4 58.6 89.8 58.6 3.1.0 6.2-.2 9.4-.5 17.1-1.7 33.1-8.8 48.4-16.6v-1.2c-15.4 7.9-31.4 15-48.5 16.7-40.5 4-79-18.6-98.2-57.6-5.6-11.4-9.8-24-12.4-37.7-4.3-22.3-4.5-46.4-.6-69.7h-.9C585.4 23.2 585.4 47.3 589.8 69.9z"/><path class="st1" d="M566.1 79.1c2.9 15 7.5 28.9 13.7 41.3 19.5 39.6 57.1 63.8 97.7 63.8 3.4.0 6.8-.2 10.2-.5 22.2-2.2 42.6-12.8 62.3-23.1v-1.2c-19.8 10.4-40.2 21-62.4 23.2-44.1 4.4-86-20.2-107-62.7-6.1-12.3-10.7-26.2-13.6-41-4.9-25.2-4.7-52.5.2-78.9H566C561.2 26.2 561.1 53.5 566.1 79.1z"/><path class="st1" d="M542.3 88.3c3.2 16.2 8.1 31.2 14.8 44.7 21.1 42.8 61.7 68.9 105.6 68.9 3.7.0 7.4-.2 11.1-.6 24.5-2.5 47-14.3 68.7-25.8 2.5-1.3 5-2.6 7.5-3.9v-1.2c-2.7 1.4-5.3 2.8-8 4.2-21.6 11.4-44 23.2-68.4 25.7-47.6 4.8-93.1-21.8-115.7-67.8-6.6-13.4-11.5-28.3-14.7-44.4-5.5-28.2-5.2-58.7.7-88h-1.3C537 29.2 536.7 59.7 542.3 88.3z"
			/><path class="st1" d="M518.5 97.4c3.4 17.4 8.8 33.5 15.9 48 22.7 46 66.3 74.1 113.4 74.1 4 0 8-.2 12-.6 26.4-2.7 50.6-15.4 74-27.8 5.4-2.8 10.8-5.7 16.2-8.4v-1.2c-5.6 2.8-11.1 5.7-16.6 8.6-23.3 12.3-47.4 25-73.6 27.7-51.2 5.2-100.1-23.4-124.5-72.9-7.1-14.4-12.4-30.4-15.8-47.7-6.1-31.1-5.6-64.9 1.2-97.2h-1.3C512.8 32.2 512.3 65.9 518.5 97.4z"/><path class="st1" d="M494.7 106.6c3.6 18.6 9.4 35.9 17 51.4 24.3 49.2 70.9 79.2 121.3 79.2 4.3.0 8.6-.2 12.9-.7 28.2-2.9 54.1-16.6 79.1-29.8 8.2-4.3 16.5-8.7 24.9-12.7v-1.2c-8.6 4.1-17 8.5-25.4 12.9-24.9 13.2-50.7 26.8-78.8 29.7-54.8 5.6-107.1-25-133.2-78-7.6-15.4-13.3-32.6-16.9-51.1-6.7-34.1-6-71.1 1.7-106.3H496C488.6 35.1 488 72.1 494.7 106.6z"
			/><path class="st1" d="M471 115.7c3.9 19.8 10 38.2 18.1 54.7 25.9 52.4 75.5 84.4 129.2 84.4 4.6.0 9.2-.2 13.8-.7 30.1-3.1 57.6-17.7 84.3-31.8 11-5.9 22.2-11.8 33.7-16.9v-1.2c-11.6 5.2-22.9 11.2-34.1 17.1-26.6 14.1-54.1 28.6-84 31.7-58.4 6-114.1-26.6-142-83.1-8.1-16.4-14.2-34.7-18-54.4-7.3-37-6.4-77.3 2.2-115.5h-1.3C464.4 38.1 463.6 78.3 471 115.7z"/><path class="st1" d="M447.2 124.9c4.1 21 10.6 40.5 19.3 58.1 27.5 55.6 80.2 89.5 137 89.5 4.9.0 9.8-.2 14.7-.8 31.9-3.3 61.2-18.8 89.5-33.8 13.9-7.4 27.9-14.8 42.4-20.9v-1.2c-14.6 6.1-28.8 13.6-42.8 21.1-28.2 15-57.4 30.5-89.1 33.7-61.9 6.4-121.1-28.3-150.7-88.2-8.6-17.4-15.1-36.9-19.2-57.8-7.9-39.9-6.8-83.5 2.8-124.6h-1.3C440.2 41 439.2 84.5 447.2 124.9z"/><path class="st1" d="M443.8 195.5c29.1 58.8 84.8 94.7 144.9 94.7 5.1.0 10.3-.3 15.5-.8 33.8-3.5 64.7-19.9 94.6-35.8 16.7-8.9 33.6-17.9 51.1-24.6v-1.2c-17.7 6.8-34.8 15.9-51.6 24.8-29.8 15.9-60.7 32.3-94.3 35.7-65.5 6.7-128.1-29.9-159.5-93.3-27.1-54.8-33-127.7-17.2-194.9h-1C410.7 67.4 416.6 140.5 443.8 195.5z"/></g></g><g><g><path class="st4" d="M505.9 98.9H493.2V86.2h-12V98.9H468.5v12H481.2V123.7h12V110.9H505.9z"/><path class="st4" d="M505.9 195.7H493.2V183h-12V195.7H468.5v12H481.2V220.4h12V207.7H505.9z"/><path class="st4" d="M505.9 292.5H493.2V279.8h-12V292.5H468.5v12H481.2V317.2h12V304.5H505.9z"/><path class="st4" d="M587.4 98.9H574.7V86.2h-12V98.9H550v12H562.7V123.7h12V110.9H587.4z"/><path class="st4" d="M587.4 195.7H574.7V183h-12V195.7H550v12H562.7V220.4h12V207.7H587.4z"/></g></g></svg>