<svg id="Layer_4" xmlns="http://www.w3.org/2000/svg" xmlns:xlink="http://www.w3.org/1999/xlink" viewBox="0 0 500 400" style="enable-background:new 0 0 500 400"><style>.st0{fill:#02cbd8}.st1{fill:#a6f9fa}</style><g><g><g><path class="st0" d="M76.13 9.2c-.4.0-.77-.07-1.12-.23-.35-.14-.67-.35-.95-.63-.26-.26-.46-.58-.63-.93-.14-.35-.21-.74-.21-1.11.0-.77.3-1.51.84-2.05.14-.14.3-.25.47-.37.14-.12.33-.19.49-.28.19-.07.37-.12.56-.16.37-.07.74-.07 1.12.0.19.05.37.09.56.16.16.09.35.16.49.28.16.12.33.23.44.37.56.54.86 1.28.86 2.05.0.37-.07.77-.21 1.11-.16.35-.37.67-.65.93C77.64 8.89 76.9 9.2 76.13 9.2z"/></g><g><path class="st0" d="M73.23 347.6c0-1.61 1.3-2.91 2.91-2.91v0c1.6.0 2.91 1.3 2.91 2.91v0c0 1.6-1.3 2.91-2.91 2.91v0C74.53 350.51 73.23 349.21 73.23 347.6zM73.23 328.65c0-1.63 1.3-2.91 2.91-2.91v0c1.6.0 2.91 1.28 2.91 2.91v0c0 1.61-1.3 2.91-2.91 2.91v0C74.53 331.56 73.23 330.26 73.23 328.65zM73.23 309.68c0-1.6 1.3-2.91 2.91-2.91v0c1.6.0 2.91 1.3 2.91 2.91v0c0 1.61-1.3 2.91-2.91 2.91v0C74.53 312.59 73.23 311.29 73.23 309.68zM73.23 290.71c0-1.6 1.3-2.91 2.91-2.91v0c1.6.0 2.91 1.3 2.91 2.91v0c0 1.61-1.3 2.91-2.91 2.91v0C74.53 293.62 73.23 292.31 73.23 290.71zM73.23 271.76c0-1.61 1.3-2.91 2.91-2.91v0c1.6.0 2.91 1.3 2.91 2.91v0c0 1.6-1.3 2.91-2.91 2.91v0C74.53 274.67 73.23 273.36 73.23 271.76zm0-18.97c0-1.61 1.3-2.91 2.91-2.91v0c1.6.0 2.91 1.3 2.91 2.91v0c0 1.61-1.3 2.91-2.91 2.91v0C74.53 255.69 73.23 254.39 73.23 252.79zM73.23 233.84c0-1.6 1.3-2.91 2.91-2.91v0c1.6.0 2.91 1.3 2.91 2.91v0c0 1.61-1.3 2.91-2.91 2.91v0C74.53 236.74 73.23 235.44 73.23 233.84zm0-18.97c0-1.61 1.3-2.91 2.91-2.91v0c1.6.0 2.91 1.3 2.91 2.91v0c0 1.6-1.3 2.91-2.91 2.91v0C74.53 217.77 73.23 216.47 73.23 214.87zM73.23 195.92c0-1.61 1.3-2.91 2.91-2.91v0c1.6.0 2.91 1.3 2.91 2.91v0c0 1.61-1.3 2.91-2.91 2.91v0C74.53 198.82 73.23 197.52 73.23 195.92zm0-18.97c0-1.6 1.3-2.91 2.91-2.91v0c1.6.0 2.91 1.3 2.91 2.91v0c0 1.61-1.3 2.91-2.91 2.91v0C74.53 179.85 73.23 178.55 73.23 176.95zM73.23 157.97c0-1.6 1.3-2.91 2.91-2.91v0c1.6.0 2.91 1.3 2.91 2.91v0c0 1.61-1.3 2.91-2.91 2.91v0C74.53 160.88 73.23 159.58 73.23 157.97zM73.23 139.03c0-1.61 1.3-2.91 2.91-2.91v0c1.6.0 2.91 1.3 2.91 2.91v0c0 1.6-1.3 2.91-2.91 2.91v0C74.53 141.93 73.23 140.63 73.23 139.03zM73.23 120.05c0-1.61 1.3-2.91 2.91-2.91v0c1.6.0 2.91 1.3 2.91 2.91v0c0 1.6-1.3 2.91-2.91 2.91v0C74.53 122.96 73.23 121.66 73.23 120.05zM73.23 101.1c0-1.6 1.3-2.91 2.91-2.91v0c1.6.0 2.91 1.3 2.91 2.91v0c0 1.61-1.3 2.91-2.91 2.91v0C74.53 104.01 73.23 102.71 73.23 101.1zm0-18.97c0-1.6 1.3-2.91 2.91-2.91v0c1.6.0 2.91 1.3 2.91 2.91v0c0 1.61-1.3 2.91-2.91 2.91v0C74.53 85.04 73.23 83.74 73.23 82.13zm0-18.97c0-1.58 1.3-2.91 2.91-2.91v0c1.6.0 2.91 1.32 2.91 2.91v0c0 1.63-1.3 2.91-2.91 2.91v0C74.53 66.07 73.23 64.79 73.23 63.16zM73.23 44.21c0-1.61 1.3-2.91 2.91-2.91v0c1.6.0 2.91 1.3 2.91 2.91v0c0 1.61-1.3 2.91-2.91 2.91v0C74.53 47.12 73.23 45.81 73.23 44.21zm0-18.95c0-1.63 1.3-2.91 2.91-2.91v0c1.6.0 2.91 1.28 2.91 2.91v0c0 1.58-1.3 2.91-2.91 2.91v0C74.53 28.17 73.23 26.84 73.23 25.26z"/></g><g><path class="st0" d="M76.13 369.48c-.77.0-1.51-.3-2.05-.86-.56-.54-.86-1.28-.86-2.05.0-.19.02-.4.07-.58.02-.19.09-.37.16-.54.07-.19.16-.35.26-.51.12-.14.23-.3.37-.44.67-.67 1.67-.98 2.6-.79.19.05.37.09.56.16.16.07.35.16.49.28.16.09.33.23.47.35.12.14.23.3.35.44.09.16.19.32.26.51.09.16.14.35.19.54.02.18.05.4.05.58.0.37-.07.74-.21 1.11-.16.35-.37.65-.63.93C77.64 369.18 76.9 369.48 76.13 369.48z"/></g></g><g><g><path class="st0" d="M92.36 9.2c-.37.0-.74-.07-1.09-.23-.37-.14-.67-.35-.95-.63-.28-.26-.49-.58-.63-.93-.14-.37-.23-.74-.23-1.11.0-.77.33-1.51.86-2.05.14-.14.28-.25.44-.37.16-.12.33-.19.51-.28.16-.07.35-.12.53-.16.37-.07.77-.07 1.14.0.19.05.37.09.53.16.19.09.35.16.51.28.16.12.3.23.44.37.53.54.84 1.28.84 2.05.0.37-.07.77-.21 1.11-.14.35-.35.67-.63.93C93.87 8.89 93.15 9.2 92.36 9.2z"/></g><g><path class="st0" d="M89.45 347.6c0-1.61 1.3-2.91 2.91-2.91v0c1.6.0 2.91 1.3 2.91 2.91v0c0 1.6-1.3 2.91-2.91 2.91v0C90.76 350.51 89.45 349.21 89.45 347.6zM89.45 328.65c0-1.63 1.3-2.91 2.91-2.91v0c1.6.0 2.91 1.28 2.91 2.91v0c0 1.61-1.3 2.91-2.91 2.91v0C90.76 331.56 89.45 330.26 89.45 328.65zM89.45 309.68c0-1.6 1.3-2.91 2.91-2.91v0c1.6.0 2.91 1.3 2.91 2.91v0c0 1.61-1.3 2.91-2.91 2.91v0C90.76 312.59 89.45 311.29 89.45 309.68zM89.45 290.71c0-1.6 1.3-2.91 2.91-2.91v0c1.6.0 2.91 1.3 2.91 2.91v0c0 1.61-1.3 2.91-2.91 2.91v0C90.76 293.62 89.45 292.31 89.45 290.71zM89.45 271.76c0-1.61 1.3-2.91 2.91-2.91v0c1.6.0 2.91 1.3 2.91 2.91v0c0 1.6-1.3 2.91-2.91 2.91v0C90.76 274.67 89.45 273.36 89.45 271.76zm0-18.97c0-1.61 1.3-2.91 2.91-2.91v0c1.6.0 2.91 1.3 2.91 2.91v0c0 1.61-1.3 2.91-2.91 2.91v0C90.76 255.69 89.45 254.39 89.45 252.79zM89.45 233.84c0-1.6 1.3-2.91 2.91-2.91v0c1.6.0 2.91 1.3 2.91 2.91v0c0 1.61-1.3 2.91-2.91 2.91v0C90.76 236.74 89.45 235.44 89.45 233.84zm0-18.97c0-1.61 1.3-2.91 2.91-2.91v0c1.6.0 2.91 1.3 2.91 2.91v0c0 1.6-1.3 2.91-2.91 2.91v0C90.76 217.77 89.45 216.47 89.45 214.87zM89.45 195.92c0-1.61 1.3-2.91 2.91-2.91v0c1.6.0 2.91 1.3 2.91 2.91v0c0 1.61-1.3 2.91-2.91 2.91v0C90.76 198.82 89.45 197.52 89.45 195.92zm0-18.97c0-1.6 1.3-2.91 2.91-2.91v0c1.6.0 2.91 1.3 2.91 2.91v0c0 1.61-1.3 2.91-2.91 2.91v0C90.76 179.85 89.45 178.55 89.45 176.95zM89.45 157.97c0-1.6 1.3-2.91 2.91-2.91v0c1.6.0 2.91 1.3 2.91 2.91v0c0 1.61-1.3 2.91-2.91 2.91v0C90.76 160.88 89.45 159.58 89.45 157.97zM89.45 139.03c0-1.61 1.3-2.91 2.91-2.91v0c1.6.0 2.91 1.3 2.91 2.91v0c0 1.6-1.3 2.91-2.91 2.91v0C90.76 141.93 89.45 140.63 89.45 139.03zM89.45 120.05c0-1.61 1.3-2.91 2.91-2.91v0c1.6.0 2.91 1.3 2.91 2.91v0c0 1.6-1.3 2.91-2.91 2.91v0C90.76 122.96 89.45 121.66 89.45 120.05zM89.45 101.1c0-1.6 1.3-2.91 2.91-2.91v0c1.6.0 2.91 1.3 2.91 2.91v0c0 1.61-1.3 2.91-2.91 2.91v0C90.76 104.01 89.45 102.71 89.45 101.1zm0-18.97c0-1.6 1.3-2.91 2.91-2.91v0c1.6.0 2.91 1.3 2.91 2.91v0c0 1.61-1.3 2.91-2.91 2.91v0C90.76 85.04 89.45 83.74 89.45 82.13zm0-18.97c0-1.58 1.3-2.91 2.91-2.91v0c1.6.0 2.91 1.32 2.91 2.91v0c0 1.63-1.3 2.91-2.91 2.91v0C90.76 66.07 89.45 64.79 89.45 63.16zM89.45 44.21c0-1.61 1.3-2.91 2.91-2.91v0c1.6.0 2.91 1.3 2.91 2.91v0c0 1.61-1.3 2.91-2.91 2.91v0C90.76 47.12 89.45 45.81 89.45 44.21zm0-18.95c0-1.63 1.3-2.91 2.91-2.91v0c1.6.0 2.91 1.28 2.91 2.91v0c0 1.58-1.3 2.91-2.91 2.91v0C90.76 28.17 89.45 26.84 89.45 25.26z"/></g><g><path class="st0" d="M92.36 369.48c-.37.0-.74-.07-1.12-.23-.35-.14-.65-.35-.93-.63-.28-.28-.49-.58-.63-.93-.16-.37-.23-.74-.23-1.11.0-.77.33-1.54.86-2.07.14-.12.28-.25.44-.35.16-.12.33-.21.49-.28.19-.07.37-.12.56-.16.93-.19 1.93.12 2.63.79.53.54.84 1.3.84 2.07.0.37-.07.74-.21 1.11-.14.35-.37.65-.63.93-.28.28-.61.49-.95.63C93.13 369.41 92.76 369.48 92.36 369.48z"/></g></g><g><g><path class="st0" d="M108.61 9.2c-.4.0-.77-.07-1.12-.23-.35-.14-.67-.35-.95-.63-.26-.26-.47-.58-.63-.93-.14-.35-.21-.74-.21-1.11.0-.19.02-.4.05-.58.05-.19.09-.35.16-.54.07-.16.16-.35.28-.49.09-.16.23-.32.35-.44 1.09-1.09 3.05-1.09 4.12.0.53.54.86 1.28.86 2.05.0.37-.07.77-.23 1.11-.14.35-.35.67-.63.93C110.12 8.89 109.38 9.2 108.61 9.2z"/></g><g><path class="st0" d="M105.71 347.6c0-1.61 1.3-2.91 2.91-2.91v0c1.6.0 2.91 1.3 2.91 2.91v0c0 1.6-1.3 2.91-2.91 2.91v0C107.01 350.51 105.71 349.21 105.71 347.6zM105.71 328.65c0-1.63 1.3-2.91 2.91-2.91v0c1.6.0 2.91 1.28 2.91 2.91v0c0 1.61-1.3 2.91-2.91 2.91v0C107.01 331.56 105.71 330.26 105.71 328.65zM105.71 309.68c0-1.6 1.3-2.91 2.91-2.91v0c1.6.0 2.91 1.3 2.91 2.91v0c0 1.61-1.3 2.91-2.91 2.91v0C107.01 312.59 105.71 311.29 105.71 309.68zM105.71 290.71c0-1.6 1.3-2.91 2.91-2.91v0c1.6.0 2.91 1.3 2.91 2.91v0c0 1.61-1.3 2.91-2.91 2.91v0C107.01 293.62 105.71 292.31 105.71 290.71zM105.71 271.76c0-1.61 1.3-2.91 2.91-2.91v0c1.6.0 2.91 1.3 2.91 2.91v0c0 1.6-1.3 2.91-2.91 2.91v0C107.01 274.67 105.71 273.36 105.71 271.76zm0-18.97c0-1.61 1.3-2.91 2.91-2.91v0c1.6.0 2.91 1.3 2.91 2.91v0c0 1.61-1.3 2.91-2.91 2.91v0C107.01 255.69 105.71 254.39 105.71 252.79zM105.71 233.84c0-1.6 1.3-2.91 2.91-2.91v0c1.6.0 2.91 1.3 2.91 2.91v0c0 1.61-1.3 2.91-2.91 2.91v0C107.01 236.74 105.71 235.44 105.71 233.84zm0-18.97c0-1.61 1.3-2.91 2.91-2.91v0c1.6.0 2.91 1.3 2.91 2.91v0c0 1.6-1.3 2.91-2.91 2.91v0C107.01 217.77 105.71 216.47 105.71 214.87zM105.71 195.92c0-1.61 1.3-2.91 2.91-2.91v0c1.6.0 2.91 1.3 2.91 2.91v0c0 1.61-1.3 2.91-2.91 2.91v0C107.01 198.82 105.71 197.52 105.71 195.92zm0-18.97c0-1.6 1.3-2.91 2.91-2.91v0c1.6.0 2.91 1.3 2.91 2.91v0c0 1.61-1.3 2.91-2.91 2.91v0C107.01 179.85 105.71 178.55 105.71 176.95zM105.71 157.97c0-1.6 1.3-2.91 2.91-2.91v0c1.6.0 2.91 1.3 2.91 2.91v0c0 1.61-1.3 2.91-2.91 2.91v0C107.01 160.88 105.71 159.58 105.71 157.97zM105.71 139.03c0-1.61 1.3-2.91 2.91-2.91v0c1.6.0 2.91 1.3 2.91 2.91v0c0 1.6-1.3 2.91-2.91 2.91v0C107.01 141.93 105.71 140.63 105.71 139.03zM105.71 120.05c0-1.61 1.3-2.91 2.91-2.91v0c1.6.0 2.91 1.3 2.91 2.91v0c0 1.6-1.3 2.91-2.91 2.91v0C107.01 122.96 105.71 121.66 105.71 120.05zM105.71 101.1c0-1.6 1.3-2.91 2.91-2.91v0c1.6.0 2.91 1.3 2.91 2.91v0c0 1.61-1.3 2.91-2.91 2.91v0C107.01 104.01 105.71 102.71 105.71 101.1zm0-18.97c0-1.6 1.3-2.91 2.91-2.91v0c1.6.0 2.91 1.3 2.91 2.91v0c0 1.61-1.3 2.91-2.91 2.91v0C107.01 85.04 105.71 83.74 105.71 82.13zm0-18.97c0-1.58 1.3-2.91 2.91-2.91v0c1.6.0 2.91 1.32 2.91 2.91v0c0 1.63-1.3 2.91-2.91 2.91v0C107.01 66.07 105.71 64.79 105.71 63.16zM105.71 44.21c0-1.61 1.3-2.91 2.91-2.91v0c1.6.0 2.91 1.3 2.91 2.91v0c0 1.61-1.3 2.91-2.91 2.91v0C107.01 47.12 105.71 45.81 105.71 44.21zm0-18.95c0-1.63 1.3-2.91 2.91-2.91v0c1.6.0 2.91 1.28 2.91 2.91v0c0 1.58-1.3 2.91-2.91 2.91v0C107.01 28.17 105.71 26.84 105.71 25.26z"/></g><g><path class="st0" d="M108.61 369.48c-.4.0-.77-.07-1.12-.23-.35-.14-.67-.35-.95-.63-.26-.28-.49-.58-.63-.93-.14-.37-.21-.74-.21-1.11.0-.77.3-1.54.84-2.07.14-.12.28-.25.44-.35.16-.12.33-.21.51-.28.16-.07.35-.12.53-.16.93-.19 1.95.12 2.63.79.53.54.86 1.3.86 2.07.0.37-.07.74-.23 1.11-.14.35-.35.65-.63.93-.28.28-.58.49-.93.63C109.36 369.41 108.98 369.48 108.61 369.48z"/></g></g><g><g><path class="st0" d="M124.84 9.2c-.4.0-.77-.07-1.12-.23-.35-.14-.67-.35-.93-.63-.28-.26-.49-.58-.63-.93-.16-.35-.23-.74-.23-1.11.0-.77.3-1.51.86-2.05.12-.14.28-.25.44-.37.14-.12.32-.19.49-.28.19-.07.37-.12.56-.16.37-.07.74-.07 1.12.0.19.05.37.09.56.16.16.09.35.16.49.28.16.12.33.23.46.37.53.54.84 1.28.84 2.05.0.37-.07.77-.21 1.11-.16.35-.37.67-.63.93C126.35 8.89 125.63 9.2 124.84 9.2z"/></g><g><path class="st0" d="M121.94 347.6c0-1.61 1.3-2.91 2.91-2.91v0c1.6.0 2.91 1.3 2.91 2.91v0c0 1.6-1.3 2.91-2.91 2.91v0C123.24 350.51 121.94 349.21 121.94 347.6zM121.94 328.65c0-1.63 1.3-2.91 2.91-2.91v0c1.6.0 2.91 1.28 2.91 2.91v0c0 1.61-1.3 2.91-2.91 2.91v0C123.24 331.56 121.94 330.26 121.94 328.65zM121.94 309.68c0-1.6 1.3-2.91 2.91-2.91v0c1.6.0 2.91 1.3 2.91 2.91v0c0 1.61-1.3 2.91-2.91 2.91v0C123.24 312.59 121.94 311.29 121.94 309.68zM121.94 290.71c0-1.6 1.3-2.91 2.91-2.91v0c1.6.0 2.91 1.3 2.91 2.91v0c0 1.61-1.3 2.91-2.91 2.91v0C123.24 293.62 121.94 292.31 121.94 290.71zM121.94 271.76c0-1.61 1.3-2.91 2.91-2.91v0c1.6.0 2.91 1.3 2.91 2.91v0c0 1.6-1.3 2.91-2.91 2.91v0C123.24 274.67 121.94 273.36 121.94 271.76zm0-18.97c0-1.61 1.3-2.91 2.91-2.91v0c1.6.0 2.91 1.3 2.91 2.91v0c0 1.61-1.3 2.91-2.91 2.91v0C123.24 255.69 121.94 254.39 121.94 252.79zM121.94 233.84c0-1.6 1.3-2.91 2.91-2.91v0c1.6.0 2.91 1.3 2.91 2.91v0c0 1.61-1.3 2.91-2.91 2.91v0C123.24 236.74 121.94 235.44 121.94 233.84zm0-18.97c0-1.61 1.3-2.91 2.91-2.91v0c1.6.0 2.91 1.3 2.91 2.91v0c0 1.6-1.3 2.91-2.91 2.91v0C123.24 217.77 121.94 216.47 121.94 214.87zM121.94 195.92c0-1.61 1.3-2.91 2.91-2.91v0c1.6.0 2.91 1.3 2.91 2.91v0c0 1.61-1.3 2.91-2.91 2.91v0C123.24 198.82 121.94 197.52 121.94 195.92zm0-18.97c0-1.6 1.3-2.91 2.91-2.91v0c1.6.0 2.91 1.3 2.91 2.91v0c0 1.61-1.3 2.91-2.91 2.91v0C123.24 179.85 121.94 178.55 121.94 176.95zM121.94 157.97c0-1.6 1.3-2.91 2.91-2.91v0c1.6.0 2.91 1.3 2.91 2.91v0c0 1.61-1.3 2.91-2.91 2.91v0C123.24 160.88 121.94 159.58 121.94 157.97zM121.94 139.03c0-1.61 1.3-2.91 2.91-2.91v0c1.6.0 2.91 1.3 2.91 2.91v0c0 1.6-1.3 2.91-2.91 2.91v0C123.24 141.93 121.94 140.63 121.94 139.03zM121.94 120.05c0-1.61 1.3-2.91 2.91-2.91v0c1.6.0 2.91 1.3 2.91 2.91v0c0 1.6-1.3 2.91-2.91 2.91v0C123.24 122.96 121.94 121.66 121.94 120.05zM121.94 101.1c0-1.6 1.3-2.91 2.91-2.91v0c1.6.0 2.91 1.3 2.91 2.91v0c0 1.61-1.3 2.91-2.91 2.91v0C123.24 104.01 121.94 102.71 121.94 101.1zm0-18.97c0-1.6 1.3-2.91 2.91-2.91v0c1.6.0 2.91 1.3 2.91 2.91v0c0 1.61-1.3 2.91-2.91 2.91v0C123.24 85.04 121.94 83.74 121.94 82.13zm0-18.97c0-1.58 1.3-2.91 2.91-2.91v0c1.6.0 2.91 1.32 2.91 2.91v0c0 1.63-1.3 2.91-2.91 2.91v0C123.24 66.07 121.94 64.79 121.94 63.16zM121.94 44.21c0-1.61 1.3-2.91 2.91-2.91v0c1.6.0 2.91 1.3 2.91 2.91v0c0 1.61-1.3 2.91-2.91 2.91v0C123.24 47.12 121.94 45.81 121.94 44.21zm0-18.95c0-1.63 1.3-2.91 2.91-2.91v0c1.6.0 2.91 1.28 2.91 2.91v0c0 1.58-1.3 2.91-2.91 2.91v0C123.24 28.17 121.94 26.84 121.94 25.26z"/></g><g><path class="st0" d="M124.84 369.48c-.77.0-1.51-.3-2.05-.86-.28-.28-.49-.58-.63-.93-.16-.37-.23-.74-.23-1.11.0-.77.3-1.54.86-2.07.67-.67 1.67-.98 2.6-.79.19.05.37.09.56.16.16.07.35.16.49.28.16.09.33.23.44.35.14.14.26.3.37.44.09.16.19.32.26.51.09.16.14.35.19.54.02.18.05.4.05.58.0.37-.07.74-.21 1.11-.16.35-.37.65-.65.93C126.35 369.18 125.61 369.48 124.84 369.48z"/></g></g><g><g><path class="st0" d="M141.07 9.2c-.77.0-1.51-.3-2.05-.86-.28-.26-.49-.58-.63-.93-.14-.37-.23-.74-.23-1.11.0-.77.32-1.51.86-2.05.14-.14.28-.25.44-.37.16-.12.32-.19.51-.28.16-.07.35-.12.53-.16.37-.07.77-.07 1.14.0.19.05.37.09.53.16.19.09.35.16.51.28.16.12.3.23.44.37.53.54.84 1.28.84 2.05.0.37-.07.74-.21 1.11-.14.35-.37.67-.63.93-.28.28-.6.49-.95.63C141.84 9.12 141.47 9.2 141.07 9.2z"/></g><g><path class="st0" d="M138.16 347.6c0-1.61 1.3-2.91 2.91-2.91v0c1.6.0 2.91 1.3 2.91 2.91v0c0 1.6-1.3 2.91-2.91 2.91v0C139.47 350.51 138.16 349.21 138.16 347.6zM138.16 328.65c0-1.63 1.3-2.91 2.91-2.91v0c1.6.0 2.91 1.28 2.91 2.91v0c0 1.61-1.3 2.91-2.91 2.91v0C139.47 331.56 138.16 330.26 138.16 328.65zM138.16 309.68c0-1.6 1.3-2.91 2.91-2.91v0c1.6.0 2.91 1.3 2.91 2.91v0c0 1.61-1.3 2.91-2.91 2.91v0C139.47 312.59 138.16 311.29 138.16 309.68zM138.16 290.71c0-1.6 1.3-2.91 2.91-2.91v0c1.6.0 2.91 1.3 2.91 2.91v0c0 1.61-1.3 2.91-2.91 2.91v0C139.47 293.62 138.16 292.31 138.16 290.71zM138.16 271.76c0-1.61 1.3-2.91 2.91-2.91v0c1.6.0 2.91 1.3 2.91 2.91v0c0 1.6-1.3 2.91-2.91 2.91v0C139.47 274.67 138.16 273.36 138.16 271.76zm0-18.97c0-1.61 1.3-2.91 2.91-2.91v0c1.6.0 2.91 1.3 2.91 2.91v0c0 1.61-1.3 2.91-2.91 2.91v0C139.47 255.69 138.16 254.39 138.16 252.79zM138.16 233.84c0-1.6 1.3-2.91 2.91-2.91v0c1.6.0 2.91 1.3 2.91 2.91v0c0 1.61-1.3 2.91-2.91 2.91v0C139.47 236.74 138.16 235.44 138.16 233.84zm0-18.97c0-1.61 1.3-2.91 2.91-2.91v0c1.6.0 2.91 1.3 2.91 2.91v0c0 1.6-1.3 2.91-2.91 2.91v0C139.47 217.77 138.16 216.47 138.16 214.87zM138.16 195.92c0-1.61 1.3-2.91 2.91-2.91v0c1.6.0 2.91 1.3 2.91 2.91v0c0 1.61-1.3 2.91-2.91 2.91v0C139.47 198.82 138.16 197.52 138.16 195.92zm0-18.97c0-1.6 1.3-2.91 2.91-2.91v0c1.6.0 2.91 1.3 2.91 2.91v0c0 1.61-1.3 2.91-2.91 2.91v0C139.47 179.85 138.16 178.55 138.16 176.95zM138.16 157.97c0-1.6 1.3-2.91 2.91-2.91v0c1.6.0 2.91 1.3 2.91 2.91v0c0 1.61-1.3 2.91-2.91 2.91v0C139.47 160.88 138.16 159.58 138.16 157.97zM138.16 139.03c0-1.61 1.3-2.91 2.91-2.91v0c1.6.0 2.91 1.3 2.91 2.91v0c0 1.6-1.3 2.91-2.91 2.91v0C139.47 141.93 138.16 140.63 138.16 139.03zM138.16 120.05c0-1.61 1.3-2.91 2.91-2.91v0c1.6.0 2.91 1.3 2.91 2.91v0c0 1.6-1.3 2.91-2.91 2.91v0C139.47 122.96 138.16 121.66 138.16 120.05zM138.16 101.1c0-1.6 1.3-2.91 2.91-2.91v0c1.6.0 2.91 1.3 2.91 2.91v0c0 1.61-1.3 2.91-2.91 2.91v0C139.47 104.01 138.16 102.71 138.16 101.1zm0-18.97c0-1.6 1.3-2.91 2.91-2.91v0c1.6.0 2.91 1.3 2.91 2.91v0c0 1.61-1.3 2.91-2.91 2.91v0C139.47 85.04 138.16 83.74 138.16 82.13zm0-18.97c0-1.58 1.3-2.91 2.91-2.91v0c1.6.0 2.91 1.32 2.91 2.91v0c0 1.63-1.3 2.91-2.91 2.91v0C139.47 66.07 138.16 64.79 138.16 63.16zM138.16 44.21c0-1.61 1.3-2.91 2.91-2.91v0c1.6.0 2.91 1.3 2.91 2.91v0c0 1.61-1.3 2.91-2.91 2.91v0C139.47 47.12 138.16 45.81 138.16 44.21zm0-18.95c0-1.63 1.3-2.91 2.91-2.91v0c1.6.0 2.91 1.28 2.91 2.91v0c0 1.58-1.3 2.91-2.91 2.91v0C139.47 28.17 138.16 26.84 138.16 25.26z"/></g><g><path class="st0" d="M141.07 369.48c-.77.0-1.49-.3-2.05-.86-.28-.28-.49-.58-.63-.93-.14-.37-.23-.74-.23-1.11.0-.19.02-.4.07-.58.02-.19.09-.37.16-.54.07-.19.16-.35.26-.51.12-.14.23-.3.37-.44.67-.67 1.67-.98 2.63-.79.19.05.37.09.53.16.19.07.35.16.51.28.16.09.3.23.44.35.14.14.26.3.35.44.12.16.21.32.28.51.07.16.12.35.16.54.05.18.05.4.05.58.0.37-.07.74-.21 1.11-.14.35-.35.65-.63.93C142.58 369.18 141.86 369.48 141.07 369.48z"/></g></g><g><g><path class="st0" d="M157.32 9.2c-.79.0-1.51-.3-2.07-.86-.26-.26-.47-.58-.63-.93-.14-.35-.21-.74-.21-1.11.0-.19.02-.4.05-.58.05-.19.09-.35.16-.54.09-.16.16-.35.28-.49.09-.16.23-.32.35-.44.14-.14.3-.25.44-.37.16-.12.32-.19.51-.28.16-.07.35-.12.53-.16.95-.19 1.95.12 2.63.81.56.54.86 1.28.86 2.05.0.37-.07.77-.23 1.11-.14.35-.35.67-.63.93C158.83 8.89 158.09 9.2 157.32 9.2z"
				/></g><g><path class="st0" d="M154.42 347.6c0-1.61 1.3-2.91 2.91-2.91v0c1.6.0 2.91 1.3 2.91 2.91v0c0 1.6-1.3 2.91-2.91 2.91v0C155.72 350.51 154.42 349.21 154.42 347.6zM154.42 328.65c0-1.63 1.3-2.91 2.91-2.91v0c1.6.0 2.91 1.28 2.91 2.91v0c0 1.61-1.3 2.91-2.91 2.91v0C155.72 331.56 154.42 330.26 154.42 328.65zM154.42 309.68c0-1.6 1.3-2.91 2.91-2.91v0c1.6.0 2.91 1.3 2.91 2.91v0c0 1.61-1.3 2.91-2.91 2.91v0C155.72 312.59 154.42 311.29 154.42 309.68zM154.42 290.71c0-1.6 1.3-2.91 2.91-2.91v0c1.6.0 2.91 1.3 2.91 2.91v0c0 1.61-1.3 2.91-2.91 2.91v0C155.72 293.62 154.42 292.31 154.42 290.71zM154.42 271.76c0-1.61 1.3-2.91 2.91-2.91v0c1.6.0 2.91 1.3 2.91 2.91v0c0 1.6-1.3 2.91-2.91 2.91v0C155.72 274.67 154.42 273.36 154.42 271.76zm0-18.97c0-1.61 1.3-2.91 2.91-2.91v0c1.6.0 2.91 1.3 2.91 2.91v0c0 1.61-1.3 2.91-2.91 2.91v0C155.72 255.69 154.42 254.39 154.42 252.79zM154.42 233.84c0-1.6 1.3-2.91 2.91-2.91v0c1.6.0 2.91 1.3 2.91 2.91v0c0 1.61-1.3 2.91-2.91 2.91v0C155.72 236.74 154.42 235.44 154.42 233.84zm0-18.97c0-1.61 1.3-2.91 2.91-2.91v0c1.6.0 2.91 1.3 2.91 2.91v0c0 1.6-1.3 2.91-2.91 2.91v0C155.72 217.77 154.42 216.47 154.42 214.87zM154.42 195.92c0-1.61 1.3-2.91 2.91-2.91v0c1.6.0 2.91 1.3 2.91 2.91v0c0 1.61-1.3 2.91-2.91 2.91v0C155.72 198.82 154.42 197.52 154.42 195.92zm0-18.97c0-1.6 1.3-2.91 2.91-2.91v0c1.6.0 2.91 1.3 2.91 2.91v0c0 1.61-1.3 2.91-2.91 2.91v0C155.72 179.85 154.42 178.55 154.42 176.95zM154.42 157.97c0-1.6 1.3-2.91 2.91-2.91v0c1.6.0 2.91 1.3 2.91 2.91v0c0 1.61-1.3 2.91-2.91 2.91v0C155.72 160.88 154.42 159.58 154.42 157.97zM154.42 139.03c0-1.61 1.3-2.91 2.91-2.91v0c1.6.0 2.91 1.3 2.91 2.91v0c0 1.6-1.3 2.91-2.91 2.91v0C155.72 141.93 154.42 140.63 154.42 139.03zM154.42 120.05c0-1.61 1.3-2.91 2.91-2.91v0c1.6.0 2.91 1.3 2.91 2.91v0c0 1.6-1.3 2.91-2.91 2.91v0C155.72 122.96 154.42 121.66 154.42 120.05zM154.42 101.1c0-1.6 1.3-2.91 2.91-2.91v0c1.6.0 2.91 1.3 2.91 2.91v0c0 1.61-1.3 2.91-2.91 2.91v0C155.72 104.01 154.42 102.71 154.42 101.1zm0-18.97c0-1.6 1.3-2.91 2.91-2.91v0c1.6.0 2.91 1.3 2.91 2.91v0c0 1.61-1.3 2.91-2.91 2.91v0C155.72 85.04 154.42 83.74 154.42 82.13zm0-18.97c0-1.58 1.3-2.91 2.91-2.91v0c1.6.0 2.91 1.32 2.91 2.91v0c0 1.63-1.3 2.91-2.91 2.91v0C155.72 66.07 154.42 64.79 154.42 63.16zM154.42 44.21c0-1.61 1.3-2.91 2.91-2.91v0c1.6.0 2.91 1.3 2.91 2.91v0c0 1.61-1.3 2.91-2.91 2.91v0C155.72 47.12 154.42 45.81 154.42 44.21zm0-18.95c0-1.63 1.3-2.91 2.91-2.91v0c1.6.0 2.91 1.28 2.91 2.91v0c0 1.58-1.3 2.91-2.91 2.91v0C155.72 28.17 154.42 26.84 154.42 25.26z"/></g><g><path class="st0" d="M157.32 369.48c-.79.0-1.51-.3-2.07-.86-.26-.28-.47-.58-.63-.93-.14-.37-.21-.74-.21-1.11.0-.19.02-.4.05-.58.05-.19.09-.37.16-.54.07-.19.16-.35.28-.51.09-.14.23-.3.35-.44.67-.67 1.7-.98 2.63-.79.19.05.37.09.56.16.16.07.33.16.49.28.16.09.3.23.44.35.14.14.26.3.37.44.09.16.19.32.26.51.07.16.14.35.16.54.05.18.07.4.07.58.0.37-.07.74-.23 1.11-.14.35-.35.65-.63.93C158.83 369.18 158.09 369.48 157.32 369.48z"/></g></g><g><g><path class="st0" d="M173.55 9.2c-.37.0-.77-.07-1.12-.23-.35-.14-.65-.35-.93-.63-.28-.26-.49-.58-.63-.93-.16-.35-.23-.74-.23-1.11.0-.77.3-1.51.86-2.05.12-.14.28-.25.44-.37.14-.12.33-.19.49-.28.19-.07.37-.12.56-.16.37-.07.74-.07 1.14.0.16.05.35.09.53.16.16.09.35.16.51.28.14.12.3.23.44.37.53.54.84 1.28.84 2.05.0.37-.07.77-.21 1.11-.16.35-.37.67-.63.93C175.06 8.89 174.34 9.2 173.55 9.2z"/></g><g><path class="st0" d="M170.64 347.6c0-1.61 1.3-2.91 2.91-2.91v0c1.6.0 2.91 1.3 2.91 2.91v0c0 1.6-1.3 2.91-2.91 2.91v0C171.95 350.51 170.64 349.21 170.64 347.6zM170.64 328.65c0-1.63 1.3-2.91 2.91-2.91v0c1.6.0 2.91 1.28 2.91 2.91v0c0 1.61-1.3 2.91-2.91 2.91v0C171.95 331.56 170.64 330.26 170.64 328.65zM170.64 309.68c0-1.6 1.3-2.91 2.91-2.91v0c1.6.0 2.91 1.3 2.91 2.91v0c0 1.61-1.3 2.91-2.91 2.91v0C171.95 312.59 170.64 311.29 170.64 309.68zM170.64 290.71c0-1.6 1.3-2.91 2.91-2.91v0c1.6.0 2.91 1.3 2.91 2.91v0c0 1.61-1.3 2.91-2.91 2.91v0C171.95 293.62 170.64 292.31 170.64 290.71zM170.64 271.76c0-1.61 1.3-2.91 2.91-2.91v0c1.6.0 2.91 1.3 2.91 2.91v0c0 1.6-1.3 2.91-2.91 2.91v0C171.95 274.67 170.64 273.36 170.64 271.76zm0-18.97c0-1.61 1.3-2.91 2.91-2.91v0c1.6.0 2.91 1.3 2.91 2.91v0c0 1.61-1.3 2.91-2.91 2.91v0C171.95 255.69 170.64 254.39 170.64 252.79zM170.64 233.84c0-1.6 1.3-2.91 2.91-2.91v0c1.6.0 2.91 1.3 2.91 2.91v0c0 1.61-1.3 2.91-2.91 2.91v0C171.95 236.74 170.64 235.44 170.64 233.84zm0-18.97c0-1.61 1.3-2.91 2.91-2.91v0c1.6.0 2.91 1.3 2.91 2.91v0c0 1.6-1.3 2.91-2.91 2.91v0C171.95 217.77 170.64 216.47 170.64 214.87zM170.64 195.92c0-1.61 1.3-2.91 2.91-2.91v0c1.6.0 2.91 1.3 2.91 2.91v0c0 1.61-1.3 2.91-2.91 2.91v0C171.95 198.82 170.64 197.52 170.64 195.92zm0-18.97c0-1.6 1.3-2.91 2.91-2.91v0c1.6.0 2.91 1.3 2.91 2.91v0c0 1.61-1.3 2.91-2.91 2.91v0C171.95 179.85 170.64 178.55 170.64 176.95zM170.64 157.97c0-1.6 1.3-2.91 2.91-2.91v0c1.6.0 2.91 1.3 2.91 2.91v0c0 1.61-1.3 2.91-2.91 2.91v0C171.95 160.88 170.64 159.58 170.64 157.97zM170.64 139.03c0-1.61 1.3-2.91 2.91-2.91v0c1.6.0 2.91 1.3 2.91 2.91v0c0 1.6-1.3 2.91-2.91 2.91v0C171.95 141.93 170.64 140.63 170.64 139.03zM170.64 120.05c0-1.61 1.3-2.91 2.91-2.91v0c1.6.0 2.91 1.3 2.91 2.91v0c0 1.6-1.3 2.91-2.91 2.91v0C171.95 122.96 170.64 121.66 170.64 120.05zM170.64 101.1c0-1.6 1.3-2.91 2.91-2.91v0c1.6.0 2.91 1.3 2.91 2.91v0c0 1.61-1.3 2.91-2.91 2.91v0C171.95 104.01 170.64 102.71 170.64 101.1zm0-18.97c0-1.6 1.3-2.91 2.91-2.91v0c1.6.0 2.91 1.3 2.91 2.91v0c0 1.61-1.3 2.91-2.91 2.91v0C171.95 85.04 170.64 83.74 170.64 82.13zm0-18.97c0-1.58 1.3-2.91 2.91-2.91v0c1.6.0 2.91 1.32 2.91 2.91v0c0 1.63-1.3 2.91-2.91 2.91v0C171.95 66.07 170.64 64.79 170.64 63.16zM170.64 44.21c0-1.61 1.3-2.91 2.91-2.91v0c1.6.0 2.91 1.3 2.91 2.91v0c0 1.61-1.3 2.91-2.91 2.91v0C171.95 47.12 170.64 45.81 170.64 44.21zm0-18.95c0-1.63 1.3-2.91 2.91-2.91v0c1.6.0 2.91 1.28 2.91 2.91v0c0 1.58-1.3 2.91-2.91 2.91v0C171.95 28.17 170.64 26.84 170.64 25.26z"/></g><g><path class="st0" d="M173.55 369.48c-.77.0-1.51-.3-2.05-.86-.56-.54-.86-1.28-.86-2.05.0-.19.02-.4.07-.58.02-.19.09-.37.16-.54.07-.19.16-.35.26-.51.12-.14.23-.3.37-.44.67-.67 1.67-.98 2.63-.79.19.05.35.09.53.16.16.07.35.16.51.28.14.09.3.23.44.35.12.14.26.3.35.44.12.16.19.32.28.51.07.16.12.35.16.54.02.18.05.4.05.58.0.37-.07.74-.21 1.11-.16.35-.37.65-.63.93C175.06 369.18 174.34 369.48 173.55 369.48z"/></g></g><g><g><path class="st0" d="M189.78 9.2c-.37.0-.74-.07-1.09-.23-.35-.14-.67-.35-.95-.63-.28-.26-.49-.58-.63-.93-.14-.35-.21-.74-.21-1.11.0-.19.0-.4.05-.58.05-.19.09-.35.16-.54.07-.16.16-.35.28-.49.09-.16.21-.32.35-.44 1.09-1.09 3.05-1.09 4.12.0.53.54.86 1.28.86 2.05.0.37-.09.77-.23 1.11-.14.35-.35.67-.63.93C191.29 8.89 190.57 9.2 189.78 9.2z"/></g><g><path class="st0" d="M186.9 347.6c0-1.61 1.3-2.91 2.91-2.91v0c1.58.0 2.91 1.3 2.91 2.91v0c0 1.6-1.33 2.91-2.91 2.91v0C188.2 350.51 186.9 349.21 186.9 347.6zM186.9 328.65c0-1.63 1.3-2.91 2.91-2.91v0c1.58.0 2.91 1.28 2.91 2.91v0c0 1.61-1.33 2.91-2.91 2.91v0C188.2 331.56 186.9 330.26 186.9 328.65zM186.9 309.68c0-1.6 1.3-2.91 2.91-2.91v0c1.58.0 2.91 1.3 2.91 2.91v0c0 1.61-1.33 2.91-2.91 2.91v0C188.2 312.59 186.9 311.29 186.9 309.68zM186.9 290.71c0-1.6 1.3-2.91 2.91-2.91v0c1.58.0 2.91 1.3 2.91 2.91v0c0 1.61-1.33 2.91-2.91 2.91v0C188.2 293.62 186.9 292.31 186.9 290.71zM186.9 271.76c0-1.61 1.3-2.91 2.91-2.91v0c1.58.0 2.91 1.3 2.91 2.91v0c0 1.6-1.33 2.91-2.91 2.91v0C188.2 274.67 186.9 273.36 186.9 271.76zm0-18.97c0-1.61 1.3-2.91 2.91-2.91v0c1.58.0 2.91 1.3 2.91 2.91v0c0 1.61-1.33 2.91-2.91 2.91v0C188.2 255.69 186.9 254.39 186.9 252.79zM186.9 233.84c0-1.6 1.3-2.91 2.91-2.91v0c1.58.0 2.91 1.3 2.91 2.91v0c0 1.61-1.33 2.91-2.91 2.91v0C188.2 236.74 186.9 235.44 186.9 233.84zm0-18.97c0-1.61 1.3-2.91 2.91-2.91v0c1.58.0 2.91 1.3 2.91 2.91v0c0 1.6-1.33 2.91-2.91 2.91v0C188.2 217.77 186.9 216.47 186.9 214.87zM186.9 195.92c0-1.61 1.3-2.91 2.91-2.91v0c1.58.0 2.91 1.3 2.91 2.91v0c0 1.61-1.33 2.91-2.91 2.91v0C188.2 198.82 186.9 197.52 186.9 195.92zm0-18.97c0-1.6 1.3-2.91 2.91-2.91v0c1.58.0 2.91 1.3 2.91 2.91v0c0 1.61-1.33 2.91-2.91 2.91v0C188.2 179.85 186.9 178.55 186.9 176.95zM186.9 157.97c0-1.6 1.3-2.91 2.91-2.91v0c1.58.0 2.91 1.3 2.91 2.91v0c0 1.61-1.33 2.91-2.91 2.91v0C188.2 160.88 186.9 159.58 186.9 157.97zM186.9 139.03c0-1.61 1.3-2.91 2.91-2.91v0c1.58.0 2.91 1.3 2.91 2.91v0c0 1.6-1.33 2.91-2.91 2.91v0C188.2 141.93 186.9 140.63 186.9 139.03zM186.9 120.05c0-1.61 1.3-2.91 2.91-2.91v0c1.58.0 2.91 1.3 2.91 2.91v0c0 1.6-1.33 2.91-2.91 2.91v0C188.2 122.96 186.9 121.66 186.9 120.05zM186.9 101.1c0-1.6 1.3-2.91 2.91-2.91v0c1.58.0 2.91 1.3 2.91 2.91v0c0 1.61-1.33 2.91-2.91 2.91v0C188.2 104.01 186.9 102.71 186.9 101.1zm0-18.97c0-1.6 1.3-2.91 2.91-2.91v0c1.58.0 2.91 1.3 2.91 2.91v0c0 1.61-1.33 2.91-2.91 2.91v0C188.2 85.04 186.9 83.74 186.9 82.13zm0-18.97c0-1.58 1.3-2.91 2.91-2.91v0c1.58.0 2.91 1.32 2.91 2.91v0c0 1.63-1.33 2.91-2.91 2.91v0C188.2 66.07 186.9 64.79 186.9 63.16zM186.9 44.21c0-1.61 1.3-2.91 2.91-2.91v0c1.58.0 2.91 1.3 2.91 2.91v0c0 1.61-1.33 2.91-2.91 2.91v0C188.2 47.12 186.9 45.81 186.9 44.21zm0-18.95c0-1.63 1.3-2.91 2.91-2.91v0c1.58.0 2.91 1.28 2.91 2.91v0c0 1.58-1.33 2.91-2.91 2.91v0C188.2 28.17 186.9 26.84 186.9 25.26z"/></g><g><path class="st0" d="M189.8 369.48c-.79.0-1.51-.3-2.07-.86-.53-.54-.84-1.28-.84-2.05.0-.19.0-.4.05-.58.05-.19.09-.37.16-.54.07-.19.16-.35.28-.51.09-.14.21-.3.35-.44.67-.67 1.67-.98 2.63-.79.19.05.37.09.53.16.19.07.35.16.51.28.16.09.3.23.44.35.14.14.26.3.37.44.09.16.19.32.26.51.07.16.12.35.16.54.05.18.07.4.07.58.0.37-.09.74-.23 1.11-.14.35-.35.65-.63.93C191.29 369.18 190.57 369.48 189.8 369.48z"/></g></g><g><g><path class="st0" d="M206.03 9.2c-.4.0-.77-.07-1.12-.23-.35-.14-.67-.35-.95-.63-.26-.26-.46-.58-.63-.93-.14-.35-.21-.74-.21-1.11.0-.77.3-1.51.84-2.05.14-.14.3-.25.44-.37.16-.12.33-.19.51-.28.19-.07.35-.12.53-.16.95-.16 1.98.12 2.63.81.56.54.86 1.28.86 2.05.0.37-.07.77-.23 1.11-.14.35-.35.67-.63.93C207.54 8.89 206.8 9.2 206.03 9.2z"/></g><g><path class="st0" d="M203.13 347.6c0-1.61 1.3-2.91 2.91-2.91v0c1.6.0 2.91 1.3 2.91 2.91v0c0 1.6-1.3 2.91-2.91 2.91v0C204.43 350.51 203.13 349.21 203.13 347.6zM203.13 328.65c0-1.63 1.3-2.91 2.91-2.91v0c1.6.0 2.91 1.28 2.91 2.91v0c0 1.61-1.3 2.91-2.91 2.91v0C204.43 331.56 203.13 330.26 203.13 328.65zM203.13 309.68c0-1.6 1.3-2.91 2.91-2.91v0c1.6.0 2.91 1.3 2.91 2.91v0c0 1.61-1.3 2.91-2.91 2.91v0C204.43 312.59 203.13 311.29 203.13 309.68zM203.13 290.71c0-1.6 1.3-2.91 2.91-2.91v0c1.6.0 2.91 1.3 2.91 2.91v0c0 1.61-1.3 2.91-2.91 2.91v0C204.43 293.62 203.13 292.31 203.13 290.71zM203.13 271.76c0-1.61 1.3-2.91 2.91-2.91v0c1.6.0 2.91 1.3 2.91 2.91v0c0 1.6-1.3 2.91-2.91 2.91v0C204.43 274.67 203.13 273.36 203.13 271.76zm0-18.97c0-1.61 1.3-2.91 2.91-2.91v0c1.6.0 2.91 1.3 2.91 2.91v0c0 1.61-1.3 2.91-2.91 2.91v0C204.43 255.69 203.13 254.39 203.13 252.79zM203.13 233.84c0-1.6 1.3-2.91 2.91-2.91v0c1.6.0 2.91 1.3 2.91 2.91v0c0 1.61-1.3 2.91-2.91 2.91v0C204.43 236.74 203.13 235.44 203.13 233.84zm0-18.97c0-1.61 1.3-2.91 2.91-2.91v0c1.6.0 2.91 1.3 2.91 2.91v0c0 1.6-1.3 2.91-2.91 2.91v0C204.43 217.77 203.13 216.47 203.13 214.87zM203.13 195.92c0-1.61 1.3-2.91 2.91-2.91v0c1.6.0 2.91 1.3 2.91 2.91v0c0 1.61-1.3 2.91-2.91 2.91v0C204.43 198.82 203.13 197.52 203.13 195.92zm0-18.97c0-1.6 1.3-2.91 2.91-2.91v0c1.6.0 2.91 1.3 2.91 2.91v0c0 1.61-1.3 2.91-2.91 2.91v0C204.43 179.85 203.13 178.55 203.13 176.95zM203.13 157.97c0-1.6 1.3-2.91 2.91-2.91v0c1.6.0 2.91 1.3 2.91 2.91v0c0 1.61-1.3 2.91-2.91 2.91v0C204.43 160.88 203.13 159.58 203.13 157.97zM203.13 139.03c0-1.61 1.3-2.91 2.91-2.91v0c1.6.0 2.91 1.3 2.91 2.91v0c0 1.6-1.3 2.91-2.91 2.91v0C204.43 141.93 203.13 140.63 203.13 139.03zM203.13 120.05c0-1.61 1.3-2.91 2.91-2.91v0c1.6.0 2.91 1.3 2.91 2.91v0c0 1.6-1.3 2.91-2.91 2.91v0C204.43 122.96 203.13 121.66 203.13 120.05zM203.13 101.1c0-1.6 1.3-2.91 2.91-2.91v0c1.6.0 2.91 1.3 2.91 2.91v0c0 1.61-1.3 2.91-2.91 2.91v0C204.43 104.01 203.13 102.71 203.13 101.1zm0-18.97c0-1.6 1.3-2.91 2.91-2.91v0c1.6.0 2.91 1.3 2.91 2.91v0c0 1.61-1.3 2.91-2.91 2.91v0C204.43 85.04 203.13 83.74 203.13 82.13zm0-18.97c0-1.58 1.3-2.91 2.91-2.91v0c1.6.0 2.91 1.32 2.91 2.91v0c0 1.63-1.3 2.91-2.91 2.91v0C204.43 66.07 203.13 64.79 203.13 63.16zM203.13 44.21c0-1.61 1.3-2.91 2.91-2.91v0c1.6.0 2.91 1.3 2.91 2.91v0c0 1.61-1.3 2.91-2.91 2.91v0C204.43 47.12 203.13 45.81 203.13 44.21zm0-18.95c0-1.63 1.3-2.91 2.91-2.91v0c1.6.0 2.91 1.28 2.91 2.91v0c0 1.58-1.3 2.91-2.91 2.91v0C204.43 28.17 203.13 26.84 203.13 25.26z"/></g><g><path class="st0" d="M206.03 369.48c-.4.0-.77-.07-1.12-.23-.35-.14-.67-.35-.95-.63-.26-.28-.46-.58-.63-.93-.14-.37-.21-.74-.21-1.11.0-.19.02-.4.05-.58.05-.19.09-.37.16-.54.07-.19.16-.35.28-.51.09-.14.23-.3.35-.44.14-.12.3-.25.44-.35.16-.12.33-.21.51-.28.19-.07.35-.12.53-.16.95-.19 1.95.12 2.63.79.56.54.86 1.3.86 2.07.0.37-.07.74-.23 1.11-.14.35-.35.65-.63.93-.28.28-.58.49-.93.63C206.8 369.41 206.4 369.48 206.03 369.48z"/></g></g><g><g><path class="st0" d="M222.26 9.2c-.37.0-.77-.07-1.12-.23-.35-.14-.65-.35-.93-.63-.28-.26-.49-.58-.63-.93-.16-.35-.23-.74-.23-1.11.0-.77.33-1.51.86-2.05.14-.14.28-.25.44-.37.16-.12.32-.19.49-.28.19-.07.37-.12.56-.16.95-.16 1.95.12 2.63.81.53.54.84 1.28.84 2.05.0.37-.07.77-.21 1.11-.14.35-.37.67-.63.93C223.77 8.89 223.05 9.2 222.26 9.2z"/></g><g><path class="st0" d="M219.35 347.6c0-1.61 1.3-2.91 2.91-2.91v0c1.6.0 2.91 1.3 2.91 2.91v0c0 1.6-1.3 2.91-2.91 2.91v0C220.66 350.51 219.35 349.21 219.35 347.6zM219.35 328.65c0-1.63 1.3-2.91 2.91-2.91v0c1.6.0 2.91 1.28 2.91 2.91v0c0 1.61-1.3 2.91-2.91 2.91v0C220.66 331.56 219.35 330.26 219.35 328.65zM219.35 309.68c0-1.6 1.3-2.91 2.91-2.91v0c1.6.0 2.91 1.3 2.91 2.91v0c0 1.61-1.3 2.91-2.91 2.91v0C220.66 312.59 219.35 311.29 219.35 309.68zM219.35 290.71c0-1.6 1.3-2.91 2.91-2.91v0c1.6.0 2.91 1.3 2.91 2.91v0c0 1.61-1.3 2.91-2.91 2.91v0C220.66 293.62 219.35 292.31 219.35 290.71zM219.35 271.76c0-1.61 1.3-2.91 2.91-2.91v0c1.6.0 2.91 1.3 2.91 2.91v0c0 1.6-1.3 2.91-2.91 2.91v0C220.66 274.67 219.35 273.36 219.35 271.76zm0-18.97c0-1.61 1.3-2.91 2.91-2.91v0c1.6.0 2.91 1.3 2.91 2.91v0c0 1.61-1.3 2.91-2.91 2.91v0C220.66 255.69 219.35 254.39 219.35 252.79zM219.35 233.84c0-1.6 1.3-2.91 2.91-2.91v0c1.6.0 2.91 1.3 2.91 2.91v0c0 1.61-1.3 2.91-2.91 2.91v0C220.66 236.74 219.35 235.44 219.35 233.84zm0-18.97c0-1.61 1.3-2.91 2.91-2.91v0c1.6.0 2.91 1.3 2.91 2.91v0c0 1.6-1.3 2.91-2.91 2.91v0C220.66 217.77 219.35 216.47 219.35 214.87zM219.35 195.92c0-1.61 1.3-2.91 2.91-2.91v0c1.6.0 2.91 1.3 2.91 2.91v0c0 1.61-1.3 2.91-2.91 2.91v0C220.66 198.82 219.35 197.52 219.35 195.92zm0-18.97c0-1.6 1.3-2.91 2.91-2.91v0c1.6.0 2.91 1.3 2.91 2.91v0c0 1.61-1.3 2.91-2.91 2.91v0C220.66 179.85 219.35 178.55 219.35 176.95zM219.35 157.97c0-1.6 1.3-2.91 2.91-2.91v0c1.6.0 2.91 1.3 2.91 2.91v0c0 1.61-1.3 2.91-2.91 2.91v0C220.66 160.88 219.35 159.58 219.35 157.97zM219.35 139.03c0-1.61 1.3-2.91 2.91-2.91v0c1.6.0 2.91 1.3 2.91 2.91v0c0 1.6-1.3 2.91-2.91 2.91v0C220.66 141.93 219.35 140.63 219.35 139.03zM219.35 120.05c0-1.61 1.3-2.91 2.91-2.91v0c1.6.0 2.91 1.3 2.91 2.91v0c0 1.6-1.3 2.91-2.91 2.91v0C220.66 122.96 219.35 121.66 219.35 120.05zM219.35 101.1c0-1.6 1.3-2.91 2.91-2.91v0c1.6.0 2.91 1.3 2.91 2.91v0c0 1.61-1.3 2.91-2.91 2.91v0C220.66 104.01 219.35 102.71 219.35 101.1zm0-18.97c0-1.6 1.3-2.91 2.91-2.91v0c1.6.0 2.91 1.3 2.91 2.91v0c0 1.61-1.3 2.91-2.91 2.91v0C220.66 85.04 219.35 83.74 219.35 82.13zm0-18.97c0-1.58 1.3-2.91 2.91-2.91v0c1.6.0 2.91 1.32 2.91 2.91v0c0 1.63-1.3 2.91-2.91 2.91v0C220.66 66.07 219.35 64.79 219.35 63.16zM219.35 44.21c0-1.61 1.3-2.91 2.91-2.91v0c1.6.0 2.91 1.3 2.91 2.91v0c0 1.61-1.3 2.91-2.91 2.91v0C220.66 47.12 219.35 45.81 219.35 44.21zm0-18.95c0-1.63 1.3-2.91 2.91-2.91v0c1.6.0 2.91 1.28 2.91 2.91v0c0 1.58-1.3 2.91-2.91 2.91v0C220.66 28.17 219.35 26.84 219.35 25.26z"/></g><g><path class="st0" d="M222.26 369.48c-.37.0-.74-.07-1.12-.23-.35-.14-.65-.35-.93-.63-.28-.28-.49-.58-.63-.93-.16-.37-.23-.74-.23-1.11.0-.19.02-.4.07-.58.02-.19.09-.37.16-.54.07-.19.16-.35.26-.51.12-.14.23-.3.37-.44.14-.12.28-.25.44-.35.16-.12.32-.21.49-.28.19-.07.37-.12.56-.16.93-.19 1.93.12 2.63.79.53.54.84 1.3.84 2.07.0.37-.07.74-.21 1.11-.16.35-.37.65-.63.93-.28.28-.61.49-.95.63C223.03 369.41 222.66 369.48 222.26 369.48z"/></g></g><g><g><path class="st0" d="M238.51 9.2c-.4.0-.77-.07-1.12-.23-.35-.14-.67-.35-.95-.63-.26-.26-.49-.58-.63-.93-.14-.35-.21-.74-.21-1.11.0-.19.0-.4.05-.58.05-.19.09-.35.16-.54.07-.16.16-.35.28-.49.09-.16.21-.32.35-.44 1.09-1.09 3.05-1.09 4.12.0.53.54.86 1.28.86 2.05.0.37-.09.77-.23 1.11-.14.35-.35.67-.63.93C240 8.89 239.28 9.2 238.51 9.2z"/></g><g><path class="st0" d="M235.61 347.6c0-1.61 1.3-2.91 2.91-2.91v0c1.61.0 2.91 1.3 2.91 2.91v0c0 1.6-1.3 2.91-2.91 2.91v0C236.91 350.51 235.61 349.21 235.61 347.6zM235.61 328.65c0-1.63 1.3-2.91 2.91-2.91v0c1.61.0 2.91 1.28 2.91 2.91v0c0 1.61-1.3 2.91-2.91 2.91v0C236.91 331.56 235.61 330.26 235.61 328.65zM235.61 309.68c0-1.6 1.3-2.91 2.91-2.91v0c1.61.0 2.91 1.3 2.91 2.91v0c0 1.61-1.3 2.91-2.91 2.91v0C236.91 312.59 235.61 311.29 235.61 309.68zM235.61 290.71c0-1.6 1.3-2.91 2.91-2.91v0c1.61.0 2.91 1.3 2.91 2.91v0c0 1.61-1.3 2.91-2.91 2.91v0C236.91 293.62 235.61 292.31 235.61 290.71zM235.61 271.76c0-1.61 1.3-2.91 2.91-2.91v0c1.61.0 2.91 1.3 2.91 2.91v0c0 1.6-1.3 2.91-2.91 2.91v0C236.91 274.67 235.61 273.36 235.61 271.76zm0-18.97c0-1.61 1.3-2.91 2.91-2.91v0c1.61.0 2.91 1.3 2.91 2.91v0c0 1.61-1.3 2.91-2.91 2.91v0C236.91 255.69 235.61 254.39 235.61 252.79zM235.61 233.84c0-1.6 1.3-2.91 2.91-2.91v0c1.61.0 2.91 1.3 2.91 2.91v0c0 1.61-1.3 2.91-2.91 2.91v0C236.91 236.74 235.61 235.44 235.61 233.84zm0-18.97c0-1.61 1.3-2.91 2.91-2.91v0c1.61.0 2.91 1.3 2.91 2.91v0c0 1.6-1.3 2.91-2.91 2.91v0C236.91 217.77 235.61 216.47 235.61 214.87zM235.61 195.92c0-1.61 1.3-2.91 2.91-2.91v0c1.61.0 2.91 1.3 2.91 2.91v0c0 1.61-1.3 2.91-2.91 2.91v0C236.91 198.82 235.61 197.52 235.61 195.92zm0-18.97c0-1.6 1.3-2.91 2.91-2.91v0c1.61.0 2.91 1.3 2.91 2.91v0c0 1.61-1.3 2.91-2.91 2.91v0C236.91 179.85 235.61 178.55 235.61 176.95zM235.61 157.97c0-1.6 1.3-2.91 2.91-2.91v0c1.61.0 2.91 1.3 2.91 2.91v0c0 1.61-1.3 2.91-2.91 2.91v0C236.91 160.88 235.61 159.58 235.61 157.97zM235.61 139.03c0-1.61 1.3-2.91 2.91-2.91v0c1.61.0 2.91 1.3 2.91 2.91v0c0 1.6-1.3 2.91-2.91 2.91v0C236.91 141.93 235.61 140.63 235.61 139.03zM235.61 120.05c0-1.61 1.3-2.91 2.91-2.91v0c1.61.0 2.91 1.3 2.91 2.91v0c0 1.6-1.3 2.91-2.91 2.91v0C236.91 122.96 235.61 121.66 235.61 120.05zM235.61 101.1c0-1.6 1.3-2.91 2.91-2.91v0c1.61.0 2.91 1.3 2.91 2.91v0c0 1.61-1.3 2.91-2.91 2.91v0C236.91 104.01 235.61 102.71 235.61 101.1zm0-18.97c0-1.6 1.3-2.91 2.91-2.91v0c1.61.0 2.91 1.3 2.91 2.91v0c0 1.61-1.3 2.91-2.91 2.91v0C236.91 85.04 235.61 83.74 235.61 82.13zm0-18.97c0-1.58 1.3-2.91 2.91-2.91v0c1.61.0 2.91 1.32 2.91 2.91v0c0 1.63-1.3 2.91-2.91 2.91v0C236.91 66.07 235.61 64.79 235.61 63.16zM235.61 44.21c0-1.61 1.3-2.91 2.91-2.91v0c1.61.0 2.91 1.3 2.91 2.91v0c0 1.61-1.3 2.91-2.91 2.91v0C236.91 47.12 235.61 45.81 235.61 44.21zm0-18.95c0-1.63 1.3-2.91 2.91-2.91v0c1.61.0 2.91 1.28 2.91 2.91v0c0 1.58-1.3 2.91-2.91 2.91v0C236.91 28.17 235.61 26.84 235.61 25.26z"/></g><g><path class="st0" d="M238.51 369.48c-.79.0-1.51-.3-2.07-.86-.28-.28-.49-.58-.63-.93-.14-.37-.21-.74-.21-1.11.0-.19.0-.4.05-.58.05-.19.09-.37.16-.54.07-.19.16-.35.28-.51.09-.14.21-.3.35-.44.14-.12.28-.25.44-.35.16-.12.33-.21.51-.28.16-.07.35-.12.53-.16.37-.07.77-.07 1.14.0.19.05.37.09.53.16.19.07.35.16.51.28.16.09.3.23.44.35.14.14.26.3.35.44.12.16.21.32.28.51.07.16.14.35.16.54.05.18.07.4.07.58.0.37-.09.74-.23 1.11-.14.35-.35.65-.63.93-.28.28-.58.49-.95.63C239.26 369.41 238.88 369.48 238.51 369.48z"/></g></g></g><g><path transform="matrix(0.7071 0.7071 -0.7071 0.7071 174.8644 -277.8118)" class="st1" d="M363.42 52.55h118.72V91.8H363.42z"/><path transform="matrix(-0.7071 0.7071 -0.7071 -0.7071 772.7662 -175.7423)" class="st1" d="M363.42 52.55h118.72V91.8H363.42z"/></g></svg>